<svg xmlns="http://www.w3.org/2000/svg" viewBox="0 0 685.98 551.14"><defs><style>.cls-1{fill:#252525;}</style></defs><title>Camada 1</title><g id="Camada_2" data-name="Camada 2"><g id="Camada_1-2" data-name="Camada 1"><path class="cls-1" d="M27,106.93c-.05-.25-.09-.5-.13-.74,0,.26.09.54.14.85v-.11Z"/><path class="cls-1" d="M41.39,392.94c.14-.8.25-1.61.39-2.42q.66-4,1.48-7.92a242.07,242.07,0,0,1,7.5-26.8c5.85-17.55,12.88-34.67,18.87-52.17,6.07-17.73,12-35.56,16.05-53.88a282.82,282.82,0,0,0,1.5-114.88q-1.38-7-3.09-14c-1.55-6.24-4.56-12.27-7.24-18.12A257.62,257.62,0,0,0,63.79,78c-2.55-4.28-5.13-8.65-8-12.74a60.54,60.54,0,0,0-6.33-7c-.58-.61-1.23-1.25-1.78-1.91a19.43,19.43,0,0,0-1.21-2.14C41.25,45.47,35.65,36,27.86,29.55,19.59,22.67,6.13,28.87,9.09,40.4a92.66,92.66,0,0,0,5.6,14.7c1.73,3.89,3.8,8.41,4.92,11.21.42,1,.88,2,1.22,3.1a5,5,0,0,1,.16.67c.38,3.43.29,6.79,1,10.21,1,4.64,2.11,9.25,3,13.93.73,4,1.14,8,1.88,12-.24-1.53-.18-2,.13.74l.12.66c0-.19-.07-.37-.11-.55.12,1,.24,2.1.34,3.14.23,2.17.42,4.34.61,6.51.87,10.1,2.54,20,4,30,3.06,25.66,3.76,51.53.65,77.2C29.16,246,23.4,267.51,17,289A429.59,429.59,0,0,0,1.42,363.32c-2.61,23.06-1.79,45.37,3.89,67.93C8,441.79,10.39,454,16.11,463.3c5.33,8.72,9.29,18.2,14.68,26.93a327.64,327.64,0,0,0,19.9,29.37c7.4,9.49,16,17,25.68,24.16,4.34,3.18,8.13-3.3,5.32-6.86-5.12-6.47-9.47-13.45-14.28-20.14a189.87,189.87,0,0,1-13-20.89,114.66,114.66,0,0,1-8.47-21.32c-1.15-3.8-2.15-7.63-3.1-11.49-1.15-4.66-.62-6.76-1.28-11.67-.31-2.23-.71-4.44-1.06-6.67-.16-1-.32-2.06-.46-3.1,0-.2,0-.41-.08-.68-.46-4.17-.84-8.35-1-12.55a173.83,173.83,0,0,1,1.19-23.81C40.6,400.71,41,396.82,41.39,392.94Z"/><path class="cls-1" d="M391.78,481.41c-1.48-20.89-7.86-39.79-16.39-58.77-3.92-8.71-8.22-17.25-12.32-25.88-.9-1.88-1.8-3.77-2.66-5.67-.73-1.59-4.49-8-1-2.08-2.29-3.83-3.54-9-4.92-13.26a192.3,192.3,0,0,1-6.3-26.37c0,.06,0,.1-.07.11a5.36,5.36,0,0,0-.06-.84l-.18-1c-.33-1.95-.21-1.75,0-1-.06-.53-.1-.9-.09-.8-.19-2.11-.33-4.22-.44-6.33-.25-5.14-.26-10.29-.07-15.44.16-4.57.5-9.13,1-13.68.22-2.12.57-4.25.75-6.38-.68,8.11.14-.51.53-2.74,1.67-9.7,3.68-19.39,6-29,4.52-19,11-37.38,15.7-56.29,5.09-20.58,9.58-41.21,12.35-62.25,2.27-17.21,4.29-34.46,3.19-51.84-1.25-19.71-5.12-40.5-14.32-58.16-9-17.21-22.13-30.92-37.95-42C329.34-1.78,321.59.33,318.06,5a12.79,12.79,0,0,0,.94,16.7,64.77,64.77,0,0,1,11.7,16.76c.78,1.51,1.5,3,2.23,4.59-1.88-4,1.09,2.53,1.16,2.7.39.89.83,1.77,1.23,2.66l.19.44c.19.52.46,1.25.55,1.47q1.14,3.07,2.12,6.19A220.16,220.16,0,0,1,344,78c.35,1.71.66,3.43.95,5.16.15.89.28,1.79.42,2.68.38,3.83.75,7.66,1,11.51a176.92,176.92,0,0,1-.2,22.56c-.12,1.74-.27,3.48-.45,5.21-.08.82-.47,4-.5,4.44a126.31,126.31,0,0,1-2.63,13.06c-4.71,18.3-11.28,36.07-18.21,53.63-14.61,37-27.28,75.12-30.88,115a191.44,191.44,0,0,0,4,60.51c4.48,19.19,14.81,37.1,24.47,54.1,5,8.8,10.11,17.53,14.67,26.56q1.78,3.54,3.45,7.12c.33.71.64,1.41,1,2.12,1.56,4.27,3.15,8.5,4.37,12.89.65,2.36,1.23,4.73,1.73,7.13.22,1.05.42,2.11.61,3.18v0c-.23,1.82.47,4.29.55,6.07.1,2.37.09,4.76,0,7.13-.44,8.77-1,17.34-.94,26.11a14.5,14.5,0,0,0,21.56,12.47C388.5,525.48,393.27,502.42,391.78,481.41Z"/><path class="cls-1" d="M348.22,349.38a10.31,10.31,0,0,0-.34-2.69c.07.59.15,1.37.21,2C348.13,348.89,348.17,349.14,348.22,349.38Z"/><path class="cls-1" d="M650.93,372.92c-3-10.7-6.3-21.33-8.63-32.21q-.79-3.72-1.46-7.45c-.21-1.24-.4-2.49-.61-3.74-.89-5.2,0,1.39.19,1.63-1-1.33-.65-6.76-.75-8.49-.18-3-.26-6-.24-9q.06-6.57.74-13.12c0-.21,0-.47.05-.75.41-2.43.81-4.86,1.3-7.27a220.34,220.34,0,0,1,6.82-25.41c5.73-17.43,12.51-34.52,19.08-51.64C681,180.11,691.41,141,682.89,103c-4.49-20-11-40-23.56-56.58C646.54,29.62,633,14.51,614.92,3.25A7.91,7.91,0,0,0,604.25,6c-2.4,4-.56,8.11,2.76,10.67C619.69,26.47,632.24,40,638.63,54.9a160,160,0,0,1,7.9,22.36q1.68,6.33,2.72,12.79c0,.18.17,1.18.27,1.8s.18,1.62.2,1.81q.35,3.41.5,6.82a87.79,87.79,0,0,1-.46,12.24c-.08,1-.67,5.26-.45,4.06-.35,2.1-.71,4.2-1.14,6.29a217.13,217.13,0,0,1-6.63,24.4q-2,5.9-4.27,11.67L636.1,162c-.32.78-1.67,3.65-.52,1.22l-.16.36c-.52,1.18-1,2.36-1.59,3.53-3.68,8.07-7.28,16.18-11,24.25-7.92,17.36-16.5,34.53-23.16,52.43A238.31,238.31,0,0,0,586,300.39c-2.44,21.35.53,43.19,5.62,64s13.46,40.43,20,60.74A237.45,237.45,0,0,1,620.42,460c.19,1.2.36,2.4.56,3.59v.16c.26,2.8.51,5.59.62,8.4a122.91,122.91,0,0,1-.27,13.84c-.07,1-.19,2-.26,3.06,0,.13,0,.24,0,.35-.39,2.17-.78,4.32-1.28,6.47a120.59,120.59,0,0,1-4.36,13.75c-1.49,4.09-3,8.25-4.22,12.43-.25.84-.6,1.81-.78,2.69l.33-.71q-1.05,2.22-2,4.52c1.5-3.5-2,5.2-2.39,6.17-3.71,9.59,7.1,18.31,15.93,16,22.47-5.81,35.07-25.6,41.77-46.48,7.08-22.06,6.62-45.11,3.09-67.73C663.83,414.87,656.88,394,650.93,372.92Z"/></g></g></svg>