<svg xmlns="http://www.w3.org/2000/svg" viewBox="0 0 1105.69 902.92"><defs><style>.cls-1{fill:#b27a36;}.cls-2{fill:#b21414;}.cls-3{fill:#841212;}.cls-4{fill:#b7ac20;}.cls-5{fill:#998e22;}.cls-6{fill:#63bace;}.cls-7{fill:#4f939e;}.cls-8{fill:#e8e4c5;}</style></defs><title>10. Seu jorge com cabelo</title><g id="Camada_2" data-name="Camada 2"><g id="_10._Seu_jorge_com_cabelo" data-name="10. Seu jorge com cabelo"><g id="Camada_39" data-name="Camada 39"><path class="cls-1" d="M860.62,164.72c-7-5.53-15.41-8-23.33-4.9a97,97,0,0,0-21.24-35.33c-6.4-6.75-18.48-8.61-26.45-3.5-7.6,4.86-13.62,15.44-10.11,24.62,4.39,11.52,8.6,23.11,12.89,34.67,2.16,5.84,4.13,11.85,6.7,17.48,0,1.7,0,3.4,0,5.1-.09,3.87-.35,7.74-.73,11.6-.2,2.08-.44,4.16-.68,6.23l-.27,2.28c-2.59,15.77-5.35,31.6-9.46,47.06-.92,3.44-1.91,6.87-3,10.25q-.9,2.73-1.9,5.41c-.28.77-.58,1.53-.87,2.29l-.09.25c-1.54,3.15-3,6.31-4.8,9.35-.81,1.39-1.67,2.76-2.56,4.1-.38.58-.77,1.15-1.17,1.72l-.27.38c-.33.35-2,2.42-2.44,2.89s-1.12,1.21-1.69,1.8a65.13,65.13,0,0,0-23.62,9.19,319.52,319.52,0,0,0-44.87,22.15,112.87,112.87,0,0,0-45.22,1.08,18.3,18.3,0,0,0-6.41,2.8c-8.44-4.85-16.62-10.2-25.05-15.05Q610.67,321,597.08,314a54.16,54.16,0,0,0-9.69-9.8c2.19-5.54,2.21-11.83-1.47-16.94-6.54-10.13-12.72-20.5-18.29-31.19-.1-.22-.21-.45-.32-.67-.45-1-.89-1.95-1.32-2.92q1.54,3.81-.28-.6t-.29-.61c-.41-1-.81-2-1.2-3-.59-1.5-1.17-3-1.72-4.51-1-2.8-2-5.63-2.89-8.47,6.58,3.95,15.27,4.84,21.83.31a92,92,0,0,0,8-6.27,41.55,41.55,0,0,0,17.09-17c5-9.77,3.33-21.3-5.54-28.21s-20.54-5.76-28.7,1.62c-2.66,2.41-5.51,4.77-8.3,7.2l-.31.09c-.68.15-1.15.27-1.45.36H562c-2,0-3.93.14-5.91.08a73.15,73.15,0,0,0-11.76.34c-3.59-9.33-14.81-15.59-24.6-12.44-11.31,3.63-19.85,12.52-21.89,24.42-1.74,10.18-.32,19.73,2.18,29.67s4.52,19.86,6.13,29.91c.42,2.57.78,5.15,1.16,7.73a1.65,1.65,0,0,0,0,.21c.15,1.49.35,3,.51,4.46.13,1.16.24,2.32.36,3.49a15.18,15.18,0,0,0-5.08,9c-1.74,11.23-.57,21.27,4.67,31.5,4.42,8.64,12,16,20.21,21.09,16.81,10.48,37.48,10.46,56.57,9.28q12.36,6.73,24.43,14c10.58,6.35,20.7,13.82,31.95,19a73.43,73.43,0,0,0,23.28,6.79,41.58,41.58,0,0,0,18.31-2.37c0,.28,0,.56,0,.84a23.89,23.89,0,0,0,2.54,18.8c5.59,9.26,18.92,11.89,28.81,14.7,16.38,4.65,33.07,6.61,49.9,3.57,15-2.7,31.57-11.45,39.72-24.76,6.5-10.62,4.86-22.9-2.12-32.75-4.59-6.48-9.24-12.93-13.86-19.39-.3-.42-.61-.82-.92-1.22a84.58,84.58,0,0,0,11.92-9.75c13.38-13.16,22-30,28-47.6,5.62-16.49,9.14-33.92,12.45-51q.76-3.94,1.41-7.86a41.55,41.55,0,0,0,4.4-.85A39.79,39.79,0,0,0,868.33,215C877.89,199.7,875.19,176.17,860.62,164.72Z"/><path class="cls-1" d="M797.79,209.4a112.61,112.61,0,0,0,13.44-21.28c4-8.29,3.9-17.45-1.19-24.51l.85-1c7.47-8.63,9.09-20.41,1.87-29.81a23,23,0,0,0-14.07-8.55,34.57,34.57,0,0,0-2.61-8.6c-5.59-12.73-20.59-18.57-33.66-18.38-11.37.16-22.51,3.88-33.42,6.7q-17.34,4.5-34.7,9c-2.4.61-4.81,1.24-7.24,1.74q-1.12.23-2.25.42h-.33c-.75,0-1.49,0-2.23,0-.32-.09-1-.21-1.61-.31a21.25,21.25,0,0,0-12.53-4.26,23.07,23.07,0,0,0-8.89,1.89,18.59,18.59,0,0,0-9.21.59c-9.93,3.18-15.57,11.24-16.44,21.46q-1.07,12.23-2.11,24.46c-.47.45-.94.89-1.42,1.32s-3.24,3.4-3.9,3.28c2.62-2,3-2.28,1.06-.84l-2.37,1.71c-2.84,2-5.72,4-8.56,6a15.36,15.36,0,0,0-8,1q-2.6,1.08-5.07,2.26l-.06-.11c-.26.16-.5.34-.76.5a84.91,84.91,0,0,0-31.51,25.82c-8.47,11.2-13.23,24.35-15,38.16-6.55,3.58-11.29,10.15-10.65,18.35,3.47,44.64,33.62,84.54,77.33,96.84a21.67,21.67,0,0,0,14.09-.78c.64.64,1.27,1.29,1.91,1.92,7.92,7.86,16.8,14.78,28.15,16.34,13,1.79,24-3.33,33.53-11.94,2.84-2.57,5.38-5.45,8.16-8.09,1.46-1.4,3-2.75,4.48-4.08.74-.63,3.85-3.09,3.49-2.88l2.37-1.7a22.62,22.62,0,0,0,9.52-.41c25.38-6.64,49.14-21,66.3-40.91,5.37-6.25,8.12-13.72,5.88-22a22.11,22.11,0,0,0-5.94-10.06A79.56,79.56,0,0,0,804.11,258c6.12-8.09,8.83-17.18,9.91-27.18C815.16,220.28,807.22,212.17,797.79,209.4Zm-186,25.89a15.11,15.11,0,0,1-2,2.56A6.8,6.8,0,0,1,611.79,235.29Z"/><path class="cls-1" d="M872.36,156.19c-.89-1.15-1.78-2.3-2.59-3.47-.26-.37-.42-.61-.51-.76h0c-5.44-7.15-13.33-11.07-22.21-7.36-7.85,3.29-11.77,11.11-10.66,19.31a25.07,25.07,0,0,0-.75,2.48,46,46,0,0,0-1,8.8c-.1.48-.18,1-.26,1.45-1,5.26-1.22,9.34,0,14.6,1.66,7.26,8,13.2,15.06,15.16,7.9,2.2,15-.4,21.07-5.5,6.79-5.76,8.8-15.5,9-24C879.64,168.86,877.37,161.78,872.36,156.19Z"/><path class="cls-1" d="M869.26,152c2.35,3.09-.67-1,0,0Z"/><path class="cls-1" d="M527.05,767.5a23.3,23.3,0,0,0-5.82-13.93l.09,0c-.56-.58-1.14-1.11-1.73-1.62a17.92,17.92,0,0,0-2.68-2c-3.24-2.19-6.83-3.87-10.26-5.79q-5.76-3.21-11.36-6.71-5.94-3.71-11.66-7.71-2.86-2-5.68-4.08l-2.48-1.86-.37-.28a284.7,284.7,0,0,1-39.38-38.24c-6.72-8-21.23-7.53-28.1-.09-7.86,8.5-7.19,19.53-.09,28.11a272.82,272.82,0,0,0,41,40.12c8.27,6.53,16.71,12.8,25.58,18.48q6.21,4,12.64,7.61c2,1.15,4.06,2.29,6.13,3.36a42,42,0,0,0,14.39,4.34C517.53,788.52,527.45,777.2,527.05,767.5Z"/><path class="cls-1" d="M630.07,741.1A37.38,37.38,0,0,0,616,736.91c-1.36-.92-2.72-1.83-4.1-2.72-9.44-13.26-29.16-19.64-45.23-22.37l-.26-.1v.06c-1.88-.32-3.71-.59-5.46-.81a14.31,14.31,0,0,0-4.19.11c-5.75-9.39-11.14-18.93-18-27.71-9-11.43-21.14-19.43-34.18-25.56l-1.13-.53c-6.19-12.37-19.39-16.23-32.21-14.32-14.24,2.12-27.6,9.65-39.7,17.09-6.54,4-13,8.24-19.66,12-8.55,4.83-17.32,7.25-23.31,15.62-4.86,6.77-1.9,19.75,6,23.12a28.36,28.36,0,0,0,18.25,2,32.54,32.54,0,0,0,5.94-1.89,22.57,22.57,0,0,0,11.5,9.21c3.25,1.26,6.47,2.57,9.7,3.9l1.82.8q2.3,1,4.56,2,9.48,4.33,18.69,9.23a337,337,0,0,1,34.22,21.19c-.7,7,1.24,13.51,4.54,19.48-4.46,7.79-2.94,17.13,3.11,24,8,9.18,18.51,15.88,29.63,20.7a203.33,203.33,0,0,0,19.83,7.5c6.47,2,13.59,4.75,20.43,4.7,18.84-.12,27.63-16.48,35.75-30.94a253.82,253.82,0,0,0,13.8-29,15.43,15.43,0,0,0,10.17-7.91C640.86,757.67,639.08,745.69,630.07,741.1Z"/><path class="cls-2" d="M638.82,695.63c-.09-.1-.35-.36-.9-.88s-1-.87-1.44-1.33q-1.65-1.57-3.15-3.29c-.16-.17-.31-.36-.45-.54-.77-1.25-1.81-2.46-2.59-3.67-3.38-5.27-6.21-10.86-9.07-16.42-6.5-12.61-14-27.34-26.72-34.62-.39-2.41-.76-4.83-1.12-7.24-.2-1.42-.41-2.85-.6-4.27-.11-1-.3-2.56-.33-2.82-.43-3.59-.81-7.19-1.16-10.79q-2.06-21.63-2.17-43.36c-.1-15.2-17.38-26.17-30.86-17.84-19.31,11.93-25.35,33.48-25.33,55,0,9.2.34,18.4.54,27.59.22,9.83-.32,20.05,1.63,29.74a33.16,33.16,0,0,0,5,12.06c-3.85,7-3.89,16.23,2.78,22.35,10.57,9.7,23.77,16.29,36.87,21.89a307.54,307.54,0,0,0,41,14.49,20.73,20.73,0,0,0,24.4-11.88C649.17,710.5,645.83,701.86,638.82,695.63Z"/><path class="cls-2" d="M801.31,405.13l-.2.1.18-.08Z"/><path class="cls-2" d="M1105.63,615.24c-3-34.83-14.59-66.69-29.28-97.39.23-.09.47-.17.7-.27a22.11,22.11,0,0,0,13.55-20c1-30.23-.89-63.82-24.57-85.9a63.63,63.63,0,0,0-13.35-9.61c-11.71-2.82-23.51-5.27-35.44-7-13.63-2-28.06-.16-41.94-1.69a22.93,22.93,0,0,0-1.63,3.05c-7.37-5.95-19.26-6-26.49.17a31.87,31.87,0,0,0-4.83-3.4c-12.11-6.92-27.86-4.55-41.21-4.34l-39.61.61a22.06,22.06,0,0,0-7.21,1.39l-19.79-6.15c-9-2.78-18.9,1.81-23.67,9.54-.73,1.19-1.5,2.34-2.26,3.5l-.06.09c-1.55,1.74-3.06,3.48-4.76,5.08-.8.76-1.63,1.49-2.47,2.2l.32-.14c-.11,0-.23.11-.34.16l-.09.07c-2.15,1.83-1.52.77-.09,0-2,1-4,2.85-5.84,4-2.2,1.31-4.46,2.51-6.77,3.62l-.36.16c-.47.19-2,.87-2.44,1a100,100,0,0,1-14.91,4.18q-1.72.35-3.45.63c-2.12.35-1.94.63-1.12.5-2.49.53-6.31.17-8.3.26a169.93,169.93,0,0,1-18.61-.32c-3.25-.22-6.5-.53-9.75-.88l-4.43-.52-1-.11-.58-.09c-6.47-1-12.89-2.13-19.31-3.37-8.94-1.72-19.26,1-23.87,9.63a22,22,0,0,0,.65,22.33,90.22,90.22,0,0,0-3.9,12.32A97,97,0,0,1,674.05,469c-.07.17-.12.32-.18.46s-.21.44-.35.73c-.89,1.82-1.84,3.62-2.86,5.37-.48.84-5.52,9.24-6,9,0,0,2.88-3.55.81-1.06-.59.7-1.16,1.41-1.76,2.1q-2.24,2.63-4.62,5.11a199.93,199.93,0,0,1-17,15.68c-2.9,2.42-5.85,4.78-8.82,7.11l-2.24,1.74-.13.11c1.41-1.11-.66.51-1.21.93l-2.79,2.13c-8.4,6.39-17.76,12.37-22.93,21.93-6.25,11.55-5.17,25.64-5.6,38.38-.38,11.37-.77,22.8.13,34.13a21.76,21.76,0,0,0,6.08,13.91,17,17,0,0,0,.4,12.39c3.2,7.65,12.41,13.12,20.79,10.28,24.63-8.34,48.28-19.77,72.17-30.07,11.76-5.06,23.5-10.16,35.27-15.2l8-3.41,4.82-2,.42-.18q8.46-3.56,17-7c46.27-18.87,93.2-36.12,140.5-52.21q40.45-13.77,81.4-26a23.1,23.1,0,0,0,8.53-4.79A116.71,116.71,0,0,0,1011,503c3.48,7.2,6.85,14.46,10.23,21.68,7.56,16.15,15.06,32.33,22.16,48.68,3.55,8.18,7,16.41,10.46,24.61l.43,1c.28.66.56,1.32.83,2q1.36,3.3,2.71,6.6,2.7,6.6,5.33,13.23c4,10.11,12.19,17,23.64,15.55C1096.65,635.1,1106.56,626,1105.63,615.24ZM638.38,601.62c.1-1.16.18-2.32.27-3.48a24,24,0,0,0,3.86,1.31Q640.44,600.53,638.38,601.62Zm42.83-73.37,1-.93.47.55Z"/><path class="cls-3" d="M1087.3,494.69c-4.06-2.1-7.52-1.16-11.82-.5l-12.69,2-5.11.79c-.63-2.22-1.23-4.42-1.78-6.6q-2.3-9.21-4.47-18.43l1.6-.34c4.46-.93,9.43-1.06,12.64-4.6,2.87-3.17,1.41-7.33-2.3-8.84-4.33-1.77-9.25.45-13.59,1.5l-1.14.28q-2.88-12.63-5.55-25.29l7.44-1.58c5.67-1.24,12.15-1.59,16.66-5.44,3.88-3.32.79-9.7-3.68-10.05-5.07-.91-10.66,1.31-15.59,2.42-2.51.56-5,1.13-7.5,1.71q-1.29-6.4-2.53-12.82c-1.6-8.3-11.94-13.85-19.81-11.33-8.85,2.84-13,10.91-11.33,19.81.76,4,1.55,8,2.34,12a47.26,47.26,0,0,0-10.89,3.86c-4.31,2.28-2.08,8.5,2.33,8.73a44.34,44.34,0,0,0,10.89-1.07q2.75,13.35,5.73,26.66l-7.62,1.84c-7,1.69-4,12.17,2.92,10.71l7.21-1.51c1.58,6.78,3.18,13.55,4.85,20.31,2.45,9.94,4.24,20.83,8.8,30,6.87,13.88,30.47,7.58,29.52-7.9a71.25,71.25,0,0,0-1.75-11.3l4.28-.66,11.79-1.8c4.23-.65,8.06-.68,11.24-3.85C1090.81,501,1090.5,496.35,1087.3,494.69Z"/><path class="cls-2" d="M674,550.6l-.6-4.6-1.73-4.14-2.7-3.51-3.49-2.71-4.12-1.76-4.6-.63-4.6.6L648,535.58l-3.51,2.69-2.72,3.5a12.84,12.84,0,0,0-2.07,6.42,8.76,8.76,0,0,0,0,4.6,17.16,17.16,0,0,0,3.38,8.19,8.72,8.72,0,0,0,3.1,3.11,13,13,0,0,0,5.87,3.11l.17.08c2.62,1,4.2.65,6.61.33a4.36,4.36,0,0,0,2.22-.3h0l.09,0,0,0,2.09-.87a17,17,0,0,0,6.93-5.31,8.6,8.6,0,0,0,2.24-3.8A13.06,13.06,0,0,0,674,550.6Z"/><path class="cls-2" d="M737,523.76c-.53-1.25-1-2.5-1.57-3.75L733,516.83l-3.17-2.46-3.74-1.59a11.87,11.87,0,0,0-6.25-.3,7.88,7.88,0,0,0-4,1,11.73,11.73,0,0,0-5,3.23l-.4.31a15.24,15.24,0,0,0-3.93,6.71c-.24,1.34-.43,2.69-.56,4.05.12,1.36.29,2.71.53,4a15.14,15.14,0,0,0,3.89,6.73l.4.32,3.16,2.46,3.74,1.59a11.88,11.88,0,0,0,6.25.3,15.55,15.55,0,0,0,7.43-3.06,15.36,15.36,0,0,0,4.84-6.26,11.69,11.69,0,0,0,1.37-6Z"/><path class="cls-2" d="M761.58,502.84c-7.91,0-15.51,6.89-15.17,15.07s6.59,15.17,15.07,15.17c7.91,0,15.51-6.88,15.17-15.07S770.05,502.84,761.58,502.84Z"/><path class="cls-2" d="M788.48,496.52a12.95,12.95,0,1,0,12.91,13A13.15,13.15,0,0,0,788.48,496.52Z"/><path class="cls-2" d="M843.73,473.85a12.95,12.95,0,1,0,12.9,13A13.16,13.16,0,0,0,843.73,473.85Z"/><path class="cls-3" d="M972.55,504.81a103.25,103.25,0,0,0-4.78-9.83,15.61,15.61,0,0,0,.61-10.78c-1.92-6-5.82-9.69-10.75-11.35-1.77-4.62-3.46-9.27-5-14a430.4,430.4,0,0,1-13-48.41c-1.6-7.68-11-12.87-18.38-10.51-8.14,2.6-12.18,10.14-10.51,18.38,1,4.87,2.06,9.58,3.23,14.19l-3.06.69L894,396.09c-3.57-7.85-15.5-10.43-22.47-6-8.07,5.17-9.82,14.09-6,22.47q6.54,14.19,13.06,28.38l-6,1.54c-1.21-2.6-2.41-5.21-3.57-7.82-1.93-4.31-3.31-7.59-4.7-11-2.34-5.78-7.45-10.72-13.7-10.85q4.71-6,9.52-12c5-6.21-3.62-15.18-8.87-8.93q-6,7.18-11.58,14.75l-1.78-2.41c-.1-.13-.2-.26-.31-.38a121.68,121.68,0,0,0,10.22-7.95c5.4-4.77-1.47-13.28-7.53-9.83-7.86,4.48-15.11,10.53-22.49,15.78-6.78,4.81-.27,16.14,6.53,11.25q1.43-1,2.88-2c1.59,2.12,3.19,4.23,4.79,6.35q-3.83,5.54-7.5,11.15c-4.15,6.35,5.86,12.09,10.09,5.94l1.82-2.61q3.14,9.36,6.7,18.56-11.42,3.24-22.76,6.67-2.25-6.28-4.42-12.6c-2.62-7.56-10.57-13.4-18.82-10.76-7.57,2.42-13.44,10.66-10.76,18.81q2.28,6.93,4.63,13.82l-7.33,2.44c-4.38-11.69-8.84-23.35-13.58-34.92-2.85-7-9.68-12.74-17.75-10.16-6.83,2.19-11.53,8.78-10.54,15.9a172.25,172.25,0,0,0-16.58,13.44c-1.81-2.22-3.63-4.43-5.57-6.54l4.33-2.95c3.69-2.48,8.16-4.68,11.07-8.09,3.25-3.81.31-10.9-5.25-9.09-4.36,1.42-8,4.47-11.68,7.08-2.25,1.58-4.49,3.16-6.72,4.77L704,431c-4.25-4.2-10.77,2.27-6.58,6.54l6.34,6.46q-10.17,7.86-20.13,16c-4,3.3,1.29,10.34,5.6,7.3,7.39-5.23,14.87-10.31,22.4-15.34,4.25,4.16,9.07,7.69,13.51,11.68a3.41,3.41,0,0,0,5.63-1.49,5.57,5.57,0,0,0,2-1.24,155.36,155.36,0,0,1,12-10.19c2.86,9.55,6,19,9.24,28.41q-4.62,1.68-9.24,3.39c-.09-.34-.2-.68-.29-1-2.1-7.26-10.24-12.57-17.76-10.16s-12.14,9.9-10.16,17.76c.33,1.29.67,2.57,1,3.86q-5.26,2.08-10.49,4.2c-.34-1.9-.68-3.81-1-5.73-1.28-7.64-11.06-12.63-18.13-10.37-7.79,2.49-11.21,9-10.56,16.59a41.81,41.81,0,0,0-3.36-8A14.52,14.52,0,0,0,658,483.08c-6.47,1.76-9.83,7.41-10.51,13.72-.57,5.26,1.18,11.26,2,16.49.46,2.79.91,5.59,1.37,8.38l-3.62,1.72c0-.38-.07-.77-.1-1.15-.63-7.28-5.94-14.39-14-14.05-7.7.32-13.88,6.11-14.05,14q-.17,7.79-.11,15.59c-6.37,3.47-12.67,7.06-18.88,10.84-6.75,4.11-10,13.69-5.49,20.67,4.85,7.57,12.87,8.85,20.67,5.49l5.8-2.52c.08.71.18,1.41.26,2.11l-11.49,5.1c-7.28,3.26-9.44,13.36-6.64,20.06s11.51,12.42,18.94,9.37l4.83-2a34.61,34.61,0,0,0,5.23,11.8c3.45,4.66,7.86,7.53,13.94,6.73,5.16-.67,10.55-4.6,11.67-10,1.44-6.9.58-13.75-.59-20.6,4-1.56,8-3.12,12-4.65a68.27,68.27,0,0,0,8.81,12.51c8.94,9.94,23.21,2.87,26-7.65a21.12,21.12,0,0,0,11,7.66c12.68,3.57,21.4-10.07,16.17-20.9a12.55,12.55,0,0,0-2.87-4.18c-.39-.46-.64-.76-.78-.91-.47-.77-.89-1.56-1.29-2.36.71,1.33-1.06-2.93-1.24-3.46-.11-.34-.21-.69-.32-1q7.28-2.55,14.56-5c2.59,7.49,5.14,15.7,9.51,22,4.25,6.14,11.36,9.15,18.54,6.14,7.35-3.07,9.76-10,8.67-17.51-1-6.93-4.27-13.89-6.86-20.57q5.87-1.89,11.74-3.75a72.86,72.86,0,0,0,4.22,9.69,20.32,20.32,0,0,0,7.55,8c5.78,3.41,11.27,2.47,17.06-.12,5.41-2.41,8-9.67,7.26-15a14.94,14.94,0,0,0-5-9.32c-.16-.59-.3-1.13-.42-1.44l-.41-1,6.72-2c2.28,5.42,4.69,10.76,7.33,15.94,7.94,15.62,34.33,4.91,28.6-12-1.42-4.15-3-8.44-4.75-12.8q15.35-4.19,30.77-8.07c1.11,1.74,2.23,3.49,3.43,5.17a40.23,40.23,0,0,0,3.55,4.55c.46.48,4.82,3.85,3.22,2.58,5,4,11.94,6.17,17.88,2.37,5.41-3.47,8.81-10.23,6.84-16.66a47.48,47.48,0,0,0-2.27-5.89l.12,0a22.07,22.07,0,0,0,5,6.66c4.79,4.11,10.69,5.75,16.73,3.22a15.36,15.36,0,0,0,9.47-14c0-.19,0-.39,0-.58a53.12,53.12,0,0,0,3,5.14c3.88,5.79,10.87,8.71,17.53,5.81C970.15,518.84,975.22,511.39,972.55,504.81ZM652,561.21c-.13-.83-.25-1.66-.37-2.48l5.8-2.6.6,2.58Zm63.62-24.53c-.44-1.83-.9-3.65-1.34-5.47q6.27-2.62,12.55-5.13c.59,2,1.2,4,1.81,6C724.25,533.6,719.91,535.12,715.58,536.68Zm41.76-14.34q-1.2-3.51-2.37-7c3.59-1.33,7.18-2.66,10.79-3.95.92,2.45,1.86,4.89,2.78,7.34Q762.95,520.49,757.34,522.34Zm41.43-13.05c-1-2.75-2.1-5.51-3.14-8.27l6.78-2.22c.59,1.6,1.17,3.21,1.76,4.81.46,1.22.91,2.45,1.37,3.68Zm37.05-10.65c-.55-1.38-1.1-2.76-1.63-4.14-.65-1.68-1.28-3.37-1.93-5.05q12.3-3.69,24.66-7.13c.56,1.15,1.1,2.3,1.67,3.44q1.49,3,3,6Q848.69,495.09,835.82,498.64Zm58-15q-2.73-4.78-5.39-9.61c1.61-.41,3.22-.8,4.83-1.2q2.26,4.9,4.51,9.81Z"/><path class="cls-3" d="M646,725.7c-1.46-5.45-7-10.19-11.48-14.38a48.2,48.2,0,0,0,4.66-10.61c1.7-5.85-6.49-9.13-9.65-4.11-1.26,2-2.35,4.11-3.41,6.23L617.53,694a132.29,132.29,0,0,0,9.87-16c3.39-6.64-5.36-11.34-9.72-5.72a125.11,125.11,0,0,0-8.73,13c-3.75-3.83-7.5-7.68-11.27-11.5a15.43,15.43,0,0,0,.65-9c-6.54-29.11-19.38-56.15-35.81-81-4.47-6.74-13.83-10.31-21.15-5.62-6.83,4.37-10.27,13.85-5.62,21.16a307.9,307.9,0,0,1,19,34.85c-4.26-4.26-11.69-5.26-17-3.05-6.51,2.72-11.79,11-9,18.23a235.7,235.7,0,0,0,18.35,37.7,181.49,181.49,0,0,0,10.9,16c4.52,6,9.72,14.66,16.75,17.9,5.44,2.5,11.08,2.74,16.06-1.08a14.54,14.54,0,0,0,4.61-6c.59,2.13,3.12,3.68,5,1.52,3.72-4.36,7.46-8.8,11-13.36L621,712.22a100.32,100.32,0,0,1-8.78,11.93c-4,4.69,2.48,11.48,6.84,6.89,3.08-3.24,6.29-6.82,9.26-10.64,3.62,4.31,7.65,9,12.44,10.51C643.87,731.92,646.8,728.72,646,725.7Zm-49.49-15.94a14.59,14.59,0,0,0-.39-5c-1.76-6.89-7.25-12.38-11.22-18.12L582,682.42a13.75,13.75,0,0,0,9.78-1.7q6.12,6.67,12.27,13.3C601.39,699.21,598.9,704.5,596.49,709.76Z"/><path class="cls-4" d="M494.93,615a667.63,667.63,0,0,0-47.48-49.45,10.79,10.79,0,0,0-2-4.83c-.77-1-1.56-2-2.35-3h0l-.51-.62c-.43-.54-.87-1.06-1.3-1.59l-13.09-16a32.06,32.06,0,0,0-8-9.82,18.62,18.62,0,0,0-11.31-4.26q.71-25.1,1.42-50.2l.64-.53c9.36-7.58,17.65-18,17.07-30.7-.64-14.08-10.13-25.81-24.58-26.66-6.21-.36-12,4.61-13.68,10.35a282,282,0,0,0-7.64,33.6c-.59.52-1.17,1.06-1.75,1.59a13,13,0,0,0-2.94-2.15c-.12-.07-.25-.12-.37-.18,2.37-7.88,4.31-15.88,5.9-23.89q1.2-6.14,2.27-12.29a167.39,167.39,0,0,0,16.65-32.44,14.25,14.25,0,0,0,8.16-7.25,108.55,108.55,0,0,0,9.32-54.09A216.54,216.54,0,0,0,415.91,306a101.14,101.14,0,0,0-6.69-28.27l0-.15h0c-.56-1.41-1.13-2.82-1.75-4.22a12.76,12.76,0,0,0-3.69-4.76,18,18,0,0,0-.56-5,93.74,93.74,0,0,0-17.06-34.08c-8.22-12.76-18.52-23.7-32.61-30.66l-2.16-1.56C328,180.71,300.78,165.49,272.41,160c-17.49-3.4-35.64-3.33-52.45,3.09a188.87,188.87,0,0,0-33-1.1c-38.35,2.11-74.16,15.23-104.37,38.94-14.72,11.54-27.68,25.2-39.67,39.51C30.28,255.53,19.29,271.33,12,289.74-3.28,328.44,8.46,370.64,24.45,407c13.82,31.4,31.94,61.55,55.88,86.32,23.51,24.34,53.88,43.89,87.55,50.06,21.41,3.91,44.07,3.72,65.09-2.14a12.71,12.71,0,0,0,6.46-.32c8.7-2.78,17.39-5.58,26-8.49a25.51,25.51,0,0,0,.36,5.81c1.57,9.06,11.22,12.07,18.87,9.63.14.08.27.18.42.25A25.84,25.84,0,0,0,295.44,551c-1.22,5.73.86,13,6.55,15.46l7.43,3.22,1.11,4.77c-.94,10.27.51,20.28,7.05,28.49,6.44,24.77,13.72,49.28,22.47,73.4,3.86,10.63,8.59,21.75,21.95,21.58,9.85-.13,18-8.53,25.74-13.73a344.56,344.56,0,0,1,46.14-26.1,340.47,340.47,0,0,1,54.88-20C499.31,635.21,501.6,622.72,494.93,615Zm-129.24,51.1c-.08-.25-.17-.5-.25-.74l2.25-.66Z"/><path class="cls-4" d="M506.08,389.94A12.88,12.88,0,0,0,492,380.66c-6.69,1-10.59,6.06-11.21,12.62-1,10.6-1.31,18.24-3.72,28.3h.24a29.24,29.24,0,0,0-.77,3.9c-.94,7.22,6.26,13.6,12.7,14.49,7,1,14.46-3.33,16.17-10.48C508.4,416.88,509.5,402.59,506.08,389.94Z"/><path class="cls-4" d="M249.56,26.56c-6,.79-11.63,4.65-13.34,10.8a14.12,14.12,0,0,0,1.35,10.49,11.21,11.21,0,0,0,2.15,2.7c-.35.67-.72,1.41-.72,1.4a6.13,6.13,0,0,0-.8,1.25l-.47.51c-.26.27-.46.6-.7.86a1.45,1.45,0,0,1,.29,0H237a1.12,1.12,0,0,1-1.12.36,1.64,1.64,0,0,1,.64-.36c-.9,0-.84,0,.2,0h0c-7-1.79-15.29,2.21-17,9.58a14.06,14.06,0,0,0,9.58,17c20.53,6.2,38.27-13,40.88-32C271.86,37.06,262.46,24.86,249.56,26.56Z"/><path class="cls-4" d="M236.71,54.58a1.2,1.2,0,0,0-.2,0H237l0,0a1.08,1.08,0,0,0-.31,0h0Z"/><path class="cls-4" d="M410.71,22.88c-2.25-14.51-26.22-14.19-28.91-.09l-7,36.5c-1.44,7.59,2,16.33,10.18,18.34.29.32.59.63.91,1,4.77,4.59,10.6,4.57,16.3,2.15,10.37-4.4,10.09-20.49,10.45-30A144.92,144.92,0,0,0,410.71,22.88Z"/><path class="cls-5" d="M412.81,418.92c-5-3.31-12.36-2-16.46,2.07a13.32,13.32,0,0,0-3.88,9.63,79.72,79.72,0,0,0-8.67,4.82,47,47,0,0,0-14.4,16.33,59.27,59.27,0,0,0-5.58,15.94A11.62,11.62,0,0,0,360,467c-8-.1-12.66,5.83-17.89,10.95-4.07,4-8.29,7.87-12,12.21a53.68,53.68,0,0,0-8,12.1,16.79,16.79,0,0,0-4.32,1.36q-21.19,10-42.44,19.94a11.17,11.17,0,0,0-4.63,3.88,13.86,13.86,0,0,0-3.68,13.41c2.14,7.88,9.65,11,17.1,9.78q2.63-.43,5.24-.9l1.29,0q7.23,3.52,14.74,6.45l1.28.5c-1.57,7.88-.43,16.48.61,24.23a253.9,253.9,0,0,0,6.38,31.59,292.67,292.67,0,0,0,24.08,61.79,13.26,13.26,0,0,0,5.15,5.22c-.36,5.86,3.12,10.85,8.9,12.85a27.79,27.79,0,0,0,8.14,1.5,13.18,13.18,0,0,0,13.45,4.06c6.09-1.66,11.57-8.84,10.06-15.41,2.46-4.24,1.06-11-2.39-14.17a13.06,13.06,0,0,0-10.14-3.5l-.89-1A168.47,168.47,0,0,1,359.16,650c-.44-.63-.86-1.28-1.3-1.92a349.14,349.14,0,0,1-16-39.78c-2.94-8.85-5.32-17.84-7.74-26.85-1.25-4.61-2.44-9.25-3.64-13.88a45.86,45.86,0,0,1-1.29-5.38c6.32-.45,11.81-3.32,17.59-6.19,7.21-3.58,16.28-6.4,20.49-13.64a12.21,12.21,0,0,0-.25-13.33c1.35,0,2.69,0,4-.1,9.57-.35,18.83-1.77,27.61-5.68,15.84-7,27.59-26.12,21.19-43.45a16.12,16.12,0,0,0-5.27-7.31,38.94,38.94,0,0,0,11-17.61C429.31,441.26,424.64,426.81,412.81,418.92Z"/><path class="cls-5" d="M353,351.12c-3.87-14.34-9-28.58-16.58-41.32-3.67-7.64-8.51-14.51-14.95-19.39-.17-.17-.32-.34-.49-.5a10,10,0,0,0-3.41-2.25c-8.27-8.28-18.58-15.18-28-21.55a256.89,256.89,0,0,0-30.87-17.9,10.34,10.34,0,0,0-1-2.42h0l-.06-.09a11.66,11.66,0,0,0-1.36-1.8c-8.12-10.11-21.08-13.67-34.06-15.26a62,62,0,0,0-16.59-4,8.34,8.34,0,0,0-5.83,1.47,83.45,83.45,0,0,0-31.36-1.64,15.89,15.89,0,0,0-16.17-5.28c-22,5.26-39.09,21.59-49.7,41.12a11.14,11.14,0,0,0-7.51,7.83C89,292.68,86.4,318,86.33,343.31c-.06,21.91,1.36,46.3,14.78,64.64s33.45,27.46,53.82,35.58c7.85,3.13,15.73,6.2,23.68,9.11q1.89,1.61,3.82,3.17c23,18.43,51.73,32.58,82,28.73,6.06-.77,12.17-3.57,14.58-9.44,3.6.14,7.21.15,10.8,0,6.82-.29,13.54-2,18.72-6.69,4.3-3.91,7.23-10,6.57-15.9a119.36,119.36,0,0,0,28.22-18.89A10.94,10.94,0,0,0,346.19,423a11.32,11.32,0,0,0-1.8-3.83,98.54,98.54,0,0,0,4.94-11.9A32.19,32.19,0,0,0,358,390.81C360.53,377.53,356.43,363.9,353,351.12Zm-34.81-28.95a19,19,0,0,0-3.18-1.62c-.23-1-.49-2-.76-2.95a54.16,54.16,0,0,0-2.8-7.86A63.75,63.75,0,0,1,318.19,322.17Z"/><path class="cls-6" d="M1092,663q-1.14-6.91-2.33-13.8c-3.31-18.9-7.17-37.75-13-56.06-6-18.86-13.88-37.52-24.93-54-6.31-9.42-13.41-19.95-24.12-24.69a40.6,40.6,0,0,0-7.05-2.37,15.3,15.3,0,0,0,1.94-12.12h.09c-3.09-9.13-9.35-17.45-14.36-25.66q-7.35-12.06-14.8-24.06c-10-16.05-20.12-32.41-32.41-46.8-3.79-4.44-11.25-4.39-15.56-1-5,3.95-5.49,9.67-3.1,15.27,7.13,16.72,16.78,32.48,25.91,48.16q6.87,11.82,13.66,23.67c4.38,7.65,8.23,16.27,13.78,23.19q-2.87.63-5.76,1.4c-43.8,11.68-87.43,24.06-131.14,36.11-42.42,11.69-85.06,22.84-127.18,35.6-22.37,6.77-45.25,14.58-65.68,26.08-10.07,5.67-20.9,11.91-29.08,20.17q-.45.43-.87.9c-1.07-2.08-2.12-4.16-3.17-6.24-5.23-10.31-10.35-20.69-15.73-30.93-2.54-4.83-5.11-9.63-7.56-14.5-2-4-4.68-9.68-5.92-12.72-4.19-10.29-6.11-20.55-7.69-31.17-.76-5.13-6.74-8.84-11.56-8.86a12.22,12.22,0,0,0-11.62,8.79,56.63,56.63,0,0,0-1.07,21.6c-3.87,2.44-6.67,6.65-6.36,11.34,1.72,26,11.14,50.13,22.22,73.46C592.78,654.71,598,666.1,605,676a124.14,124.14,0,0,0,19.92,21.51q3.39,8.9,7.15,17.63c-3.09,2.64-4.88,6.63-5.4,11.15-2.23,19.59,8.45,39.66,16.07,57.1,7,16.11,15,31.9,24.88,46.46,20.22,29.74,48.38,54.25,83.91,63.17,19.26,4.84,40.44,5.08,59.18-2a23.07,23.07,0,0,0,3.64-1.77q12.38-1.17,24.73-2.82a15.62,15.62,0,0,0,7.37,9.77c17.94,9.8,38.25,7.65,57,1.59,18.32-5.91,36.12-13.56,53.86-21,2.93,5.38,7.91,8.1,13.79,8.58a11.75,11.75,0,0,0,3.14,2q2.6,1.14,5.2,2.23c-3.51-1.48,1.37.64,3.21,1.34s3.48,1.27,5.26,1.81a80.81,80.81,0,0,0,11.5,2.53,104.14,104.14,0,0,0,30.38.12,89,89,0,0,0,17.19-4.21c6.28,2.84,14.23,2.43,19.06-3.11q3.48-4,6.63-8.19,2.7-3.33,5.39-6.65a22.08,22.08,0,0,0,4.41-9.09,16.87,16.87,0,0,0-9.69-23.3,15,15,0,0,0-1.52-9.73c1-1.15,2-2.32,3-3.51,5.6-6.93,7.35-17.41.08-24.12a18.48,18.48,0,0,0-6.36-3.81c2-3.78,3.87-7.62,5.58-11.52a20.93,20.93,0,0,0,1.69-12.55q1.58-3.5,3.09-7c4.12-9.41,1.54-20.72-9.16-24.13l-.46-.4a235.19,235.19,0,0,0,23.38-49.21,14.26,14.26,0,0,0-.45-10.62C1094.9,677.2,1093.24,670.43,1092,663ZM884.26,642.6q0-1.7.06-3.39a17,17,0,0,0,2.48,2.15Zm108.11-67.34c.24.44.45.83.63,1.1l.62,1a17,17,0,0,0-2.15-1.86ZM707.63,632.48a16.67,16.67,0,0,0-.38-2.09q3.21-1.14,6.43-2.22Z"/><path class="cls-7" d="M652.12,665.39c-.14-.27-.27-.55-.43-.81a10.57,10.57,0,0,0-18.26-.06c-.16.26-.29.54-.43.81a11,11,0,0,0-1.52,5.58A10.87,10.87,0,0,0,633,676.5a11.07,11.07,0,0,0,19.11.06,10.94,10.94,0,0,0,1.53-5.58A11.06,11.06,0,0,0,652.12,665.39Z"/><path class="cls-7" d="M998.12,531.79c-15,0-15.12,23.34-.07,23.34S1013.17,531.79,998.12,531.79Z"/><path class="cls-7" d="M1072.69,780.88c-.44-6.5-3.88-12.07-9.57-14.51a168.32,168.32,0,0,0,5.41-16.06c2-7-1.17-15.78-7.78-19.3-7.29-3.88-14.43-2.28-20.7,2.6-10.5,8.18-17.4,20-24.36,31.17-1.7,2.71-3.48,5.34-5.32,8l-.31.46-.38.42c-1,1.18-2.08,2.37-3.2,3.49-.88.88-1.8,1.72-2.74,2.54.26-.3-2.27,1.58-2.44,1.69a76.74,76.74,0,0,1-9.69,5l-.82.37-1,.38c-2.13.82-4.25,1.68-6.38,2.5q-4.93,1.9-9.9,3.75-11.58,4.29-23.3,8.21-22.59,7.56-45.62,13.71a16.37,16.37,0,0,0-8.57,5.91c-17.2-1.83-34.41-3.52-51.59-5.55A606,606,0,0,1,781,805.1c-10-2.27-19.86-4.89-29.63-7.94q-7.27-2.28-14.46-4.89-3.58-1.31-7.12-2.71c-1.18-.46-2.35-.93-3.52-1.41l-1.72-.71-1.07-.47a252.15,252.15,0,0,1-30.77-16.12q-2.74-1.71-5.41-3.5h0c-3-6.65-6.09-13.42-10.23-19.44a80.61,80.61,0,0,0-18.23-18.45c-5.18-3.91-13.47-1.39-17,3.34a13.48,13.48,0,0,0-2.35,11.41,12.87,12.87,0,0,0-8.84,1.55,13.64,13.64,0,0,0-4.88,18.38c16.29,27.92,33.31,56.19,57.56,78,24,21.67,54.23,36.82,87,37.58a16,16,0,0,0,10.26-3.66,396.4,396.4,0,0,0,57.19,6.61,358,358,0,0,0,46.67-1,188.14,188.14,0,0,0,19.92-2c5.65,1.19,11.35,2.22,17.11,3,30.21,4.31,61.65,4.06,90.64-6.53,5.21-1.9,9.92-5.9,11.57-11.22,7.56-.74,15.06-1.78,22.47-3.17,7.71-1.45,13.14-10.14,12.49-17.83,4.85-1.72,9-5.54,10.1-10.78A192.53,192.53,0,0,0,1072.69,780.88Z"/><path class="cls-8" d="M878.41,81.79C876,74,867.4,69,859.84,70.66c-7.53-5.16-15.84-9-24-13.12-1.33-.68-2.68-1.39-4-2.1a22.74,22.74,0,0,0-1.44-2.77C824.08,42.49,812.81,40,801.67,39.86c-9.48-.11-18.95-.57-28.38-1.56-2.06-.21-4.12-.46-6.18-.71l-.66-.08-.32,0-2.63-.39c-5-.77-9.93-1.68-14.85-2.71q-6.52-1.36-13-3c-2.09-.54-4.19-1.08-6.25-1.74-.74-.23-1.47-.53-2.22-.75h0l-1.07-.56c-.81-.52-1.62-1-2.42-1.53l-.47-.4c-1.7-1.46-3.43-2.87-5.2-4.25a48.74,48.74,0,0,0-14.75-7.95c-8.23-2.78-17.45-3-26.06-2.67-10.12.42-20.23,1.13-30.35,1.64-1.51.08-3,0-4.54,0a15.53,15.53,0,0,0-7.08-8.82C620.05-4.42,602.8,1,590.89,12.65,581.15,22.18,577.82,34.54,571.3,46c-.64,1.12-1.31,2.22-2,3.29l-.58.83-.33.32c-.65.64-1.31,1.27-2,1.89-.15.07-.62.36-1,.6-.55.22-1.51.64-1.75.71-.75.21-1.5.41-2.26.57-.93.21-4.56.56-1.85.36-3.7.28-7.41.53-11.09.94-15.44,1.73-33,8.76-36.93,25.65-2.4,10.27,1.72,20.61,8.92,27.14a12.48,12.48,0,0,0-1,2.08l-.14.15c-.64.63-1.9,1.61-1.81,1.6-.88.57-1.79,1.09-2.72,1.58a26.45,26.45,0,0,0-2.57,1c-8.65,2.93-16.7,6.33-22,14.16a26.89,26.89,0,0,0-4.42,12.1,38.87,38.87,0,0,0-14.52,13.25c-3.34,5.05-2,12.5,2.09,16.65a12,12,0,0,0,1.67,1.4c.12.42.26.83.4,1.24a163.16,163.16,0,0,0-8.32,26,121.85,121.85,0,0,0,2.36,62.4,15.64,15.64,0,0,0,1,2.46,34.33,34.33,0,0,0-.66,15.35,43.59,43.59,0,0,0,6.36,19,14,14,0,0,0,24,.08A43,43,0,0,0,505.05,288a40.88,40.88,0,0,0,3.08-6.22,12.59,12.59,0,0,0,1.62-4.93,38.79,38.79,0,0,0-.91-23.14,20,20,0,0,0-1.29-2.78,260.84,260.84,0,0,0-5.27-27.27,5.79,5.79,0,0,0,5.77-4c1.37-4.2-.45-8.47-1.38-12.66,0-.18-.09-.36-.14-.54a7.17,7.17,0,0,0,1-.9c.57,8.64,3.34,17,9.27,22.73S531,234.27,538.08,231c6.34-3,15.39-10.36,13.83-18.07a5.12,5.12,0,0,0-4.88-3.74c-5.94.13-7.9,5.5-12.19,8.68-4,2.94-8.5,3.36-11.31-1.08a34,34,0,0,1-2.88-5.76,40.6,40.6,0,0,0,30.59-5.81,34.63,34.63,0,0,0,6.14-.72,26.9,26.9,0,0,0,19.91-17.73A44.82,44.82,0,0,0,595,178.92a43.71,43.71,0,0,0,11.84-.58l0,0c10.78,3.08,22.88-3.73,28.46-12.84a28.77,28.77,0,0,0,3.77-11c.07-.4.12-.8.16-1.2a50.92,50.92,0,0,0,.3-5.79c0-1.75-.1-3.49-.19-5.23,8.76-2,16.88-6.51,20.87-15a30.13,30.13,0,0,0,1.31-3.27,36.66,36.66,0,0,0,15.22,5.44,54.94,54.94,0,0,0,17-1c3.23-.6,6.41-1.39,9.58-2.22,1.87-.49,4.07-1.38,6.17-1.77,2.4,3.67,2.19,9-2,11.11a31.87,31.87,0,0,1-9,2.59c-1.25.21-2.55.22-3.78.44s-2.18-1.11-1.62.43c-.81-2.22-3.73-4.21-6.05-2.48-4.25,3.16-4.87,8.22-1.35,12.4,4.28,5.09,11.65,3.63,17.35,2.4,11.47-2.49,22.9-9.37,21.25-22.74-.53-4.25-2.19-9.54-5.09-13.22,3.21-.23,6.46-.67,9.7-1.23a26.85,26.85,0,0,0,5.49-1.55,24.61,24.61,0,0,0,9.27,4,28.48,28.48,0,0,0,7.92.47,25.11,25.11,0,0,1,4.79,4.42c4.41,5.37,4.13,15.44-4.89,13.44a7,7,0,0,0-6.74,11.49c5.63,6.21,15.4,5.91,22,1.24,7.19-5.1,9.63-14.12,7.72-22.49-.08-.38-.19-.75-.29-1.13a17.9,17.9,0,0,0,1.87,1.7c5.14,4,10.08,3.82,15.78,2.36a26.56,26.56,0,0,0,3.84,3.16c.48,1.76,1.08,3.51,1.72,5.24,2.45,6.65,5.37,13.33,10.14,18.67,5.79,6.49,23.6,15.36,29.64,5.56a6.82,6.82,0,0,0,4.39-.22,6.44,6.44,0,0,0,3.81-7.35,26.79,26.79,0,0,0,15.89-7.19c5.53-5.28,7.83-12.78,7.52-20.2a29.53,29.53,0,0,0,9.7-18.52A44.37,44.37,0,0,0,878.41,81.79ZM497,205.56a.14.14,0,0,0,0-.06,8.88,8.88,0,0,0,.73.66c0,.55,0,1.1,0,1.65C497.52,207.06,497.29,206.31,497,205.56ZM634.09,94.18c-.38,0-.76.11-1.13.19a15.19,15.19,0,0,0-2.23-1.81c2.73-.77,5.47-1.51,8.21-2.2C637.33,91.64,635.72,92.92,634.09,94.18Zm48-8.39c.27-.5.53-1,.77-1.5l.15,0a20.81,20.81,0,0,0,.19,2.21A11.8,11.8,0,0,0,682.1,85.79ZM662.33,47.23c-2.33.32-4.77.67-7.27,1.07a13.11,13.11,0,0,0,0-2.17c2.56-.21,5.11-.44,7.62-.59,7.58-.45,15.22-1.19,22.81-1,1.52,0,3,.2,4.54.27-3-.14.54.22,1.91.47A212.42,212.42,0,0,0,662.33,47.23ZM699.12,114l-2,.52c.63-.5,1.26-1,1.88-1.52.51.2,1,.39,1.55.56C700.1,113.72,699.6,113.87,699.12,114Zm67.58-2.3c.48-.34,1-.71,1.41-1.09a15.65,15.65,0,0,0,1,2c.06.64.14,1.28.26,1.91A27.83,27.83,0,0,0,766.7,111.7Zm61,39.66c-1.13,1.08-5.61-1.05-7.11-2a26,26,0,0,1-7.76-7.94l-1.58-2.33a12.29,12.29,0,0,0,7.09,3.83,43.26,43.26,0,0,0,10.77,7.35A6.83,6.83,0,0,0,827.74,151.36Z"/></g><g id="Camada_40" data-name="Camada 40"><path d="M545.44,336.09c-12-.59-22.59-4.57-31.09-13.3A41.52,41.52,0,0,1,505,308.25c-.67-1.84-4.83-16.4.09-14.49,1.89.73,3.91-1.46,3.31-3.29a7.21,7.21,0,0,0-7.47-5.08,15,15,0,0,0-4.25-8c-4.22-4-10.85-4.64-14.93-.17-1.87,2-.1,6.2,2.94,5.08,7.05-2.6,8.82,4,7.7,10a13.7,13.7,0,0,0-.7,2.47c0,.09,0,.18-.05.27a10.86,10.86,0,0,1-2.48,4.16c-7.6,7.25-10.88-8.17-11.22-13a57.46,57.46,0,0,1,1.74-18.49c9.48.42,16.06-9.5,16.77-18.49a26.29,26.29,0,0,0-.28-6.13,2.12,2.12,0,0,0,.66-1.52,15.19,15.19,0,0,1,.26-4,3.85,3.85,0,0,0-4.75-4.6,21.7,21.7,0,0,0-9.29-8.22,2.23,2.23,0,0,0-2.26,3.83,22,22,0,0,1,7,8,63.57,63.57,0,0,0-13.49,20.19c-3.47-4.14-3.73-11.7-3.68-16.43,0-2.67,1.14-24.92,5.64-22.76,1.2.57,2.72-1,1.54-2-3.17-2.66-7.2-1.46-9.45,1.77-3.55,5.09-4.26,12.57-4.8,18.59-.88,9.63-.58,22.92,8,28.87-.34,1.23-.66,2.48-.93,3.73-2.4,11.17-3.67,28.06,5.14,37,5.28,5.36,11.49,5,16.45,1.82a52.28,52.28,0,0,0,6.12,14.67c9.37,15.61,28.27,28.42,47.08,27C553.74,348.56,553.93,336.51,545.44,336.09Zm-55.5-89.61c-.32,4.91-2.71,11.62-7.47,13A62.93,62.93,0,0,1,489.94,246.48Z"/><path d="M539.19,115.19c-8.28-3.84-21-.4-22.82,9.43-.41,2.28,2.56,4.84,4.39,2.57,3.58-4.42,9-8.46,15-6.74,10.36,3,3.65,13.79-2.71,16.69-13.35,6.1-24.3-9.92-16-21.12,2.41-3.26-3-6.35-5.4-3.18-6,7.88-4.92,19.73,1.89,26.8,7,7.23,18.85,7.12,26.53,1.07C548.67,133.92,550.44,120.42,539.19,115.19Z"/><path d="M575.78,64c-12.93-2.08-26-1.13-38.15,4a44.94,44.94,0,0,0-15.34,10.14c0-.29-.06-.58-.08-.87a14.42,14.42,0,0,1-7.54,2,49.89,49.89,0,0,0,1.46,9.46c-.07.23-.16.46-.22.7a1.67,1.67,0,0,0,1,2c2.91,9.2,9.7,18.72,20.2,19.29,7,.38,15.45-4.07,16.87-11.18a55.64,55.64,0,0,1-1.19-5.68c-1.45-1.06-3.65-.9-4.26,1.4-1.72,6.57-9.62,9.26-15.34,5.73-5.38-3.33-8.26-9.75-9.74-16,6.83-7.08,17-11,27.42-12.65a21.54,21.54,0,0,0-4.08,4.12c-.72,1,.46,2.37,1.53,2,6.87-2.3,14.25-6.8,21.68-6.5,1.18.14,2.33.31,3.45.5C579,73.94,581.26,64.88,575.78,64Z"/><path d="M587.43,145.47a11.72,11.72,0,0,1-1.81.46,27,27,0,0,0,3.15,2.57A13,13,0,0,1,587.43,145.47Z"/><path d="M508.46,170.41c-2.55-4.35-7.65-6.69-12.31-4.56-3,1.37-2.44,6.88.94,7.4,8.58,1.3.81,10.9-2.8,14.11-5.06,4.5-12.35,4.75-13.7-3-2.14-12.13-3.12-31.69,10.53-37.43,2.68-1.13.77-5.37-1.93-4.63-11.13,3.06-16.81,13.49-17.95,24.32a75.81,75.81,0,0,0,.7,19.38c.85,5.35,3.53,10.06,8.65,12.26,11,4.71,21.73-4,26.8-13.22C509.82,180.64,511.18,175.06,508.46,170.41Z"/><path d="M598.8,113.43c-9.21-7.58-23.58.37-27.33,9.87a3.67,3.67,0,0,0,1.67,4.14A4,4,0,0,0,575,128a3.78,3.78,0,0,0,3.55-2.68,12.27,12.27,0,0,1,7.77-7,9.64,9.64,0,0,1,5.55-.25c2.39.82,1.77,2.08.66,4-3.66,6.29-12.63,11.56-19.2,6.23-5.35-4.36-6.21-12.83-4.21-19,2.77-8.53,9.72-15,16-21.09,2.69-2.6-1.29-6.52-4.06-4.09-9.79,8.58-20.8,19-20.55,33.08.22,11.7,8.8,22.84,21.39,21.22a22.85,22.85,0,0,0,15.18-9.19C600.23,124.93,603.87,117.6,598.8,113.43Z"/><path d="M644.19,93c-4.64-.54-9.58,4.51-12.63,7.46-3.22,3.11-9.07,8.36-7.93,13.25a2.12,2.12,0,0,0,1.22,1.41c-2.88,1.17-5.4.77-5.9-4.19-.64-6.31,4.82-12.43,6.27-18.46,1.11-4.62-6-6.61-7.11-2-2.33,9.59-11.25,19.42-3.53,29.07,8.26,10.33,20.41-2.78,27.39-8.1,3.57-2.72,8-5.78,8.19-10.77C650.27,97.2,647.81,93.43,644.19,93Zm-2.6,10.65c-2.83,2.44-6.16,4.44-9.2,6.61-.52.37-1.12.82-1.75,1.28.35-.53.71-1.1,1.13-1.68a46,46,0,0,1,6.35-7c.67-.6,4.83-4.57,5.63-3.66C644.93,100.62,642.38,103,641.59,103.66Z"/><path d="M568.13,173.3c-8.76-12.49-25.35-3-31.6,6.69-2.71,4.21,3.23,7.89,6.39,4.91l.09.12c2.76-3.06,5.2-6.55,9.11-8.24,3.48-1.5,8.44-1.28,9.91,2.84,3.2,9-9,13.9-15.4,15.75-7.6,2.2-17.5,3.19-23.84-2.62-5.07-4.65-6.59-13.38-1-18.14,2.09-1.76-.67-5.42-2.92-3.82-8.76,6.19-8.1,18.9-1.48,26.52,8.78,10.11,25.54,8.61,36.77,4.26C564.93,197.41,576.44,185.15,568.13,173.3Z"/><path d="M641.33,150.05c-5.5-10.12-18.69-5-23.58,2.8-2.39,3.83,2.35,8.64,6.21,6.24,1.46-.9,9.53-7.56,8-2.14-1.15,4.14-8.42,6.32-11.9,7.79-3.17,1.35-10,5.42-12.82,2.21-3.31-3.77-.08-10.29,1.6-14,2.92-6.56-6.79-12.29-9.68-5.7-4,9.12-7.46,20.51,1,28.37s21,.83,29.65-3.34C638,168.31,646.62,159.79,641.33,150.05Z"/><path d="M659.19,309.17c-.32-4.41-6.21-4.28-6.74,0-.63,5.06-2.12,9-5.68,12.78-2,2.14.57,5.89,3.24,4.22C655.57,322.66,659.67,315.87,659.19,309.17Z"/><path d="M738.89,299.23c-4.2,3.6-7.67,7.69-12.33,10.84a64.49,64.49,0,0,1-14.67,7.44,63.35,63.35,0,0,1-32.55,2.67c-3.74-.69-5.39,5-1.6,5.75a69.76,69.76,0,0,0,36.52-2.34c10.75-3.71,23.47-10.52,29.86-20.3C746.3,300,741.64,296.88,738.89,299.23Z"/><path d="M761.11,287.78c-3.32-1.44-7.07-1.72-10.6-2.59s-7-2.41-10.47-3.52c-2.46-.76-3.88,2.33-2.38,4.05,4.91,5.64,14.93,10.58,22.5,9.18C763.27,294.32,764.16,289.1,761.11,287.78Z"/><path d="M613.9,245.44a30.38,30.38,0,0,0-18.14-3.18c-8.93-7.43-24.91,8-31.46,12.63-3.73,2.67-1,8.25,3,7.12l0,0-.33.3c-3.64,3.52,1.2,8.5,4.95,6.41l0,.1c2.61-1.69,5.09-3.43,7.68-5,1,2.62,5.19,4.14,7.81,1.94A45.31,45.31,0,0,1,604,256.93a4.12,4.12,0,0,0,2.45-2,30.6,30.6,0,0,1,4.9-.17C616.27,255.05,618.27,247.75,613.9,245.44Z"/><path d="M771.27,186.38c-.55,0-1.15,0-1.76,0-1.75-1.8-4.73-2.69-7.07-1.45l-2.82,1.49a32.75,32.75,0,0,0-9.09,2.92c-4.91,1.68-9.2,4.23-11.46,8l-1.84,1c-4.47,2.36-2.7,7.89,1,9.34a5.73,5.73,0,0,0,5,2.88c.72-.08,1.43-.17,2.13-.28l1.2-.12a5.68,5.68,0,0,0,3.39.11,64.82,64.82,0,0,0,9.32-3.19,47.71,47.71,0,0,0,6.19-3c.66-.37,1.32-.73,2-1.11a6.06,6.06,0,0,0,1.11-.86,45.87,45.87,0,0,0,6.82-5.79A5.83,5.83,0,0,0,771.27,186.38Z"/><path d="M666.06,36.37c-4.06-2.26-8.6-2.86-13.16-3.25-1.39-.12-2.79-.22-4.2-.29a25.92,25.92,0,0,0-4.94-15.22C635,6,619.55,3.37,606.55,8.85c-10.59,4.47-22.08,17.1-14.64,29,1.86,3,6.1.4,4.64-2.69-3.48-7.41,4.31-14.72,10.34-17.7C614,14,623,13.31,630,17.25c5.35,3,10.61,9.26,9.69,15.82a29.91,29.91,0,0,0-5,1.06,23.16,23.16,0,0,0-5.5,2.58c-2.7-1.35-4.67-3.41-4-4.78A2.87,2.87,0,0,0,622,27.76c-6.16,1.36-7.05,8.78-3.29,13.11a16.79,16.79,0,0,0,3.43,3,14.91,14.91,0,0,0-1.46,12.59,2.51,2.51,0,0,0,3,1.72,10.5,10.5,0,0,0,6.23-3.79,1.62,1.62,0,0,0-2.28-2.3,5.67,5.67,0,0,1-2.26,1.23,12.1,12.1,0,0,1,2.18-6.83,20.74,20.74,0,0,0,9.47,1c5.79-.88,9.15-4.24,10.69-8.56a66.54,66.54,0,0,1,9.48.39c4.59.53,15.78,4.07,8.66,10.21C662,52.83,653.76,55,649.26,52.1A1.53,1.53,0,0,0,647,53.8c2.53,7.8,15.71,3.3,20.43.11C674.61,49.08,673.21,40.34,666.06,36.37Z"/><path d="M875.31,158.29a23.22,23.22,0,0,0-16-13.12,23.17,23.17,0,0,0,7.72-10.32c4.52-11.87-.89-22.8-9.93-28.22a4.24,4.24,0,0,0,.78-2.17c.71-13.67-8.23-25.67-19.94-31.95a46.76,46.76,0,0,0-9.32-3.73c2.8-5.18,1.92-13.09-2.27-17.48-11.16-11.71-27.6-2.13-40.89-5.83-5.15-1.44-7.34,6.47-2.23,8,9.87,2.93,19.6-1.1,29.46.63,3.38.59,7.65,2.19,8.38,6a6.81,6.81,0,0,1-2.9,6.76c-9.1-.86-18.5.09-27.43,1.42a3.62,3.62,0,0,0-1.19.4,14.6,14.6,0,0,0,0-2.09c-1.42-15.09-18.64-21.18-31.41-22.39-8.35-.78-16.92-.53-25.32-.35a10.72,10.72,0,0,0,4.53-5.9,4.13,4.13,0,0,0-1.85-4.58c-1.6-1-3.23-2.05-4.87-3a2.62,2.62,0,0,0-.76-3.55,8.16,8.16,0,0,0-5.85-1,18,18,0,0,0-4-1,120.21,120.21,0,0,0-12.68-4.95c-4.37-1.42-6.52,4.53-3.49,7l-1.74.55c-2.76.91-1.6,5.29,1.2,4.39a69.37,69.37,0,0,1,7.69-2.1c2,.79,4,1.65,6,2.56a10.45,10.45,0,0,0-.67,5.53c-.56.07-1.13.16-1.69.27-1.74.32-1.64,2.57-.46,3.42A8.14,8.14,0,0,0,719,43a10.23,10.23,0,0,0,1.62,1.28c-5.47.33-10.93.87-16.35,1.74C690.89,48.2,676.79,53,668.77,64.51A76,76,0,0,0,629,71.09c-3.45,1.58-.47,6.57,3,5.07,16.95-7.45,38.84-8.27,55.85.19a308.75,308.75,0,0,0-48.5,3.26c-3.24.47-2.53,6.18.76,5.77a324.93,324.93,0,0,1,57.59-2.19,11,11,0,0,1,3.2,7.83c-.21,5.6-4.76,10.21-8.59,13.81-3.66,3.44-9,8.11-14.43,7.08a8.09,8.09,0,0,1-5.66-4c-.83-1.68-.63-3.13-1.88-4.6a1.6,1.6,0,0,0-1.9-.25c-5,2.32-1,9.49,1.76,12,4.64,4.24,11.06,4.26,16.55,1.81,11-4.88,24.65-19,19.92-31.95-.15-.4-.31-.8-.48-1.19q9.74.78,19.4,2.18c5.6.82,13.23,1,18,4.42,6.47,4.56,2.72,10.07-2.95,12.68-8.43,3.87-20.07,7.33-29.28,4.06a10.49,10.49,0,0,0,1.38-1.82,2,2,0,0,0-1.74-3c-2.71.22-4.76,1.31-7.12,2.71a3.22,3.22,0,0,0,0,5.5c11.36,7.74,27.24,3.86,39-1.12,5.25-2.23,10.67-6,11.1-12.28s-4.09-11.35-9.49-13.79c-6.83-3.07-15.06-3.5-22.42-4.45q-10.38-1.32-20.83-2c-6.9-6.62-17.93-10-26.75-11.53,7.22-7.56,18.07-10.44,28.18-12.24,13.75-2.46,27.83-2.33,41.74-2.15,11.69.14,26.94-.48,35.51,9,3.15,3.48,4.51,7.9,3,11.7a3.39,3.39,0,0,0-6-.43c-1.55,2.53-3.13,5.17-4.56,7.91-4.17.92-8.57.78-12.95,1.08A.92.92,0,0,0,759.1,82,42.54,42.54,0,0,0,770,83.89c-3.13,7.28-4.69,15.06-1.81,22.85,4.28,11.57,16.41,16.75,27.87,12.3,9.32-3.63,20.56-15.8,13.11-26.09a12.73,12.73,0,0,0-10.95-5.08c-3.78.26-8.4,3.18-7.1,7.51a3.08,3.08,0,0,0,3.67,2.1c2-.34,3-2,5.08-1.64,3.14.51,3.84,3.28,3,6-2,6.74-11.48,10.59-17.93,9.19s-9.23-8.33-9.39-14.34c-.12-4.88,1.36-9.58,3.34-14.07a15.28,15.28,0,0,0,2-.84,16.17,16.17,0,0,0,7.83-8.65,3.8,3.8,0,0,0,4,2.09c13.23-1.92,28.06-3.09,40.44,3,9.17,4.52,16.64,13.08,17.67,23.36a140.28,140.28,0,0,1-15.42,1.93c-4.77.31-10.53-.56-14.87,1.66a1.78,1.78,0,0,0,0,3c3.53,2.23,8.61,2.09,13.1,1.82a2.49,2.49,0,0,0,2.32,0l.44-.2.74,0c4-.18,7.94-.56,11.88-1.07,9.94,2.58,17.23,13,12.7,24.2-2.72,6.77-9.14,11.16-16.54,10.36a18.93,18.93,0,0,1-9.55-3.93h0c-1.28-2.92-2.62-5.79-4.06-8.59A52.88,52.88,0,0,0,822,117.21a2.84,2.84,0,0,0-4.5,3.27c1.77,5.39,3.66,10.42,5.9,15.54s4.21,10.08,6,15.32a207.18,207.18,0,0,1,8.25,33.36,199,199,0,0,1-1,68.54c-8,41.48-30.12,78-59.7,99-34.55,24.45-77.38,26.66-116,22.44-38.15-4.17-77.19-18.3-107.9-48-27.52-26.58-49-65.63-54.72-109.12a130.21,130.21,0,0,1-.88-17c0-1.87-2.31-1.88-2.31,0a203.39,203.39,0,0,0,10.41,65.94,181.78,181.78,0,0,0,31.41,56.62c29,35.57,68.35,54.66,107.91,62a250.65,250.65,0,0,0,31.9,3.86c5.82,4,11.23,8.61,15.14,14.53a58.1,58.1,0,0,1,5.33,10.15c.28.69.51,1.41.73,2.12a27,27,0,0,0-6.94-.22c-1.56-5-8.4-3-9,1.64,0,.09,0,.18,0,.27-3.88-2.31-9.44-1.63-10.37,3.95q-.5,3-1,6a26.93,26.93,0,0,0-4.6,21.45A79.43,79.43,0,0,1,661,460.52,7.54,7.54,0,0,0,664,470.86a4.87,4.87,0,0,0,.93,1.41,8.34,8.34,0,0,0,1.05,4.85,2,2,0,0,0-2.48.36c-9.37,9.4-19.08,18.46-28.45,27.85-4.69,4.69-9.22,9.55-13.83,14.33-4.4,4.56-9.23,8.94-13,14-2.92,3.87,2.92,7.61,6.26,4.82l.06.09c5-4.25,9.21-9.69,13.64-14.51,4.29-4.67,8.67-9.27,12.86-14,8.59-9.77,16.93-19.74,25.57-29.47a2.1,2.1,0,0,0,.54-1.86,9.47,9.47,0,0,0,6.44,3.1,320.71,320.71,0,0,0,35.62.61c5.67-.23,11.29-.81,16.91-1.52,6.09-.78,12.65-.76,17.57-4.69a4.29,4.29,0,0,0,1.06-1.26l2.91-.08a5.14,5.14,0,0,0,2.29.95c.62.11,1.25.19,1.88.26a5.46,5.46,0,0,0,4.84-2l.71-.12c5-1,5-6.82,2-9.61.38-5.39.36-10.88.92-16.25l2.19-20.89a4,4,0,0,0-.17-1.65c.25-2.3-.8-4.61-3.6-5a241.2,241.2,0,0,0-32.54-2.79,131.83,131.83,0,0,0-19.25.78c.47-7-4.5-15.73-8.08-20.58a48.76,48.76,0,0,0-8-8.59q8.51,0,17-.61c21.65-1.55,43.12-6.43,63.12-17.25a123.2,123.2,0,0,0,19.63-13.32,38.11,38.11,0,0,0,1.92,11.09,34,34,0,0,0,4.39,9.22c2,2.8,4,3.57,7.26,4a1.77,1.77,0,0,0,1.77-1.76c0-5.38-3.29-8.75-5.05-13.71a31.78,31.78,0,0,1-1.38-16.4,4.22,4.22,0,0,0,0-.49c20.21-19.89,35.88-47.05,44.6-77.48a191.78,191.78,0,0,0,6.62-36.56,15.86,15.86,0,0,0,9.21-2c7.15-3.93,11.82-11.41,14.5-18.9,3.36-9.36,3.83-19.89,3.93-29.74C878.41,176.51,879,166.66,875.31,158.29ZM699.1,419.4q.14.38.3.75a31.64,31.64,0,0,0-4.06,1.5c-2,.92-1.39,4.11.59,4.62,4.56,1.19,9.37,1,14.05,1.13,5.37.21,10.74.37,16.1.57,8.87.33,17.67,1,26.47,2l-3,16.64c-1,5.64-2.73,11.23-3.89,16.84-2,.23-4,.48-6,.62l-16.19,1.17-8.88.65-6.28.06c-5.64.06-11.29,0-16.92-.29-1.33-.51-2.75-.87-4.1-1.37a89.2,89.2,0,0,0,4.94-16.78,73.29,73.29,0,0,0-.15-26.91,24.44,24.44,0,0,1,6.09-.94A1.83,1.83,0,0,0,699.1,419.4ZM839.78,150c-.23-.62-.45-1.25-.68-1.87.78.25,1.55.46,2.3.64Q840.56,149.35,839.78,150Zm25,33.72c-.08,9.33-.26,19.39-3.75,28.19a22.52,22.52,0,0,1-5.59,8.46,15.21,15.21,0,0,1-4.05,2.36,208,208,0,0,0-7.21-58.86c4.13-4.66,9-8.84,15.48-4.33C866.63,164.4,864.84,176.39,864.78,183.71Z"/><path d="M749.21,34.79a0,0,0,1,0,0,.09A0,0,0,0,0,749.21,34.79Z"/><path d="M1069.41,606.82a307.28,307.28,0,0,0-12.08-43.46c-9.11-25.12-22.1-48.92-40.76-68.23-2-2-5,1-3.08,3.07.44.47.87.95,1.31,1.43l-10.6,3.44a3.81,3.81,0,0,0-2,5.69,2.26,2.26,0,0,0-.43-.17c-6.5-2-16.34,1.18-22.69,2.9a116.47,116.47,0,0,0-22,8.56,2.47,2.47,0,0,0-1.27,3.37c-9.77-.29-20.06,1.91-29.38,3.65-12.86,2.41-25.56,5.63-38.17,9.1q-37.26,10.27-74,22.17c-47.08,15.12-94.78,30.77-139.5,52a311.85,311.85,0,0,0-57.5,34.79c-3.55-4.81-5.28-10.47-7-16.72a239.59,239.59,0,0,1-6.71-34.1A247.17,247.17,0,0,1,602,560.81c.16-10.55.45-20.73,3.35-30.92a1.43,1.43,0,0,0-2.08-1.6c-9.74,5.44-10,20.17-10.76,29.9a199.84,199.84,0,0,0,1.27,40.39,205.42,205.42,0,0,0,8.63,39.14c1.3,3.93,3.4,8.87,6.45,12.49a2.45,2.45,0,0,0,.07,1.66l-.5.41c-1.21,1,.39,3.17,1.71,2.23l.19-.14q.46.81.9,1.62a8,8,0,0,1-8,.7c-4.54-2.52-5.81-9.47-7-14-3.59-13.9-7.55-27.84-10.43-41.9-2.84-13.86-2-28.3-2-42.37,0-3.46,0-6.93,0-10.39,0-2.61-.15-6,1.39-8.28s3.24-1.76,5.66-1.9c1.52-.09,3.52-.49,3.94-2.26,1.21-5.14-4.6-7.2-8.73-6.56-5.37.83-9.12,5.17-10.56,10.23a33.52,33.52,0,0,0-1.14,7.94c-.63-1.86-2.54-3.21-4.54-1.75-5.27,3.87-9.9,7.12-14.08,12.29a105.87,105.87,0,0,0-10.47,15.16c-6.06,10.89-10.75,23.12-12.09,35.56a4.51,4.51,0,0,0,.31,2.25c-2,0-4.18,1.26-4,3.6,1.13,12.6,1.79,25.21,1.85,37.85,0,6,0,12.06-.08,18.08,0,2.72-.37,5.74-.47,8.73-1-1-2-2-3.05-3-12.94-12.74-25.31-26-37.86-39.16a2.28,2.28,0,0,0-1.09-.66c-.33-3.84-4.65-7.74-9.39-5.62q-25.05,11.19-49,24.56c-15.74,8.8-30.51,19-46,28.24-6.33,3.78-14.26,8.09-21.89,6.47-6.8-1.44-10.63-7.75-13.12-13.71-3.31-7.88-5.38-16.38-7.92-24.53q-4.38-14.05-8.77-28.12l-19-60.85a7.74,7.74,0,0,0,4.69-6.6,4.13,4.13,0,0,0-2-3.58c-4.18-2.67-9.32.9-13.86,1a20.9,20.9,0,0,1-13.32-4.23c-6.92-5.3-15.31-15.56-24.92-10.9a167.57,167.57,0,0,0,24.19-18.6c2.66-2.44-.85-7.21-3.91-5.1a164.27,164.27,0,0,1-81.5,28.83,123.69,123.69,0,0,1-75.67-19.61c-12.55-8.1-21.58-19.27-32.14-29.59-3.73-3.64-11.11-.07-9.23,5.34,4.85,13.87,15.7,24.67,27.07,33.59a124.88,124.88,0,0,0,38.77,20.56c29.95,9.73,62.79,7.68,91.67-4.56a145.72,145.72,0,0,0,19-9.79,3,3,0,0,0,2,5.14c6.57.43,9.93,5,14.09,9.47a32.59,32.59,0,0,0,13.63,8.93,37.43,37.43,0,0,0,9.84,1.59q9.22,30.16,18.47,60.32,4.57,15,9.16,29.92c2.72,8.85,5.08,18,8.68,26.49,3,7,7.3,13.79,14.1,17.67,7.35,4.19,16.16,4.19,24,1.6a58.31,58.31,0,0,0,6.6-2.66q6.62,7.2,13.3,14.35A173,173,0,0,0,407,726.08a211.08,211.08,0,0,0,29.46,29.49c6,5,12.27,9.7,18.62,14.26a190.81,190.81,0,0,0,22.53,16.67,136.11,136.11,0,0,0,15.49,8.27q3.57,2.07,7.23,3.92a3.29,3.29,0,0,0,.63,4c9.76,9.48,21.28,16.43,33.72,21.83a164.49,164.49,0,0,0,18.61,6.83c6.51,1.91,13.47,3.92,20.31,3.32,12.72-1.12,23.1-9.45,31.44-18.53a141.53,141.53,0,0,0,21.68-31,146.76,146.76,0,0,0,8.56-20.29c1.09-3.23,3.2-8,3.69-12.41a217.12,217.12,0,0,0,19.66,39.13A224.4,224.4,0,0,0,673,811.46c4.56,5.67,10.1,14,17.53,15.79a4.2,4.2,0,0,0,5.12-5.09c-1-4.11-3.5-6.64-6.26-9.68s-5.43-6.16-8-9.31a199.65,199.65,0,0,1-14.56-19.9,211.55,211.55,0,0,1-14.09-25.71c3.44,1.12,7.72-1.3,6.54-5.95a15.94,15.94,0,0,0-1-3.41C653.82,734,646.9,719.88,639.65,707c-1.9-3.36-3.87-6.72-5.95-10-3.78-14.18-8.23-28.1-15.57-40.85,0-.14,0-.28,0-.43a3.06,3.06,0,0,0-.13-.56,11.09,11.09,0,0,0,3-.36c1.83-.47,2.87-3.26,1.22-4.56a27.44,27.44,0,0,1-2.51-2.25c35.61-23.45,75.67-39.57,115.62-54Q807,568.23,880,546.51c13.67-4.08,27.4-8,41.33-11.15q10.41-2.33,21-4c5.62-.86,11.36-1.22,16.93-2.33a12.21,12.21,0,0,1,.45-3.84,1.69,1.69,0,0,0,.36-.12,116.49,116.49,0,0,1,21.73-6.94,104.52,104.52,0,0,1,10.67-1.76c3.51-.38,6.85-.25,10.1-1.73,1.89-.87,2-3.05,1.07-4.58a3.23,3.23,0,0,0,2.5.08l11.81-4a3.57,3.57,0,0,0,1.62-1.1c15.17,18.11,25.94,39.51,33.57,61.85A422.33,422.33,0,0,1,1064.63,609c3.32,14.53,4.81,30,9.62,44.08a1.17,1.17,0,0,0,2.28-.3C1076.37,637.54,1072.45,621.76,1069.41,606.82ZM623.73,762.39A128.51,128.51,0,0,1,615.32,782c-6.66,12.52-15.31,24.82-26.24,34-5.46,4.58-12.09,8.16-19.4,7.77-7.62-.4-15.51-3.18-22.68-5.68-11.18-3.91-21.7-9.38-32-15.27,4.89-2.18,7.66-9.69,2.88-13.58-11-9-24.36-15.4-36.33-23a345.88,345.88,0,0,1-34.52-24.38A231.75,231.75,0,0,1,417,713c-4.41-5.17-8.41-10.64-12.37-16.16a68.45,68.45,0,0,0-6.16-7.94l2.23-1.46q12.56-8.21,25.51-15.79a610,610,0,0,1,59.47-30.47,6.27,6.27,0,0,0,.58-.29,347.23,347.23,0,0,0,35.15,41.45c6.45,6.59,13,13.07,19.84,19.31,3.3,3,6.73,5.91,10.17,8.78s7,5.93,11.51,6.93a2.6,2.6,0,0,0,3.29-2.34,2.78,2.78,0,0,0,1.41,1.79c13.24,7.76,28.57,12.47,42.76,18.25q10.7,4.35,21.28,9C626,747.06,625.57,756.88,623.73,762.39Zm-3.22-83.51-1-1.21c-2.27-2.73-4.48-6-8-7.09a2.24,2.24,0,0,0-2.82,2.13c.18,3.45,2.45,6.12,4.29,9,2.17,3.36,4.21,6.8,6.31,10.22,2.44,4,4.85,8,7.18,12.05,2,10,3.89,20,6.43,29.74q-8.67-3.69-17.4-7.22c-14.59-5.87-30-12.75-45.66-15a3.33,3.33,0,0,0-3.73,2.71,3.35,3.35,0,0,0-.21-.73c-1.68-3.92-4.89-6.69-8-9.49-3.33-3-6.59-6.05-9.92-9.05-2.52-2.26-5-4.55-7.5-6.85,2.46-5.12,1.29-12.29,1.25-17.81,0-1.91-.07-3.81-.13-5.72a5.8,5.8,0,0,0,1.45-3.5c.82-9.54-.35-19.47-.41-29,0-6.71-.29-13.38-.36-20.07a4.74,4.74,0,0,0,1.13-2.06c2.85-11,5.84-21.43,11.28-31.44a117.12,117.12,0,0,1,8.67-13.84c3.39-4.6,6.72-9.68,10.42-14a3.35,3.35,0,0,0,.52-.86c0,3.22.13,6.45.1,9.5-.07,7.62-.25,15.24-.16,22.85.18,15.25,3.87,29.62,7.44,44.35,1.8,7.42,3.41,14.91,5.44,22.27,1.54,5.6,3.83,11.31,8.33,15.21,5.4,4.67,15.1,5.07,19.9.57A132.07,132.07,0,0,1,620.51,678.88Z"/><path d="M501.91,612.81c-1.86-4.43-2.61-9-5-13.22a96.33,96.33,0,0,0-6.22-9.67c-4.77-6.59-10-12.88-15.3-19A434.71,434.71,0,0,0,441.67,536a173,173,0,0,0-19-15.48c-1.52-1-3.05-2-4.65-3,.79-5,1.44-10.06,2.22-15q2.34-14.82,4.67-29.64a5.57,5.57,0,0,0-.34-3.05,55.61,55.61,0,0,0,8.19-14.31c4.38-11.31,3.78-25.37-3.57-35.34a28.92,28.92,0,0,0-24.57-11.47c1-2.73,1.87-5.44,2.64-7.81q3.23-9.86,6.43-19.71c2.06-6.32,5.12-13.16,5.33-19.87a3.68,3.68,0,0,0,2.16-2.68c6.34-25.94,2.24-53.15-9.21-77.06-.14-.29-.3-.57-.44-.86a3.64,3.64,0,0,0-.14-1.61C401.78,247,390.55,215,361.82,195c-14.33-10-30.82-16.59-47.28-22.14a313.38,313.38,0,0,0-56.3-13.24c-21.5-3-43.12-2.69-64.72-.91a1.28,1.28,0,0,0-1.13,1.62c-45.86-.18-91.79,14.77-128.12,42.77-20.48,15.78-38.74,35.84-50.54,59C-.39,289.76-2.1,320.57,1.84,350.92a283.1,283.1,0,0,0,22.38,79.17c11,24.63,25.46,49.33,44.55,68.61a131.49,131.49,0,0,0,15.06,13.14c3,2.25,7.34-2.15,5.2-5.17-14.84-21-30.86-41-43-63.83a275.62,275.62,0,0,1-26.2-71.53c-5.77-26.8-8.53-55.81-1.09-82.55,6.88-24.7,23.12-46.2,41.67-63.48,33.24-30.95,78.84-50.46,124.21-52.65,24.76-1.2,48.62,2.72,72,11,25.43,9,50.68,20.08,74,33.68,43.16,25.2,83.46,67.59,84.2,120.6a93.86,93.86,0,0,1-1.59,18.55,4.36,4.36,0,0,0,.1,2.08,4,4,0,0,0-.85.84c-3.48,4.73-5.13,11.25-7.1,16.72l-6.4,17.85c-1.71,4.76-3.16,9.75-5.29,14.34-2,4.32-5,7.83-7.76,11.65a3.08,3.08,0,0,0-.59,1.45c-3.71,6.14-6,13.53-8.45,20-2.15,5.62-4.19,11.28-6.22,16.94a70.83,70.83,0,0,1-7.63,3.22c-9.83.33-20.62,7.44-26.74,14.36-7.34,8.31-12,20.77-5.45,30.93,4.78,7.44,15.62,1,11.81-6.85-2.37-4.88-.43-10.15,2.75-14.55a33.5,33.5,0,0,1,2.55-2.8,32.34,32.34,0,0,1,8.43-5.95c2.7-1.34,5.57-1.88,8.39-2.7-1.81,5.06-2.91,10.5.42,14.11a3.33,3.33,0,0,0,5.17-.65c7.22-13,12.49-27.22,17.88-41,3.63-9.29,7.06-26.66,20.32-25,11.68,1.47,16.11,13.64,14.15,24-1.18,6.26-4.4,11.92-8.39,16.82s-9.43,9.1-10.72,15.45a3.33,3.33,0,0,0,3.16,4.17,14.65,14.65,0,0,0,6.17-1.54l-3.48,20.12c-.78,4.5-1.67,9-2.48,13.58-1.59-.16-3.18-.24-4.71-.33-4.05-.22-4.59,5.69-1,6.85a14.46,14.46,0,0,1,4.27,2.38c-.26,1.92-.48,3.84-.63,5.76-.42,5.33,6.82,6.92,9.68,3.39l.07.07c4.28,4.38,8.83,8.51,13.23,12.78,9,8.75,18,17.51,26.48,26.82,8.05,8.86,16.19,18,23.18,27.69a91.6,91.6,0,0,1,5.35,8.3c1.48,2.59,3.38,4.71,4.94,7.2a46.68,46.68,0,0,1,4.12,9.24c.73,2.12,1.48,3.46-1,4a3.77,3.77,0,0,0-2.63,4.6c2.44,6.72,10.62,5.89,14.67,1.15C508.53,627.45,504.76,619.57,501.91,612.81ZM358.58,220.22c-22.8-16.57-48.49-28.64-74.52-39.17-23-9.3-46.28-16.8-70.84-19.54a376.3,376.3,0,0,1,88.58,15.25c32.06,9.52,64.79,23.07,82.54,53.14a153.59,153.59,0,0,1,12.06,26.5A182.44,182.44,0,0,0,358.58,220.22Z"/><path d="M248.29,475.4c-26.88-6.61-55.15-12.89-80.09-25.25a131.64,131.64,0,0,1-48.4-41.31c-24.69-34.46-33.89-79.52-21.07-120.31a121.49,121.49,0,0,1,17.88-35.43c-1.36,2.31-2.57,4.64-3.62,6.88a98,98,0,0,0-8.91,33.54,134.19,134.19,0,0,0,3.31,40.19c3,13.13,6.84,27.72,13.9,39.31a1.53,1.53,0,0,0,2.78-1.16c-3.09-12.79-8.56-24.88-11.41-37.8a131.52,131.52,0,0,1-3.11-38.34,100.16,100.16,0,0,1,8-33,104.74,104.74,0,0,1,7.53-13.9c3.07-4.82,7.07-8.82,10.31-13.48.46-.66-.41-1.36-1-1l-.23.13a90.72,90.72,0,0,1,9.24-6.72,2.43,2.43,0,0,0-2.43-4.2c-10.85,5.47-20.23,12.21-28.11,21.59a119.69,119.69,0,0,0-18.33,30.05,131.92,131.92,0,0,0-9.2,67.09c5.25,44.15,30.31,86.1,68.63,109.3,27.69,16.76,61.09,24,92.17,31.7C251.17,484.45,253.35,476.65,248.29,475.4Z"/><path d="M354.45,333.19c-7.41-24.07-22.89-43.93-41.88-60.12a325.38,325.38,0,0,0-32.63-23.95c-11.79-7.76-23.85-15.32-37-20.6-31.28-12.56-65.36-7.74-97.69-2.79-1.28.2-1,2.43.3,2.29,28-3.08,57.49-6.35,84.92,1.86,13.06,3.91,24.82,10.72,36.19,18.09,11,7.11,22,14.3,32.34,22.3,19.36,14.91,37,33.11,46.09,56.15a118.23,118.23,0,0,1,6.32,63,124.24,124.24,0,0,1-11.05,34.83C335,435.09,327.64,444.44,320.32,454c-.88,1.15.85,2.85,2,2,17.69-12.8,28.45-35.22,33.75-55.88A125,125,0,0,0,354.45,333.19Z"/><path d="M315.82,452.15c-4.07.59-7.17,5.1-10.22,7.57a83.32,83.32,0,0,1-13,8.59,86.83,86.83,0,0,1-28.78,9.43c-2.06.3-1.61,3.9.49,3.68a88.77,88.77,0,0,0,30.77-8.84,87.3,87.3,0,0,0,13.76-8.64c3.45-2.63,8.44-5.63,9-10.28C317.92,452.54,316.71,452,315.82,452.15Z"/><path d="M306.45,450.88c-17,5.38-33.74,7.77-51.53,5.5-16.89-2.15-33.18-8-48.27-15.74-30-15.48-56.75-38.41-79-63.69-1.09-1.23-2.82.55-1.8,1.79,33.71,40.82,82.31,79.72,137.29,82.8,15,.83,31-.86,44.74-7.14C309.9,453.49,308.51,450.23,306.45,450.88Z"/><path d="M1071,419.49c-.73-7.74-10.65-11.72-17-14.29a97.44,97.44,0,0,0-23.86-5.87c-18.57-2.49-37.53-1.12-55.88-5.36a5.83,5.83,0,0,0-7,3.92c-6.88-2.32-14.95-2.93-21.92-4.27a4.41,4.41,0,0,0-1.44-.05c-.41-.6-.82-1.21-1.24-1.8a3.3,3.3,0,0,0-5.85.93c-2-.19-3.9-.34-5.66-.56q-10.93-1.38-21.95-1.94a189.48,189.48,0,0,0-21.18-.28c-4.62.29-9.3,1.31-12.69,4.47,3.15-3.41,3-9.94-2.78-11.21l-50.94-11.24c-7.19-1.58-10.55,8.52-4.59,11.34-2.67,2.5-5.28,5.07-7.88,7.61q-11,10.75-22.13,21.4L783,410.81c-5.38-1.94-9.25,6.92-4,9.32,11.4,5.17,22.82,10.27,34.32,15.21,5.57,2.4,11.15,4.8,16.76,7.11s11.91,5.95,18,6.92c4.38.7,6.85-1.81,7.4-4.72a7.07,7.07,0,0,0,3.31-2.46c4-5.26,6.26-11.5,9-17.47s5.45-12,8.17-17.94a7.65,7.65,0,0,0-.18-7.21,2.26,2.26,0,0,0,1.33-.35c4.76-2.8,10-2.67,15.4-2.59q9.7.15,19.4.94c6.7.55,13.39,1.32,20,2.34,2.93.45,6.31,1.44,9.63,2q6.18,10.17,12.13,20.48l3.24,7.53c-.22-1-.42-2-.63-2.94q5.73,10.08,11.3,20.25,7,12.91,13.55,26.07,3.46,7,6.78,14c1.65,3.51,2.78,7.51,6.92,8.62a4.75,4.75,0,0,0,5.2-2.1,4.89,4.89,0,0,0,.6-4.2,4.13,4.13,0,0,0-2.58-2.7c-.2-.39-.39-.79-.58-1.19-.49-2.32-2.37-4.84-3.42-7q-3.07-6.19-6.26-12.32-6.76-13-14-25.8c-6.82-12-14.11-23.72-21.75-35.2-.13-.71-.25-1.42-.38-2.13l4.33.81c3.94.74,8,2,12.07,1.85q12.47,21.18,24.14,42.8,6.12,11.39,12,22.88,2.83,5.57,5.62,11.14c1.92,3.85,3.46,8.17,6.28,11.44,1.67,1.93,4.41-.16,4-2.3-.84-4.2-3.47-8.15-5.39-12s-3.75-7.42-5.65-11.11q-5.93-11.49-12.08-22.85Q986,425.82,974.29,406.06c16.45,3.32,33.25,2.86,49.91,4.53A101.38,101.38,0,0,1,1046,415a73.28,73.28,0,0,1,10.7,4.61c3.24,1.68,6.4,4.48,10.25,4C1068.93,423.31,1071.24,421.93,1071,419.49ZM874.24,395.56a2.46,2.46,0,0,0-.55,2l-.23-.15c-3-1.8-7.81-.9-9.41,2.43l-8.94,18.52c-2.69,5.56-5.74,11-7.47,16.91-3.75-1.67-7.85-2.9-11.49-4.36-6-2.4-12-4.71-18-7q-11-4.2-22-8.22,9.84-8.31,19.74-16.58c4.5-3.75,9-7.5,13.32-11.49.29-.27.6-.58.91-.91l38.73,9.57a6.35,6.35,0,0,0,5.88-1.32C874.62,395.12,874.43,395.33,874.24,395.56Z"/><path d="M421.29,55a61.91,61.91,0,0,0-6.19,2.31c-3.32-2.09-5.72-11.23-6.19-13.17a128.64,128.64,0,0,1-3.57-27.49c-.18-7.14-11.26-7.21-11.12,0,.06,3.43.2,7,.46,10.54a38.85,38.85,0,0,0-11.08-18c-3.7-3.35-9.1,1.92-5.53,5.48a29.92,29.92,0,0,1,7.32,31A28.26,28.26,0,0,1,378.76,56,22.81,22.81,0,0,0,356,67.12c-1.82,3.09.42,8,4.38,7.67a41,41,0,0,0,19.75-7.14,12.13,12.13,0,0,1,2.36,1.65c2.87,2.57,3.8,6.33,3.92,10.06,0,1.14,0,2.3,0,3.45a63.11,63.11,0,0,0-4.8,10.13c-1.56,4.21,3.16,8.59,7.25,7.3,6.46-2,8.56-7.85,9.13-13.92a50.47,50.47,0,0,1,19.58-17.25,12.63,12.63,0,0,0,9.39-4.3C430.78,60.68,427.11,53.17,421.29,55Zm-30,7.42a22.07,22.07,0,0,0-2.88-2.46,36.37,36.37,0,0,0,5.81-10.42,34.17,34.17,0,0,0,1.94-9.81A76.5,76.5,0,0,0,401.11,57a20.92,20.92,0,0,0,3.81,5.84,60.72,60.72,0,0,0-8.73,7.26A22.11,22.11,0,0,0,391.3,62.38Z"/><path d="M266.29,54.67c-10.82-5.49-14.44-17.37-8.65-27.93,3-5.46-3.94-9.48-7.91-5.72a7.67,7.67,0,0,0-3.19-2c-2.09-.69-3.16,2.29-1.46,3.41A4.79,4.79,0,0,1,247,25.08a24.89,24.89,0,0,0-1.41,18.82A51.32,51.32,0,0,1,243.25,52a25.92,25.92,0,0,1-6,9.41,23.65,23.65,0,0,0-21.66,2,4.23,4.23,0,0,0-1.92,4.68c2.3,6.83,10.34,7.53,16.47,6a24,24,0,0,0,6.29-2.63,13.79,13.79,0,0,1,5.14,14.14c-1.23,5.93,7.82,8.51,9.12,2.54a42.14,42.14,0,0,1,15.61-25C269,61.12,269.93,56.51,266.29,54.67Zm-22.74,10.8a30.72,30.72,0,0,0,3.87-5.62,36.57,36.57,0,0,0,2.68-6.54,32.48,32.48,0,0,0,5.68,6.19,53,53,0,0,0-8.32,10.64A22.16,22.16,0,0,0,243.55,65.47Z"/><path d="M512.18,394.63c-.56.06-1.1.15-1.62.25v0a18.6,18.6,0,0,1-15.78-5.2,19.58,19.58,0,0,1-4.75-6.73c-1.27-3.09-1.38-6.38-3-9.37a5.46,5.46,0,0,0-9.35,0,12.37,12.37,0,0,0-.83,1.92c-2.2.36-4,2.59-2.54,5.11a36.4,36.4,0,0,1,4.92,20.63c-.16,3.73-1.08,12.83-4.56,16.61a27.57,27.57,0,0,0-4,2.16c-5.06,3.34-2,11.34,4.13,9.89a12.88,12.88,0,0,0,4.4-2c7.62-2.64,16.54.47,19.75,7.93.43,2.06.88,4,1.29,5.61,1.94,7.65,12.6,4.26,11.54-3.14a26.39,26.39,0,0,0-.81-3.74,88.64,88.64,0,0,1-1.82-17.13,23.32,23.32,0,0,1,.8-7.67,9.36,9.36,0,0,1,1-2.23,1.79,1.79,0,0,0,.18-.32,25.85,25.85,0,0,0,2.58-.46C520.36,405.16,519.17,393.85,512.18,394.63Zm-25.33,21a52.35,52.35,0,0,0,1.78-10.09,37.22,37.22,0,0,0,.08-4.48,33.55,33.55,0,0,0,9.85,5,38.89,38.89,0,0,0-1.63,12.12A27.56,27.56,0,0,0,486.85,415.59Z"/><path d="M864.43,76.42a28.38,28.38,0,0,0-17.91-8c-2.54-.18-2.51,3.72,0,4a23.86,23.86,0,0,1,15.32,7.56,21.44,21.44,0,0,1,4.56,7.65c.76,2.24.82,4.58,1.94,6.68a2.4,2.4,0,0,0,4.34-.56C874.05,87.57,868.54,80.44,864.43,76.42Z"/></g></g></g></svg>