<svg xmlns="http://www.w3.org/2000/svg" viewBox="0 0 820.26 733.97"><defs><style>.cls-1{fill:#b27a36;}.cls-2{fill:#b7ac20;}.cls-3{fill:#63bace;}.cls-4{fill:#b21414;}.cls-5{fill:#841212;}.cls-6{fill:#e8e4c5;}.cls-7{fill:#577577;}.cls-8{fill:#defbfc;}.cls-9{fill:#b7b7b7;}</style></defs><title>9. Mostrar seu jorge no pc vendo resultado da estufa em tempo real</title><g id="Camada_2" data-name="Camada 2"><g id="_9._Mostrar_seu_jorge_no_pc_vendo_resultado_da_estufa_em_tempo_real" data-name="9. Mostrar seu jorge no pc vendo resultado da estufa em tempo real"><g id="Camada_38" data-name="Camada 38"><path class="cls-1" d="M329.91,178.84c-2.1-18.94-7.63-37.11-17.45-53.54a16.35,16.35,0,0,0-4.07-4.59,25.69,25.69,0,0,0-17-12.19c-13.47-3-26.24,3.57-35.83,12.75a17.31,17.31,0,0,0-16.87,8.18c-13.15,21.12-21.1,46.12-21.65,71.14a32.55,32.55,0,0,0-14.27,7.17c-13.33,11.57-12.39,34.9,1.11,45.72l-8.52,36.83c-1.39-1.17-2.78-2.27-4.13-3.27l-3.74-1.58a11.8,11.8,0,0,0-6.23-.3,14.84,14.84,0,0,0-9,4.27,18.69,18.69,0,0,0-4,6.89c-1.09,3.36-.52,6.68.63,9.83l-.31-.75c1,3.77,3.23,6.68,5.41,9.81,2.84,4.08,5.52,8.32,10,10.82a16.9,16.9,0,0,0,2.89,1.29c-.51,2.2-1,4.4-1.52,6.6-2.24,9.65,4.73,22.77,16.29,21.53l3.79-.42c13.65,4.72,27.91,3.65,40.51-4.55a56.8,56.8,0,0,0,4.87-3.55c6.22-1,12-5.41,13.44-11.87q1.31-5.73,2.6-11.46a50,50,0,0,0,2.16-11.27,13.85,13.85,0,0,0-2.2-8.48c.08-1.21.17-2.41.26-3.61a93.26,93.26,0,0,0,10.27-7.35,121.63,121.63,0,0,0,25.37-23.58C323.05,243.82,333.54,211.6,329.91,178.84Z"/><path class="cls-1" d="M518.63,421.9c.18.39.23.48,0,0Z"/><path class="cls-1" d="M749.94,414.11c-3.33-17.34-20.26-31.41-38.21-27.8-8.79,1.76-15.93,9.62-22.73,15.18l-1.91,1.56a14.77,14.77,0,0,0-10.3,2.38c-14.26,9.92-28.65,19.66-43,29.49a20.83,20.83,0,0,0-8.21,11.31q-53.08-11.3-106.16-22.64c-.44-.89-.85-1.81-1.29-2.71l.48,1c-.18-.42-.5-1.16-.74-1.88-3-8.63-12.07-15.28-21.46-12.28-8.55,2.74-15.45,12.2-12.28,21.46a100.79,100.79,0,0,0,6.53,14.94q-4.14,22.55-8.26,45.09a22.36,22.36,0,0,0-.31,5.46c-7.87.83-15.35,6.77-15,15.39.38,9.16,6.79,14.59,15.46,15.56,21.81,2.44,43.8,3,65.77,3.16,26.18,4.14,52.8,6.56,79.19,3.1a121.36,121.36,0,0,0,19.14-4.09l8.56-.21c6.75-.19,13.74-4.17,16.61-10.45a151.54,151.54,0,0,0,34-26.11c9.38-9.47,17.86-19.79,26.24-30.14C742.93,447.46,753.46,432.39,749.94,414.11Z"/><path class="cls-2" d="M304.73,51.31a64.22,64.22,0,0,0-15.79-6.49c-3.54-12.12-12.85-22.32-24.5-27.59-17-7.66-35.16-5.53-52.15.91-20.84-1-42.13,2.38-62,8.07-19.51,5.59-38.62,13-57.39,20.69C74.46,54.48,55.34,63.37,42.23,79S21,117.19,26.72,137.5a16.19,16.19,0,0,0-3.67,11.67l-1.24.54c-7.58,3.3-9.78,13.92-6.89,20.81a16.79,16.79,0,0,0,3.17,4.88q-5.55,8-11,16c-3.38,5-2.6,11.81.7,16.64-.36,7.13,2.73,13.64,9.84,16.67,6.94,2.95,17.22.79,20.69-6.71q8.43-18.25,16.75-36.57a86.78,86.78,0,0,1,8.19-7.85c.39-.3,1.84-1.45,2.2-1.7q1.81-1.26,3.7-2.41,2.19-1.35,4.48-2.53c.62-.32,5.33-2.45,2.07-1.1a22,22,0,0,0,9.52-7.38l32.49-14c5.44,5,13.16,6,20.21,2.44q11.9-6,24.11-11.21l.81-.35c.91-.38,1.81-.75,2.72-1.11,2.26-.92,4.54-1.82,6.82-2.69q6-2.31,12.05-4.41a423.39,423.39,0,0,1,49.4-13.85q12.54-2.72,25.23-4.71a112.27,112.27,0,0,1,22.75-1.67c1.12,0,2.24.14,3.36.25l1.05.18c1.78.4,3.54.79,5.28,1.34.55.18,1.09.38,1.64.58.21.11.48.24.86.41,1.21.75,2.48,1.48,3.72,2.18l.59.42c.52.45,1,.9,1.52,1.38.7.68,1.85,2.07,1.74,1.83a27.92,27.92,0,0,1,1.71,3c-1.31-2.43.81,4.69.4.81h0q0-.22-.06-.51c1.1,8.45,5.52,15.4,14.6,16.65,7.55,1,17.2-3.74,18.58-12,.24-1.49.43-3,.59-4.49h0s0-.07,0-.1C340.11,92.2,328.52,65.06,304.73,51.31Z"/><path class="cls-2" d="M741.58,425.94c.08-.43.17-.87.29-1.29C741.48,426.06,741.48,426.23,741.58,425.94Z"/><path class="cls-2" d="M799.39,318c-5.51-7.19-12.22-13.72-21.2-16.24a30.12,30.12,0,0,0-6.24-1,52,52,0,0,0-30.53-18.43c-11.52-2.21-19.9,4.68-21.2,16-1.05,9.24-2.18,18.48-3.29,27.72-.7,5.86,3,10.57,7.51,13.65a15.83,15.83,0,0,0-4.3,1.27,20.55,20.55,0,0,0-6.26-3.46c-1.53-5.38-5.47-10-11.24-11.35-8.5-2-18.14,2.5-20.35,11.48-2.36,9.54-3.13,18.71,1.15,27.82a23.56,23.56,0,0,0,2.24,3.8,103.63,103.63,0,0,0-8.46,11.64c-9.14,14.62,11.27,29.73,23.39,18.18,2.64-2.51,5.11-4.85,7.52-7.06a33.4,33.4,0,0,0,6.44-.61c.66,0,1.32.08,2,.08h.06c.72.19,1.46.29,2.18.45,2,.46,3.83,1.17,5.76,1.74-2.59-.77.51.24,1.5.75,1.54.81,3,1.93,4.5,2.71l.32.16c.54.45,1.08.93,1.59,1.39a48.62,48.62,0,0,1,3.64,3.82l0,0,.17.26c.42.65.86,1.29,1.26,1.95s.78,1.34,1.15,2c.1.18.48.91.76,1.45s1,2.59,1.12,3.11a56.07,56.07,0,0,1,1.31,5.56c0,1,.13,2,.15,3,0,1.55-.06,3.1-.16,4.65a7.57,7.57,0,0,1-.31,1.42c-.07.33-.13.66-.21,1-.49,2-1.17,3.86-1.67,5.82-2.83,11.16-.36,23,10.06,29.33,9.22,5.61,22.29,3.06,29.72-4.4,13.64-13.69,6.85-33.76,2.19-50.42a76.93,76.93,0,0,0,4.74-18.06c13.81,2.86,29.17-6.19,32.9-21.09C824.05,349.16,810.14,332,799.39,318Zm-16.85,36.17c-.08-.21-.16-.43-.25-.64-.35-.88-.74-1.74-1.12-2.61.67,1,1.34,2.09,2,3.16Zm12,2.22a10.58,10.58,0,0,1,3.63,2.4A21.94,21.94,0,0,0,794.5,356.39Z"/><path class="cls-1" d="M745.89,411.44a16.41,16.41,0,0,0-5.48-1.24,33.11,33.11,0,0,0-20.29-6.5c-7.9.25-15.52,6.7-15.17,15.07,0,.27,0,.52.07.77-5.53,3.5-10.15,8.52-11.29,14.63s.21,12,5.37,15.92a15.27,15.27,0,0,0,16.8,1.23,26.46,26.46,0,0,0,4.94-3.81,13.94,13.94,0,0,0,2-1,10.6,10.6,0,0,0,1.17-.35h.95l.57.13a23.12,23.12,0,0,1,2.28,1.46A12.73,12.73,0,0,0,734.2,450l.67.13c8.23,1.13,15.25-3.84,17.88-11.6.88-2.57,1.71-5.16,2.53-7.76C757.74,423,753.08,414.5,745.89,411.44Z"/><path class="cls-3" d="M442.35,603.45a68.05,68.05,0,0,0-8.51-15.11q-3.7-13.11-7.38-26.22a16.42,16.42,0,0,0-1.75-11.22c-1.31-2.4-2.63-4.79-3.94-7.18-4.48-8.15-13.33-9.4-20.31-6.36a16.42,16.42,0,0,0-2.1-.11,181.77,181.77,0,0,0-5.08-20.48q-2-6.32-4.43-12.46c-1.74-4.32-3.69-7.87-7.71-10.49a16.79,16.79,0,0,0-8.27-2.31c-2-31.47-4.14-62.95-5.64-94.45-.46-9.79-9.86-19-20.24-15.52l-3.12,1c-.46-1.76-.91-3.51-1.38-5.27a14.57,14.57,0,0,0-17.6-10.07c-8.29,2.25-11.09,9.9-10.06,17.6,1.35,10.19,2.88,20.39,4.73,30.59.14.75.27,1.5.41,2.25,2.34,19.84,4.75,39.68,7.45,59.47.62,4.56,4,8.05,8.09,10.06,0,.24,0,.49-.07.74-.05.5-.11,1-.17,1.55a13.36,13.36,0,0,0-6.1.6c-2.22.74-4.43,1.49-6.65,2.2-8.08,2.58-13.39,10.81-11,19.31a410.92,410.92,0,0,1,10.34,48.72,12.88,12.88,0,0,0-.27,3.53c1.41,23.86,2.64,47.73,4.21,71.58a18.29,18.29,0,0,0,7.08,13.35c6.21,13.62,19.78,21.27,35.11,17.65.16,0,.31-.08.46-.12,6.21,9.28,23,8.31,25.52-3.81a31.67,31.67,0,0,0,.58-7.91,18,18,0,0,0,1.92-1.67c.58.13,1.16.24,1.76.32,10.8,8.29,27.72,7.59,37.7-2.23,6.11-6,8.07-13.24,7.95-20.82A42.9,42.9,0,0,0,442.35,603.45Z"/><path class="cls-3" d="M128.64,402.65a13.81,13.81,0,0,0-8.46-2.39c-9.3.39-15.6,7.08-16.27,16.17-.75,10.17,0,20.61,0,30.81v.55c-.93,8.54-1.68,17.1-2.07,25.71a12.55,12.55,0,0,0,2.92,8.91c2,6.91,8.37,12.61,15.88,12.3,9.41-.39,16.1-7.24,16.65-16.55l3.51-59.41C141.24,411.55,135.52,404.62,128.64,402.65Z"/><path class="cls-4" d="M110.48,421.15a14.63,14.63,0,0,0-12.64-14.41,14.21,14.21,0,0,0-3.13,0c-8-1.42-17,2.9-19,11.37-5.09,21.16-4.44,43.7.77,64.76,2,7.88,10.06,12.75,17.85,11.73,8.26-1.08,13.68-7.77,14.18-16C109.66,459.48,110.7,440.32,110.48,421.15Z"/><path class="cls-4" d="M330.35,460.92q-2-13.41-4-26.84a80.7,80.7,0,0,0,.06-27.9c1.32-10.43.11-21.13-1.66-31.68-1.6-9.58-12.39-13.07-20.57-11.77q-8.61,1.38-17.2,2.72a14.69,14.69,0,0,0,1-11.37c-2.6-8.13-11.8-15-20.69-11.83a199.57,199.57,0,0,1-21,6.31q-5.34,1.28-10.76,2.23-2.7.48-5.42.88l-1.31.2-1.48.15a199.84,199.84,0,0,1-43.87-.23c-11.09-1.31-19,11.72-16.34,21.31q.58,2.13,1.35,4.14l-35.18,11.28c-8.84,2.84-15.5,12.4-12.48,21.83a19.26,19.26,0,0,0,14.09,12.94c-5.27,12.37-9.51,25.63-4.8,39,2.64,7.48,7.3,14.31,14.14,18.55,8.22,5.09,17.47,5.28,26.71,3.51,2.67-.51,5.35-1.1,8-1.72a18.82,18.82,0,0,0,3.87.59A126.32,126.32,0,0,0,231,475.78q14-2.11,28-4.23,8.73-1.32,17.46-2.64c1-.15,2-.31,3-.45,0,0,2.34-.24,2.64-.27a69.49,69.49,0,0,1,8.29-.21l1.13,0a4.7,4.7,0,0,0,.69.2c1,.22,2,.51,2.93.81l.78.44a7.63,7.63,0,0,0,.68.35c.43.46.89.91,1.35,1.36.29,2,.59,4,.88,6,1.22,8.29,11.07,13.15,18.52,12.17,8.53-1.12,14.26-8.06,14.71-16.56A31.5,31.5,0,0,0,330.35,460.92ZM226.61,419.55c.72-.23,1.43-.47,2.15-.68l1.16.29Z"/><path class="cls-4" d="M493.85,417.53c0-7.5-4.82-14.61-11.42-17.92-6-3-12.8-3.11-19.41-3.66l-64.37-5.38a13.76,13.76,0,0,0-9,2.44,16.48,16.48,0,0,0-13.8-5.14c-7.22.95-13.55,7.32-13.28,14.95.72,20.62,2.05,41.41,5,61.84,2.87,19.53,12.22,36.69,29.61,46.83,7.81,4.55,16.55,7.64,25.17,10.29,8.38,2.57,17,4.91,25.84,5.12,10.54.24,21.41-3.34,28.66-11.24s9.79-17.83,10.8-28.24c1.05-10.76.82-21.73,1.13-32.53q.38-12.66.73-25.31A19.26,19.26,0,0,0,493.85,417.53Z"/><path class="cls-5" d="M477.48,430.86c-6.58-.2-13.17-.17-19.78,0-2.13-7.94-4.3-15.87-6.41-23.83-1.79-6.78-11.46-3.86-10.34,2.82,1.19,7.12,2.31,14.25,3.47,21.37l-13.09.44q-2.19-14.53-4.62-29c-1-6-11-4.69-10.7,1.42q.83,14,1.81,28c-5.93.19-11.85.47-17.76.8-1.73-9.42-3.64-18.79-5.43-28.25-1-5.45-10.09-4.29-9.73,1.28.6,9.3,1.08,18.54,1.7,27.79-5.77.38-11.56.79-17.35,1.19-6.95.49-7.09,10.54,0,10.89q9.23.45,18.42.86c.31,3.44.65,6.89,1.06,10.33q1.21,10.15,2.45,20.3a131.79,131.79,0,0,0-17.31,4.06c-6.06,1.88-5.26,11.56,1.5,11.39,5.79-.16,11.57-.5,17.34-.87.57,5.44,1.51,10.89,4.29,15.38a6.23,6.23,0,0,0,11.25-1.43c1.47-4.74,1.17-9.85.46-14.92,4.54-.22,9.09-.37,13.65-.37h.87c.46,6.44.95,13.07,2.77,18.91l.05,0c2.06,7.53,13.75,6.84,14.43-1.89.42-5.36-.32-11.11-1.18-16.77,2.07.07,4.13.14,6.2.25,3.37.16,6.85.59,10.35,1a81.78,81.78,0,0,0,3,11.84c3.21,9,17.32,5.56,14.8-3.69-.3-2.66-.77-5.31-1.32-8,6.6-2.39,8.07-13.71-.5-16.24-1.12-.33-2.26-.6-3.43-.83-1.54-7-3-14-4.72-21-.5-2.12-1-4.23-1.55-6.34,1.9,0,3.8-.06,5.71-.1a5,5,0,0,0,4,1.34,26.54,26.54,0,0,0,9.71-2.79C489,442.17,485.35,431.1,477.48,430.86Zm-73.81,24.05c-.35-2.61-.74-5.2-1.15-7.79q8.25.25,16.52.33c.26,3.07.52,6.14.81,9.21q.84,8.7,1.77,17.38c-5.07.31-10.18.67-15.27,1.16Q405,465.06,403.67,454.91Zm42.8,18.79c-3.16-.09-6.33-.12-9.49-.12-.74-6.3-1.51-12.59-2.35-18.87-.31-2.39-.66-4.78-1-7.16l13.54.15c.55,3.11,1.11,6.23,1.7,9.34,1.06,5.6,2.23,11.18,3.4,16.75C450.3,473.76,448.36,473.75,446.47,473.7Z"/><path class="cls-5" d="M317.87,442.94c-5.06-4.11-11.77-4.06-18.23-4-.09-3.09-.18-6.17-.31-9.25-.65-16.26-2.09-32.3-3.66-48.48-.59-6-9.15-6.24-9.52,0-.43,7.32-.83,14.61-1.15,21.9-5.52.23-11.17,1.19-16.59,1.71l-5.49.53c-.6-6.43-1.3-12.84-2.05-19.25a6.45,6.45,0,0,0,4.61-4.59,9.58,9.58,0,0,0,.34-3.57c.93-.63,1.84-1.28,2.71-1.95,7.35-5.59,3.07-15.87-6.1-14.6l-1.39.19c-3-6.89-13.47-4.72-14,2l-14.17,2c-.23-1-.46-2-.68-3.06-2-9.19-15.84-5.31-14,3.82.08.43.17.87.25,1.3l-14,2c-1.23-3-2.57-6-4.07-8.87-3.38-6.45-11.63-1.59-10.81,4.52.29,2.12.67,4.23,1.11,6.33l-22.52,3.22c-3.17.45-4.82,2.93-5.16,5.7a5.86,5.86,0,0,0-8,5.29c-.59,10.32-1.12,20.65-1.5,31q-13.92,1.79-27.85,3.76c-6.44.91-4.94,11.61,1.5,11.33q13-.56,26-1.29c0,.28,0,.57,0,.85q-.18,10.92-.37,21.83c0,.94-.05,1.9-.09,2.87q-6.57,1.74-13.12,3.65c-7.2,2.11-4.24,12.71,3,11.19q5-1.05,10.08-2a23.21,23.21,0,0,0,1.92,7.33c1.94,4.16,8.87,4.1,10.86,0a25.88,25.88,0,0,0,2.29-10.08q6.33-1.08,12.67-2a17.34,17.34,0,0,0,2.52,8.86c2.48,3.65,7.83,4,10.25,0,2-3.26,2.26-7.12,2.13-11q6.95-.9,13.91-1.66c.06,5.22.15,10.43.3,15.64.23,8.16,10,9.95,14.42,4a21.39,21.39,0,0,0,3.72-6.9,5.25,5.25,0,0,0-2.76-6.29c0-2.64-.12-5.28-.18-7.93l4.33-.38q10.83-.89,21.66-1.47c.25,4.74.6,9.46,1.13,14.14,1.09,9.47,15.2,10.11,15.23.05,0-.88,0-1.77,0-2.65,0-4.05-.14-8.11-.33-12.17,1.83-.05,3.66-.08,5.49-.11,4.15-.06,8.3-.06,12.45,0-.08,7.21-.56,14.95,1,21.84s12.86,7.27,14.24,0c1.31-6.84.6-14.27.29-21.31,5.75.47,12,.77,16.16-2C319.94,452.38,321.92,446.23,317.87,442.94Zm-150.29,9.44.06-20.9c0-.59,0-1.18,0-1.78q6.09-.39,12.17-.82,0,3.94.14,7.89.12,6.42.26,12.84Q173.87,450.92,167.58,452.38ZM209,436.87q0,3.81,0,7.62-7.27,1.08-14.51,2.36l-.38-11c-.09-2.67-.2-5.34-.31-8q7.63-.6,15.27-1.27h.06C209.09,430,209,433.43,209,436.87Zm13.65-27.65a47.29,47.29,0,0,0-1.61-11c-1.49-5-9.06-5.33-10.44,0a50.66,50.66,0,0,0-1.27,12.32l-2.2.22c-4.76.45-9.52.94-14.27,1.44-.38-4.68-.87-9.36-1.52-14-.92-6.55-10.36-4.33-10.86,1.43-.39,4.66-.61,9.34-.7,14q-6.17.69-12.31,1.43c-.17-8.76-.44-17.52-.76-26.28a5.75,5.75,0,0,0,3.22.46l24.34-3.11c1.48,5.77,2.46,11.32,8.71,13.61,2.72,1,5.58-.69,7.08-2.85,2.69-3.89,1.49-8.43-.17-12.74l11.45-1.46.72,3.69c1.28,6.47,1.15,13.62,8.25,16.14a5.94,5.94,0,0,0,5.8-1.52c5.3-4.94,1.81-12.51.47-18.57-.13-.55-.25-1.1-.37-1.65L247,379.36a6.92,6.92,0,0,0,2.34,3.62q-.24,11.85-.14,23.69l-1.49.14ZM228,442l-3.92.45c-.07-1.85-.12-3.71-.19-5.56-.15-3.88-.35-7.75-.55-11.62l26.11-2.3c0,1.08,0,2.15.09,3.23.18,4.61.29,9.26.4,13.91Q239,440.85,228,442Zm56.36-3.09c-3.76,0-7.51.09-11.27.18q-3.81.11-7.62.24c-.33-4.37-.66-8.74-.93-13.08-.1-1.53-.23-3-.33-4.58l5.1-.45c4.94-.44,10.09-.6,15.11-1.18-.06,3.2-.11,6.4-.11,9.61S284.37,435.85,284.4,438.94Z"/><path class="cls-5" d="M111.87,440.77c-2.82-1.79-6-2.07-9.17-1.85-.66-9-1.35-18-2-27.06-.47-6.67-10.66-6.87-10.5,0,.22,9.51.37,19,.57,28.52a53,53,0,0,0-12.64,2.39c-4.88,1.78-6.29,10.21,0,11.34a56.36,56.36,0,0,0,13,.45c.11,3.07.24,6.13.35,9.2,0,.77,0,1.55,0,2.35-3.44-.07-6.85,0-10.3.19-6,.28-8,9.55-1.52,11,4.26.93,8.46,1.73,12.79,2.29l.76.09c.15.3.32.59.5.88,2,3.3,7.62,3.91,9.54,0,2.45-4.95,1.33-10.37,1-15.75-.21-3.64-.4-7.28-.61-10.91,3.39-.36,6.6-1.23,9.33-3.71C116,447.47,115,442.75,111.87,440.77Z"/><path class="cls-6" d="M283.32,91.59a1184,1184,0,0,0-178.15,66.73q-10.31,4.81-20.53,9.83a81,81,0,0,0-18.85,9.39l-.71.36c-3.57-3.05-9.28-3.43-12,1.93l-8.59,16.73a9.24,9.24,0,0,0-.69,1.77q-1.17,2.32-2.33,4.65a84.68,84.68,0,0,0-7.06,14.36,6.8,6.8,0,0,0,1.53,7.35l-.22.6c-12.07,2.54-22.34,13.92-19,27,2.43,9.64,12,16.41,21.35,16.92a21.1,21.1,0,0,0,9.49,5.25C49.67,289,66.6,300.17,79.76,290.8c.42,0,.84,0,1.26-.05a44.43,44.43,0,0,1-3.87,3.3c-3.86,2.9-8.48,4.54-12.21,7.58-4.13,3.37-.31,8.9,3.86,9.39,5.67.68,12.15-2.64,16.81-5.6a50.56,50.56,0,0,0,10-8.47,29.26,29.26,0,0,0,3.49,2.31,9.76,9.76,0,0,0,4.33,7.32c.32.23.66.46,1,.68-.29.11-.58.23-.87.33a7.52,7.52,0,0,0-5,5.83c-7.59,2.08-8.52,14.38.09,16.72,12,3.26,22.7-2.7,29.13-12,.24-.29.48-.58.71-.88a66,66,0,0,0,12.62,1.12l-5.23,4.1c-2.7,2.11-3.1,6.74-1.85,9.61,1.52,3.48,4.37,5,8,5.43,18.12,2.27,35.67-13.13,36.42-31.21a29.48,29.48,0,0,0-2.19-12.33,9.28,9.28,0,0,0,9.61-1.94c1-1,1.9-2,2.78-3.08a7.5,7.5,0,0,0,3.72-2.48c10.1-12.06,12.09-29.59,3-42.93a9.36,9.36,0,0,0-9.1-4.35c-1-2.81-2.19-5.59-3.43-8.32,5.7-7.16,11.34-14.37,17-21.57a10.42,10.42,0,0,0,2.35-5.64,9.51,9.51,0,0,0,5.77.26c.27.05.54.08.81.12a8.51,8.51,0,0,0,8.38-1h0a16.09,16.09,0,0,0,12.38-1.24c7.64-3.86,11.91-12.54,9-20.84a18.17,18.17,0,0,0-14.11-11.69,133.4,133.4,0,0,1,14-21.48,30.8,30.8,0,0,1,5.33,6.24c3.25,5.06,3.65,10.3,5.74,15.7,1.7,4.41,9.83,6.1,10.7,0,1.61-11.22-5.45-22.81-14.32-30.55A135.53,135.53,0,0,1,290.2,108C299.63,103.92,292.94,88.87,283.32,91.59Zm-85.07,79.94a18.16,18.16,0,0,0-4.1,5.12,7.89,7.89,0,0,0-1.12-1.26c1.76-1.34,3.51-2.68,5.25-4Zm2.86-33.59c-.08-.32-.17-.63-.28-.94l3.48-1.27Z"/><path class="cls-7" d="M237.11,661.13l-.06.07.28-.11S237.22,661.09,237.11,661.13Z"/><path class="cls-7" d="M236.89,661.22H237l.08-.08A1,1,0,0,0,236.89,661.22Z"/><path class="cls-7" d="M341.42,639.3c-2.14-22.28-6.82-44.44-10.5-66.5q-2.79-16.69-5.56-33.38c-1.54-9.21-2.73-18.56-5.19-27.58-2.83-10.33-7.36-19.93-14.37-28.07-8.46-9.81-20.63-14.63-33.25-15.87-11.39-1.12-23,1.54-34.19,3.35L205,476.64c-50.34,8.14-100.57,16.94-150.94,24.88-12.77,2-19.58,20.22-12.52,30.48a339.11,339.11,0,0,1,23.79,40q2.7,5.38,5.21,10.88,1.26,2.75,2.46,5.51c.28.64.56,1.29.83,1.93l.11.28c2.88,7.21,5.61,14.47,8,21.85A337.91,337.91,0,0,1,93.4,657.52q1,5.51,1.8,11.05c.1.66.19,1.32.28,2,0,.28.08.66.14,1.15.18,1.71.39,3.42.57,5.14.82,8,1.32,16,1.56,24.09a22.11,22.11,0,0,0,7.35,15.61c2.05,9.14,10.92,18.6,21.08,17.32q67.92-8.52,135.84-17c22.14-2.73,47.46-3.61,63.73-21.25C339.86,680.3,343.35,659.42,341.42,639.3ZM232.47,666c.41.28.85.58,1.23.82l.25.26.12.2A2.49,2.49,0,0,1,232.47,666Zm4.77-4.76H237l-.53.21.4-.2-1.24,0a2.76,2.76,0,0,1,2-.32l-.33.14S237.34,661.14,237.24,661.21Zm36.88-147.63c.14.25.28.49.41.74a3,3,0,0,1-1.28-1.74C273.4,512.76,273.76,513.18,274.12,513.58Z"/><path class="cls-7" d="M237.18,661.05l-.08.08h0Z"/><path class="cls-8" d="M713.7,63.87c-.91-11.49-9.28-22.7-22-22.16-71.89,3-143.87,5.94-215.66,10.76-20.61,1.39-41.26,2.28-61.9,3.09-8.77.35-18.59,6.21-20.47,15.48a115.32,115.32,0,0,0-2.16,29.19c-6.1,3.89-10.46,10.61-10,18.15q3.53,63.6,7.07,127.2c.62,11.35,9.45,22.61,21.85,22,67.2-3.35,134.39-6.7,201.56-10.64,19.27-1.14,38.58-1.77,57.87-2.65,10.26-.47,17.77-6.49,21.15-16A425,425,0,0,0,713.7,63.87ZM657.19,199.26V199a26,26,0,0,0-1.62-8.07l3.93-.49Q658.39,194.88,657.19,199.26Z"/><path class="cls-9" d="M396.06,116.77v.1a11.69,11.69,0,0,1-.17,2C396,119.7,396.22,119.66,396.06,116.77Z"/><path class="cls-9" d="M749.23,87.61q-.86-13.15-2.53-26.24c-1.53-12-1.59-26.35-10.55-35.48-5-5.14-13.56-7.12-20.86-5.36a21,21,0,0,0-5.36-2.3c-22.4-6.09-45.59-9.68-68.58-12.76A614.53,614.53,0,0,0,576.78.24,630.21,630.21,0,0,0,443,11q-18.19,3.42-36.17,7.93l-5,1.28a20.22,20.22,0,0,0-9.6,2.7c-.77.24-1.55.47-2.32.72-1.47.49-2.94,1-4.4,1.47s-9.16,3.3-6.15,2.37l-2.58.81-2.25.79c-7.36-.5-15.51,2.59-18.57,9.56a301.49,301.49,0,0,0-24.65,100.2,341.43,341.43,0,0,0,7.61,99.67,311.57,311.57,0,0,0,13.77,44.93,14.77,14.77,0,0,0-.12,2.38c.45,10.66,8.68,20.05,19.82,19.95h.62a22.62,22.62,0,0,0,6.21,0l.69-.1c41.21-.68,82.4-3.65,123.53-6.16,4.33-.26,8.65-.55,13-.82.2.73.39,1.46.59,2.19.46,1.71.92,3.43,1.3,5.16.19.82.36,1.65.5,2.47l-.23-2.15c.51,1.12.19,3.76.21,5,0,.07,0,.14-.05.22-.51.39-1.06.81-1.3,1l-.08.05-.66.11c-.83.17-5.2.59-1.31.45-1.93.07-3.82.19-5.76.14-3.87-.08-7.71-.53-11.55-.95-13-1.45-23.35,14.07-19.7,25.68,4,12.61,12.86,21.05,24.94,25.89,10.1,4,21.38,3.23,32,2.68,16.68-.85,33.36-1.71,50-2.75A19.77,19.77,0,0,0,597.1,378.3,20.51,20.51,0,0,0,622.67,370c11.64-19.39-.82-43.9-19.31-53.6-13.59-7.12-28.53-8.05-43.46-7A82.74,82.74,0,0,0,558,296q38.24-2.59,76.47-5.27l35.75-2.43c12.54-.86,25.25-1.2,37.73-2.76,6.22-.79,11.35-2,16-6.57,3.93-3.9,6.9-10.32,6.66-15.95a24.88,24.88,0,0,0-3.35-11.46c.17-.43.34-.86.5-1.3,2.75-7.41,5.1-14.91,7.18-22.53a420.65,420.65,0,0,0,9.51-44.41A434,434,0,0,0,749.23,87.61ZM703.71,151q-.66,7.25-1.53,14.47c0,.45-.24,2.1-.4,3.44-.29,2.28-.67,4.56-1,6.84q-2.14,13.47-5.15,26.78c-2.14,9.47-4.73,18.81-7.32,28.16q-1.46,5.29-3,10.56c-14.27,1-28.56,2.37-42.75,3.35L577,249.14c-43.71,3-87.4,6.13-131.06,9.67-16.3,1.32-32.57,2.69-48.82,4.37-1.36-28.27-2.74-56.56-3.44-84.84-.38-15.22-.34-30.47.77-45.67q.4-5.64,1-11.27c.09-.8.27-1.66.41-2.52a4.91,4.91,0,0,1,.05-1.24l.12-.77c0-.09,0-.18,0-.27v.17c.12-.76.24-1.53.37-2.29A198.12,198.12,0,0,1,401.2,92.8c1.13-4,2.39-8,3.82-12,.66-1.82,1.15-4.27,2.25-5.84,0,0-1.73,3.85-.69,1.59.55-1.18,1.07-2.38,1.63-3.56,1.65-3.46,3.43-6.87,5.24-10.26l2.05-.37c2.36-.42,4.72-.8,7.08-1.16l1.6-.27-.29.05c4.68-.83,9.57-1.06,14.3-1.44,17.49-1.41,35.06-1.4,52.6-1.24,37.05.33,74.17.48,110.42-8.38a19,19,0,0,0,7.84-4.12q11.06.93,22.06,2.27c1.23.14,2.45.3,3.68.45l1.77.22c2.66.34,5.32.77,8,1.18q8.7,1.35,17.35,2.94C674,55.14,686,58,698.1,60.64a24,24,0,0,0,4.15.53c.06.49.12,1,.17,1.47-.06-.65-.11-1.12-.14-1.46h0c.14,1.3.42,4,.48,4.56q1.65,14.46,2.28,29A421.64,421.64,0,0,1,703.71,151Z"/></g><g id="Camada_37" data-name="Camada 37"><path d="M709.7,85.46a406.89,406.89,0,0,0-4.2-41.64,3.33,3.33,0,0,0-2.41-4.67c-4.82-1.1-9.51-.73-14.42-.5l-16.11.75L643,40.77c-19.92.93-39.82,2-59.73,3l-120.12,6c-11,.55-21.93,1-32.89,1.66-5.59.34-11.18.74-16.77,1.11-2.7.17-5.37.4-8.06.67a21.33,21.33,0,0,0-6.32,1.91c.07-.43.14-.86.2-1.29.09-.62-1-.88-1.23-.33-.4.83-.78,1.66-1.15,2.49a1.66,1.66,0,0,0-1,2.27C391.37,69.61,389,82,386.59,93.87A347,347,0,0,0,381,135.33a364.9,364.9,0,0,0,3.67,84.23q1.83,11.82,4.47,23.49c.88,3.89,1.94,7.73,3.07,11.56s1.88,7.25,5.31,9.72c1.49,1.07,3.36-.13,3.9-1.51,1.24-3.18.2-6.05-.64-9.22-.93-3.47-1.75-7-2.67-10.43q-2.68-10.11-4.79-20.34a327.27,327.27,0,0,1-5.69-41,370.74,370.74,0,0,1,3-83.21q1.69-11.23,4.09-22.35c1.22-5.66,2.64-11.22,3.72-16.87A24.81,24.81,0,0,0,404.1,61a65.29,65.29,0,0,0,6.71,0c5.37-.12,10.74-.34,16.11-.51,9.85-.32,19.69-.87,29.53-1.33l59.72-2.82c40-1.89,80.09-3.67,120.12-5.67q16.46-.81,32.89-1.67L686,48.1c5.6-.28,11.4-.13,16.76-1.82,4.78,49,3.59,98.38-5.61,146.85-2.63,13.92-5.89,27.72-9.68,41.39-1,3.68,4.93,5.28,5.92,1.59A491.46,491.46,0,0,0,709.7,85.46Z"/><path d="M699.11,244.09c-19.24.41-38.51,1.93-57.73,2.94s-38.49,1.95-57.72,3.14c-38.48,2.36-77,4.68-115.45,7.21-21.95,1.45-43.89,3.38-65.78,5.52-1.89.19-2,2.93,0,2.92,38.51-.24,77-1.7,115.44-3.33s77-3.28,115.44-5.27c21.89-1.13,43.93-1.68,65.77-3.48C705.39,253.21,705.65,244,699.11,244.09Z"/><path d="M364.21,101.3q2-25.36,4.1-50.71c.05-.62-1-.78-1.1-.15-10.82,58.71-12.51,119.36-10.34,178.91q.94,25.49,3.11,50.91c.26,3,5,3.07,4.78,0A1079.23,1079.23,0,0,1,364.21,101.3Z"/><path d="M557.94,323.36c-.23-4-.62-8-1-12q-.56-5.67-1.09-11.33c-.38-4-1.35-7.84-1.89-11.81-.28-2-3.41-1.38-3.53.45-.27,4-.94,7.95-1,12l-.3,12c-.18,7.42-1.44,16.17,1.73,23.11,1.32,2.88,5.46,1.63,6.37-.78C558.61,331.18,558.17,327.29,557.94,323.36Z"/><path d="M741.13,76.73c-.53-18.06-1.14-36.34-4.08-54.21,3.28-.43,2.93-5.5-.68-5.89l-.42,0a.9.9,0,0,0-1.4-.15c-23.11-2.43-46.42-3.4-69.65-4q-36.12-1-72.24.12a1231.44,1231.44,0,0,0-142,12.67q-19.94,2.94-39.77,6.5-9.91,1.78-19.79,3.72c-6.42,1.26-13.37,1.9-19.11,5a1.19,1.19,0,0,0,.61,2.21c5.82.5,11.5-1.21,17.2-2.28s11.51-2.12,17.28-3.13q17.63-3.06,35.34-5.62c23.57-3.4,47.23-6,71-8a1326.37,1326.37,0,0,1,142.37-5c26.15.54,52.19,2.29,78.28,3.83-.5,16,.19,32,.2,48,0,17.81-.19,35.64-.91,53.45-1.43,35.15-4.19,70.32-8.69,105.23-1.31,10.17-2.63,20.33-4.27,30.46-1,6.23-2.61,12.72-3.43,19.17-10.06-1.15-20.44-.23-30.54-.46-11.33-.26-22.67-.5-34-.48-23.14,0-46.23.83-69.35,1.9-22.88,1.06-45.8,2.15-68.61,4.11-11.54,1-23.06,2.24-34.61,2.94-11.3.69-22.6,1.09-33.91,1.68-12.85.66-25.69,1.43-38.52,2.43-6.43.5-12.83,1.19-19.24,1.89s-13.08,1.14-19.43,2.59c-3.56.81-2.76,6.05.84,6.08,5.76.06,11.5-.75,17.24-1.29s11.51-1,17.25-1.65q16.94-1.94,33.87-3.89c22.84-2.65,45.5-4.94,68.5-5.78q7.19-.26,14.37-.55c0,9.83,1.68,19.82,2.69,29.6.16,1.52.32,3,.49,4.56-4.12-1.29-9.19.07-13.24.82-4.77.89-10,1.39-14.61,2.93a6.75,6.75,0,0,0,.48-2.89,1.61,1.61,0,0,0-2-1.5c-2.67,1-4,3.15-5.48,5.39L483.78,335c-1.77,2.62-3.56,5.22-5.28,7.87s-3.47,4.66-3.13,7.82a1.61,1.61,0,0,0,2,1.5c3-1,4-2.81,5.66-5.28,1.77-2.62,3.45-5.29,5.15-7.95l5-7.9a2.91,2.91,0,0,0,2.14,1c5.27.31,10.78-1,16-1.72,4.1-.55,9.59-.76,13.14-3.22.22,1.82.45,3.65.71,5.47.38,2.66.3,10.45,4.94,9.78,4.48-.64,2.63-7.33,2.3-10.06-.61-4.92-1.35-9.8-2.15-14.69-1.58-9.78-2.54-19.93-5.11-29.53,16.61-.67,33.21-1.37,49.83-1.88,22.88-.71,45.78-1,68.67-1.68,12.67-.38,25.34-.81,38-1.2,6.45-.19,12.88-.27,19.34-.21,5.18,0,10.34.18,15.48-.27a49,49,0,0,0,0,5.81c0,.7,1.13,1.13,1.5.39a45.49,45.49,0,0,0,2.65-6.77,1.75,1.75,0,0,0,.65-2.24c1.48-5.51,2.29-11.27,3.34-16.73q2.51-13,4.79-26c3-17.63,5.55-35.41,7.37-53.2A818.16,818.16,0,0,0,741.13,76.73Z"/><path d="M640.36,359.82c-2.32.1-4.63.15-7,.19a3.05,3.05,0,0,0,1-3.5c-2.86-7.14-7.66-13.75-11.67-20.32l-12.38-20.31c-2.4-3.94-8.68-.44-6.38,3.56L615.86,340c3.84,6.67,7.31,14,12.23,20l0,.05c-9.57.05-19.14-.17-28.7,0-13.88.2-27.8-.16-41.67-.73-13.65-.55-27.32-1.41-41-2.38-6.81-.48-13.62-.94-20.43-1.47-6.65-.52-13.65-1.44-20.3-.56-2.39.31-1.72,3.37,0,4,6.27,2.45,13.62,2.95,20.29,3.71s13.16,1.42,19.76,1.89c13.87,1,27.72,1.41,41.62,1.43,13.69,0,27.34-.44,41-1,14-.61,27.75-2.66,41.61-4.27C640.88,360.58,640.92,359.8,640.36,359.82Z"/><path d="M598.12,317.15c-3.8-3.24-10.15-2.78-14.89-2.82-6-.06-11.94.11-18,.55-2.15.16-3,3.57-.57,3.93,5.75.85,11.38,1.49,17.18,1.86,4.91.31,11.74,1.54,16-1.52A1.27,1.27,0,0,0,598.12,317.15Z"/><path d="M300.54,157.67l-.12-.15a25.7,25.7,0,0,0-2.07-2.87c-2-2.36-5.75-.36-5.81,2.39,0,1,0,2-.05,3a18.93,18.93,0,0,0-2.06,11.4,34.71,34.71,0,0,0,3.9,16.79c1.32,2.58,4.74,2.08,6.19,0A26.93,26.93,0,0,0,300.54,157.67Z"/><path d="M300.56,249.45c-2.68.28-5.38,1.17-8.08,1a16.64,16.64,0,0,1-5.19-1.2c.72-2.15,1.38-4.27,2.09-6.2a2.67,2.67,0,0,0-.7-2.68l-.06-.05c.18-.42.35-.84.52-1.27s-.53-.73-.77-.33-.39.67-.58,1h0a2.17,2.17,0,0,0-1-.17,2.85,2.85,0,0,0-2.67,2c-1.91,5.6-5,11.94-5.17,17.91a1.89,1.89,0,0,0,.07.5c-.29,1.2,1.34,1.79,2.21,1a1.91,1.91,0,0,0,.93-.66,31.43,31.43,0,0,0,4.13-8.09c4.85,3,11.58,3.66,15.25-1.22A1.09,1.09,0,0,0,300.56,249.45Z"/><path d="M329.3,166.09a194.18,194.18,0,0,0-5.74-22.41,12.6,12.6,0,0,1-4-10.68c0-.23,0-.46,0-.69-3.1-8.23-6.65-16.31-10.53-24.25-.5-1-2.33-.3-1.88.79,3.58,8.84,6.83,17.85,9.58,27a2.06,2.06,0,0,0,.48,2.16l.21.18c6.81,23.46,10.22,47.8,7.3,72.28-3.35,28.07-17.21,55.24-40,72.5-12.23,9.27-26.67,14.73-41.67,17.43-2.54.46-1.79,4.2.57,4.33a47.47,47.47,0,0,0,10.18-.25,74.15,74.15,0,0,0,7.4-1.54c-.24.49-.46,1-.67,1.53a1.91,1.91,0,0,0-2.1,1.65q-.82,6-1.61,12c-1.67,5.67-3.53,11.32-4.8,17.08a3.75,3.75,0,0,0,1.67,4.13l0,0a7.94,7.94,0,0,0,1.59,4.44,1.45,1.45,0,0,0,2,0c3-2.49,3.07-7.28,3-11.61,1.1-4.82,2-9.72,3-14.54,1.09-5.05,3.51-11,2.73-16.16A78,78,0,0,0,284,292.75a105.76,105.76,0,0,0,30.47-30.92C333,233.38,335.56,198.78,329.3,166.09Z"/><path d="M332.55,111a81.88,81.88,0,0,0-5.32-12.42c.6-8.45-5.3-17.63-11.71-22.36a27.33,27.33,0,0,0-11.94-5l-.37-.28a2.32,2.32,0,0,0-2.91-.08,31.41,31.41,0,0,0-15.74,3.39c-2.35,1.2-.3,4.53,2,3.5a25.61,25.61,0,0,1,13.35-2,3.58,3.58,0,0,0,.29.26,74,74,0,0,1,9.65,8.54c-5.88-1.49-12.35-.52-18.2.56-7.83,1.46-15.59,3.32-23.32,5.22a589.31,589.31,0,0,0-88,29.13c-8.19,3.45-16.33,7.06-24.35,10.91-6.43,3.09-13.18,6-19.16,10-8.8,1.23-17.41,5.06-25.7,8.12-8.85,3.28-17.6,6.83-26.27,10.55q-13.37,5.73-26.44,12.1c-3.15,1.7-6.33,3.31-9.58,4.78q-7.64,3.87-15.16,7.94c-6.84,3.73-18.57,8.87-25.09,16.32A70.85,70.85,0,0,1,14,180.52a75.64,75.64,0,0,1,7.77-13.6c2.68-3.73,7.16-7.32,9.1-11.57,3.45-2,6.9-3.94,10.31-6s7.62-3.92,10-7.27a1.13,1.13,0,0,0-1-1.69c-4.11.44-7.72,3.1-11.28,5.13-2.76,1.57-5.5,3.19-8.24,4.82,1-2.76,1.82-5.57,2.68-8.37,1.35-4.39,3.18-8.93,3.44-13.54a1.52,1.52,0,0,0-2.8-.77c-2.17,3.82-3.11,8.39-4.26,12.64,1.85-10.5,3.08-21.08,4.32-31.67,1.31-11.23,2.78-22.61,2.88-33.9a.85.85,0,0,0-1.66-.24C32.87,85.06,31.7,96,30.44,106.71c-1.31,11.29-2.68,22.56-3.29,33.91a1.31,1.31,0,0,0,2.28.8,114,114,0,0,0-2.82,11.35c-6.24,3.68-12.35,7.53-18.44,11.43a28.48,28.48,0,0,0-.91-8.47,1.13,1.13,0,0,0-2.16,0c-1.06,3.43-.91,7.28-.84,11L2.11,168.1a1.26,1.26,0,0,0,1.27,2.17l.9-.48c-.09,5.56-.11,11.1-.13,16.66,0,1.71,0,3.42,0,5.13A64.27,64.27,0,0,0,2,214.21a3.48,3.48,0,0,0,2.53,2.86c0,.59,0,1.17.08,1.76a1.57,1.57,0,0,0,2.49,1.22A16.35,16.35,0,0,0,16,225.13C23.91,226.8,30.44,223,36.87,219c.94-.58.36-2.23-.77-1.85-6.5,2.2-15.14,5.38-21.72,2-7.73-4-5-11.66.1-16.44,5.4-5.09,12.61-8.31,19-11.86,5.79-3.2,11.63-6.28,17.51-9.29a148.36,148.36,0,0,0-3.25,31.16,1.32,1.32,0,0,0,2.63,0,142.87,142.87,0,0,1,4.9-33.34c13.49-6.76,27.23-13.05,41.19-18.77q10.6-4.36,21.37-8.38c5.56-2.08,11.43-3.75,16.87-6.21l.11,0c7.79-2.3,15-6.53,22.35-9.95,7.79-3.64,15.62-7.18,23.53-10.53,16.43-7,33.2-13.21,50.14-18.8q24.48-8.07,49.58-14c8.57-2,17.95-5.12,26.83-4a18.68,18.68,0,0,1,9.2,3.79,74.15,74.15,0,0,1,4.26,6.64c.11.19.21.38.31.57a11.86,11.86,0,0,1-.56,6.23c-.61,1.72,2.12,2.89,2.94,1.26a13.78,13.78,0,0,0,.64-1.5,72.86,72.86,0,0,1,2.67,6.9c1.49,4.55,1.72,9.85,3.84,14.09.93,1.87,4.26,1.55,4.65-.6C336.11,121.16,334.09,115.58,332.55,111ZM8.17,179.9q0-4.58-.09-9.14c0-1,0-2,0-3,3.48-1.84,7-3.68,10.42-5.56-.17.24-.35.47-.52.69a79.57,79.57,0,0,0-9.51,16.2Z"/><path d="M302.27,109.51a2,2,0,0,0,2-3.2A13.64,13.64,0,0,1,302.27,109.51Z"/><path d="M187.09,316.18c-.91-.69-2,.76-1.2,1.54a48.08,48.08,0,0,1,13.46,38.95c-.36,3.35,4.9,3.34,5.25,0A44.91,44.91,0,0,0,187.09,316.18Z"/><path d="M272.21,363.19c-5.33,2.95-10,7.4-15,10.9a148.93,148.93,0,0,1-15.9,9.77c-11.23,5.9-23.25,9.73-36,9.83-12.51.09-27.17-4.24-31.41-17.43-4.06-12.62,6.7-22.24,18.63-18.4,1.76.57,3.36-1.95,1.87-3.19-8.94-7.49-22.71.42-25.66,10.27-4.12,13.76,6.66,26.47,18.91,31,14.93,5.48,32,2.21,46.27-3.73a125,125,0,0,0,21.19-11.56c6.44-4.3,14-9,19.07-14.94A1.59,1.59,0,0,0,272.21,363.19Z"/><path d="M286,352.35c-1.13-5.57-5.92-8.34-11.35-8.47-8-.2-16.53,3.49-24.08,5.6L223,357.17c-3.11.87-1.81,5.73,1.32,4.85l32.35-9c4.77-1.33,9.59-3.06,14.48-3.84,3.28-.53,7.69-.6,9.42,2.76a4.39,4.39,0,0,1-1.21,5.81,2.07,2.07,0,0,0,1.57,3.76C285.32,360.89,286.81,356.28,286,352.35Z"/><path d="M332.74,470.16c-.43-4.59-.85-9.18-1.3-13.78-.42-4.29-.88-8.58-1.33-12.87a1.6,1.6,0,0,0,.42-.4c2.8-3.79,1.05-10,.81-14.46q-.51-9.36-1-18.71-1-18.21-2-36.42a2.6,2.6,0,0,0-.43-1.34,1.64,1.64,0,0,0-.25-2c-2.29-2.15-4-2-7.12-2.21l-11.8-.92c-7.87-.61-15.72-1-23.61-1.31-2.72-.1-2.54,3.76,0,4.1,7.54,1,15.05,2,22.63,2.72l10.82,1.05c1.67.16,3.14.45,4.56.46q1,18.44,1.9,36.88l.9,17.33a.82.82,0,0,0-.23.58c0,2.73-.54,5.09-.36,7.87s.42,5.25.63,7.87c.37,4.6.74,9.19,1.15,13.78s.83,9.18,1.24,13.77c.39,4.25.19,8.74,1.95,12.66.6,1.32,2.73.92,3.05-.39C334.43,479.86,333.18,474.76,332.74,470.16Z"/><path d="M166.84,381.38a125.09,125.09,0,0,0-26.3,5.83,1.39,1.39,0,0,0,.73,2.69A125.13,125.13,0,0,0,167,382.61C167.59,382.37,167.61,381.29,166.84,381.38Z"/><path d="M487.58,483.32c-.48-1.81-3.11-2.58-4.14-.67-.3.55-.58,1.12-.83,1.7A32,32,0,0,1,487.58,483.32Z"/><path d="M753.3,425.09q-23,27.44-46.08,54.88l-22.33,26.74c-.23.27-.45.54-.68.8a1.62,1.62,0,0,0-1.05,0c-7.29,1.95-14.29,5.58-21.16,8.66l-4,1.8c-5.15-.62-10.48-.63-15.56-1-7.63-.54-15.25-.92-22.89-1.28-14.92-.71-29.85-1.22-44.77-1.82-30.19-1.21-60.33-2.05-90.55-2.26-1.88,0-1.85,2.77,0,2.89,30.17,2.06,60.32,3.49,90.54,4.55,14.93.53,29.85,1.14,44.78,1.56,7.29.2,14.59.4,21.89.44,3,0,6.11.14,9.2.22-3.56,1.62-7.1,3.28-10.59,5-1.25.62-.68,2.55.5,2.72-5.72.83-11.47,1.53-17.23,2.06a354.34,354.34,0,0,1-49,1.17,352.25,352.25,0,0,1-97.12-18.46c-1.92-.65-2.69,2.3-.84,3a328.67,328.67,0,0,0,97.95,21,326.13,326.13,0,0,0,50.78-1q12.13-1.18,24.18-3.22c5-.84,10.88-1.5,16.18-3.07-.86,1.27-1.69,2.55-2.47,3.86a1.43,1.43,0,0,0,2.23,1.73c8.57-7.55,15.49-17.53,22.72-26.35q11.36-13.89,22.72-27.76,22.41-27.37,44.69-54.87C756.45,425.71,754.49,423.68,753.3,425.09Zm-83.2,99c-7.31-.2-15.32,2.55-22.41,3.75-2.17.37-4.33.71-6.51,1,6.77-2.45,13.44-5.22,20.1-8,.75-.08,1.5-.17,2.24-.29a.79.79,0,0,0,.64-.89c4.9-2,10-3.87,14.83-6.19C676,517,672.94,520.52,670.1,524.12Z"/><path d="M808.47,334.51a33.78,33.78,0,0,0-15.66-11.19l-.15,0c-1.29-14.71-15.63-26.77-29.78-27.94a1.68,1.68,0,0,0-.39,0,3.17,3.17,0,0,0,.1-5.1c-7.83-5.79-18.71-7.52-27.82-3.83-8.59,3.47-13.45,10.26-15.61,19-.18.72.91,1.26,1.25.53a26.44,26.44,0,0,1,39.24-10.7,2.46,2.46,0,0,0,1.9.5c-1.24,1-1.18,3.55.73,3.95a32,32,0,0,1,16.57,8.8c4.79,4.83,6.65,10.28,8.36,16.67a2.62,2.62,0,0,0,2,1.91,3,3,0,0,0,1.95,2.1,27.15,27.15,0,0,1,12.7,9.35c3.08,4.12,3.44,9.15,6.06,13.27a2.46,2.46,0,0,0,4.45-.56C815.89,345.71,811.75,338.75,808.47,334.51Z"/><path d="M812.11,354.31c-1.89-2.72-6.39-.17-4.5,2.61,2.89,4.22,3.5,9.68.43,14-2.79,3.95-6.62,4.49-10.88,5.09a1.58,1.58,0,0,0-1.14.07l-.47.2-.35.16a70,70,0,0,0-9.43,5.33c-1.13-9.73-2.72-19.39-4.72-28.92a2.9,2.9,0,0,0-.72-1.42c.39-.23.54-.59.77-1.35a2.47,2.47,0,0,0-.63-2.4c-6.22-6.22-12.27-13-19.19-18.42-1.29-1-3.75.34-2.54,2,5.34,7.1,12,13.37,18.09,19.78a3.07,3.07,0,0,0-1.74,3.49c6.24,30,7.2,60,4.9,90.29-2.81,4.7-5.45,8.45-11.17,10.85A29.88,29.88,0,0,1,758,457.79a23.69,23.69,0,0,0,7.89-4.2A25.18,25.18,0,0,0,774,440.43c.86-3.57,1.87-9.61-1.64-12,.46-1.24.92-2.48,1.35-3.73-5.29-9.83-13.09-18.95-20.7-26.67-9.07-9.19-19.85-18.31-31.76-23.51-9.94-4.34-22.28-5.34-31.44,1.23q1.71-2.38,3.5-4.69c1.84.51,3.9.55,5.1-.94a1.83,1.83,0,0,0,0-2.48,3,3,0,0,0-1.57-1q2.92-3.62,6-7.1a168.17,168.17,0,0,1,12.78-13c4.84-4.42,10.53-8.18,15.08-12.87a2.09,2.09,0,0,0-2.51-3.27,33.33,33.33,0,0,0-3.58,2.09c1.71-4.81,3-9.88,4.25-14.62a3.27,3.27,0,0,0-1.45-3.59,2.34,2.34,0,0,0-1.6-.44,3.28,3.28,0,0,0-3.07,2.32,136.68,136.68,0,0,0-4.82,18.25c-2.75-4.39-8.42-7.71-13-8.74-.1,0-.2,0-.3-.06l8.41-6c3.83-2.73,9.33-5.32,11.44-9.64.49-1-.06-2.71-1.46-2.55-4.88.56-8.88,4.54-12.82,7.29l-7,4.92.06-.17c2.93-13.34-13.82-15.54-23.18-16a99.22,99.22,0,0,0-28,2.72,1.28,1.28,0,0,0-.39-.13c-2.59-.49-4.32.47-6.81,1.15a17.46,17.46,0,0,1-4.16.63c.09-.35.17-.71.24-1.07.38-2-2.42-3.5-3.44-1.46-.36.7-.68,1.41-1,2.13a15.61,15.61,0,0,1-2.87-1c-6.85-3.05-10.45-10.79-9.28-18,.43-2.68-3.47-3.92-4.16-1.16-2.24,8.86.91,18.48,8.71,23.57a21.35,21.35,0,0,0,5.47,2.35c-.31,1.47,1.31,3.19,2.82,2.57,1.23-.5,2.47-1,3.71-1.43,4.28.25,8.44-.56,10.67-3.28a100.25,100.25,0,0,1,18.45-2.87c8.24-.48,30.54-2.24,29.73,10.8a1.68,1.68,0,0,0,1.85,1.71L695.54,325a2.92,2.92,0,0,0-1.24,1.94,14.14,14.14,0,0,0-5.5,4.65,10.92,10.92,0,0,0,1.46,14.59c3.87,3.56,9.29,3.94,12.81-.18a1.21,1.21,0,0,0-1.45-1.9c-2.94,1.5-7.39-.5-8.9-3.25-2.19-4,1.39-7.91,4.95-9.41,8.45-3.56,12.64,3.8,18.53,7.76l-2.93,2.63a171.07,171.07,0,0,0-14.49,14.76c-2.2,2.52-4.3,5.14-6.31,7.83a6.49,6.49,0,0,1-1.21-1.47c-1.9-3.19-.48-6.89,2.24-9,1.86-1.47-.51-4.36-2.47-3.23a10.92,10.92,0,0,0-1.81,18.27A178.4,178.4,0,0,0,677,389.46c-.95,1.87,1.77,3.51,2.83,1.66.52-.91,1.07-1.81,1.61-2.71a16.48,16.48,0,0,0,1.68,11.51,239.16,239.16,0,0,0-22.33,15.56c-13.7,10.57-26.59,22.47-37.25,36.15-19-9.44-39.89-15.53-60.4-20.78a440.1,440.1,0,0,0-67.07-11.45c-1.6-.15-1.55,2.27,0,2.46A497.18,497.18,0,0,1,563,435.1c19.92,5.32,39.07,12.7,58.56,19.24l-.85,1.13a1.24,1.24,0,0,0-.22.52q-2.91,3.79-5.59,7.76c1.76-.14,3.52-.2,5.27-.18q2.64-4,5.26-7.94l.9.3a1.32,1.32,0,0,0,1-2.4l-.18-.09c1.89-2.28,3.84-4.52,5.86-6.69,3.65-3.68,7.35-7.31,11.14-10.85q5.68-5,11.79-9.57c6.36-4.69,13.49-8.16,19.89-12.71,1-.72.45-2.63-.9-2.15,0,0,0,0-.08,0,11.5-7.53,23.51-14.1,35-21.72a1,1,0,0,0-.73-1.75,107.47,107.47,0,0,0-23.06,10.18c-2.79-9.56,4-18.93,13.71-21.09,11.31-2.51,22,3.08,31,9.46a138.33,138.33,0,0,1,22.66,20.31c6.14,6.82,10.81,14.25,15.59,21.87-1.77,2.41-.94,5.06-1.28,8a18.66,18.66,0,0,1-5,10.63,18,18,0,0,1-11.24,5.33c-4.45.45-8-1-12.15-1.92a2,2,0,0,0-1.95,3.33,14.43,14.43,0,0,0,7.27,4.33,1.25,1.25,0,0,0,.76,1.05,7.88,7.88,0,0,0,3.07.67c-.39.17-.78.32-1.16.51a1,1,0,0,0,.52,1.94,36.76,36.76,0,0,0,5.47-.78,16,16,0,0,0,6.51,1.83,26.32,26.32,0,0,0,12-2.1A30.69,30.69,0,0,0,782,454.65a2.59,2.59,0,0,0,3.16-2c.14-.92.25-1.85.38-2.78a16,16,0,0,0,1.81-5.85,2.54,2.54,0,0,0-.85-2.25,275.31,275.31,0,0,0-.3-56.24,90,90,0,0,0,9.42-4.72,3.27,3.27,0,0,0,.33.14c6.2,2,13.6-2.31,16.9-7.48A17.42,17.42,0,0,0,812.11,354.31Z"/><path d="M425.34,573.34q2.71,12.36,4.46,24.89c.66,4.71,1.18,9.45,1.67,14.18.32,3.11.23,6.5,1.69,9.28a11.93,11.93,0,0,1,1.78,1.54,1.25,1.25,0,0,0,1.28-.72c1.66-3.5.85-7.25.46-11-.45-4.27-1-8.53-1.65-12.77q-1.93-12.94-4.91-25.72A309.74,309.74,0,0,0,413.46,523c-.6-1.42-3-.41-2.51,1A359.11,359.11,0,0,1,425.34,573.34Z"/><path d="M425.92,578.79a.05.05,0,0,0,0,.1C426,578.89,426,578.79,425.92,578.79Z"/><path d="M416.38,703.44a1.48,1.48,0,0,0,2.59,1.41c.38-.56.74-1.12,1.11-1.68A14.3,14.3,0,0,1,416.38,703.44Z"/><path d="M438.77,636.54l.67,0c-.25,1.85-.53,3.7-.84,5.53-.05,1-.11,1.94-.17,2.91a15,15,0,0,1,5.39-3.13c.36-1,.72-2.05,1.05-3.08.12-.81.24-1.61.35-2.42h.42c.72-2.32,1.37-4.64,1.93-7l-1.38.05c.18-1.33.35-2.7.47-4.08-.6-2-1.27-4.08-2-6.06a13.8,13.8,0,0,1-.57-8.21,1.49,1.49,0,0,0-1.59.73c-2.41,5.06-2.13,11.83-2.36,17.84l-1.79.07a18.19,18.19,0,0,1,.51,4.39C438.82,634.87,438.78,635.71,438.77,636.54Z"/><path d="M436.58,667.82a11.12,11.12,0,0,1-1.29,2.41c-.52,2.73-1.12,5.44-1.75,8.14q1.92-4.39,3.56-8.91A14.9,14.9,0,0,1,436.58,667.82Z"/><path d="M488,403.63a9.51,9.51,0,0,0-10.46.64,11.1,11.1,0,0,1-.35-3.73c-1.75-.51-3.54-.93-5.2-1.42q-7.1-2.1-14.3-3.82a274.25,274.25,0,0,0-29.85-5.44,243.55,243.55,0,0,0-56.14-.74l0-1.77a3.53,3.53,0,0,0-3.88-3.5c-1.65-1.16-3.49-1.4-5.83-1.93q-5.35-1.23-10.71-2.39c-6.68-1.46-13.42-3.17-20.22-3.9-2.64-.28-2.77,3.54-.6,4.35,6.81,2.55,14.08,4.08,21.12,5.87,3.88,1,8.57,3,12.87,3.13l.66,44.12c.22,15.17-.38,30.63.8,45.76a3.06,3.06,0,0,0,.38,2,2.22,2.22,0,0,0-.49,2.67c3.59,5.95,8.71,11.11,13.22,16.37q3,3.56,6.13,7.05a1.67,1.67,0,0,0,.61,2.56,1.35,1.35,0,0,0-.17.93,192.78,192.78,0,0,1,2.37,24c-1,.06-1.93.1-2.9.12-2.68.06-3.49,4.25-.67,4.84l.78.13c.77,4.75,1.67,9.49,2.59,14.22q-.18,2.84-.43,5.66a190.51,190.51,0,0,1-4,24.79c-1.42,6.22-3.46,12.21-5.28,18.29a1.23,1.23,0,0,0-.59.64,23.4,23.4,0,0,0-.8,4.51c-.26,2,3,2.84,3.82,1,5.68-12.42,8.47-26.82,10-40.65.42,2.4.82,4.81,1.16,7.22a302.66,302.66,0,0,1,3,38.75q.12,8.67-.28,17.32l-1.1,0c2.14,10.44,3.78,21.31,3.62,32,1.48-8.41,2.61-16.87,3.32-25.38l1.32,0a13.06,13.06,0,0,1,5.14-7.08l-6,.21q.53-9,.47-18c-.19-22-2.2-45.88-9.35-67.17,0-2.08-.05-4.16-.12-6.23a21.6,21.6,0,0,0,2.84-.56c1.39-.1,2.77-.24,4.16-.4,3.23,7.91,6.11,17.11,11.16,23.8a.85.85,0,0,0,1.55-.65c-1.48-8-6.11-16-9.68-23.56a56.93,56.93,0,0,0,8.76-2c2.92-1,1.67-4.88-1.22-4.48-1.36.18-2.72.38-4.06.58,1.36-1.71,2.53-3.62,3.95-5.7a1.69,1.69,0,0,0-.25-2c-4-4.61-11.52-7.35-17.15-10.21-.2-.59-.4-1.17-.62-1.74a7.36,7.36,0,0,0,2.05.66v-.07a2.2,2.2,0,0,0,2-.48,326.46,326.46,0,0,0,35.18,9.72c7.39,1.6,14.82,3,22.3,4.1,2.38.35,4.81.75,7.25,1.11-.06.53-.12,1.07-.17,1.61-.19,1.93,2.33,2.08,3.25.89.49-.63.95-1.28,1.4-1.94a47.07,47.07,0,0,0,10.54.08c1.91-.23,2.67-3,.5-3.6a56.36,56.36,0,0,0-8-1.4c6.21-11.44,8.33-25.21,6.8-38-.08-.71-1.17-.76-1.14,0,.37,13.75-3.33,26-9.82,37.58-3-.24-6.06-.44-9-.78-7.95-.91-15.88-2.12-23.73-3.68a321.75,321.75,0,0,1-35.13-9.11c-1.52-5.17-7.63-9.66-11.09-13.34-4.4-4.66-8.64-9.75-13.57-13.9a3.47,3.47,0,0,0,2.49-3.25c.69-15.16-.41-30.59-.67-45.77q-.36-20.33-.7-40.66a348.85,348.85,0,0,1,53.31,2.6,294.36,294.36,0,0,1,30.18,5.55q7.2,1.72,14.3,3.81c2.24.66,4.66,1.71,7.09,2.45a.94.94,0,0,0,.38.11c.62.18,1.24.34,1.86.47a13.46,13.46,0,0,1-.64-1.25c5.44-4.36,12.18,2,13.3,7.5,1.34,6.63-.92,14.18-2,20.7s-2.16,13.12-3.18,19.69c-1,6.27-2.62,12.85-2.39,19.23a1.3,1.3,0,0,0,2.53.35c3.26-9.13,3.65-19.86,5.05-29.45,1.25-8.55,3.44-17.53,3.43-26.21C495,412.38,493.32,406.42,488,403.63ZM405.38,527a12.64,12.64,0,0,1-6.18,6l-5-11.11C397.82,524,401.6,526.08,405.38,527Zm-12-.32c1,2.29,2,4.57,3,6.86-1.69.22-3.38.41-5.09.57-.17-2.6-.37-5.19-.65-7.78A2,2,0,0,0,393.41,526.7Z"/><path d="M346.71,495.36c-4-2.61-10-2.7-14.56-3.72q-3.5-.76-7-1.56c6.14-1.05,12.29-2.09,18.42-3.16,1.89-.33,1.08-3.13-.77-2.85q-13.2,2-26.37,4l-.7-.16a.51.51,0,0,0-.51.17c-1.17-4.75-2.41-9.5-3.73-14.21-1-3.53-5.17-4.51-7.95-3.19-7.47-6.9-18.32-7.43-28-6.36-14.38,1.58-28.7,4.07-43,6.15l-88.39,12.81-6.84,1c.26-13.94.24-27.91.45-41.83a1.71,1.71,0,0,0-.43-1.22q.15-12.4.31-24.81c0-2.08-3.2-2.09-3.23,0l-.29,25.37a1.94,1.94,0,0,0-.13.66c-.27,14.14-.79,28.31-1,42.48L112.08,488c1-13.63,1.45-27.36,2.26-40.92.21-3.36-5.1-3.39-5.25,0-.58,13.81-1.64,27.75-2,41.65l-23.44,3.42c.45-12,.9-24.1,1.26-36.16.52-17.83,3.14-38.72,22.3-45.26a16.71,16.71,0,0,0,5-.75c.84-.28,1.28-1.6.46-2.14,8.91-4.38,17.73-8.88,26.45-13.66,1.27-.69.4-3-1-2.4C126.93,396.42,116,401.4,105,406.6a1.9,1.9,0,0,0-1.09,1.91c-16.08,3-22.43,23.17-23.77,37.73-1.41,15.47-1.75,31.11-2,46.72L44,498c-2.46.36-4.16,3.67-3.38,5.91l.36,1.06a2.55,2.55,0,0,0,.11,1.37c10.61,31.12,21.2,62.27,32,93.35Q66.65,584.18,59,569.13c-1.51-3-5.7-.38-4.4,2.56C75.54,618.78,89.86,669.45,95,720.77c.27,2.71,2.14,5.33,5.19,5.22,42.3-1.48,84.59-4.31,126.86-6.52,20.91-1.09,41.85-2,62.75-3.28,16.75-1.06,32.44-6,39.86-22.37,6.58-14.49,4.6-29.68.33-44.31a9.77,9.77,0,0,0,3.83-16.26,13.09,13.09,0,0,0-5.45-3.26,471,471,0,0,0-10.6-131.18c1.66-.69,3.3-1.41,4.9-2.18.92-.43.27-1.84-.66-1.6q-2.42.63-4.8,1.29c-.36-1.56-.72-3.13-1.1-4.69l5.66-1c3.3.91,6.6,1.81,9.89,2.73,4.57,1.28,9.87,4,14.61,3.59A.89.89,0,0,0,346.71,495.36ZM317.29,645.85c.48,5.83,1,11.66,1.64,17.46-2.67.9-4.72,4-2.76,6.73l5,7a5.67,5.67,0,0,0,2.09,1.76c-1.16,8.26-4.87,16.57-11.85,21.31-9.77,6.62-23.49,5.63-34.75,6.22l-83.25,4.32c-29.57,1.54-59.2,2.69-88.75,4.65a487.76,487.76,0,0,0-14.11-66.15q1.9,5.36,3.83,10.71c2.33,6.48,12.71,3.79,10.43-2.84q-8-23.26-16.18-46.45.47-3.73.91-7.47A30.35,30.35,0,0,1,84.91,597a2.37,2.37,0,0,0-1,.17L82,592a9.7,9.7,0,0,1-2-3.37c-1.89-5.68-3.72-11.38-5.28-17.15q-11.53-32.45-23-64.92L78,502.82c-.11,5.47-.23,10.92-.41,16.36A2.42,2.42,0,0,0,78,520.7a11.19,11.19,0,0,1,4.22-2.82l.55-.21q.26-7.8.55-15.6l23.73-3.33q0,4,.18,8.08c.06,1.51,2.56,2.05,2.8.39.42-3,.79-6,1.11-9l21.76-3.06c0,3.31,0,6.61,0,9.92l3.79-.58c.14-3.31.27-6.62.37-9.93l76.62-10.78L255,477.91c6.6-.94,13.2-2,19.83-2.77,5.29-.62,11.17-1.14,16.32.59,6.56,2.2,9.08,8.19,10.21,14.77l-5.32.85a16.5,16.5,0,0,1,1.49,3.39l4.31-.71c.24,2.25.37,4.51.5,6.65l-1.67.5a13.94,13.94,0,0,1,.23,3.42l1.67-.48c0,.38.07.77.1,1.14q2,20.84,4,41.68l9.12,95.28A6.43,6.43,0,0,0,317.29,645.85Z"/><path d="M127.26,206c-7-4.86-20.75-1.48-20.09,8.56a1.43,1.43,0,0,0,2.8.38,9.18,9.18,0,0,1,17.88,2.49c.75,9-6.94,15.48-15.42,15.64-7.8.15-15.43-4.68-16.69-12.73-1.32-8.45,4-17.79,12.23-20.42a1.59,1.59,0,0,0-.84-3.06c-19.65,4.37-22.91,33.26-3.55,40.55,8.63,3.24,19.68,1.4,25.6-6C134.86,224.22,135.41,211.66,127.26,206Z"/><path d="M164.38,309.67c-5.12-1.69-11.52-.82-16.92-1.61a100.74,100.74,0,0,1-11.91-2.49,16.09,16.09,0,0,1,5.41-8.43,3.2,3.2,0,0,0,.81-4c4.79-6.11,7.17-14.87,2-20.58-1.36-1.52-3.83-.29-3.88,1.59-.09,3.58.91,6.66-.29,10.25a14.47,14.47,0,0,1-7.14,8.48l0,0a28.44,28.44,0,0,0-11.24-20.14c-3-2.27-5.9,2.78-3,5A21.29,21.29,0,0,1,126.32,294a14.65,14.65,0,0,1-12.75-10.52c-1.16-4.24-7.8-2.45-6.6,1.8a21.66,21.66,0,0,0,18.29,15.33,15,15,0,0,1-.56,1.39,99.07,99.07,0,0,1-26.89-15.78c-1-.84-2-1.71-3-2.59a17.82,17.82,0,0,0,2.89-5.34c4.71-13.87-5.37-31.15-18.78-36-1.57-.58-2.72,1.63-1.6,2.73,3.12,3.06,6.55,5.38,9.5,8.39a17.77,17.77,0,0,0-15.07.26A105.15,105.15,0,0,1,63,229.79c-.35-1.48-2.58-.86-2.27.62a105.59,105.59,0,0,0,8.34,24.74,21.7,21.7,0,0,0-7.45,8.36,19.8,19.8,0,0,0-1.08,2.64c-.88.75-1.77,1.47-2.69,2.13a13.36,13.36,0,0,1,.54-11.37c1.86-3.32-3.23-6.32-5.09-3a19.32,19.32,0,0,0-.54,17.33,22.07,22.07,0,0,1-8.11,1.95,21.71,21.71,0,0,1-18.85-9.52c-9.66-13.93-.77-31,14-36.58.86-.32.83-1.77-.23-1.72-9.62.44-17,5.77-21.06,14.59a27.05,27.05,0,0,0,2.78,27.12c5.54,7.67,14.46,12.37,24,11.63a29.81,29.81,0,0,0,10.51-2.82,16.57,16.57,0,0,0,5.36,3.94,18.46,18.46,0,0,0,10.22,9.39c7.11,2.75,15.23,1.65,20.77-2.92,1.35,1.23,2.72,2.44,4.15,3.6a104.47,104.47,0,0,0,26.29,15.6,21,21,0,0,1-7.29,6c-4.42,2.21-8.74,1.57-13.34,2.66-2.63.62-3.35,4.74-.8,6a13.82,13.82,0,0,0,4.57,1.33c-.36,5.89,3.2,12.53,10.45,12.71,7.41.17,13.24-5.66,15.71-12.18,1.44-3.83,1.87-8.22,2.68-12.42a102.35,102.35,0,0,0,12,2.61c5.37.83,12.56,2.47,17.77.62A1.66,1.66,0,0,0,164.38,309.67ZM65.66,275.2c-1.28-5.39,1.25-11.61,5.92-15.14A101.32,101.32,0,0,0,78.3,270.7a13.75,13.75,0,0,1-3.92,3.19A13.15,13.15,0,0,1,65.66,275.2ZM70.3,282c-.4-.29-.77-.59-1.12-.9,4.79-.32,9.89-2.18,12.94-5.41q1.78,2.19,3.69,4.28a1.91,1.91,0,0,0,1.56,1.67l.47.48A15,15,0,0,1,70.3,282Zm17.79-5c-1.35-1.45-2.66-2.95-3.92-4.48a9.39,9.39,0,0,0,.58-5c-.2-1.35-1.94-1.47-2.78-.75a17.27,17.27,0,0,0-1.3,1.26,105.89,105.89,0,0,1-6.31-9.65c.32-.14.65-.28,1-.4a13.07,13.07,0,0,1,15.37,5.77C93.49,268.74,91.5,273.37,88.09,277Zm37.18,39.83c-1,3.59-5.27,11.85-10.4,8.83-1.77-1-2-3.11-1.49-5.08a30.58,30.58,0,0,0,13.23-9.38C126.22,313.08,125.8,315,125.27,316.85Z"/><path d="M159.47,179.9a9.39,9.39,0,0,0-8.38,1.92c-2.31,2.14-2.89,5.92-2.42,8.89a12.69,12.69,0,0,0,.9,3,2.81,2.81,0,0,0,.85,2c.16.17.33.31.5.46,2.41,3.5,6.38,5.94,10.56,4.24a1.6,1.6,0,0,0,.34-2.89,10,10,0,0,0,4.5-3.87C169.86,187.86,165.53,181.27,159.47,179.9Zm-2.05,5.8c2.19.13,5.06,2.16,3.82,4.6-1.16,2.25-4.75,2.92-6.5,1.14C153.87,189,154.11,185.5,157.42,185.7Z"/><path d="M225.37,244.28c-6.38.34-12.15.91-18.28-1.5a20.23,20.23,0,0,1-12.18-12.62,16,16,0,0,1,.12-10.39l.37-.14a17.12,17.12,0,0,0,8.41-8,13.46,13.46,0,0,1,10.37-.06c1.52.71,3.52-1.3,2-2.52A17.15,17.15,0,0,0,206,205.18q.1-.47.18-.93a17,17,0,0,0,10,1.28c9.05-1.53,16.74-9.76,15.63-19.22-1-8.93-11.1-19.35-20.75-16.27a1.53,1.53,0,0,0,.4,3c4.94.6,8.92,1.25,12.49,5.14a13,13,0,0,1,3.38,12.09c-1.8,6.74-9.53,11.39-16.31,10.25a12.24,12.24,0,0,1-4.46-1.72,31.13,31.13,0,0,0-1-7.56,39.45,39.45,0,0,0-6.8-13.6c1-7.08,4.26-13.86,7.29-20.21,1.19-2.48-2.47-4.69-3.72-2.19-2.86,5.71-5.79,11.79-7.4,18.07a42.39,42.39,0,0,0-18.38-10.62,1,1,0,0,0-.52,1.84,41.17,41.17,0,0,1,18.12,12.4,30.08,30.08,0,0,0,.63,13.28,11.63,11.63,0,0,0-1.67-.71c-10.26-3.42-21.16,6.94-20,17.27.83,7.17,7.14,12.69,14,13.8a20.38,20.38,0,0,0-.51,6.51,25.21,25.21,0,0,0,2,7.9,1.65,1.65,0,0,0-.83,2.84c10.37,9.51,14.22,25.65,8.05,38.56-3.12,6.54-9.72,13.24-17.63,11.45-3.76-.85-7.21-3.71-7.13-7.85.09-3.94,2.58-6.14,6-7.59,1.5-.64.56-2.69-.75-2.8h-.14a17.54,17.54,0,0,0,6.6-13.58,17,17,0,0,0-21.66-16.65c-2.3.67-1.32,4.29,1,3.59a13.55,13.55,0,0,1,15.9,19.57c-3.83,7.23-13.48,9.95-21,7.5-8.56-2.81-14-11.74-14.84-20.4-.92-9.59,3.43-19.09,9.31-26.42.91-1.12-.61-2.75-1.62-1.63-8.27,9.21-13.56,21.68-10,34.1,3,10.32,11.84,18.9,23,18.73a22.29,22.29,0,0,0,5.89-.92c-2.5,3.84-2.8,9.64-.45,13.28,5.09,7.91,16.53,7.68,23.38,2.52,13-9.79,14.18-28,7.54-42a31.93,31.93,0,0,0,26.93,3.85C229.85,250,229.5,244.06,225.37,244.28ZM198.89,184a35.13,35.13,0,0,1,3.53,10.81,22.77,22.77,0,0,1-3.9-11.46ZM175.94,207c-1.59-6.09,2.18-12.24,7.61-14.89a11.57,11.57,0,0,1,10.59.11,7.07,7.07,0,0,1,2.09,1.82,21.64,21.64,0,0,0,1.09,2c1.09,3.1-.08,6.67-4.42,7.19-1,.12-1.44,1.71-.26,1.88,3.6.51,6.54-2.07,7.33-5.49a20.32,20.32,0,0,0,2.6,2.4,21.85,21.85,0,0,1-.72,3.51,19.86,19.86,0,0,0-13.15,10.82C183.11,216.37,177.52,213.07,175.94,207Z"/><path d="M73.69,198.34c-4.69-3.06-14.59-.1-12.8,6.62a.83.83,0,0,0,1.58,0c1.92-5.2,11.13-6.8,10.93.55-.21,7.63-9.56,8.35-14,4-11-10.7,3.6-25.53,11.24-32.87.59-.56-.2-1.67-.89-1.16-9,6.66-19.2,15.57-17.3,28.08,1.21,8,9.86,15.71,18.15,12C76.75,212.77,80.33,202.66,73.69,198.34Z"/><path d="M87.46,296.7a2.46,2.46,0,0,0-3.4,0l-4,3.25c-1.32,1.05-2.9,2-3.65,3.57a2.05,2.05,0,0,0,2.27,3c1.8-.42,3.14-1.83,4.54-3s2.86-2.28,4.28-3.43A2.41,2.41,0,0,0,87.46,296.7Z"/><path d="M182.05,299.66a1.43,1.43,0,0,0-2.74,0c-1.49,6.39-3.35,12.62-9,16.56-6.16,4.28-14.18,3.94-20.46.21-2.64-1.56-5,2.54-2.41,4.11,7.73,4.61,17.65,4.94,25.3-.13C179.26,316.05,184.09,307.59,182.05,299.66Z"/><path d="M43,211.1l-4.59-1.53c-.1,0-.15.12,0,.16l4.6,1.53C43,211.29,43.06,211.13,43,211.1Z"/><path d="M.05,203.47a.05.05,0,1,0,0,.1A.05.05,0,0,0,.05,203.47Z"/><path d="M106.38,37.93c-21.32,9.26-42,20.34-62.85,30.57-1.43.7-.19,2.82,1.23,2.13C65.67,60.49,87.12,51,107.53,39.92,108.86,39.2,107.7,37.36,106.38,37.93Z"/><path d="M308.29,59c-3.86-3.92-8.83-7-13.38-10.17,1.84-.5,3.67-1,5.46-1.67,1-.34.89-1.92-.25-1.88a70.73,70.73,0,0,0-8.91.88L277.38,36.14l-27.8-20.22a1.74,1.74,0,0,0-1.33-2.86h-2.63l-.52-.38a2,2,0,0,0-2.87.38c-45.15.37-89.94,11.57-131.19,29.49-1.09.48-.31,2.39.82,2C154,28.41,198.11,20.28,242.91,17l31.25,22.66,10.64,7.71c-3.19.65-6.37,1.36-9.52,2q-12.63,2.56-25.17,5.52-25.53,6-50.63,13.61a833,833,0,0,0-97.87,36.26Q74.3,116.92,48.06,131.12c-.6.32-.08,1.18.52.9,62.59-29.65,127.49-53.85,194.57-71.22q14.25-3.67,28.6-6.92c5.63-1.29,11.44-2.27,17.15-3.53l.6.43c2,1.47,4,3.06,6.09,4.64-36.74,6.76-73,18.07-108.17,30.36q-53.78,18.77-105.49,42.83c-2.39,1.11-.32,4.66,2.06,3.55A1138.23,1138.23,0,0,1,190.24,89c35.11-12.23,70.86-22,106.4-32.81a58.77,58.77,0,0,0,9.19,6C307.82,63.21,310,60.75,308.29,59Z"/><path d="M324.81,119.21a.05.05,0,0,0,0,.1A.05.05,0,1,0,324.81,119.21Z"/></g></g></g></svg>