<svg xmlns="http://www.w3.org/2000/svg" viewBox="0 0 448.66 490.06"><defs><style>.cls-1{fill:#fff;}</style></defs><title>logo Bolttech</title><g id="Camada_2" data-name="Camada 2"><g id="Camada_1-2" data-name="Camada 1"><path class="cls-1" d="M203.06,146.17a12.54,12.54,0,0,0-4.71.78,24.48,24.48,0,0,0-4.31,2l-2.42,1.41c-1.1-2.66-5.33-8.62-14.22-15.45-16.71-12.86-38,0-38,0L39.83,187.77l4.6-41.6,85-42.66a268,268,0,0,1-25.28-13.78c-10.72-6.9-24.51,0-24.51,0L6.13,129.56,0,245.22,143,165a22.11,22.11,0,0,1,20.28-.71l15.85,7.5c-1.58,14.87,10.88,26.64,25.8,25.62a25.66,25.66,0,0,0-1.85-51.26Zm-23.83,24.5Zm24,18.28a17,17,0,1,1,17-17A17,17,0,0,1,203.18,189Z"/><path class="cls-1" d="M301.24,182.43a12.89,12.89,0,0,0-2.86-3.83,25.13,25.13,0,0,0-3.77-2.89l-2.37-1.51c1.85-2.19,5.19-8.7,7.16-19.73,3.71-20.76-17.51-33.72-17.51-33.72l-92.8-64,39-15.09,77.05,55.79a269.44,269.44,0,0,1,.58-28.79C306.93,56,294.46,46.9,294.46,46.9L225.22,0,119.75,47.87l137.07,89.92a22.11,22.11,0,0,1,10,17.68l.65,17.52c-13.91,5.45-18.62,21.93-10.84,34.7a25.66,25.66,0,0,0,44.64-25.26Zm-32.72-9.86Zm-5.19,29.68a17,17,0,1,1,22.94,7.25A17,17,0,0,1,263.33,202.25Z"/><path class="cls-1" d="M321.6,272.29a12.69,12.69,0,0,0,1.47-4.55,25.17,25.17,0,0,0,.17-4.75l-.14-2.8c2.86.23,10.09-.81,20.23-5.6,19.06-9,17.33-33.81,17.33-33.81l-1.59-112.72L394,131.13l-.84,95.12A269.53,269.53,0,0,1,417,210c11-6.39,11.19-21.81,11.19-21.81l-1.89-83.6L326.13,46.4l6.12,163.82a22.11,22.11,0,0,1-8.63,18.37l-13.9,10.68c-12.51-8.19-28.67-2.47-34.57,11.27a25.66,25.66,0,0,0,46.45,21.75ZM310.68,239.9Zm-27.19,13a17,17,0,1,1,7.37,22.9A17,17,0,0,1,283.49,252.87Z"/><path class="cls-1" d="M245.93,339.74a12.76,12.76,0,0,0,4.72-.78,25.21,25.21,0,0,0,4.3-2l2.42-1.42c1.1,2.65,5.36,8.6,14.26,15.4,16.76,12.8,38-.13,38-.13L409,297.6l-4.46,41.61L319.7,382.15A269.43,269.43,0,0,1,345,395.86c10.74,6.85,24.51-.09,24.51-.09l73.4-40.07L448.66,240,306,320.7a22.15,22.15,0,0,1-20.28.77L269.81,314c1.52-14.87-11-26.6-25.89-25.53a25.66,25.66,0,0,0,2,51.25Zm23.76-24.57Zm-24-18.2a17,17,0,1,1-17,17.06A17,17,0,0,1,245.68,297Z"/><path class="cls-1" d="M153.7,311.35a12.7,12.7,0,0,0,3,3.7,24.47,24.47,0,0,0,3.9,2.71l2.43,1.39c-1.74,2.28-4.78,8.94-6.23,20.05-2.74,20.91,19.06,32.87,19.06,32.87l95.67,59.63-38.29,16.89-79.55-52.15a267.06,267.06,0,0,1,.75,28.78c-.58,12.73,12.3,21.2,12.3,21.2l71.34,43.64,103.13-52.72-141.1-83.46a22.11,22.11,0,0,1-10.79-17.19l-1.46-17.47c13.65-6.09,17.59-22.78,9.22-35.17a25.66,25.66,0,0,0-43.41,27.3Zm33.14,8.34Zm3.8-29.89a17,17,0,1,1-23.25-6.19A17,17,0,0,1,190.64,289.8Z"/><path class="cls-1" d="M128,215.45a12.55,12.55,0,0,0-1.66,4.48,25.18,25.18,0,0,0-.37,4.74l0,2.81c-2.85-.36-10.12.39-20.44,4.75-19.43,8.21-18.73,33.07-18.73,33.07L83.71,378l-33.93-24.5,4.77-95a270.25,270.25,0,0,1-24.45,15.2C18.82,279.62,18,295,18,295l-1.57,83.61L114.07,441,114.73,277a22.14,22.14,0,0,1,9.39-18l14.33-10.09c12.16,8.7,28.54,3.65,35-9.83A25.66,25.66,0,0,0,128,215.45Zm9.57,32.81Zm27.71-11.83a17,17,0,1,1-6.42-23.19A17,17,0,0,1,165.23,236.43Z"/></g></g></svg>