<?xml version="1.0" encoding="utf-8"?>
<!-- Generator: Adobe Illustrator 23.0.1, SVG Export Plug-In . SVG Version: 6.00 Build 0)  -->
<svg version="1.1" id="Camada_1" xmlns="http://www.w3.org/2000/svg" xmlns:xlink="http://www.w3.org/1999/xlink" x="0px" y="0px"
	 viewBox="0 0 384.9 384.9" style="enable-background:new 0 0 384.9 384.9;" xml:space="preserve">
<style type="text/css">
	.st0{fill:#FEF242;}
	.st1{fill:#FE4155;}
	.st2{fill:#7E5966;}
	.st3{fill:#725057;}
	.st4{fill:#553538;}
	.st5{fill:#FEE101;}
	.st6{fill:#FEE300;}
	.st7{fill:#FCC901;}
	.st8{fill:#FEF6AA;}
	.st9{fill:#FEF241;}
	.st10{fill:#FEF7AA;}
	.st11{fill:#FEE205;}
	.st12{fill:#FDAC00;}
	.st13{fill:#FE7E3D;}
</style>
<title>Fogo</title>
<g>
	<g id="Camada_1-2">
		<path class="st0" d="M191.3,0.1c0.1,5.5,0.1,11,0.1,16.5c1.3,10.4,5.6,20.3,12.4,28.3c3.4,4.1,7.5,7.7,11.2,11.5
			c18.1,18.2,23.5,39.9,18.5,64.8c-2.2,10.9-8.1,20.3-11.9,30.5c-4.6,0.7-9.4,0.7-14-0.1c-10.7-1.9-18.2-7.2-22-17.7
			c-2.4-6.6-2.1-13.4-2-20.2c6.2-6.2,8.6-13.7,8.4-22.3c-0.1-11-3.3-21.1-8-30.8c-6.8-13.9-10.5-28.2-5.7-43.5
			c2.4-6.1,5.7-11.9,9.8-17.1H191.3z"/>
		<path class="st1" d="M178.5,17.1c-4.8,15.4-1.1,29.6,5.7,43.5c4.7,9.7,7.9,19.8,8,30.8c0.1,8.6-2.2,16.2-8.4,22.3
			c-7.1,4.6-14.2,5-21.4,0.4c-7-4.4-10.9-10.5-9.9-19.1c0.3-2.3,0.7-4.7,1.2-7c1.7-8.5,1.6-16.9-2-24.9c-0.5-1.1-1-2.5-2.6-2.3
			s-1.7,1.7-1.8,2.9c-0.2,3.1-1,6.2-2.4,9c-3.1,7.2-8.4,12.6-14,17.9c-12.4,11.6-17.8,34.1-3.8,50.4c5.6,6.4,9.7,14,12,22.2
			c1.6,5.9,1.3,11.4-3.3,15.9c-5.4,3.7-11.1,6.1-17.8,5c-9.8-1.6-16.1-7.4-19.8-16.3c-0.5-1.3-0.8-3.2-2.9-2.9
			c-1.9,0.3-1.9,2-2.2,3.5c-2.4,11.9-6.8,23.2-13,33.6c-7.8,13.4-6.8,26.3,2.3,38.8c5.3,7.4,12.4,13,18.8,19.3
			c7.4,7.4,7.4,18.4,0.1,25.8c-6.5,6.7-17.7,6.9-25.1,0.3c-2.3-1.9-4.3-4.1-6.1-6.6c-0.6-1-1.5-1.8-2.8-1.3
			c-1.1,0.4-1.2,1.5-1.2,2.5c-0.2,4.5,0.1,9,0.8,13.4c2.1,11.2,5.8,21.6,12.7,30.8c-4.7,5.1-3.5,9.4,3.1,11c2.5,0.6,5,1.4,6.8,3.5
			c-4.3,2.1-9,2.3-13.6,2.6C58.4,328.6,44,311.7,33,292.5C15,261.4,6,227.6,8.7,191.8c5.8-77.6,45.1-132,116.8-162.6
			C142.3,22,160.1,18.4,178.5,17.1z M96.9,122.8c0.3-8.5-2.8-15.7-7.7-22.3c-0.7-0.9-1.2-2.2-2.6-1.7s-1,1.8-0.9,2.9
			c0.9,9.4-1.3,18.8-6.2,26.9c-2.5,3.9-1.4,9.1,2.5,11.6c0.4,0.3,0.8,0.5,1.2,0.7c4.7,2.1,9.8-0.2,11.7-5.4
			C96.4,131.4,97.1,127.1,96.9,122.8z"/>
		<path class="st1" d="M221.8,151.7c3.7-10.3,9.7-19.6,11.9-30.5c5-24.9-0.4-46.6-18.5-64.8c-3.8-3.8-7.8-7.4-11.2-11.5
			c-6.8-8-11.1-17.9-12.4-28.3c24.6,0,48.2,4.3,70.8,14.1C252.1,43,249.4,56.7,254,72c1.2,4.1,3.7,6.8,7.9,7.5
			c4,0.7,7.5-0.4,9.8-3.9c2.5-3.3,2.5-7.9,0.1-11.2c-6.3-10.1-8.1-21.1-6.8-32.7c59.1,27.2,96.3,72.4,107.6,136.4
			c11.8,67.1-9.3,124.1-59.4,170.3c-0.6,0.6-1.4,1.1-2,1.6c-2.5-2.4-5.1-4.6-6.7-7.7c5.5-8.2,12.5-14.1,22.5-16c3-0.6,5-3.5,4.4-6.5
			c0-0.1,0-0.2-0.1-0.3c-0.7-3.2-3.9-5.2-7.1-4.5c-4.4,0.7-8.3,2.6-12.3,4.3c0.8-4.4,3.1-8.4,3.2-13l0,0l0.5-0.6
			c2.2-1.7,4.9-2.4,7.3-3.6c3.5-1.7,4.7-5.3,2.8-8.4s-5-2.7-8-2.3c0.1-4.3,0.3-8.5,0.3-12.7c0-3.9-0.9-4.4-4.5-3.1
			c-6.3,2.3-13.3,2-19.3-1c-15.2-7.3-21.6-25.5-14.3-40.7c0.3-0.7,0.6-1.3,1-1.9c2.8-5,6.5-9.4,8.9-14.7c2.2-2.6,3.3-5.8,4.6-8.9
			c4.5-10.9,7.6-22,5.9-34.1c-1.6-11-7.7-18.9-15.5-26c-7.5-6.8-13.6-14.6-17.4-24.1c-0.5-1.3-0.7-3.2-2.8-2.9
			c-2.3,0.3-1.8,2.3-1.9,3.9c-0.8,9.2,1.7,18,3.4,26.9c1.4,6.1,2.1,12.3,2.2,18.5c0,10.3-5,17.7-13.9,22.6c-0.6,0-1.2,0.3-1.6,0.8
			l0,0c-0.4,0-0.7,0.1-1.1,0.2c-14.5,4.5-27.6-3.3-30.7-18.2C220.1,161,220.8,156.4,221.8,151.7z"/>
		<path class="st2" d="M255.9,372.7c-35.2,12.7-70.9,14.9-107.3,6.1c-0.3-1.1-0.6-2.2-0.9-3.2c-6.5-15.4-1.7-30.9,11.5-41.2
			c6.5-5.1,11.2-12.1,13.5-20.1l1.4,1.1c1.3,1.9,3,3.4,5,4.6c2.9,2.9,6.5,4.8,10.4,5.7c2.8,2,6.1,2.2,9.4,2.7
			c1.6,0.1,3.2,0.4,4.8,0.4c9.8,0.3,19.3,1.7,27.6,7.6c1.3,0.9,2.4,2.2,4.2,2.2c0.1,1.3,1,1.9,1.8,2.7
			C246.3,350.1,252.1,360.7,255.9,372.7z"/>
		<path class="st3" d="M172.6,314.2c-2.2,8-7,15-13.5,20.1c-13.2,10.4-18,25.8-11.5,41.2c0.4,1.1,0.7,2.1,0.9,3.2
			c-15.4-3.2-29.8-9.1-43.7-16.5c-10.4-5.6-20.4-11.8-29.2-19.9c4.7-0.3,9.3-0.4,13.6-2.6c4-1.2,7.7-3.2,10.8-6
			c2.3-1.3,4.3-3.1,5.9-5.2c3.2-2.7,5.9-5.9,8-9.6c7.5-11.1,17.4-18.3,31.3-18.5c7.2,0.2,14.1,2.5,20.1,6.4
			C167.9,309.3,170.9,311.2,172.6,314.2z"/>
		<path class="st3" d="M304.5,332.3c1.6,3.1,4.3,5.4,6.7,7.7c-8.5,7.4-17.7,14-27.5,19.5c-5.9-5.5-8.4-13-12.5-19.7
			c-1.8-3-4-5.7-5.1-9c-1.2-3.8,0-7.6-0.7-11.3l3.8-1.9c3.8-1,7.8-1.4,11.7-1.3c4,0.3,7.6,1.9,11.2,3.3l4.7,3.5L304.5,332.3z"/>
		<path class="st4" d="M265.5,319.5c0.6,3.7-0.6,7.5,0.6,11.3c1.1,3.4,3.3,6.1,5.1,9c4,6.6,6.6,14.2,12.5,19.7
			c-8.8,5.3-18.1,9.8-27.8,13.1c-3.7-11.9-9.6-22.6-18.5-31.5c-0.8-0.8-1.8-1.5-1.8-2.7c8.4-1.3,15.9-5.6,21.2-12.2
			C259.1,323.3,262.1,321,265.5,319.5z"/>
		<path class="st5" d="M265,31.7c-1.3,11.6,0.5,22.6,6.8,32.7c2.4,3.4,2.4,7.9-0.1,11.2c-2.4,3.5-5.9,4.6-9.8,3.9
			c-4.2-0.7-6.7-3.4-7.9-7.5c-4.6-15.3-1.8-29.1,8.3-41.4C263.4,30.5,264.4,30.5,265,31.7z"/>
		<path class="st6" d="M281,316.4c-3.9-0.2-7.9,0.3-11.7,1.2c1-6.2,3.5-12,4-18.5c0.8-10.8-2.6-19.7-10.5-26.6
			c-6.2-5.4-11.4-11.9-15.1-19.2c-0.7-1.4-0.3-4.3-2.7-3.6c-1.9,0.5-1.3,3.2-1.8,4.9c-0.1,0.4,0,0.8,0.1,1.1
			c0.8,9.4,3.5,18.5,4.6,27.9c0.9,7.8-0.6,14.3-6.6,19.5c-6.3,5.5-15.5,6.1-22.6,1.7c-5.8-3.6-9.4-12.2-8.2-19.2
			c1-5.8,3.5-10.8,5.8-16.1c7.2-16.6,8-33.1-0.2-49.8c-3.8-7.6-9.9-13-15.7-18.9c-10-10.3-14.9-22.5-13.3-37c0.1-0.8,0.3-1.5-0.4-2
			c-1-0.7-1.6,0.1-2.2,0.7c-0.7,0.7-1.4,1.4-2,2.2c-7.2,10.6-9.1,22-5.1,34.2c3.5,10.6,9.6,20.3,10.4,31.8
			c0.7,9.4-1.9,19.1-10.8,22.8c-4.1,0.9-8.1,0.9-11.8-1.4c-7.3-4.5-10.5-9.5-8-20.2c1.6-6.8,1.6-13.5-1.2-20.1
			c-0.7-1.7-1.6-4-3.8-1.1c-1.7-0.4-3.4-0.8-5-1.4c-7.7-2.5-12.6-8.8-13-16.3c-0.3-4.8,0.8-9.3,1.5-13.9c4.6-4.6,5-10,3.3-15.9
			c-2.3-8.2-6.4-15.8-12-22.2c-14-16.3-8.7-38.8,3.8-50.4c5.6-5.2,10.9-10.7,14-17.9c1.4-2.8,2.2-5.9,2.4-9c0.1-1.2,0.2-2.7,1.8-2.9
			s2.1,1.2,2.6,2.3c3.6,8.1,3.7,16.4,2,24.9c-0.5,2.3-0.9,4.7-1.2,7c-1,8.6,2.9,14.7,9.9,19.1c7.2,4.5,14.4,4.1,21.4-0.4
			c0,6.8-0.3,13.5,2,20.2c3.8,10.5,11.3,15.8,22,17.7c4.6,0.7,9.4,0.8,14,0.1c-0.9,4.6-1.7,9.3-0.7,14.1c3,14.9,16.2,22.7,30.7,18.2
			c0.4-0.1,0.7-0.1,1.1-0.2c-0.1,0.6-0.3,1.2-0.6,1.7c-4.9,6.8-4.2,11.6,3,16.1c10.7,6.7,22.5,7.1,34.5,5.6c-2.3,5.3-6,9.8-8.9,14.7
			c-8.4,14.6-3.3,33.3,11.4,41.7c0.6,0.4,1.3,0.7,1.9,1c6,3,13,3.4,19.3,1c3.6-1.3,4.5-0.8,4.5,3.1c0,4.3-0.2,8.5-0.3,12.7l-4,2
			C299,290.6,287.9,301.4,281,316.4z"/>
		<path class="st7" d="M135.8,179.3c-0.8,4.6-1.8,9.2-1.5,13.9c0.4,7.5,5.3,13.8,13,16.3c1.6,0.5,3.3,0.9,5,1.4
			c0.2,4.3-1.6,8-3.7,11.6c-2.8,4.7-6.9,8.2-10.5,12.1c-9.5,10.1-11.7,27-1.8,38.1c3.3,3.9,6,8.3,8,13c2.1,4.8,3.1,9.7,1.2,14.9
			c-14,0.2-23.8,7.4-31.3,18.5c-6-7.8-12.6-14.8-21.3-19.7c-3.8-2.2-7.4-1.5-9,1.7s-0.4,6.2,3.3,8.4c7.9,4.6,14.4,11.3,19,19.2
			c-1.6,2.1-3.6,3.9-5.9,5.2c-1-1.1-2.1-2.1-3.2-3.1c-5.1-3.9-10.5-7.1-17.4-5.4c-6.9-9.2-10.7-19.6-12.7-30.8
			c-0.7-4.4-1-8.9-0.9-13.4c0-1,0.1-2.1,1.2-2.5c1.3-0.5,2.2,0.3,2.8,1.3c1.7,2.5,3.8,4.7,6.1,6.6c7.4,6.5,18.6,6.4,25.1-0.3
			c7.3-7.5,7.3-18.4-0.1-25.8c-6.3-6.3-13.4-11.9-18.7-19.3c-9-12.5-10-25.4-2.3-38.8c6.2-10.4,10.6-21.8,13-33.6
			c0.3-1.4,0.2-3.2,2.2-3.5c2.1-0.3,2.3,1.6,2.9,2.9c3.8,8.9,10.1,14.7,19.8,16.3C124.7,185.4,130.4,182.9,135.8,179.3z"/>
		<path class="st5" d="M96.9,122.8c0.2,4.3-0.5,8.7-2,12.7c-1.9,5.2-7,7.5-11.7,5.4c-4.3-1.8-6.2-6.8-4.4-11.1
			c0.2-0.4,0.4-0.8,0.7-1.2c4.9-8.1,7.1-17.5,6.2-26.9c-0.1-1.1-0.4-2.4,0.9-2.9s1.9,0.8,2.6,1.7C94.1,107.1,97.3,114.3,96.9,122.8z
			"/>
		<path class="st8" d="M79.5,325.3c6.9-1.8,12.3,1.4,17.4,5.4c1.1,1,2.2,2,3.2,3.1c-3.1,2.8-6.8,4.8-10.8,6
			c-1.8-2.1-4.3-2.9-6.8-3.5C76.1,334.6,74.8,330.4,79.5,325.3z"/>
		<path class="st9" d="M289.7,207.2c-12,1.5-23.9,1.1-34.5-5.6c-7.2-4.5-7.9-9.3-3-16.1c0.3-0.5,0.5-1.1,0.6-1.7l0,0
			c0.6,0.1,1.3-0.2,1.6-0.8c8.9-4.9,13.9-12.3,13.9-22.6c-0.1-6.2-0.9-12.4-2.3-18.4c-1.8-8.9-4.3-17.7-3.4-26.9
			c0.1-1.6-0.3-3.5,1.9-3.9c2.1-0.3,2.3,1.6,2.8,2.9c3.8,9.5,9.9,17.3,17.4,24.1c7.9,7.1,13.9,15.1,15.5,26
			c1.8,12.1-1.4,23.2-5.9,34.1C293,201.3,291.9,204.5,289.7,207.2z"/>
		<path class="st10" d="M281,316.4c6.9-14.9,18-25.8,32.7-32.9l4-2c3-0.4,6-0.9,8,2.3s0.7,6.7-2.8,8.4c-2.5,1.2-5.1,1.9-7.3,3.6
			l-0.5,0.6l0,0c-1,0-2,0.4-2.7,1.1c-8.6,5.5-15.5,13.2-20.2,22.3C288.6,318.3,285,316.7,281,316.4z"/>
		<path class="st8" d="M304.5,332.3l-7.5-9.2c3.8-5.9,9.2-10.1,15-13.9c4-1.7,8-3.6,12.3-4.3c3.2-0.7,6.4,1.3,7.1,4.5
			c0.7,3-1.1,6-4.1,6.8c-0.1,0-0.2,0-0.3,0.1C317,318.2,310,324.2,304.5,332.3z"/>
		<path class="st11" d="M311.9,309.3c-5.8,3.8-11.2,8-15,13.9l-4.7-3.5c4.6-9.1,11.6-16.8,20.2-22.3c0.7-0.7,1.7-1.1,2.7-1.1
			C315,300.9,312.7,304.9,311.9,309.3z"/>
		<path class="st6" d="M254.3,183c-0.3,0.6-0.9,0.9-1.6,0.8C253.1,183.3,253.7,183,254.3,183z"/>
		<path class="st11" d="M315,296.3l0.5-0.6L315,296.3z"/>
		<path class="st12" d="M177.1,253.5c8.9-3.8,11.5-13.5,10.8-22.8c-0.8-11.5-6.9-21.2-10.4-31.8c-4-12.2-2.1-23.6,5.1-34.2
			c0.6-0.8,1.3-1.6,2-2.2c0.6-0.6,1.2-1.4,2.2-0.7c0.7,0.5,0.5,1.2,0.4,2c-1.6,14.5,3.3,26.7,13.3,37c5.7,5.9,11.9,11.3,15.7,18.9
			c8.2,16.6,7.4,33.2,0.2,49.8c-2.3,5.3-4.8,10.3-5.8,16.1c-1.2,7,2.4,15.5,8.2,19.2c7.1,4.4,16.3,3.8,22.6-1.7
			c6-5.2,7.5-11.8,6.6-19.5c-1.1-9.4-3.8-18.5-4.6-27.9c-0.1-0.4-0.1-0.7-0.1-1.1c0.6-1.7-0.1-4.4,1.8-4.9c2.4-0.7,2,2.3,2.7,3.6
			c3.8,7.3,8.9,13.8,15.1,19.2c7.9,6.9,11.3,15.8,10.5,26.6c-0.5,6.5-3,12.3-4,18.5l-3.8,1.9c-3.4,1.5-6.4,3.8-8.8,6.8
			c-5.3,6.6-12.9,10.9-21.2,12.2c-1.8,0-2.9-1.3-4.2-2.2c-8.3-5.9-17.8-7.3-27.6-7.6c-1.6,0-3.2-0.3-4.8-0.4
			c-0.3-4.4-0.1-8.9,0.7-13.2l0,0l0.7-0.6l5.9-3c3.2-1.7,4.4-4.5,3.2-7.3c-1-2.9-4.2-4.5-7.2-3.5c-0.1,0-0.2,0.1-0.4,0.1
			c-2.6,0.9-5,2.2-7.4,3.3c-2.8-0.2-3.8-2-3.9-4.5c-0.1-1.8,0-3.7,0-5.5l0,0l0.8-0.8c1.9-1.8,4.1-3.3,6.3-4.6
			c3.4-2.1,4.5-5.2,2.8-8.2c-1.8-3.1-5.2-3.9-8.7-1.9c-2.4,1.4-4.6,2.9-7,4.3c-0.4-0.7-1.2-0.8-1.9-1.1c-7.1-3-9.7-7.1-9.5-14.8
			C173.4,262.3,175.7,258,177.1,253.5z"/>
		<path class="st8" d="M184.8,283c2.3-1.5,4.6-3,7-4.3c3.6-2,7-1.3,8.7,1.9c1.7,2.9,0.6,6.1-2.8,8.2c-2.3,1.3-4.4,2.8-6.3,4.6
			l-0.8,0.8l0,0c-2.3,0.9-3.8,2.8-5.4,4.5c-4.7,4.9-8,10.8-11.1,16.8l-1.4-1.1c-1.8-3-4.7-4.9-7.1-7.3c0.7-1.3,1.2-2.7,2-4
			C172.1,295.2,178.1,288.8,184.8,283z"/>
		<path class="st8" d="M194.4,304c2.5-1.1,4.9-2.4,7.4-3.3c2.9-1.2,6.2,0.1,7.4,3c0.1,0.1,0.1,0.2,0.1,0.4c1.2,2.9-0.1,5.6-3.2,7.3
			l-5.9,3l-0.7,0.6l0,0c-4.3,2.4-7.9,6.1-10.1,10.5c-4-0.9-7.6-2.8-10.4-5.7C182.9,313.5,188.2,308.1,194.4,304z"/>
		<path class="st13" d="M194.4,304c-6.2,4.1-11.4,9.5-15.3,15.9c-2-1.1-3.7-2.7-5-4.6c3.2-6,6.4-11.8,11.1-16.8
			c1.6-1.7,3.1-3.6,5.4-4.5c0,1.8-0.1,3.7,0,5.5C190.6,302,191.7,303.8,194.4,304z"/>
		<path class="st13" d="M189.5,325.6c2.2-4.5,5.7-8.1,10.1-10.5c-0.8,4.4-1,8.8-0.7,13.2C195.6,327.8,192.3,327.6,189.5,325.6z"/>
		<path class="st13" d="M184.8,283c-6.7,5.8-12.7,12.2-17.2,19.9c-0.8,1.3-1.3,2.7-2,4c-6-3.9-13-6.2-20.1-6.4
			c2-5.1,0.9-10.1-1.2-14.9c-2-4.7-4.7-9.1-8-13c-9.9-11.1-7.8-28.1,1.8-38.1c3.7-3.9,7.8-7.4,10.5-12.1c2.1-3.6,3.8-7.3,3.7-11.6
			c2.2-3,3-0.6,3.8,1.1c2.8,6.5,2.7,13.2,1.2,20.1c-2.5,10.7,0.7,15.7,8,20.2c3.7,2.3,7.7,2.3,11.8,1.4c-1.4,4.5-3.6,8.7-3.8,13.6
			c-0.2,7.7,2.5,11.8,9.5,14.8C183.5,282.2,184.3,282.3,184.8,283z"/>
		<path class="st10" d="M106.1,328.6c-4.6-7.9-11.1-14.5-19-19.2c-3.7-2.2-4.9-5.3-3.3-8.4s5.2-3.9,9-1.7
			c8.6,4.9,15.3,11.9,21.3,19.7C112,322.6,109.3,325.9,106.1,328.6z"/>
		<path class="st13" d="M190.5,294.1l0.8-0.8L190.5,294.1z"/>
		<path class="st13" d="M199.6,315.1l0.7-0.6L199.6,315.1z"/>
	</g>
</g>
</svg>
