<svg xmlns="http://www.w3.org/2000/svg" viewBox="0 0 410.55 410.55"><defs><style>.cls-1{fill:#fefefe;}.cls-2{fill:#fe421d;}.cls-3{fill:#fe6536;}.cls-4{fill:#fabe00;}.cls-5{fill:#fea800;}</style></defs><title>Ativo 4</title><g id="Camada_2" data-name="Camada 2"><g id="Camada_1-2" data-name="Camada 1"><path class="cls-1" d="M228.88.08q89.19,0,178.4-.08c2.74,0,3.27.54,3.27,3.28q-.12,202,0,404c0,2.74-.54,3.27-3.27,3.27q-202-.12-404,0C.54,410.55,0,410,0,407.28q.14-202,0-404C0,.54.54,0,3.28,0q112,.15,224,.08a11.25,11.25,0,0,1-1.74.79c-7.09,1.88-14.23,3.58-20.89,6.76A146.8,146.8,0,0,0,147,46c-21.2,22.68-34.51,49.74-42.91,79.34C94.29,159.69,91,194.82,92.69,230.47c.2,4.18.42,8.35.65,13a179.43,179.43,0,0,1-49.92-43.38,171.29,171.29,0,0,0-4.23,63.24,163.77,163.77,0,0,0,27.92,73.57,165.26,165.26,0,0,0,71.1,58.85c17.18,7.56,35.1,12.36,54,13.15a46.61,46.61,0,0,0,12.7.66c4.76.09,9.54.61,14.24-.65,4,.32,8-.51,11.89-1.13a165.06,165.06,0,0,0,64.89-25.07,167.45,167.45,0,0,0,75.93-131.44c.34-5.75.05-11.54.05-18.42-6.11,7.11-12.08,12.59-19.17,16.63s-14.52,7-23.06,5.57c24.84-50.19,17.6-96.89-14.38-141.81-1.2,2.41-2.08,4.14-2.93,5.88a76,76,0,0,1-15.88,21.84c-16.83,15.93-38.81,15.7-55.13-.7-8.87-8.92-14-20-17.31-31.87-7.45-26.65-5.76-53.49-1.13-80.3C224.51,18.67,226.86,9.4,228.88.08Z"/><path class="cls-2" d="M204.65,7.63c6.66-3.18,13.8-4.88,20.89-6.76a11.25,11.25,0,0,0,1.74-.79h1.6c-2,9.32-4.37,18.59-6,28-4.63,26.81-6.32,53.65,1.13,80.3,3.33,11.92,8.44,22.95,17.31,31.87,16.32,16.4,38.3,16.63,55.13.7a76,76,0,0,0,15.88-21.84c.85-1.74,1.73-3.47,2.93-5.88,32,44.92,39.22,91.62,14.38,141.81,8.54,1.4,16-1.54,23.06-5.57s13.06-9.52,19.17-16.63c0,6.88.29,12.67-.05,18.42A167.77,167.77,0,0,1,231,407.76c-3.92.62-7.86,1.45-11.89,1.13,1.24-1.19,2.95-1.11,4.44-1.51a73.46,73.46,0,0,0,54.24-77.75c-1.62-17.45-9-32-20.53-44.76-2.58-2.85-4.35-2.72-6.55.21a23.08,23.08,0,0,1-4,3.93c-5.68,4.65-11.85,6.63-19.23,4.15-7-2.38-11.48-7.4-15.24-13.36-3.36-5.34-4.81-11.4-6.55-17.34q0-8.79-.07-17.59c2.23-8.81,5.35-17.27,11.21-25.66l-12,2.6q0-104.1,0-208.2C204.86,11.62,204.72,9.63,204.65,7.63Z"/><path class="cls-3" d="M204.65,7.63c.07,2,.21,4,.22,6q0,104.1,0,208.2c0,.23,0,.46,0,.69-30,9.51-50.93,29.11-63.14,57.95-7.91,18.68-10.47,38.39-9.71,58.55,1,28,14.53,48.26,38.55,62,6.76,3.87,14.22,5.74,21.6,7.88-18.87-.79-36.79-5.59-54-13.15a165.26,165.26,0,0,1-71.1-58.85,163.77,163.77,0,0,1-27.92-73.57,171.29,171.29,0,0,1,4.23-63.24,179.43,179.43,0,0,0,49.92,43.38c-.23-4.63-.45-8.8-.65-13C91,194.82,94.29,159.69,104,125.29,112.44,95.69,125.75,68.63,147,46A146.8,146.8,0,0,1,204.65,7.63Z"/><path class="cls-4" d="M192.18,408.88c-7.38-2.14-14.84-4-21.6-7.88-24-13.74-37.51-34-38.55-62-.76-20.16,1.8-39.87,9.71-58.55C154,251.61,174.83,232,204.88,222.5c0,4.89-.12,9.79,0,14.68.09,2.56-.83,5.26.74,7.69q0,8.79.07,17.59c-1.46,1.28-.82,3-.83,4.51q0,71.29,0,142.57A46.61,46.61,0,0,1,192.18,408.88Z"/><path class="cls-5" d="M204.88,409.54q0-71.28,0-142.57c0-1.51-.63-3.23.83-4.51,1.74,5.94,3.19,12,6.55,17.34,3.76,6,8.21,11,15.24,13.36,7.38,2.48,13.55.5,19.23-4.15a23.08,23.08,0,0,0,4-3.93c2.2-2.93,4-3.06,6.55-.21,11.55,12.8,18.91,27.31,20.53,44.76a73.46,73.46,0,0,1-54.24,77.75c-1.49.4-3.2.32-4.44,1.51C214.42,410.15,209.64,409.63,204.88,409.54Z"/><path class="cls-5" d="M205.66,244.87c-1.57-2.43-.65-5.13-.74-7.69-.16-4.89,0-9.79,0-14.68,0-.23,0-.46,0-.69l12-2.6C211,227.6,207.89,236.06,205.66,244.87Z"/></g></g></svg>