<svg xmlns="http://www.w3.org/2000/svg" viewBox="0 0 384.89 384.89"><defs><style>.cls-1{fill:#fefefe;}.cls-2{fill:#fef242;}.cls-3{fill:#fe4155;}.cls-4{fill:#7e5966;}.cls-5{fill:#725057;}.cls-6{fill:#553538;}.cls-7{fill:#fee101;}.cls-8{fill:#fee300;}.cls-9{fill:#fcc901;}.cls-10{fill:#fef6aa;}.cls-11{fill:#fef241;}.cls-12{fill:#fef7aa;}.cls-13{fill:#fee205;}.cls-14{fill:#fdac00;}.cls-15{fill:#fe7e3d;}</style></defs><title>Fogo</title><g id="Camada_2" data-name="Camada 2"><g id="Camada_1-2" data-name="Camada 1"><path class="cls-1" d="M191.32.07q95.25,0,190.5-.07c2.57,0,3.07.5,3.07,3.07q-.12,189.38,0,378.75c0,2.57-.5,3.07-3.07,3.07q-189.37-.12-378.75,0c-2.57,0-3.07-.5-3.07-3.07Q.12,192.45,0,3.07C0,.5.5,0,3.07,0Q95.69.14,188.32.07a66.84,66.84,0,0,0-9.86,17.07c-18.31,1.23-36.15,4.88-53,12.08-71.66,30.6-111,85-116.78,162.57C6,227.62,15,261.38,33.14,292.51a174.43,174.43,0,0,0,42.6,49.79c8.75,8.05,18.77,14.29,29.17,19.89,13.8,7.44,28.23,13.35,43.65,16.55,36.39,8.85,72.14,6.65,107.3-6.07a146,146,0,0,0,27.84-13.14,162.14,162.14,0,0,0,27.48-19.48c.69-.54,1.41-1,2.05-1.63,50-46.21,71.18-103.17,59.37-170.27C361.33,104.1,324.09,58.88,265,31.71c-.57-1.18-1.6-1.21-2.69-1.05-22.62-9.73-46.3-14-70.85-14.07Q191.4,8.32,191.32.07Z"/><path class="cls-2" d="M191.32.07q.08,8.27.14,16.52a53.7,53.7,0,0,0,12.37,28.32c3.44,4.08,7.46,7.68,11.24,11.47,18.12,18.19,23.53,39.94,18.53,64.8-2.19,10.91-8.15,20.26-11.85,30.53a46.55,46.55,0,0,1-14-.08c-10.66-1.85-18.2-7.17-22-17.68-2.37-6.63-2.07-13.37-2-20.16,6.22-6.16,8.56-13.71,8.45-22.34-.13-11-3.28-21.1-8-30.76-6.84-13.94-10.47-28.16-5.69-43.55A66.84,66.84,0,0,1,188.32.07Z"/><path class="cls-3" d="M178.46,17.14c-4.78,15.39-1.15,29.61,5.69,43.55,4.73,9.66,7.88,19.81,8,30.76.11,8.63-2.23,16.18-8.45,22.34-7.06,4.55-14.24,5-21.45.45-7-4.4-10.87-10.54-9.89-19.09.27-2.35.71-4.68,1.17-7,1.69-8.51,1.64-16.87-2-24.94-.51-1.12-1-2.52-2.57-2.27s-1.73,1.68-1.78,2.92a25.2,25.2,0,0,1-2.4,9c-3.1,7.16-8.36,12.64-14,17.87-12.44,11.64-17.77,34.06-3.76,50.39a57.72,57.72,0,0,1,12,22.23c1.64,5.92,1.31,11.35-3.34,15.91-5.39,3.66-11.1,6.14-17.85,5-9.77-1.62-16.07-7.38-19.83-16.3-.54-1.29-.8-3.16-2.89-2.85-1.94.3-1.87,2-2.15,3.47a107.57,107.57,0,0,1-13,33.63c-7.77,13.4-6.76,26.3,2.26,38.82,5.31,7.38,12.39,13,18.75,19.3,7.43,7.41,7.36,18.38.1,25.83-6.51,6.69-17.67,6.85-25.08.31a34.61,34.61,0,0,1-6.07-6.6c-.63-.95-1.48-1.84-2.79-1.29-1.08.44-1.18,1.48-1.19,2.52a71.78,71.78,0,0,0,.77,13.42c2.06,11.17,5.83,21.61,12.72,30.77-4.69,5.06-3.46,9.35,3.08,11,2.51.62,5,1.42,6.77,3.48-4.3,2.14-9,2.28-13.64,2.56a174.43,174.43,0,0,1-42.6-49.79C15,261.38,6,227.62,8.67,191.79c5.8-77.61,45.12-132,116.78-162.57C142.31,22,160.15,18.37,178.46,17.14ZM96.93,122.77c.34-8.51-2.81-15.7-7.73-22.25-.65-.87-1.21-2.18-2.57-1.72s-1,1.84-.94,2.92a44,44,0,0,1-6.2,26.86,8.41,8.41,0,0,0,3.71,12.29c4.69,2.12,9.83-.17,11.74-5.37A32.57,32.57,0,0,0,96.93,122.77Z"/><path class="cls-3" d="M221.75,151.71c3.7-10.27,9.66-19.62,11.85-30.53,5-24.86-.41-46.61-18.53-64.8-3.78-3.79-7.8-7.39-11.24-11.47a53.7,53.7,0,0,1-12.37-28.32c24.55,0,48.23,4.34,70.84,14.08Q247.06,49.12,254,72c1.23,4.08,3.67,6.84,7.91,7.53,4,.65,7.45-.43,9.83-3.94a9.56,9.56,0,0,0,.09-11.23c-6.33-10.07-8.07-21.06-6.8-32.69,59.09,27.17,96.33,72.39,107.6,136.44,11.81,67.1-9.32,124.06-59.37,170.27-.64.59-1.36,1.09-2.05,1.63-2.48-2.36-5.1-4.6-6.73-7.71,5.51-8.16,12.51-14.13,22.53-16a5.59,5.59,0,0,0,4.37-6.81,6,6,0,0,0-7.12-4.49c-4.36.71-8.31,2.58-12.33,4.27.82-4.38,3.12-8.41,3.17-13l0,0,.55-.65c2.19-1.73,4.89-2.39,7.34-3.58,3.49-1.68,4.67-5.31,2.78-8.38s-5-2.7-8-2.27c.1-4.25.3-8.49.26-12.74,0-3.89-.87-4.41-4.52-3.09a24.27,24.27,0,0,1-19.28-1.05,30.54,30.54,0,0,1-13.31-42.67c2.84-5,6.53-9.45,8.86-14.74,2.17-2.65,3.33-5.84,4.59-8.93,4.48-10.92,7.65-22,5.87-34.12-1.62-11-7.66-18.93-15.54-26-7.49-6.75-13.59-14.58-17.36-24.06-.53-1.33-.73-3.21-2.79-2.9-2.28.33-1.8,2.32-1.94,3.87-.82,9.23,1.67,18,3.44,26.93a92.79,92.79,0,0,1,2.24,18.47c0,10.34-5,17.73-13.9,22.62a1.75,1.75,0,0,0-1.55.79l0,0a7.88,7.88,0,0,0-1.1.17c-14.5,4.53-27.62-3.3-30.66-18.17C220.07,161,220.84,156.36,221.75,151.71Z"/><path class="cls-4" d="M255.86,372.67c-35.16,12.72-70.91,14.92-107.3,6.07a28.88,28.88,0,0,0-.94-3.21c-6.48-15.41-1.68-30.89,11.52-41.24a38.9,38.9,0,0,0,13.47-20.07l1.44,1.12a16.09,16.09,0,0,0,5,4.57,21.11,21.11,0,0,0,10.44,5.71c2.81,2,6.12,2.22,9.36,2.68,1.61.14,3.21.37,4.82.42,9.83.27,19.32,1.71,27.61,7.57,1.3.92,2.41,2.21,4.2,2.21.06,1.27,1,1.94,1.81,2.72C246.28,350.07,252.13,360.74,255.86,372.67Z"/><path class="cls-5" d="M172.61,314.22a38.9,38.9,0,0,1-13.47,20.07c-13.2,10.35-18,25.83-11.52,41.24a28.88,28.88,0,0,1,.94,3.21c-15.42-3.2-29.85-9.11-43.65-16.55-10.4-5.6-20.42-11.84-29.17-19.89,4.65-.28,9.34-.42,13.64-2.56a27.92,27.92,0,0,0,10.75-6,20.16,20.16,0,0,0,5.93-5.18,35.49,35.49,0,0,0,8-9.59c7.51-11.14,17.38-18.28,31.34-18.49a38.9,38.9,0,0,1,20.12,6.4C167.93,309.31,170.86,311.2,172.61,314.22Z"/><path class="cls-5" d="M304.45,332.34c1.63,3.11,4.25,5.35,6.73,7.71a162.14,162.14,0,0,1-27.48,19.48c-5.86-5.48-8.44-13-12.45-19.69-1.78-3-4-5.66-5.09-9-1.22-3.76-.05-7.56-.66-11.3l3.81-1.9A40.67,40.67,0,0,1,281,316.36c4,.33,7.57,1.93,11.23,3.31l4.7,3.47Z"/><path class="cls-6" d="M265.51,319.49c.6,3.74-.57,7.54.65,11.3,1.11,3.39,3.31,6.09,5.09,9,4,6.65,6.59,14.21,12.45,19.69a146,146,0,0,1-27.84,13.14c-3.73-11.93-9.58-22.6-18.53-31.45-.78-.78-1.75-1.45-1.81-2.72a33.74,33.74,0,0,0,21.21-12.22A22.85,22.85,0,0,1,265.51,319.49Z"/><path class="cls-7" d="M265,31.71c-1.27,11.63.47,22.62,6.8,32.69a9.56,9.56,0,0,1-.09,11.23c-2.38,3.51-5.85,4.59-9.83,3.94-4.24-.69-6.68-3.45-7.91-7.53q-6.93-23,8.33-41.37C263.4,30.5,264.43,30.53,265,31.71Z"/><path class="cls-8" d="M281,316.36a40.67,40.67,0,0,0-11.68,1.23c1-6.23,3.55-12,4-18.52.76-10.8-2.59-19.73-10.5-26.63a64.81,64.81,0,0,1-15.13-19.23c-.7-1.35-.32-4.31-2.74-3.65-1.87.5-1.25,3.24-1.81,4.95a2.86,2.86,0,0,0,.05,1.12c.79,9.42,3.5,18.51,4.63,27.9.93,7.77-.63,14.29-6.6,19.53a19.11,19.11,0,0,1-22.6,1.7c-5.78-3.65-9.37-12.17-8.16-19.17,1-5.76,3.54-10.83,5.83-16.08,7.22-16.57,8-33.13-.16-49.76-3.75-7.64-9.93-13-15.66-18.93-10-10.3-14.94-22.47-13.34-37,.09-.78.34-1.49-.39-2-1-.72-1.63.07-2.23.67a16.12,16.12,0,0,0-2,2.24c-7.18,10.57-9.08,22-5.05,34.16,3.51,10.58,9.59,20.27,10.41,31.8.67,9.37-1.88,19.06-10.82,22.84-4.11.93-8.12.88-11.84-1.39-7.34-4.47-10.49-9.5-8-20.21,1.56-6.83,1.64-13.53-1.18-20.06-.73-1.68-1.56-4-3.75-1.07-1.66-.45-3.35-.83-5-1.35-7.72-2.46-12.59-8.76-13-16.27-.25-4.76.76-9.32,1.51-13.94,4.65-4.56,5-10,3.34-15.91a57.72,57.72,0,0,0-12-22.23c-14-16.33-8.68-38.75,3.76-50.39,5.59-5.23,10.85-10.71,14-17.87a25.2,25.2,0,0,0,2.4-9c.05-1.24.23-2.68,1.78-2.92s2.06,1.15,2.57,2.27c3.63,8.07,3.68,16.43,2,24.94-.46,2.32-.9,4.65-1.17,7-1,8.55,2.88,14.69,9.89,19.09,7.21,4.53,14.39,4.1,21.45-.45,0,6.79-.32,13.53,2,20.16,3.75,10.51,11.29,15.83,22,17.68a46.55,46.55,0,0,0,14,.08c-.91,4.65-1.68,9.27-.7,14.07,3,14.87,16.16,22.7,30.66,18.17a7.88,7.88,0,0,1,1.1-.17,6.61,6.61,0,0,1-.62,1.7c-4.92,6.84-4.18,11.6,3,16.11,10.67,6.7,22.47,7.09,34.52,5.58-2.33,5.29-6,9.76-8.86,14.74a30.54,30.54,0,0,0,13.31,42.67,24.27,24.27,0,0,0,19.28,1.05c3.65-1.32,4.48-.8,4.52,3.09,0,4.25-.16,8.49-.26,12.73l-4,2C299,290.59,287.93,301.44,281,316.36Z"/><path class="cls-9" d="M135.79,179.25c-.75,4.62-1.76,9.18-1.51,13.94.41,7.51,5.28,13.81,13,16.27,1.64.52,3.33.9,5,1.35.16,4.29-1.55,8-3.68,11.57-2.78,4.67-6.87,8.19-10.54,12.09-9.5,10.08-11.67,27-1.75,38.13a49.51,49.51,0,0,1,8,13c2.1,4.79,3.14,9.72,1.16,14.85-14,.21-23.82,7.35-31.33,18.49-6-7.79-12.64-14.8-21.27-19.69-3.81-2.16-7.36-1.46-9,1.73s-.4,6.18,3.25,8.37a52.94,52.94,0,0,1,19,19.18,20.16,20.16,0,0,1-5.93,5.18,35.94,35.94,0,0,0-3.2-3.1c-5.13-3.91-10.52-7.1-17.4-5.35-6.89-9.16-10.66-19.6-12.72-30.77A71.78,71.78,0,0,1,66,281.11c0-1,.11-2.08,1.19-2.52,1.31-.55,2.16.34,2.79,1.29a34.61,34.61,0,0,0,6.07,6.6c7.41,6.54,18.57,6.38,25.08-.31,7.26-7.45,7.33-18.42-.1-25.83C94.71,254,87.63,248.42,82.32,241c-9-12.52-10-25.42-2.26-38.82a107.57,107.57,0,0,0,13-33.63c.28-1.45.21-3.17,2.15-3.47,2.09-.31,2.35,1.56,2.89,2.85,3.76,8.92,10.06,14.68,19.83,16.3C124.69,185.39,130.4,182.91,135.79,179.25Z"/><path class="cls-7" d="M96.93,122.77a32.57,32.57,0,0,1-2,12.73c-1.91,5.2-7,7.49-11.74,5.37a8.41,8.41,0,0,1-3.71-12.29,44,44,0,0,0,6.2-26.86c-.1-1.08-.43-2.45.94-2.92s1.92.85,2.57,1.72C94.12,107.07,97.27,114.26,96.93,122.77Z"/><path class="cls-10" d="M79.53,325.3c6.88-1.75,12.27,1.44,17.4,5.35a35.94,35.94,0,0,1,3.2,3.1,27.92,27.92,0,0,1-10.75,6c-1.79-2.06-4.26-2.86-6.77-3.48C76.07,334.65,74.84,330.36,79.53,325.3Z"/><path class="cls-11" d="M289.72,207.17c-12.05,1.51-23.85,1.12-34.52-5.58-7.19-4.51-7.93-9.27-3-16.11a6.61,6.61,0,0,0,.62-1.7l0,0a1.46,1.46,0,0,0,1.55-.79c8.93-4.89,13.86-12.28,13.9-22.62A92.79,92.79,0,0,0,266,141.93c-1.77-8.89-4.26-17.7-3.44-26.93.14-1.55-.34-3.54,1.94-3.87,2.06-.31,2.26,1.57,2.79,2.9,3.77,9.48,9.87,17.31,17.36,24.06,7.88,7.1,13.92,15.08,15.54,26,1.78,12.11-1.39,23.2-5.87,34.12C293.05,201.33,291.89,204.52,289.72,207.17Z"/><path class="cls-12" d="M281,316.36c6.94-14.92,18-25.77,32.72-32.94l4-2c3-.42,6-.92,8,2.28s.71,6.7-2.78,8.38c-2.45,1.19-5.15,1.85-7.34,3.58l-.55.65,0,0a3.92,3.92,0,0,0-2.69,1.07,57.75,57.75,0,0,0-20.16,22.31C288.56,318.29,285,316.69,281,316.36Z"/><path class="cls-10" d="M304.45,332.34l-7.53-9.2c3.81-5.89,9.21-10.07,15-13.86,4-1.69,8-3.56,12.33-4.27a6,6,0,0,1,7.12,4.49,5.59,5.59,0,0,1-4.37,6.81C317,318.21,310,324.18,304.45,332.34Z"/><path class="cls-13" d="M311.9,309.28c-5.77,3.79-11.17,8-15,13.86l-4.7-3.47a57.75,57.75,0,0,1,20.16-22.31,3.92,3.92,0,0,1,2.69-1.07C315,300.87,312.72,304.9,311.9,309.28Z"/><path class="cls-8" d="M254.33,183a1.46,1.46,0,0,1-1.55.79A1.75,1.75,0,0,1,254.33,183Z"/><path class="cls-13" d="M315,296.34l.55-.65Z"/><path class="cls-14" d="M177.07,253.54c8.94-3.78,11.49-13.47,10.82-22.84-.82-11.53-6.9-21.22-10.41-31.8-4-12.2-2.13-23.59,5.05-34.16a16.12,16.12,0,0,1,2-2.24c.6-.6,1.23-1.39,2.23-.67.73.53.48,1.24.39,2-1.6,14.5,3.32,26.67,13.34,37,5.73,5.89,11.91,11.29,15.66,18.93,8.16,16.63,7.38,33.19.16,49.76-2.29,5.25-4.84,10.32-5.83,16.08-1.21,7,2.38,15.52,8.16,19.17a19.11,19.11,0,0,0,22.6-1.7c6-5.24,7.53-11.76,6.6-19.53-1.13-9.39-3.84-18.48-4.63-27.9a2.86,2.86,0,0,1-.05-1.12c.56-1.71-.06-4.45,1.81-4.95,2.42-.66,2,2.3,2.74,3.65a64.81,64.81,0,0,0,15.13,19.23c7.91,6.9,11.26,15.83,10.5,26.63-.46,6.47-3,12.29-4,18.52l-3.81,1.9a22.89,22.89,0,0,0-8.77,6.79,33.74,33.74,0,0,1-21.21,12.22c-1.79,0-2.9-1.29-4.2-2.21-8.29-5.86-17.78-7.3-27.61-7.57-1.61-.05-3.21-.28-4.82-.42a51.47,51.47,0,0,1,.71-13.23l0,0,.7-.61,5.9-3.05c3.17-1.66,4.4-4.45,3.24-7.31a5.65,5.65,0,0,0-7.55-3.35c-2.55.9-5,2.16-7.45,3.26-2.75-.24-3.77-2-3.86-4.48-.07-1.84,0-3.68,0-5.52l0,0,.78-.82a33.87,33.87,0,0,1,6.34-4.56c3.42-2.07,4.47-5.22,2.8-8.16-1.77-3.13-5.18-3.89-8.74-1.85-2.37,1.36-4.65,2.87-7,4.32-.44-.7-1.21-.79-1.9-1.08-7.06-3-9.69-7.11-9.53-14.79C173.43,262.29,175.69,258,177.07,253.54Z"/><path class="cls-10" d="M184.75,283c2.31-1.45,4.59-3,7-4.32,3.56-2,7-1.28,8.74,1.85,1.67,2.94.62,6.09-2.8,8.16a33.87,33.87,0,0,0-6.34,4.56l-.78.82,0,0c-2.3.91-3.76,2.84-5.38,4.54-4.68,4.93-8,10.81-11.13,16.76l-1.44-1.12c-1.75-3-4.68-4.91-7.05-7.33.66-1.33,1.24-2.71,2-4C172.06,295.21,178.05,288.8,184.75,283Z"/><path class="cls-10" d="M194.41,304c2.48-1.1,4.9-2.36,7.45-3.26a5.65,5.65,0,0,1,7.55,3.35c1.16,2.86-.07,5.65-3.24,7.31l-5.9,3.05-.7.61,0,0a24.59,24.59,0,0,0-10.07,10.55,21,21,0,0,1-10.44-5.72A50.54,50.54,0,0,1,194.41,304Z"/><path class="cls-15" d="M194.41,304a50.54,50.54,0,0,0-15.32,15.86,15.94,15.94,0,0,1-5-4.56c3.16-5.95,6.45-11.83,11.13-16.76,1.62-1.7,3.08-3.63,5.38-4.54,0,1.84-.08,3.68,0,5.52C190.64,302,191.66,303.8,194.41,304Z"/><path class="cls-15" d="M189.53,325.62a24.59,24.59,0,0,1,10.07-10.55,51.47,51.47,0,0,0-.71,13.23C195.65,327.84,192.34,327.59,189.53,325.62Z"/><path class="cls-15" d="M184.75,283c-6.7,5.8-12.69,12.21-17.2,19.9-.75,1.28-1.33,2.66-2,4a38.9,38.9,0,0,0-20.12-6.4c2-5.13.93-10.06-1.17-14.85a49.51,49.51,0,0,0-8-13c-9.92-11.15-7.75-28.05,1.75-38.13,3.67-3.9,7.76-7.42,10.54-12.09,2.13-3.56,3.84-7.28,3.68-11.57,2.19-3,3-.61,3.75,1.07,2.82,6.53,2.74,13.23,1.18,20.06-2.46,10.71.69,15.74,8,20.21,3.72,2.27,7.73,2.32,11.84,1.39-1.38,4.49-3.64,8.75-3.75,13.59-.16,7.68,2.47,11.78,9.53,14.79C183.54,282.21,184.31,282.3,184.75,283Z"/><path class="cls-12" d="M106.06,328.57a52.94,52.94,0,0,0-19-19.18c-3.65-2.19-4.87-5.32-3.25-8.37s5.24-3.89,9-1.73c8.63,4.89,15.31,11.9,21.27,19.69A35.49,35.49,0,0,1,106.06,328.57Z"/><path class="cls-15" d="M190.53,294.07l.78-.82Z"/><path class="cls-15" d="M199.57,315.1l.7-.61Z"/></g></g></svg>