<svg xmlns="http://www.w3.org/2000/svg" viewBox="0 0 384.15 384.15"><defs><style>.cls-1{fill:#45f5fe;}.cls-2{fill:#6ba7fe;}.cls-3{fill:#6e75e1;}.cls-4{fill:#fefefe;}.cls-5{fill:#fdfefe;}.cls-6{fill:#5ecbf0;}.cls-7{fill:#e6f8fa;}.cls-8{fill:#bbfafe;}.cls-9{fill:#e5f8fa;}.cls-10{fill:#7dd4f3;}</style></defs><title>Gelo</title><g id="Camada_2" data-name="Camada 2"><g id="Camada_1-2" data-name="Camada 1"><path class="cls-1" d="M177.07.07h30c3.51,1.39,7.27,1.15,10.91,1.68,41.71,6,77.87,23.46,108,52.92Q370.38,98,381.25,159.16c1.07,6,1.07,12.07,2.82,17.91v13.5c-1.21-1.07-2.48-2.08-3.62-3.22Q302.54,109.47,224.64,31.59c-1.2-1.2-2.12-2.87-4.13-3h.05l-.67-.87c-1-1.06-1.64-3.37-3.15-.28-8.4,17.16-17.33,34.05-25.31,51.4-.59,1.09-1.19,2.17-1.75,3.28q-9.37,18.57-18.73,37.16c-6.76-4.91-13.45-9.91-20.28-14.71C145.49,101,141,96.36,135,93.84l0,0-.72-.86c-1-1.41-1.67-1.06-2.38.29-1.17,2.2-2.44,4.35-3.67,6.52l-30.73,54c-7-5.23-14-10.4-20.95-15.75-2.05-1.59-3-1.34-4.11.93C69.57,145,66.44,151,63.4,157L27.61,227.89l-.78,1.51-22.93.08c-.29-1.32-.56-2.65-.88-4-1.45-5.82-1.1-11.93-2.95-17.69v-31.5c1.51-3.22,1.19-6.75,1.67-10.14C7.12,128.5,22,95,47.05,66.39Q91.92,15.12,159.14,2.91C165.1,1.83,171.23,1.83,177.07.07Z"/><path class="cls-2" d="M3.9,229.48l22.93-.07c.44.6.89,1.2,1.33,1.81,7.9,11.22,15.86,22.41,23.67,33.69,1.62,2.34,2.88,3.19,5.62,1.38,4.58-3,9.51-5.48,14.17-8.39,2.29-1.43,3.29-.95,4.45,1.4C82.91,273.18,89.9,287,96.85,300.82l19,38c1.39-1.19,1.51-2.5,1.88-3.63,2.84-8.66,5.58-17.35,8.43-26q7.07-21.5,14.21-43c.55.67,1.15,1.3,1.63,2,7.71,11.64,15.49,23.26,23.07,35,1.72,2.66,2.74,3.09,5.09.58,7.16-7.64,14.57-15.05,21.88-22.54q0,51.38,0,102.76H176.32c-.53-.95-1.5-.73-2.33-.82a180.48,180.48,0,0,1-24.71-4Q51.53,354.57,13,261.35A128.92,128.92,0,0,1,3.9,229.48Z"/><path class="cls-3" d="M192.07,384.07q0-51.37,0-102.77.08-.3.12-.6l12.12-13,35.06,81.7c1-2.22,1.69-3.55,2.31-4.89q18.29-39.76,36.52-79.56c1.25-2.74,2.1-3.22,4.68-1.32,10.75,7.92,21.73,15.53,32.45,23.49,2.73,2,4,1.61,5.84-1,4.54-6.57,9.39-12.92,14.08-19.39q13.52-18.62,27-37.26l.19.05,17.91,0a18.61,18.61,0,0,1-.23,2.6c-9.83,43.49-31.58,79.78-66,108.22a188.22,188.22,0,0,1-92.76,41.59c-5,.77-10.13.68-15,2.14Z"/><path class="cls-4" d="M3.9,229.48A128.92,128.92,0,0,0,13,261.35q38.5,93.09,136.26,117.88a180.48,180.48,0,0,0,24.71,4c.83.09,1.8-.13,2.33.82q-86.62,0-173.25.08c-2.56,0-3.07-.51-3.07-3.08q.15-86.62.07-173.25c1.85,5.76,1.5,11.87,3,17.69C3.34,226.83,3.61,228.16,3.9,229.48Z"/><path class="cls-5" d="M384.07,177.07c-1.75-5.84-1.75-11.95-2.82-17.91Q370.3,98.07,326,54.67C295.85,25.21,259.69,7.76,218,1.75c-3.64-.53-7.4-.29-10.91-1.68Q294,.07,380.89,0c2.7,0,3.26.56,3.26,3.26Q384,90.17,384.07,177.07Z"/><path class="cls-5" d="M177.07.07c-5.84,1.76-12,1.76-17.93,2.84Q91.91,15,47.05,66.39C22,95,7.12,128.5,1.74,166.18c-.48,3.39-.16,6.92-1.67,10.14Q.07,89.79,0,3.26C0,.55.56,0,3.26,0Q90.17.15,177.07.07Z"/><path class="cls-4" d="M206.32,384.07c4.9-1.46,10-1.37,15-2.14a188.22,188.22,0,0,0,92.76-41.59c34.39-28.44,56.14-64.73,66-108.22a18.61,18.61,0,0,0,.23-2.6c.51-2.41,1-4.82,1.52-7.21,1.07-4.78.74-9.78,2.24-14.49q0,86.63.08,173.25c0,2.57-.51,3.08-3.08,3.08Q293.7,384,206.32,384.07Z"/><path class="cls-6" d="M384.07,207.82c-1.5,4.71-1.17,9.71-2.24,14.49-.54,2.39-1,4.8-1.52,7.21l-17.91,0c-.61-1.36-1.13-2.77-1.85-4.07-4.64-8.42-9.33-16.81-14-25.22q-20.91-37.66-41.77-75.36c-1.4-2.55-2.41-2.85-4.72-1.12-4.69,3.52-9.7,6.62-14.35,10.19-2.77,2.13-4.07,1.81-5.82-1.27-15.64-27.46-31.48-54.79-47.16-82.22-4.15-7.25-8.69-14.28-12.22-21.87,2,.11,2.93,1.78,4.13,3q77.92,77.86,155.81,155.76c1.14,1.14,2.41,2.15,3.62,3.22Z"/><path class="cls-7" d="M220.51,28.61c3.53,7.59,8.07,14.62,12.22,21.87,15.68,27.43,31.52,54.76,47.16,82.22,1.75,3.08,3.05,3.4,5.82,1.27,4.65-3.57,9.66-6.67,14.35-10.19,2.31-1.73,3.32-1.43,4.72,1.12q20.78,37.74,41.77,75.36c4.67,8.41,9.36,16.8,14,25.22.72,1.3,1.24,2.71,1.85,4.07l-.19-.05c-1.88,0-3.75.05-5.62.05l-164.51,0-.06-.06q0-73.71,0-147.43c0-1.11.17-2.27-.64-3.22,8-17.35,16.91-34.24,25.31-51.4,1.51-3.09,2.19-.78,3.15.28l.67.87Z"/><path class="cls-4" d="M191.43,78.87c.81.95.64,2.11.64,3.22q0,73.71,0,147.43l-75.37,0c-.24-1.64.82-2.84,1.47-4.15q20-40,40-80.05c.76-1.54,1.88-3,1.74-4.86a7.69,7.69,0,0,0,1.47-1.56c3.25-6.5,6.43-13,9.64-19.56q9.36-18.59,18.73-37.16C190.24,81,190.84,80,191.43,78.87Z"/><path class="cls-8" d="M159.84,140.43c.14,1.88-1,3.32-1.74,4.86q-20,40-40,80.05c-.65,1.31-1.71,2.51-1.47,4.15l-.3.08-18.72.06-.16-.17q.06-37.83.1-75.68l30.73-54c1.23-2.17,2.5-4.32,3.67-6.52.71-1.35,1.4-1.7,2.38-.29l.72.86,0,0c3.05,7.5,7.62,14.19,11.32,21.34C150.72,123.66,156,131.68,159.84,140.43Z"/><path class="cls-9" d="M97.57,153.78q0,37.85-.1,75.69l-66,.09c-1.56,0-3-.1-3.89-1.67L63.4,157c3-6,6.17-12,9.11-18.06,1.11-2.27,2.06-2.52,4.11-.93C83.53,143.38,90.57,148.55,97.57,153.78Z"/><path class="cls-8" d="M27.61,227.89c.87,1.57,2.33,1.67,3.89,1.67l66-.09.16.16q0,33.45,0,66.91c0,1.44.47,3-.74,4.28C89.9,287,82.91,273.18,76.07,259.3c-1.16-2.35-2.16-2.83-4.45-1.4-4.66,2.91-9.59,5.38-14.17,8.39-2.74,1.81-4,1-5.62-1.38C44,253.63,36.06,242.44,28.16,231.22c-.44-.61-.89-1.21-1.33-1.81Z"/><path class="cls-6" d="M159.84,140.43c-3.87-8.75-9.12-16.77-13.49-25.25-3.7-7.15-8.27-13.84-11.32-21.34,5.95,2.52,10.46,7.13,15.64,10.76,6.83,4.8,13.52,9.8,20.28,14.71-3.21,6.53-6.39,13.06-9.64,19.56A7.69,7.69,0,0,1,159.84,140.43Z"/><path class="cls-6" d="M220.56,28.62l-.67-.87Z"/><path class="cls-6" d="M135.07,93.86l-.72-.86Z"/><path class="cls-7" d="M116.65,229.49l75.37,0,.06.06q0,25.56.07,51.12,0,.3-.12.6c-7.31,7.5-14.72,14.91-21.88,22.55-2.35,2.51-3.37,2.08-5.09-.58-7.58-11.74-15.36-23.36-23.07-35-.48-.72-1.08-1.35-1.63-2-7.54-12.53-16-24.44-24-36.68Z"/><path class="cls-10" d="M116.35,229.57c8,12.24,16.47,24.15,24,36.68q-7.11,21.48-14.21,43c-2.85,8.66-5.59,17.35-8.43,26-.37,1.13-.49,2.44-1.88,3.63l-19-38c1.21-1.26.74-2.84.74-4.28q0-33.45,0-66.91Z"/><path class="cls-8" d="M192.15,280.7q0-25.56-.07-51.12l164.51,0c1.87,0,3.74,0,5.62-.05q-13.5,18.63-27,37.26c-4.69,6.47-9.54,12.82-14.08,19.39-1.82,2.62-3.11,3-5.84,1-10.72-8-21.7-15.57-32.45-23.49-2.58-1.9-3.43-1.42-4.68,1.32Q260,304.82,241.64,344.55c-.62,1.34-1.26,2.67-2.31,4.89l-35.06-81.7Z"/></g></g></svg>