<?xml version="1.0" encoding="utf-8"?>
<!-- Generator: Adobe Illustrator 23.0.1, SVG Export Plug-In . SVG Version: 6.00 Build 0)  -->
<svg version="1.1" id="Camada_1" xmlns="http://www.w3.org/2000/svg" xmlns:xlink="http://www.w3.org/1999/xlink" x="0px" y="0px"
	 viewBox="0 0 384.1 384.1" style="enable-background:new 0 0 384.1 384.1;" xml:space="preserve">
<style type="text/css">
	.st0{fill:#45F5FE;}
	.st1{fill:#6BA7FE;}
	.st2{fill:#6E75E1;}
	.st3{fill:#5ECBF0;}
	.st4{fill:#E6F8FA;}
	.st5{fill:#FEFEFE;}
	.st6{fill:#BBFAFE;}
	.st7{fill:#E5F8FA;}
	.st8{fill:#7DD4F3;}
</style>
<title>Gelo</title>
<g>
	<g id="Camada_1-2">
		<path class="st0" d="M177.1,0.1h30c3.5,1.4,7.3,1.1,10.9,1.7c41.7,6,77.9,23.5,108,52.9c29.6,28.9,48,63.7,55.3,104.5
			c1.1,6,1.1,12.1,2.8,17.9v13.5c-1.2-1.1-2.5-2.1-3.6-3.2C328.5,135.4,276.6,83.5,224.6,31.6c-1.2-1.2-2.1-2.9-4.1-3h0.1l-0.7-0.9
			c-1-1.1-1.6-3.4-3.1-0.3c-8.4,17.2-17.3,34-25.3,51.4c-0.6,1.1-1.2,2.2-1.8,3.3c-6.2,12.4-12.5,24.8-18.7,37.2
			c-6.8-4.9-13.4-9.9-20.3-14.7c-5.2-3.6-9.7-8.2-15.7-10.7l0,0l-0.7-0.9c-1-1.4-1.7-1.1-2.4,0.3c-1.2,2.2-2.4,4.3-3.7,6.5l-30.7,54
			c-7-5.2-14-10.4-20.9-15.8c-2.1-1.6-3-1.3-4.1,0.9c-2.9,6-6,12-9,18l-35.8,70.9l-0.8,1.5l-22.9,0.1c-0.3-1.3-0.6-2.6-0.9-4
			c-1.5-5.8-1.1-11.9-3-17.7v-31.5c1.5-3.2,1.2-6.8,1.7-10.1C7.1,128.5,22,95,47,66.4C77,32.2,114.3,11.1,159.1,2.9
			C165.1,1.8,171.2,1.8,177.1,0.1z"/>
		<path class="st1" d="M3.9,229.5l22.9-0.1c0.4,0.6,0.9,1.2,1.3,1.8c7.9,11.2,15.9,22.4,23.7,33.7c1.6,2.3,2.9,3.2,5.6,1.4
			c4.6-3,9.5-5.5,14.2-8.4c2.3-1.4,3.3-1,4.4,1.4c6.8,13.9,13.8,27.7,20.8,41.5l19,38c1.4-1.2,1.5-2.5,1.9-3.6
			c2.8-8.7,5.6-17.4,8.4-26c4.7-14.3,9.5-28.7,14.2-43c0.6,0.7,1.1,1.3,1.6,2c7.7,11.6,15.5,23.3,23.1,35c1.7,2.7,2.7,3.1,5.1,0.6
			c7.2-7.6,14.6-15,21.9-22.5c0,34.3,0,68.5,0,102.8h-15.7c-0.5-1-1.5-0.7-2.3-0.8c-8.3-0.8-16.6-2.1-24.7-4
			C84.1,362.8,38.7,323.5,13,261.4C8.6,251.2,5.5,240.5,3.9,229.5z"/>
		<path class="st2" d="M192.1,384.1c0-34.2,0-68.5,0-102.8c0.1-0.2,0.1-0.4,0.1-0.6l12.1-13l35.1,81.7c1-2.2,1.7-3.5,2.3-4.9
			c12.2-26.5,24.4-53,36.5-79.6c1.3-2.7,2.1-3.2,4.7-1.3c10.8,7.9,21.7,15.5,32.5,23.5c2.7,2,4,1.6,5.8-1
			c4.5-6.6,9.4-12.9,14.1-19.4c9-12.4,18-24.8,27-37.3l0.2,0.1h17.9c0,0.9-0.1,1.7-0.2,2.6c-9.8,43.5-31.6,79.8-66,108.2
			c-26.5,22.1-58.6,36.5-92.8,41.6c-5,0.8-10.1,0.7-15,2.1H192.1z"/>
		<path class="st3" d="M384.1,207.8c-1.5,4.7-1.2,9.7-2.2,14.5c-0.5,2.4-1,4.8-1.5,7.2h-17.9c-0.6-1.4-1.1-2.8-1.9-4.1
			c-4.6-8.4-9.3-16.8-14-25.2c-13.9-25.1-27.9-50.2-41.8-75.4c-1.4-2.6-2.4-2.8-4.7-1.1c-4.7,3.5-9.7,6.6-14.4,10.2
			c-2.8,2.1-4.1,1.8-5.8-1.3c-15.6-27.5-31.5-54.8-47.2-82.2c-4.1-7.3-8.7-14.3-12.2-21.9c2,0.1,2.9,1.8,4.1,3
			c51.9,51.9,103.9,103.8,155.8,155.8c1.1,1.1,2.4,2.1,3.6,3.2V207.8z"/>
		<path class="st4" d="M220.5,28.6c3.5,7.6,8.1,14.6,12.2,21.9c15.7,27.4,31.5,54.8,47.2,82.2c1.8,3.1,3,3.4,5.8,1.3
			c4.6-3.6,9.7-6.7,14.4-10.2c2.3-1.7,3.3-1.4,4.7,1.1c13.9,25.2,27.8,50.3,41.8,75.4c4.7,8.4,9.4,16.8,14,25.2
			c0.7,1.3,1.2,2.7,1.9,4.1l-0.2-0.1c-1.9,0-3.8,0.1-5.6,0.1H192.1l-0.1-0.1c0-49.1,0-98.3,0-147.4c0-1.1,0.2-2.3-0.6-3.2
			c8-17.3,16.9-34.2,25.3-51.4c1.5-3.1,2.2-0.8,3.1,0.3L220.5,28.6L220.5,28.6z"/>
		<path class="st5" d="M191.4,78.9c0.8,0.9,0.6,2.1,0.6,3.2c0,49.1,0,98.3,0,147.4h-75.4c-0.2-1.6,0.8-2.8,1.5-4.1
			c13.3-26.7,26.7-53.3,40-80.1c0.8-1.5,1.9-3,1.7-4.9c0.6-0.4,1.1-1,1.5-1.6c3.3-6.5,6.4-13,9.6-19.6c6.2-12.4,12.5-24.8,18.7-37.2
			C190.2,81,190.8,80,191.4,78.9z"/>
		<path class="st6" d="M159.8,140.4c0.1,1.9-1,3.3-1.7,4.9c-13.3,26.7-26.7,53.4-40,80.1c-0.7,1.3-1.7,2.5-1.5,4.1l-0.3,0.1
			l-18.7,0.1l-0.2-0.2c0-25.2,0.1-50.4,0.1-75.7l30.7-54c1.2-2.2,2.5-4.3,3.7-6.5c0.7-1.3,1.4-1.7,2.4-0.3l0.7,0.9l0,0
			c3.1,7.5,7.6,14.2,11.3,21.3C150.7,123.7,156,131.7,159.8,140.4z"/>
		<path class="st7" d="M97.6,153.8c0,25.2,0,50.5-0.1,75.7l-66,0.1c-1.6,0-3-0.1-3.9-1.7L63.4,157c3-6,6.2-12,9.1-18.1
			c1.1-2.3,2.1-2.5,4.1-0.9C83.5,143.4,90.6,148.6,97.6,153.8z"/>
		<path class="st6" d="M27.6,227.9c0.9,1.6,2.3,1.7,3.9,1.7l66-0.1l0.2,0.2c0,22.3,0,44.6,0,66.9c0,1.4,0.5,3-0.7,4.3
			c-7-13.8-14-27.6-20.9-41.5c-1.2-2.4-2.2-2.8-4.4-1.4c-4.7,2.9-9.6,5.4-14.2,8.4c-2.7,1.8-4,1-5.6-1.4
			c-7.8-11.3-15.8-22.5-23.7-33.7c-0.4-0.6-0.9-1.2-1.3-1.8L27.6,227.9z"/>
		<path class="st3" d="M159.8,140.4c-3.9-8.8-9.1-16.8-13.5-25.3c-3.7-7.2-8.3-13.8-11.3-21.3c5.9,2.5,10.5,7.1,15.6,10.8
			c6.8,4.8,13.5,9.8,20.3,14.7c-3.2,6.5-6.4,13.1-9.6,19.6C160.9,139.5,160.4,140,159.8,140.4z"/>
		<path class="st3" d="M220.6,28.6l-0.7-0.9L220.6,28.6z"/>
		<path class="st3" d="M135.1,93.9l-0.7-0.9L135.1,93.9z"/>
		<path class="st4" d="M116.7,229.5H192l0.1,0.1c0,17,0,34.1,0.1,51.1c0,0.2,0,0.4-0.1,0.6c-7.3,7.5-14.7,14.9-21.9,22.5
			c-2.4,2.5-3.4,2.1-5.1-0.6c-7.6-11.7-15.4-23.4-23.1-35c-0.5-0.7-1.1-1.4-1.6-2c-7.5-12.5-16-24.4-24-36.7L116.7,229.5z"/>
		<path class="st8" d="M116.3,229.6c8,12.2,16.5,24.1,24,36.7c-4.7,14.3-9.5,28.7-14.2,43c-2.8,8.7-5.6,17.4-8.4,26
			c-0.4,1.1-0.5,2.4-1.9,3.6l-19-38c1.2-1.3,0.7-2.8,0.7-4.3c0-22.3,0-44.6,0-66.9L116.3,229.6z"/>
		<path class="st6" d="M192.1,280.7c0-17,0-34.1-0.1-51.1h164.5c1.9,0,3.7,0,5.6-0.1c-9,12.4-18,24.8-27,37.3
			c-4.7,6.5-9.5,12.8-14.1,19.4c-1.8,2.6-3.1,3-5.8,1c-10.7-8-21.7-15.6-32.5-23.5c-2.6-1.9-3.4-1.4-4.7,1.3
			c-12.1,26.5-24.3,53.1-36.5,79.5c-0.6,1.3-1.3,2.7-2.3,4.9l-35.1-81.7L192.1,280.7z"/>
	</g>
</g>
</svg>
