<?xml version="1.0" encoding="utf-8"?>
<!-- Generator: Adobe Illustrator 23.0.1, SVG Export Plug-In . SVG Version: 6.00 Build 0)  -->
<svg version="1.1" id="Camada_1" xmlns="http://www.w3.org/2000/svg" xmlns:xlink="http://www.w3.org/1999/xlink" x="0px" y="0px"
	 viewBox="0 0 384.9 384.9" style="enable-background:new 0 0 384.9 384.9;" xml:space="preserve">
<style type="text/css">
	.st0{fill:#AED1AE;}
	.st1{fill:#FCEB4C;}
	.st2{fill:#090908;}
	.st3{fill:#BCBC42;}
	.st4{fill:#9BBE41;}
	.st5{fill:#F4CA8F;}
	.st6{fill:#A59119;}
	.st7{fill:#84A818;}
	.st8{fill:#9ABE41;}
	.st9{fill:#C3E565;}
	.st10{fill:#C2E564;}
	.st11{fill:#AFD54A;}
	.st12{fill:#B0D64A;}
	.st13{fill:#FCFCFC;}
	.st14{fill:#EBBD7D;}
	.st15{fill:#80A319;}
</style>
<title>Planta</title>
<g>
	<polygon class="st0" points="223.4,260.1 223.4,260.3 223.4,260.3 223.5,260.1 	"/>
	<path class="st0" d="M190.3,359.7c-0.1,0.2-0.3,0.3-0.4,0.5C190.1,360,190.2,359.8,190.3,359.7z"/>
	<path class="st0" d="M270.2,211.7L270.2,211.7L270.2,211.7z"/>
	<path class="st0" d="M191.5,346.2c0,0.1-0.1,0.2-0.1,0.2C191.4,346.3,191.5,346.2,191.5,346.2z"/>
	<path class="st0" d="M224.1,257.8c6.5-20.5,28.9-36.6,50.4-36.2c0,0,0,0-0.1,0c-21.5-0.4-43.9,15.7-50.4,36.2
		c-0.2,0.8-0.9,1.6-0.2,2.4h0.1l0,0C223.3,259.3,223.9,258.5,224.1,257.8z"/>
	<path class="st0" d="M257.8,251.7c-7.9,3.4-15.4,7.6-22.5,12.4c-4.4,3-8.6,6.3-12.3,10.1c3.5,0.9,6.9,1.7,10.3,2
		c-3.3-0.3-6.7-1.1-10.2-2c3.8-3.7,7.9-7.1,12.3-10.1C242.5,259.2,250,255,257.8,251.7c2.7-1.1,4.2-2.9,3.4-5.9
		c-0.6-2.4-2.2-3.7-4.4-3.8c2.1,0,3.7,1.3,4.3,3.8C262,248.8,260.4,250.5,257.8,251.7z"/>
	<path class="st0" d="M137.8,369.9L137.8,369.9h107.1l0,0H137.8z"/>
	<path class="st0" d="M275.4,221.7c0.6-0.1,1.2-0.1,1.9-0.1C276.7,221.7,276,221.7,275.4,221.7L275.4,221.7L275.4,221.7z"/>
	<path class="st0" d="M225.2,347.6L225.2,347.6c0.1,0.1,0.2,0.2,0.3,0.2C225.4,347.8,225.3,347.7,225.2,347.6z"/>
	<path class="st0" d="M135.1,132.2L135.1,132.2L135.1,132.2z"/>
	<path class="st0" d="M95.1,98.3c0-0.3,0.1-0.6,0.2-0.9C95.2,97.7,95.1,98,95.1,98.3z"/>
	<path class="st0" d="M176.5,205.1L176.5,205.1L176.5,205.1z"/>
	<path class="st0" d="M271.5,211.7c0.1,0,0.2,0,0.4,0C271.7,211.7,271.6,211.7,271.5,211.7z"/>
	<path class="st0" d="M260.2,213.1c-8.8,2.8-17.2,6.5-24.5,12.2c-2.9,2.4-5.6,4.9-8.2,7.6c2.6-2.7,5.3-5.3,8.2-7.6
		C243.1,219.5,251.4,215.9,260.2,213.1c0.5-0.1,1-0.1,1.4-0.2C261.1,213,260.7,213,260.2,213.1L260.2,213.1z"/>
	<path class="st0" d="M263.9,177c-1.8-3-4.5-3.2-8.6-0.7c-18.9,11.6-34.7,26.7-49.2,43.2c-4.9,5.6-9.6,11.4-14.7,17.5
		c-0.1-1.4-0.1-2.8-0.1-4.1c0,1.4,0,2.8,0.1,4.2c5.1-6.1,9.8-11.9,14.7-17.5c14.5-16.6,30.3-31.6,49.2-43.2
		C259.4,173.9,262.1,174.1,263.9,177c0.5,1,0.8,1.8,0.8,2.6C264.7,178.8,264.5,177.9,263.9,177z"/>
	<path class="st0" d="M261.9,212.9L261.9,212.9L261.9,212.9z"/>
	<path class="st0" d="M218,128.6c-0.2,0.5-0.3,1.1,0.1,1.8c2.7-1.3,5.3-2.9,7.7-4.7c-2.4,1.8-5,3.3-7.7,4.7
		C217.7,129.7,217.8,129.1,218,128.6z"/>
	<path class="st0" d="M218.3,246.2c-0.4,0.8-1.2,1.3-2.1,1.3c-3.8,0.4-7.6,0.9-11.4,0.5c0,0,0,0-0.1,0c-2.6,0.3-5-0.3-7.5-0.5
		c-0.4-0.7,0.1-1.1,0.4-1.5c1.5-2,3-4,4.6-5.9c-1.6,2-3.1,4-4.6,6c-0.3,0.4-0.8,0.8-0.4,1.5c2.5,0.2,5,0.8,7.5,0.5
		c3.9,0.4,7.7-0.1,11.5-0.4C217.1,247.6,217.9,247.1,218.3,246.2c1.8-3.1,3.7-6.1,5.6-9.3c0,0,0,0-0.1,0
		C221.9,240,220.1,243.1,218.3,246.2z"/>
	<path class="st0" d="M191.5,346.1c0.3-0.6,1-0.7,2-0.7c6.9,0.1,13.9,0.4,20.8,1c-6.9-0.6-13.8-1-20.7-1.1
		C192.5,345.3,191.8,345.5,191.5,346.1z"/>
	<path class="st0" d="M100.5,94.1c-3-0.1-4.6,0.7-5.2,3.1C95.9,94.9,97.4,94,100.5,94.1z"/>
	<path class="st0" d="M191.5,257.4c-0.1,0.3-0.2,0.7-0.2,1.2c0,5.5,0,11,0,16.4c0-5.5,0-11,0-16.5
		C191.3,258.1,191.4,257.7,191.5,257.4z"/>
	<path class="st0" d="M121,241.4c0.6,0.1,1.2,0.3,1.9,0.6c6.9,3,13.4,6.7,19.5,11.1c-6.1-4.3-12.6-8.1-19.5-11.1
		C122.3,241.7,121.6,241.5,121,241.4z"/>
	<path class="st0" d="M83.2,230.7c-0.2-1.3-0.3-2.6-0.3-3.9c-0.3-8.6-2.2-7.3,7.1-8.8c8.6-1.4,17.1-1,25.1,0.8
		c-8.1-1.9-16.6-2.2-25.2-0.8c-9.3,1.5-7.5,0.2-7.1,8.8C82.9,228.1,83,229.4,83.2,230.7c4.3,28.1,24.1,49,49.5,55.3
		C107.3,279.7,87.6,258.9,83.2,230.7z"/>
	<path class="st0" d="M208.7,125.3C213.9,110.1,219.1,95,225,80c1-2.6,2.6-4.2,5.5-4.4c3.1,1.4,4.4,2.4,4.6,4.3
		c-0.1-1.9-1.5-2.9-4.6-4.3c-2.9,0.2-4.4,1.8-5.5,4.4C219.1,94.9,213.9,110.1,208.7,125.3c-0.3,0.9-0.6,1.7-1.1,3.1
		c-3.4-5.9-5.5-12.6-6.1-19.4c0.5,6.8,2.6,13.5,6.1,19.4C208,127.1,208.4,126.2,208.7,125.3z"/>
	<path class="st0" d="M165.2,273.6c0.6-1.3,0.6-2.3,0.4-3.2C165.8,271.3,165.8,272.3,165.2,273.6z"/>
	<path class="st1" d="M106.1,350.6c1.7,3,4,3.8,7.4,2.9c21.2-5.2,42.7-7.5,64.4-8.2c3-0.1,3.8,0.8,3.5,3.6c-0.2,2.5-0.2,5.1,0,7.6
		c0.1,3.1,1.7,4.8,4.6,4.9c1.5,0.1,2.8-0.4,3.7-1.2c-0.9,0.8-2.2,1.2-3.7,1.1c-3-0.1-4.5-1.8-4.6-4.9c-0.2-2.5-0.2-5.1,0-7.6
		c0.3-2.8-0.5-3.7-3.5-3.6c-21.7,0.7-43.2,3-64.4,8.2C110.1,354.4,107.8,353.6,106.1,350.6c0-4.8,0.7-5.6,5.4-6.8
		c21.8-5.4,44-7.8,66.4-8.3c2.7-0.1,3.2-0.8,2.8-3.3c-1.4-11.8-5-23.3-10.4-33.9c-1-2-1.9-2.7-4.5-2.1c-41.2,9.2-82.1-16.7-91.4-58
		c-0.5-2.3-0.9-4.7-1.2-7c-0.6-4.8-0.8-9.7-0.4-14.5c0.3-3.5,2.1-5.3,5.3-6.2c19.9-5.8,39.4-4.5,57.6,5.6c28,15.5,42,39.4,41,71.7
		c-0.1,2.4,0,2.5,4.3,9.6c0.8-0.8,0.4-1.8,0.4-2.6c0-25.5,0-50.9,0.1-76.4c0-2.9-0.9-3.3-3.5-3.3c-49.6-0.4-84.3-37.1-92.9-76.5
		c-0.8-3.7,0-5,3.8-6.9c-0.7-5.5-1-11-0.9-16.5c-4.4-1.8-4.9-2.6-4.5-7.1c0.6-6.4,1.8-12.6,3.8-18.7c0.9-3,2.6-4.6,5.9-4.8
		c23.1-1.8,44,4.4,62.8,17.8c20.8,14.9,35.1,37.9,39,62.5c1-0.3,1-1.3,1.2-2c2.2-6.7,4.3-13.4,6.6-20c0.5-1.3,0.3-2.8-0.5-3.9
		c-23.6-36.4-7.4-82.9,33.6-96.9c0.7-0.2,1.6-0.1,1.9-1h4.6c6.9,6.7,10.6,15.3,13,24.3c8.1,29.4-6.7,65.3-40.2,76.9
		c-1.5,0.5-2.6,1.7-2.9,3.2c-2.4,7.5-4.9,15-7.4,22.5c1.6,0.7,2.2-1,3-1.8c14-14.3,30.5-24,50.2-28.1c12.2-2.6,24.8-2.7,37-0.4
		c3.4,0.6,5.3,2.4,5.8,5.8c0.8,4.8,1.3,9.6,1.6,14.4c0.1,3.4-1.3,5.5-4.7,6l0,0c-0.9,4.9-0.7,9.9-2,14.7c-4.3,0.2-5.3,0.9-6.5,5.4
		c-2.4,8.9-6.3,17.4-11.4,25c-1.1,1.8-2.3,2.6-4.5,2.5l0,0c2.2,0.1,3.4-0.8,4.5-2.5c5.1-7.7,8.9-16.1,11.4-25
		c1.2-4.6,2.1-5.3,6.5-5.4c4,2.2,4.5,3.3,3.3,7.7c-2.2,8.5-5.7,16.6-10.3,24.2c-1.1,1.8-1,2.5,1.2,2.9c2.5,0.5,4.8,1.5,7.2,2.2
		c3.3,1,4.7,3.2,4.6,6.7c-0.7,22.9-10.5,40.9-29.6,53.5c-16.9,11.2-35.3,13.3-54.6,6.9c-1.8-0.6-2.9-0.4-4.1,1.1
		c-11.3,14-18.7,30.8-21.5,48.6c-0.4,2.6,0.4,3,2.8,3.1c31.4,0.6,62,4.9,91.5,15.4C337.7,319,372,262.1,372,197.1
		c0-99.8-80.9-180.8-180.8-180.8S10.5,97.3,10.5,197.1c0,66,35.4,123.7,88.2,155.3c1.2-0.4,2.3-0.7,3.5-1
		C103.5,351.2,104.8,350.9,106.1,350.6z"/>
	<path class="st0" d="M211,271.9c-0.2,0.4-0.5,0.7-0.8,1c-7.3,8.1-13.7,17.1-18.8,26.8l0,0c5.2-9.6,11.5-18.6,18.8-26.8
		C210.5,272.7,210.8,272.3,211,271.9z"/>
	<path class="st0" d="M120.8,241.4c-0.1,0-0.2,0-0.3-0.1C120.5,241.3,120.6,241.3,120.8,241.4z"/>
	<path class="st0" d="M240.3,54.4c5,8.3,7.4,18,7.3,27.7C247.6,72.4,245.2,62.7,240.3,54.4c-1.1-1.8-2.1-2.9-4.4-1.9
		c-3.5,1.6-7.1,3-10.2,5.4c3.1-2.4,6.7-3.8,10.2-5.4C238.2,51.5,239.2,52.6,240.3,54.4z"/>
	<path class="st2" d="M191.3,377.9c18.6,0,36.6-2.8,53.5-8.1h-107C154.7,375.1,172.7,377.9,191.3,377.9z"/>
	<path class="st2" d="M223.8,260.2l0.1-0.1L223.8,260.2z"/>
	<polygon class="st2" points="223.8,260.2 223.8,260.2 223.8,260.2 	"/>
	<path class="st2" d="M192.2,332.5c2.8-17.8,10.2-34.6,21.5-48.6c1.3-1.6,2.3-1.8,4.1-1.1c19.3,6.4,37.6,4.3,54.6-6.9
		c19.1-12.6,28.9-30.5,29.6-53.5c0.1-3.5-1.3-5.7-4.6-6.7c-2.4-0.7-4.8-1.7-7.2-2.2c-2.2-0.5-2.3-1.2-1.2-2.9
		c4.6-7.5,8.1-15.6,10.3-24.2c1.2-4.4,0.7-5.5-3.3-7.7c-4.3,0.2-5.3,0.9-6.5,5.4c-2.4,8.9-6.3,17.4-11.4,25
		c-1.1,1.7-2.4,2.7-4.5,2.5l0,0l0,0c-0.6,0-1.1-0.1-1.7,0c-0.1,0-0.2,0-0.4,0c-0.4,0-0.9,0-1.3,0.1l0,0c-2.8,0.2-5.5,0.7-8.3,1.1
		l0,0c-0.1,0-0.2,0-0.3,0c-0.5,0.1-0.9,0.1-1.4,0.2c-8.8,2.8-17.2,6.5-24.5,12.2c-2.9,2.4-5.7,4.9-8.2,7.6c-1,1.1-2,2.2-3,3.3
		l-0.6,0.7l0,0c-1.9,3.1-3.8,6.2-5.6,9.3c-0.4,0.8-1.2,1.4-2.1,1.4c-3.8,0.3-7.6,0.9-11.5,0.4c-2.6,0.3-5-0.3-7.5-0.5
		c-0.4-0.7,0.1-1.1,0.4-1.5c1.5-2,3.1-4,4.6-6c14.1-17.9,29.5-34.5,47.9-48.2c3.4-2.5,6.9-4.8,10.4-7c2.8-1.8,4.2-3.4,4.3-5.2
		c0-0.8-0.3-1.6-0.8-2.6c-1.8-3-4.5-3.2-8.6-0.7c-18.9,11.6-34.7,26.7-49.2,43.2c-4.9,5.6-9.6,11.4-14.7,17.5
		c-0.1-1.4-0.1-2.8-0.1-4.2c0-9.7,1.5-19.4,4.7-28.7c10.6-32,42.9-56.6,76.1-57.9c0.9,0,1.8,0.1,2.7,0.1c4.8-0.3,9.6-0.1,14.4,0.5
		c1.9,0.3,2.7,1,2.8,2.8c0.1,2.6,0.5,5.2,0.6,7.9c0.2,4.6,0.9,5.5,5.3,6.4c0,0,0,0,0,0.1l0,0c3.4-0.6,4.8-2.6,4.7-6
		c-0.2-4.8-0.8-9.7-1.6-14.4c-0.5-3.4-2.5-5.1-5.8-5.8c-12.3-2.3-24.8-2.2-37,0.4c-19.6,4.1-36.2,13.8-50.2,28.1
		c-0.8,0.8-1.4,2.4-3,1.8c2.5-7.5,5-15,7.4-22.5c0.3-1.5,1.4-2.7,2.9-3.2c33.5-11.5,48.2-47.4,40.2-76.9c-2.5-9-6.1-17.6-13-24.3
		H238c-0.3,1-1.2,0.8-1.9,1c-41,14-57.1,60.4-33.6,96.9c0.9,1.1,1.1,2.6,0.5,3.9c-2.3,6.6-4.4,13.3-6.6,20c-0.2,0.8-0.2,1.7-1.2,2
		c-3.9-24.6-18.1-47.6-39-62.5C137.4,89,116.6,82.8,93.4,84.6c-3.2,0.2-5,1.8-5.9,4.8c-1.9,6.1-3.2,12.4-3.8,18.7
		c-0.4,4.5,0.1,5.3,4.5,7.1l0,0c4.1-0.6,5.2-3.3,5.5-7.1c0.3-3.3,1.1-6.5,1.5-9.8v-0.1c0-0.3,0.1-0.6,0.2-0.9c0-0.1,0-0.1,0-0.2
		c0.6-2.4,2.1-3.2,5.2-3.1c25.2,0.8,46.2,10.1,63.1,28.5c0.5,0.6,1.1,1.2,1.6,1.8c17.6,20,24.8,47.1,19.3,73.2
		c-1.3-0.5-1.5-1.8-2.1-2.8c-12.3-21.9-27.5-41.7-44.6-60.1c-0.6-0.7-1.2-1.3-1.9-1.9c-0.3-0.2-0.6-0.5-0.8-0.7l0,0
		c-2-1.3-4-1.1-5.9,0.6c-2.1,2-2.4,4.6-0.3,7c4.7,5.4,9.6,10.7,14.2,16.1c12.1,14.2,22.7,29.6,31.7,45.9c0.5,0.9,1,1.9,1.7,3.4l0,0
		l0,0l0,0c-5.9,0.1-11.7-0.7-17.4-2.2c-33.7-8.9-54.3-31-63.7-64.1c-1.7-6-2-6.7-6.5-7.1l0,0c-3.8,1.8-4.6,3.2-3.8,6.9
		c8.6,39.4,43.2,76.1,92.9,76.5c2.6,0,3.5,0.4,3.5,3.3c-0.1,25.5-0.1,50.9-0.1,76.4c0,0.8,0.4,1.8-0.4,2.6c-4.3-7.1-4.3-7.2-4.3-9.6
		c1-32.3-13-56.2-41-71.7c-18.2-10.1-37.6-11.4-57.6-5.6c-3.2,0.9-5,2.7-5.3,6.2c-0.4,4.8-0.3,9.7,0.4,14.5c0.3,2.4,0.7,4.7,1.2,7
		c9.2,41.2,50.1,67.2,91.4,58c2.5-0.6,3.4,0.1,4.5,2.1c5.4,10.6,9,22.1,10.4,33.9c0.3,2.5-0.1,3.3-2.8,3.3
		c-22.4,0.5-44.6,2.9-66.4,8.3c-4.7,1.1-5.4,2-5.4,6.7c1.7,3,4,3.8,7.5,2.9c21.2-5.2,42.6-7.5,64.4-8.2c3-0.1,3.8,0.8,3.5,3.6
		c-0.2,2.5-0.2,5.1,0,7.6c0.1,3.1,1.6,4.8,4.6,4.9c1.5,0.1,2.8-0.3,3.7-1.1c0.1-0.1,0.1-0.1,0.2-0.2c0.1-0.1,0.3-0.3,0.4-0.5
		c0.5-0.7,0.9-1.7,0.9-2.9c0.2-3.1,0.1-6.2,0-9.2c0-0.5,0-0.9,0.1-1.2c0-0.1,0.1-0.2,0.1-0.2v-0.1c0.3-0.6,1-0.8,2.1-0.8
		c6.9,0.1,13.8,0.5,20.7,1.1c3.6,0.3,7.2,0.7,10.9,1.1l0,0l0,0l0,0h0.7l1.3,0.2l0,0c16.3,1.8,32.2,4.9,47.7,9.8
		c4-2.1,7.8-4.3,11.6-6.6c-29.5-10.4-60.1-14.7-91.5-15.4C192.5,335.5,191.7,335.1,192.2,332.5z M261.2,245.7
		c-0.6-2.4-2.2-3.7-4.3-3.8c-0.9,0-2,0.2-3.2,0.7c-9.7,4.1-18.9,9.4-27.3,15.7c-0.8,0.6-1.6,1.1-2.4,1.7v0.1c0,0,0-0.1-0.1-0.1l0,0
		v0.1h-0.1l0,0h-0.1l-0.4,0.2l0,0h-0.1l0.1-0.3h0.1l0,0l0.3,0.1l0,0c-0.7-0.8-0.1-1.7,0.2-2.4c6.5-20.5,28.9-36.6,50.4-36.2
		c0,0,0,0,0.1,0l0,0c0.3,0,0.6,0.1,0.9,0.1c0.6-0.1,1.3-0.1,1.9-0.1c4.3-0.1,8.6,0.9,12.8,2c1.2,0.1,2,1.2,1.9,2.4v0.1
		c-0.3,24.7-26.1,50.1-50.9,49.9c-2.6,0.4-5.2,0.4-7.8,0.1c-3.3-0.3-6.7-1.1-10.3-2c3.8-3.7,7.9-7.1,12.3-10.1
		c7.1-4.9,14.6-9,22.5-12.4C260.4,250.5,262,248.8,261.2,245.7z M201.5,109c-1.5-20.8,6-37.6,22.8-50.2c0.5-0.3,0.9-0.5,1.4-0.8
		c3.1-2.4,6.6-3.8,10.2-5.4c2.3-1.1,3.3,0,4.4,1.8c5,8.3,7.4,18,7.3,27.8c-0.1,12.5-4.3,25.1-12.4,34.8c-2.7,3.3-5.8,6.2-9.3,8.7
		c-2.4,1.8-5,3.4-7.7,4.7c-0.5-0.7-0.4-1.2-0.1-1.8c0.1-0.3,0.2-0.5,0.3-0.8c4.9-14.6,10-29.1,15.6-43.5c0.7-1.9,1.1-3.3,1.1-4.4
		c-0.1-1.9-1.5-2.9-4.6-4.3c-2.8,0.2-4.4,1.8-5.5,4.4c-5.9,14.9-11.1,30.1-16.3,45.3c-0.3,0.9-0.6,1.8-1.1,3.1
		C204.1,122.5,202.1,115.8,201.5,109z M165.2,273.6c-6.7-7.7-14.4-14.6-22.8-20.5c-6.1-4.3-12.6-8.1-19.5-11.1
		c-0.7-0.3-1.3-0.5-1.9-0.6c-0.1,0-0.2,0-0.2,0c-0.1,0-0.2,0-0.3-0.1c-2.3-0.3-4,0.7-4.9,2.9c-1.2,2.9,0,5.3,3.6,6.9
		c16.4,7.5,30.8,18.8,42,33c1.8,2.2,1.6,2.8-1.3,3.2c-9.4,1.4-18.5,0.9-27-1.2c-25.4-6.3-45.3-27.2-49.6-55.3
		c-0.2-1.3-0.3-2.6-0.3-3.9c-0.3-8.6-2.2-7.3,7.1-8.8c8.6-1.4,17.1-1,25.2,0.8c24.2,5.6,44.4,24.7,50.2,50.1c0.1,0.5,0.2,1,0.3,1.5
		C165.8,271.3,165.8,272.3,165.2,273.6z M191.3,299.8L191.3,299.8c0-8.2,0-16.5,0-24.7c0-5.5,0-11,0-16.4c0-0.6,0-1,0.2-1.2
		c0.2-0.5,0.7-0.6,1.7-0.4c6,1,12,1.3,18.1,0.9c1.9-0.1,2.4,0.4,1.9,2.2c-1,3.5-1.6,7.1-1.8,10.7c0,0.4-0.2,0.9-0.4,1.2
		c-0.2,0.4-0.5,0.8-0.8,1.1C202.8,281.2,196.5,290.1,191.3,299.8z"/>
	<path class="st2" d="M223.8,260.2L223.8,260.2L223.8,260.2L223.8,260.2L223.8,260.2z"/>
	<path class="st3" d="M95.5,138.8c9.3,33.1,29.9,55.2,63.7,64.1c5.7,1.5,11.5,2.3,17.4,2.2l0,0c-0.7-1.4-1.2-2.4-1.7-3.4
		c-9-16.3-19.7-31.7-31.7-45.9c-4.6-5.4-9.5-10.7-14.2-16.1c-2.1-2.4-2-4.9,0.3-7c2-1.8,3.9-2,5.9-0.6l0,0c0.3,0.2,0.6,0.4,0.8,0.7
		c0.7,0.6,1.3,1.2,1.9,1.9c17.1,18.4,32.3,38.2,44.6,60.1c0.6,1,0.8,2.3,2.1,2.8c5.4-26.1-1.7-53.2-19.3-73.2
		c-0.5-0.6-1.1-1.2-1.6-1.8c-16.9-18.4-37.9-27.7-63.1-28.5c-3-0.1-4.6,0.8-5.2,3.1c0,0.1,0,0.1,0,0.2c-0.1,0.3-0.1,0.6-0.2,0.9
		c0,0.1,0,0.1,0,0.2c-0.4,3.3-1.2,6.5-1.5,9.8c-0.3,3.7-1.5,6.4-5.5,7.1l0,0c-0.2,5.5,0.1,11,0.9,16.5l0,0
		C93.4,132.1,93.8,132.8,95.5,138.8z"/>
	<path class="st4" d="M93.6,108.2c0.3-3.3,1.1-6.4,1.5-9.8c0-0.1,0-0.1,0-0.2v0.1C94.7,101.7,93.8,104.9,93.6,108.2
		c-0.3,3.7-1.5,6.4-5.5,7l0,0l0,0C92.1,114.6,93.3,111.9,93.6,108.2z"/>
	<path class="st4" d="M95.4,138.9c9.3,33.1,29.9,55.2,63.7,64.1c5.7,1.5,11.5,2.2,17.4,2.2c-5.9,0.1-11.7-0.7-17.4-2.2
		C125.4,194,104.8,172,95.4,138.9c-1.7-6.1-2-6.8-6.5-7.2l0,0l0,0C93.4,132.2,93.8,132.8,95.4,138.9z"/>
	<path class="st4" d="M135.9,132.9c-0.3-0.2-0.6-0.5-0.8-0.7C135.4,132.4,135.7,132.6,135.9,132.9z"/>
	<path class="st4" d="M174.9,201.7c0.5,0.9,1,1.9,1.7,3.4l0,0C175.8,203.7,175.4,202.7,174.9,201.7c-9-16.3-19.7-31.7-31.7-45.9
		c-4.6-5.4-9.5-10.7-14.2-16.1c4.7,5.4,9.6,10.7,14.2,16.1C155.2,170.1,165.8,185.4,174.9,201.7z"/>
	<path class="st4" d="M95.2,97.4c0-0.1,0-0.1,0-0.2C95.3,97.3,95.3,97.3,95.2,97.4z"/>
	<path class="st4" d="M163.5,122.5c-16.9-18.4-37.9-27.7-63.1-28.5C125.6,94.9,146.7,104.2,163.5,122.5z"/>
	<path class="st4" d="M128.9,139.8c-2.1-2.4-1.9-5,0.3-7C126.9,134.9,126.8,137.4,128.9,139.8z"/>
	<path class="st4" d="M129.2,132.8c1.9-1.7,3.9-1.9,5.9-0.6C133,130.8,131.1,130.9,129.2,132.8z"/>
	<path class="st4" d="M182.4,194.8c-12.3-21.9-27.5-41.7-44.6-60.1C154.9,153.1,170.1,172.9,182.4,194.8z"/>
	<path class="st5" d="M244.9,369.9c7.4-2.3,14.5-5,21.4-8.2c-0.8-0.3-1.5-0.7-2.3-1c-11.1-5-22.7-8.8-34.5-11.6
		c-0.8-0.2-2.1-0.1-2.4-1.4l0,0l-1.3-0.2l0,0c-0.1,0.1-0.2,0.2-0.3,0.2s-0.2-0.1-0.3-0.2l0,0c-3.6-0.5-7.2-0.8-10.9-1.2
		c-6.9-0.6-13.8-0.9-20.8-1c-1.1,0-1.7,0.1-2,0.7c0,0,0,0,0,0.1s-0.1,0.2-0.1,0.2c-0.1,0.3-0.1,0.6-0.1,1.1c0.1,3.1,0.1,6.2,0,9.2
		c-0.1,1.2-0.4,2.2-1,2.9c-0.1,0.2-0.3,0.3-0.4,0.5c-0.1,0.1-0.1,0.1-0.2,0.2c-0.9,0.8-2.2,1.3-3.7,1.2c-2.9-0.1-4.5-1.8-4.6-4.9
		c-0.2-2.5-0.2-5.1,0-7.6c0.3-2.8-0.5-3.7-3.5-3.6c-21.7,0.7-43.2,3-64.4,8.2c-3.5,0.9-5.8,0.1-7.4-2.9c-1.3,0.3-2.6,0.5-3.9,0.8
		c-1.2,0.3-2.4,0.6-3.5,1c12.2,7.3,25.2,13.1,39,17.4L244.9,369.9L244.9,369.9z"/>
	<path class="st5" d="M227.1,347.7L227.1,347.7l-1.3-0.2l0,0l0,0L227.1,347.7L227.1,347.7L227.1,347.7L227.1,347.7z"/>
	<path class="st5" d="M189.9,360.1c-0.1,0.1-0.1,0.1-0.2,0.2C189.8,360.2,189.9,360.2,189.9,360.1z"/>
	<path class="st5" d="M214.3,346.4c3.6,0.3,7.3,0.7,10.9,1.2l0,0l0,0C221.6,347.1,217.9,346.7,214.3,346.4z"/>
	<path class="st5" d="M191.5,346.1L191.5,346.1L191.5,346.1z"/>
	<path class="st5" d="M191.3,356.8c-0.1,1.2-0.4,2.1-0.9,2.9C190.9,358.9,191.3,357.9,191.3,356.8c0.2-3.1,0.2-6.2,0-9.3
		c0-0.4,0-0.8,0.1-1.1c-0.1,0.3-0.1,0.7-0.1,1.2C191.4,350.6,191.5,353.7,191.3,356.8z"/>
	<path class="st6" d="M292.6,157.6c-0.1-2.6-0.5-5.2-0.6-7.9c-0.1-1.9-0.9-2.6-2.8-2.8c-4.8-0.7-9.6-0.8-14.4-0.5
		c0.9,5.4,0.6,10.9,0.7,16.3c0.2,17.2-4.8,33-13.9,47.5c-0.7,0.9-1.1,1.9-1.4,2.9c0.5,0,0.9-0.1,1.4-0.2c0.1,0,0.2,0,0.3,0l0,0
		c2.8-0.4,5.5-0.9,8.3-1.1l0,0c0.4,0,0.9,0,1.3-0.1c0.1,0,0.2,0,0.4,0c0.6,0,1.1,0,1.7,0c2.1,0.1,3.4-0.8,4.5-2.5
		c5.1-7.7,8.9-16.1,11.4-25c1.2-4.6,2.1-5.3,6.5-5.4c1.3-4.8,1-9.9,2-14.7C293.5,163.1,292.7,162.2,292.6,157.6z"/>
	<path class="st7" d="M261.9,212.9c-0.1,0-0.2,0-0.3,0C261.7,212.9,261.8,212.9,261.9,212.9z"/>
	<path class="st7" d="M292.6,157.5c-0.1-2.6-0.5-5.2-0.6-7.9c-0.1-1.9-0.9-2.6-2.8-2.8c-4.8-0.7-9.6-0.8-14.4-0.5c0,0,0,0,0,0.1
		c4.8-0.3,9.6-0.1,14.4,0.5c1.9,0.3,2.7,1,2.8,2.8C292.1,152.3,292.5,154.9,292.6,157.5c0.2,4.6,0.9,5.6,5.3,6.5c0,0,0,0,0-0.1
		C293.5,163,292.8,162.1,292.6,157.5z"/>
	<path class="st7" d="M271.5,211.7c-0.4,0-0.9,0-1.3,0.1C270.6,211.7,271,211.7,271.5,211.7z"/>
	<path class="st7" d="M271.9,211.7c0.6,0,1.1,0,1.7,0l0,0C273,211.7,272.4,211.7,271.9,211.7z"/>
	<path class="st7" d="M270.2,211.7c-2.8,0.2-5.5,0.7-8.3,1.1C264.6,212.5,267.4,211.9,270.2,211.7z"/>
	<path class="st3" d="M235.7,225.3c7.3-5.7,15.7-9.4,24.5-12.2l0,0l0,0c0.2-1.1,0.7-2.1,1.4-2.9c9.1-14.5,14.1-30.3,13.9-47.5
		c0-5.4,0.3-10.9-0.6-16.3l0,0c-0.9,0-1.8-0.1-2.6-0.1c-33.2,1.3-65.4,25.9-76.1,57.9c-3.1,9.2-4.7,18.9-4.7,28.6
		c0,1.4,0,2.8,0.1,4.1c5.1-6.1,9.8-11.9,14.7-17.5c14.5-16.5,30.3-31.6,49.2-43.2c4.1-2.5,6.8-2.3,8.6,0.7c0.6,0.9,0.8,1.8,0.8,2.6
		c0,1.8-1.4,3.5-4.3,5.3c-3.5,2.2-7.1,4.5-10.4,7c-18.4,13.7-33.8,30.3-47.9,48.1c-1.5,2-3.1,3.9-4.6,5.9c-0.3,0.4-0.8,0.8-0.4,1.5
		c2.5,0.2,5,0.8,7.5,0.5c0,0,0,0,0.1,0h-0.1c5.3-3.2,10.6-6.5,15.9-9.7c1.1-0.5,2.2-1,3.3-1.4c0,0,0,0,0,0.1c0,0,0,0,0.1,0l0,0
		l0.6-0.7c1-1.1,2-2.3,3-3.3C230,230.2,232.8,227.6,235.7,225.3z M223.8,236.9l0.6-0.7L223.8,236.9z"/>
	<path class="st8" d="M272.1,146.3c0.9,0,1.8,0.1,2.6,0.1l0,0c0,0,0,0,0-0.1C273.9,146.3,273,146.2,272.1,146.3
		c-33.2,1.2-65.4,25.8-76.1,57.9c-3.1,9.2-4.7,18.9-4.7,28.7c0-9.7,1.5-19.4,4.7-28.6C206.7,172.2,239,147.6,272.1,146.3z"/>
	<path class="st8" d="M250,192c3.3-2.5,6.9-4.8,10.4-7c2.9-1.8,4.3-3.5,4.3-5.3c0,1.8-1.4,3.4-4.3,5.2
		C256.9,187.1,253.4,189.4,250,192c-18.4,13.6-33.8,30.2-47.9,48.1C216.2,222.2,231.6,205.7,250,192z"/>
	<path class="st8" d="M223.9,236.9L223.9,236.9L223.9,236.9l0.6-0.7c1-1.1,2-2.3,3-3.3c-1,1.1-2,2.2-3,3.3L223.9,236.9z"/>
	<path class="st8" d="M275.4,162.6c0.2,17.2-4.8,33-13.9,47.5c-0.7,0.9-1.1,1.9-1.4,2.9l0,0c0.2-1.1,0.7-2.1,1.4-2.9
		C270.6,195.6,275.6,179.9,275.4,162.6c0-5.4,0.3-10.9-0.6-16.3l0,0C275.7,151.7,275.4,157.2,275.4,162.6z"/>
	<path class="st8" d="M274.8,146.3L274.8,146.3L274.8,146.3L274.8,146.3z"/>
	<path class="st3" d="M165.7,270.4c-0.1-0.5-0.2-1-0.3-1.5c-5.8-25.4-26-44.5-50.2-50.1c-8.1-1.9-16.6-2.2-25.1-0.8
		c-9.3,1.5-7.5,0.2-7.1,8.8c0,1.3,0.2,2.6,0.3,3.9c4.3,28.1,24.1,49,49.5,55.3c8.5,2.1,17.6,2.6,26.9,1.2c2.9-0.4,3-1,1.3-3.2
		c-11.2-14.1-25.6-25.4-42-33c-3.6-1.7-4.8-4-3.6-6.9c0.9-2.2,2.6-3.2,4.9-2.9c0.1,0,0.2,0,0.3,0.1c0.1,0,0.2,0,0.2,0
		c0.6,0.1,1.3,0.3,2,0.6c6.8,3,13.4,6.7,19.5,11.1c8.4,5.9,16.1,12.8,22.8,20.5C165.8,272.3,165.8,271.3,165.7,270.4z"/>
	<path class="st9" d="M115.5,244.2c-1.2,2.9,0,5.3,3.6,6.9c16.4,7.5,30.8,18.8,42,33c1.7,2.2,1.6,2.8-1.3,3.2
		c-9.4,1.4-18.5,0.9-26.9-1.2c8.5,2.1,17.6,2.6,27,1.2c2.9-0.4,3.1-1,1.3-3.2c-11.2-14.1-25.6-25.4-42-33
		C115.5,249.5,114.3,247.1,115.5,244.2c0.9-2.2,2.6-3.2,4.9-2.9C118.1,241,116.4,242,115.5,244.2z"/>
	<path class="st9" d="M121,241.4c-0.1,0-0.2,0-0.2,0S120.9,241.4,121,241.4z"/>
	<path class="st9" d="M165.3,268.9c0.1,0.5,0.3,1,0.3,1.5C165.6,269.9,165.4,269.4,165.3,268.9c-5.8-25.4-26-44.5-50.2-50.1
		C139.3,224.4,159.5,243.5,165.3,268.9z"/>
	<path class="st3" d="M261.2,245.7c0.8,3-0.7,4.8-3.4,5.9c-7.9,3.4-15.4,7.6-22.5,12.4c-4.4,3-8.6,6.3-12.3,10.1
		c3.5,0.9,6.9,1.7,10.2,2c2.6,0.3,5.1,0.3,7.7-0.1c0,0,0,0,0.1,0c6.8-4.1,13.3-8.3,18.6-14.3c9-10.2,14.4-21.8,15.2-35.5
		c0.1-1.5,0.4-3,0.6-4.5l0,0l0,0c-0.3-0.1-0.6-0.1-0.9-0.1c-21.5-0.4-43.9,15.7-50.4,36.2c-0.2,0.7-0.8,1.5-0.2,2.4
		c0.8-0.6,1.6-1.1,2.4-1.7c8.5-6.3,17.6-11.6,27.3-15.7c1.2-0.5,2.3-0.7,3.2-0.7C259,242,260.6,243.3,261.2,245.7z"/>
	<path class="st10" d="M275.4,221.7c-0.3-0.1-0.6-0.1-0.9-0.1l0,0C274.8,221.6,275.1,221.7,275.4,221.7L275.4,221.7z"/>
	<path class="st10" d="M241,276c-2.6,0.4-5.1,0.4-7.7,0.1C235.8,276.4,238.4,276.4,241,276L241,276L241,276z"/>
	<path class="st10" d="M253.6,242.7c-9.7,4.1-18.9,9.4-27.3,15.7c-0.8,0.6-1.6,1.1-2.4,1.7c0,0,0,0.1,0.1,0.1v-0.1
		c0.8-0.6,1.6-1.1,2.4-1.7C234.8,252.1,244,246.8,253.6,242.7c1.2-0.5,2.3-0.7,3.2-0.7C255.9,241.9,254.8,242.2,253.6,242.7z"/>
	<path class="st6" d="M235,79.9c0.1,1.1-0.3,2.5-1.1,4.4c-5.6,14.3-10.7,28.9-15.6,43.5c-0.1,0.3-0.2,0.5-0.3,0.8
		c-0.2,0.5-0.3,1.1,0.1,1.8c2.7-1.3,5.3-2.9,7.7-4.7c3.4-2.5,6.5-5.5,9.3-8.8c8.1-9.7,12.3-22.3,12.4-34.8
		c0.1-9.7-2.3-19.4-7.3-27.7c-1.1-1.8-2.1-2.9-4.4-1.8c-3.5,1.6-7.1,3-10.2,5.4c2.5,5.6,4,11.5,4.7,17.6C233.5,77,234.9,78,235,79.9
		z"/>
	<path class="st11" d="M225.9,125.7c3.4-2.5,6.5-5.4,9.3-8.7c8.1-9.7,12.3-22.3,12.4-34.8c-0.1,12.5-4.3,25-12.4,34.8
		C232.4,120.2,229.3,123.2,225.9,125.7z"/>
	<path class="st11" d="M234,84.3c0.8-1.9,1.1-3.3,1.1-4.4C235.1,81,234.7,82.4,234,84.3c-5.6,14.3-10.7,28.9-15.6,43.5
		c-0.1,0.3-0.2,0.5-0.3,0.8c0.1-0.3,0.2-0.5,0.3-0.8C223.3,113.2,228.3,98.7,234,84.3z"/>
	<path class="st3" d="M208.7,125.3C213.9,110.1,219.1,95,225,80c1.1-2.6,2.6-4.2,5.5-4.4c-0.7-6.1-2.3-12-4.7-17.6
		c-0.5,0.2-1,0.5-1.4,0.8C207.6,71.4,200,88.3,201.5,109c0.5,6.8,2.6,13.5,6.1,19.4C208,127,208.4,126.1,208.7,125.3z"/>
	<path class="st10" d="M224.3,58.8c0.5-0.3,0.9-0.6,1.4-0.8C225.2,58.2,224.8,58.5,224.3,58.8C207.6,71.4,200,88.2,201.5,109
		C200,88.3,207.6,71.4,224.3,58.8z"/>
	<path class="st6" d="M275.4,221.7C275.4,221.7,275.5,221.7,275.4,221.7c-0.2,1.5-0.5,3-0.6,4.5c-0.8,13.7-6.2,25.3-15.2,35.5
		c-5.3,6-11.9,10.3-18.6,14.3c24.8,0.2,50.5-25.1,50.8-49.9c0.2-1.2-0.6-2.3-1.8-2.5h-0.1c-4.2-1.1-8.4-2.1-12.7-2
		C276.7,221.7,276.1,221.7,275.4,221.7L275.4,221.7z"/>
	<path class="st12" d="M290.1,223.7c1.2,0.2,2,1.3,1.8,2.5c-0.3,24.7-26,50-50.8,49.9l0,0c24.8,0.2,50.6-25.1,50.9-49.9v-0.1
		C292.1,224.9,291.2,223.8,290.1,223.7c-4.3-1.1-8.5-2.1-12.8-2C281.6,221.6,285.8,222.6,290.1,223.7
		C290,223.7,290.1,223.7,290.1,223.7z"/>
	<path class="st12" d="M259.7,261.7c9-10.2,14.4-21.8,15.2-35.5c0.1-1.5,0.4-3,0.6-4.5l0,0c-0.2,1.5-0.5,3-0.6,4.5
		C274,239.9,268.6,251.5,259.7,261.7c-5.3,6-11.9,10.3-18.6,14.3l0,0C247.8,272,254.4,267.7,259.7,261.7z"/>
	<path class="st12" d="M241,276L241,276L241,276z"/>
	<path class="st1" d="M211,271.9c0.2-0.4,0.3-0.8,0.3-1.2c0.2-3.6,0.8-7.2,1.8-10.7c0.5-1.8,0-2.3-1.9-2.2c-6,0.4-12.1,0.1-18.1-0.9
		c-1-0.2-1.4,0-1.7,0.4c-0.1,0.3-0.2,0.7-0.2,1.2c0,5.5,0,11,0,16.5c0,8.2,0,16.5,0,24.7c5.2-9.7,11.5-18.7,18.8-26.8
		C210.5,272.7,210.8,272.3,211,271.9z"/>
	<path class="st13" d="M191.3,275.1c0,8.2,0,16.5,0,24.7C191.3,291.5,191.3,283.3,191.3,275.1z"/>
	<path class="st13" d="M193.2,257c6,1,12,1.3,18.1,0.9c1.9-0.1,2.4,0.4,1.9,2.2c-1,3.5-1.6,7.1-1.8,10.7c0,0.4-0.2,0.8-0.3,1.2
		c0.2-0.4,0.3-0.8,0.4-1.2c0.2-3.6,0.8-7.2,1.8-10.7c0.5-1.8,0-2.3-1.9-2.2C205.2,258.3,199.2,258,193.2,257c-1-0.2-1.5-0.1-1.7,0.4
		C191.7,257,192.2,256.9,193.2,257z"/>
	<path class="st14" d="M229.5,349.1c11.8,2.7,23.4,6.6,34.5,11.6c0.8,0.3,1.5,0.7,2.3,1c2.9-1.3,5.7-2.7,8.5-4.2
		c-15.4-4.9-31.3-8.1-47.6-9.8C227.5,349,228.7,348.9,229.5,349.1z"/>
	<path class="st14" d="M227.1,347.7c16.3,1.8,32.2,4.9,47.6,9.8l0,0C259.4,352.6,243.4,349.5,227.1,347.7L227.1,347.7z"/>
	<path class="st14" d="M281.4,369.8C281.4,369.8,281.3,369.7,281.4,369.8C281.3,369.7,281.4,369.8,281.4,369.8L281.4,369.8z"/>
	<path class="st14" d="M264,360.7c-11.1-5-22.7-8.8-34.5-11.6c-0.8-0.2-2.1-0.1-2.4-1.4l0,0c0.3,1.2,1.5,1.2,2.4,1.4
		C241.3,351.9,252.9,355.7,264,360.7c0.8,0.3,1.5,0.7,2.3,1l0,0C265.5,361.4,264.8,361,264,360.7z"/>
	<path class="st14" d="M227.1,347.7L227.1,347.7L227.1,347.7L227.1,347.7L227.1,347.7z"/>
	<path class="st6" d="M216.2,247.5c0.9,0,1.7-0.5,2.1-1.3c1.8-3.1,3.7-6.2,5.5-9.2c-1.1,0.4-2.2,0.8-3.2,1.4
		c-5.3,3.2-10.5,6.4-15.8,9.7C208.6,248.4,212.4,247.9,216.2,247.5z"/>
	<path class="st15" d="M223.8,236.9L223.8,236.9c-1.1,0.3-2.2,0.8-3.2,1.3c-5.3,3.2-10.6,6.5-15.9,9.7h0.1
		c5.3-3.3,10.5-6.5,15.8-9.7C221.6,237.8,222.7,237.3,223.8,236.9z"/>
	<polygon class="st10" points="223.5,260.1 223.4,260.3 223.8,260.2 	"/>
	<path class="st10" d="M223.8,260.2L223.8,260.2L223.8,260.2L223.8,260.2z"/>
	<polygon class="st10" points="223.4,260.3 223.4,260.4 223.8,260.2 223.8,260.2 	"/>
	<path class="st10" d="M223.8,260.2L223.8,260.2L223.8,260.2L223.8,260.2L223.8,260.2z"/>
	<polygon class="st10" points="223.8,260.2 223.8,260.2 223.8,260.2 	"/>
	<polygon class="st10" points="223.8,260.2 223.5,260.1 223.5,260.1 	"/>
	<path class="st14" d="M225.2,347.6c0.1,0.1,0.2,0.2,0.3,0.2s0.2-0.1,0.3-0.2H225.2z"/>
	<path class="st14" d="M225.8,347.5h-0.7l0,0H225.8C225.8,347.6,225.8,347.5,225.8,347.5z"/>
	<path class="st14" d="M225.5,347.8c0.1,0,0.2-0.1,0.3-0.2l0,0C225.7,347.7,225.6,347.8,225.5,347.8z"/>
	<path class="st14" d="M225.8,347.6L225.8,347.6C225.8,347.6,225.8,347.5,225.8,347.6C225.8,347.5,225.8,347.6,225.8,347.6z"/>
</g>
</svg>
