<svg xmlns="http://www.w3.org/2000/svg" viewBox="0 0 384.89 384.89"><defs><style>.cls-1{fill:#fdfdfd;}.cls-2{fill:#090908;}.cls-3{fill:#9bbe41;}.cls-4{fill:#f4ca8f;}.cls-5{fill:#84a818;}.cls-6{fill:#9abe41;}.cls-7{fill:#c3e565;}.cls-8{fill:#c2e564;}.cls-9{fill:#afd54a;}.cls-10{fill:#b0d64a;}.cls-11{fill:#fcfcfc;}.cls-12{fill:#ebbd7d;}.cls-13{fill:#80a319;}</style></defs><title>Planta</title><g id="Camada_2" data-name="Camada 2"><g id="Camada_1-2" data-name="Camada 1"><path class="cls-1" d="M254.32.07q63.75,0,127.5-.07c2.57,0,3.07.51,3.07,3.07q-.12,189.38,0,378.75c0,2.57-.5,3.08-3.07,3.07q-189.37-.12-378.75,0c-2.57,0-3.07-.5-3.07-3.07Q.12,192.45,0,3.07C0,.51.5,0,3.07,0q123,.14,246,.07c-.31,1.12-1.41.93-2.15,1.18-46.51,15.88-64.8,68.51-38.09,109.83a4.48,4.48,0,0,1,.59,4.44c-2.61,7.53-5,15.13-7.52,22.7-.28.86-.24,1.93-1.39,2.31-4.44-28-20.57-54-44.21-70.92-21.28-15.24-45-22.17-71.17-20.22-3.67.28-5.6,2.08-6.64,5.46a100.23,100.23,0,0,0-4.28,21.22c-.42,5.11.16,6,5.11,8a113.17,113.17,0,0,0,1,18.67c-4.36,2.1-5.26,3.6-4.33,7.82,9.77,44.72,49,86.31,105.35,86.68,2.94,0,4,.45,4,3.76-.15,28.86-.08,57.72-.11,86.59,0,1,.45,2.09-.47,3-4.87-8.06-4.9-8.17-4.82-10.89,1.14-36.64-14.76-63.76-46.52-81.34-20.63-11.42-42.67-12.93-65.28-6.36-3.62,1.06-5.65,3-6,7.06a76,76,0,0,0,.42,16.46,86.77,86.77,0,0,0,105,73.75c2.89-.64,3.88.14,5.07,2.43a114.34,114.34,0,0,1,11.8,38.4c.38,2.84-.12,3.71-3.23,3.78-25.4.57-50.55,3.31-75.27,9.39-5.3,1.3-6.06,2.25-6.07,7.65-1.46.3-2.92.58-4.37.91-4.62,1-8.9,3.24-13.64,3.86-2-3.3-4.79-4-8.32-2.45-5.79,2.6-11.71,4.92-17.41,7.72a113.59,113.59,0,0,0-19.83,12c-2.41,1.87-4.21,4.12-3,7.36,1.26,3.39,4.17,3.77,7.38,3.77q151.83-.06,303.66,0c2.51,0,5.37.35,6.56-2.43s-.16-5.39-2-7.58a15.24,15.24,0,0,0-3.06-2.71,149.4,149.4,0,0,0-27-14.41c-37.81-16-77.51-22.23-118.26-23.06-2.75-.06-3.65-.52-3.17-3.47a116.32,116.32,0,0,1,24.41-55.1c1.42-1.76,2.59-2,4.67-1.3,21.86,7.29,42.67,4.85,61.89-7.81C310,252,321.05,231.55,321.85,205.59c.12-4-1.53-6.41-5.25-7.57-2.74-.85-5.42-2-8.2-2.52-2.51-.52-2.62-1.27-1.35-3.32a102.61,102.61,0,0,0,11.71-27.39c1.36-5,.8-6.25-3.7-8.74,1.44-5.5,1.17-11.22,2.23-16.77,3.86-.65,5.46-2.93,5.29-6.83a145,145,0,0,0-1.78-16.37c-.6-3.86-2.79-5.82-6.6-6.53a107,107,0,0,0-42,.43c-22.27,4.69-41.07,15.64-56.89,31.89-.92.94-1.54,2.79-3.38,2,2.84-8.54,5.71-17,8.41-25.5a4.78,4.78,0,0,1,3.26-3.58c37.94-13.09,54.71-53.8,45.55-87.19C266.3,17.38,262.17,7.69,254.32.07Z"/><path class="cls-2" d="M99.81,351c0-5.4.77-6.35,6.07-7.65,24.72-6.08,49.87-8.82,75.27-9.39,3.11-.07,3.61-.94,3.23-3.78a114.34,114.34,0,0,0-11.8-38.4c-1.19-2.29-2.18-3.07-5.07-2.43a86.77,86.77,0,0,1-105-73.75,76,76,0,0,1-.42-16.46c.34-4,2.37-6,6-7.06,22.61-6.57,44.65-5.06,65.28,6.36,31.76,17.58,47.66,44.7,46.52,81.34-.08,2.72,0,2.83,4.82,10.89.92-.95.47-2.08.47-3,0-28.87,0-57.73.11-86.59,0-3.31-1-3.74-4-3.76C125,196.89,85.73,155.3,76,110.58c-.93-4.22,0-5.72,4.33-7.82,5.11.45,5.5,1.24,7.42,8.06,10.58,37.57,33.93,62.59,72.19,72.67A72.79,72.79,0,0,0,179.67,186c-.81-1.64-1.32-2.76-1.91-3.83a321.38,321.38,0,0,0-36-52C136.54,124,131,118,125.66,111.91c-2.41-2.75-2.24-5.57.3-7.94s5-2.22,7.68.1a28.41,28.41,0,0,1,2.12,2.13c19.38,20.83,36.57,43.27,50.56,68.11.63,1.11.89,2.61,2.38,3.16a96,96,0,0,0-21.93-83.06C147.33,72.21,122.84,61,93.4,60.1c-4-.12-5.66,1.17-6.11,4.94s-1.39,7.37-1.7,11.08c-.34,4.19-1.67,7.28-6.27,8-4.95-2-5.53-2.91-5.11-8a100.23,100.23,0,0,1,4.28-21.22c1-3.38,3-5.18,6.64-5.46,26.21-2,49.89,5,71.17,20.22,23.64,16.93,39.77,43,44.21,70.92,1.15-.38,1.11-1.45,1.39-2.31,2.49-7.57,4.91-15.17,7.52-22.7a4.48,4.48,0,0,0-.59-4.44c-26.71-41.32-8.42-93.95,38.09-109.83.74-.25,1.84-.06,2.15-1.18h5.25c7.85,7.62,12,17.31,14.79,27.55,9.16,33.39-7.61,74.1-45.55,87.19a4.78,4.78,0,0,0-3.26,3.58c-2.7,8.51-5.57,17-8.41,25.5,1.84.77,2.46-1.08,3.38-2,15.82-16.25,34.62-27.2,56.89-31.89a107,107,0,0,1,42-.43c3.81.71,6,2.67,6.6,6.53a145,145,0,0,1,1.78,16.37c.17,3.9-1.43,6.18-5.29,6.83-5-1-5.81-2.07-6-7.25-.13-3-.57-5.94-.69-8.92-.08-2.14-1-2.94-3.13-3.23a80.64,80.64,0,0,0-16.36-.61c-1,0-2-.1-3-.06-37.61,1.48-74.21,29.36-86.28,65.7a99.73,99.73,0,0,0-5.16,37.24c5.8-6.91,11.1-13.45,16.64-19.79,16.43-18.78,34.37-35.87,55.76-49,4.62-2.85,7.72-2.57,9.71.79s.77,5.93-3.95,8.93c-4,2.54-8,5.11-11.79,7.94-23.15,17.23-42.15,38.51-59.56,61.32-.34.46-.87.93-.4,1.69,2.82.19,5.63.92,8.53.57,4.37.51,8.7-.09,13-.47A2.71,2.71,0,0,0,227,232.6c2.07-3.54,4.21-7,6.33-10.55h0l.66-.74a97,97,0,0,1,12.78-12.44c8.33-6.52,17.79-10.69,27.79-13.84,5.05-.56,10-1.88,15.16-1.53,2.45.16,3.86-.92,5.13-2.87a98.18,98.18,0,0,0,12.91-28.4c1.36-5.18,2.4-6,7.33-6.18,4.5,2.49,5.06,3.72,3.7,8.74a102.61,102.61,0,0,1-11.71,27.39c-1.27,2-1.16,2.8,1.35,3.32,2.78.57,5.46,1.67,8.2,2.52,3.72,1.16,5.37,3.62,5.25,7.57-.8,26-11.86,46.36-33.52,60.62-19.22,12.66-40,15.1-61.89,7.81-2.08-.7-3.25-.46-4.67,1.3a116.32,116.32,0,0,0-24.41,55.1c-.48,2.95.42,3.41,3.17,3.47,40.75.83,80.45,7.1,118.26,23.06a149.4,149.4,0,0,1,27,14.41,15.24,15.24,0,0,1,3.06,2.71c1.83,2.19,3.2,4.78,2,7.58s-4.05,2.43-6.56,2.43q-151.83,0-303.66,0c-3.21,0-6.12-.38-7.38-3.77-1.2-3.24.6-5.49,3-7.36a113.59,113.59,0,0,1,19.83-12c5.7-2.8,11.62-5.12,17.41-7.72,3.53-1.58,6.28-.85,8.32,2.45.79,5.06.11,6.21-4.71,8.21A159.94,159.94,0,0,0,58,372.82H295.56c1,0,2-.07,3-.11h26.27c-27.68-14.19-57.14-21.7-87.78-25l-1.47-.18-.75,0A318.16,318.16,0,0,0,199,345c-1.94,0-2.66.42-2.57,2.46.15,3.49.17,7,0,10.48s-2.51,5.47-5.93,5.32-5.11-2-5.23-5.56a66.84,66.84,0,0,1,0-8.61c.32-3.22-.56-4.22-4-4.1-24.64.84-49,3.41-73,9.3C104.3,355.29,101.71,354.39,99.81,351ZM235.46,19.2a13.47,13.47,0,0,0-1.62.91C214.87,34.39,206.32,53.48,208,77A52,52,0,0,0,214.87,99c.52-1.49.89-2.51,1.24-3.53,5.94-17.19,11.83-34.4,18.5-51.33,1.19-3,3-4.8,6.22-5,5.56,2.49,6.22,4.09,3.95,9.9-6.36,16.26-12.11,32.75-17.69,49.29-.31.9-1,1.76-.2,2.92A58,58,0,0,0,246.11,86c16.31-19.6,18.73-49.3,5.81-70.89-1.23-2.05-2.33-3.3-4.95-2.08C243,14.9,238.92,16.45,235.46,19.2Zm-2.09,229.19c.91-.64,1.84-1.27,2.73-1.94a151.18,151.18,0,0,1,31-17.85c4.29-1.84,7.48-.54,8.54,3.45.9,3.43-.88,5.42-3.83,6.72a148.06,148.06,0,0,0-25.47,14.08,97.18,97.18,0,0,0-14,11.4c7.1,1.83,13.61,3.14,20.39,2.16,28.11.24,57.38-28.49,57.7-56.54a2.44,2.44,0,0,0-2.14-2.84c-5.43-1.46-10.88-2.67-16.56-2.19a7,7,0,0,0-1.1-.16c-24.38-.48-49.8,17.75-57.15,41-.27.87-1,1.82-.16,2.78l-.48-.15-.08.31Zm-66.5,15.28c1-2.25.43-3.81.07-5.35-8.83-38.42-46.58-64.08-85.41-57.75-10.55,1.72-8.47.26-8.09,10a39.26,39.26,0,0,0,.39,4.47c6.53,42.55,44.28,70.39,86.77,64.14,3.32-.48,3.45-1.12,1.47-3.63a129.6,129.6,0,0,0-47.57-37.37c-4.06-1.89-5.45-4.57-4.07-7.88s4.32-4.22,8.45-2.46A125.35,125.35,0,0,1,141,240.41,142.18,142.18,0,0,1,166.87,263.67Zm29.58,29.67A155.37,155.37,0,0,1,217.79,263a4.07,4.07,0,0,0,1.3-2.58,57.26,57.26,0,0,1,2.08-12.12c.59-2,0-2.58-2.13-2.44a89.55,89.55,0,0,1-20.49-1c-1.75-.29-2.13.22-2.12,1.85C196.47,262.22,196.45,277.78,196.45,293.34Z"/><path class="cls-3" d="M79.32,84.09c4.6-.69,5.93-3.78,6.27-8,.31-3.71,1.26-7.37,1.7-11.08S89.43,60,93.4,60.1c29.44.89,53.93,12.11,73.37,34.31a96,96,0,0,1,21.93,83.06c-1.49-.55-1.75-2.05-2.38-3.16-14-24.84-31.18-47.28-50.56-68.11a28.41,28.41,0,0,0-2.12-2.13c-2.63-2.32-5.27-2.34-7.68-.1s-2.71,5.19-.3,7.94C131,118,136.54,124,141.77,130.17a321.38,321.38,0,0,1,36,52c.59,1.07,1.1,2.19,1.91,3.83a72.79,72.79,0,0,1-19.77-2.46c-38.26-10.08-61.61-35.1-72.19-72.67-1.92-6.82-2.31-7.61-7.42-8.06A113.17,113.17,0,0,1,79.32,84.09Z"/><path class="cls-4" d="M235.57,347.49l1.47.18c.33,1.46,1.74,1.4,2.69,1.62a214.36,214.36,0,0,1,39.12,13.11c6.77,3,13.68,5.82,19.7,10.3-1,0-2,.11-3,.11H58A159.94,159.94,0,0,1,77.09,364c4.82-2,5.5-3.15,4.71-8.21,4.74-.62,9-2.84,13.64-3.86,1.45-.33,2.91-.61,4.37-.91,1.9,3.41,4.49,4.31,8.43,3.34,24-5.89,48.37-8.46,73-9.3,3.44-.12,4.32.88,4,4.1a66.84,66.84,0,0,0,0,8.61c.12,3.57,1.93,5.42,5.23,5.56s5.73-1.78,5.93-5.32.17-7,0-10.48c-.09-2,.63-2.51,2.57-2.46a318.16,318.16,0,0,1,35.84,2.42C235.05,347.81,235.3,347.85,235.57,347.49Z"/><path class="cls-5" d="M291.08,119.27a80.64,80.64,0,0,1,16.36.61c2.16.29,3.05,1.09,3.13,3.23.12,3,.56,5.94.69,8.92.22,5.18,1.06,6.26,6,7.25-1.06,5.55-.79,11.27-2.23,16.77-4.93.19-6,1-7.33,6.18a98.18,98.18,0,0,1-12.91,28.4c-1.27,2-2.68,3-5.13,2.87-5.13-.35-10.11,1-15.16,1.53a8,8,0,0,1,1.54-3.34c10.29-16.48,15.95-34.31,15.77-53.85C291.79,131.64,292.16,125.42,291.08,119.27Z"/><path class="cls-6" d="M291.08,119.27c1.08,6.15.71,12.37.76,18.57.18,19.54-5.48,37.37-15.77,53.85a8,8,0,0,0-1.54,3.34c-10,3.15-19.46,7.32-27.79,13.84A97,97,0,0,0,234,221.31l-.66.74h0a27.88,27.88,0,0,0-3.72,1.58c-6,3.6-12,7.29-18,11-2.9.35-5.71-.38-8.53-.57-.47-.76.06-1.23.4-1.69C220.87,209.51,239.87,188.23,263,171c3.8-2.83,7.8-5.4,11.79-7.94,4.72-3,5.94-5.58,3.95-8.93s-5.09-3.64-9.71-.79c-21.39,13.15-39.33,30.24-55.76,49-5.54,6.34-10.84,12.88-16.64,19.79a99.73,99.73,0,0,1,5.16-37.24c12.07-36.34,48.67-64.22,86.28-65.7C289.09,119.17,290.08,119.25,291.08,119.27Z"/><path class="cls-7" d="M166.87,263.67A142.18,142.18,0,0,0,141,240.41a125.35,125.35,0,0,0-22.08-12.56c-4.13-1.76-7.07-.88-8.45,2.46s0,6,4.07,7.88a129.6,129.6,0,0,1,47.57,37.37c2,2.51,1.85,3.15-1.47,3.63-42.49,6.25-80.24-21.59-86.77-64.14a39.26,39.26,0,0,1-.39-4.47c-.38-9.75-2.46-8.29,8.09-10,38.83-6.33,76.58,19.33,85.41,57.75C167.3,259.86,167.83,261.42,166.87,263.67Z"/><path class="cls-8" d="M252.81,266.41c-6.78,1-13.29-.33-20.39-2.16a97.18,97.18,0,0,1,14-11.4,148.06,148.06,0,0,1,25.47-14.08c3-1.3,4.73-3.29,3.83-6.72-1.06-4-4.25-5.29-8.54-3.45a151.18,151.18,0,0,0-31,17.85c-.89.67-1.82,1.3-2.73,1.94l0,.09c-.81-1-.12-1.92.15-2.79,7.35-23.26,32.77-41.49,57.15-41a7,7,0,0,1,1.1.16c-.24,1.71-.61,3.41-.71,5.13-.87,15.49-7,28.67-17.19,40.2C267.91,257,260.47,261.81,252.81,266.41Z"/><path class="cls-9" d="M235.46,19.2c3.46-2.75,7.55-4.3,11.51-6.13,2.62-1.22,3.72,0,4.95,2.08,12.92,21.59,10.5,51.29-5.81,70.89a58,58,0,0,1-19.22,15.19c-.78-1.16-.11-2,.2-2.92,5.58-16.54,11.33-33,17.69-49.29,2.27-5.81,1.61-7.41-3.95-9.9A68.88,68.88,0,0,0,235.46,19.2Z"/><path class="cls-8" d="M235.46,19.2a68.88,68.88,0,0,1,5.37,19.92c-3.26.2-5,2-6.22,5-6.67,16.93-12.56,34.14-18.5,51.33-.35,1-.72,2-1.24,3.53A52,52,0,0,1,208,77c-1.7-23.56,6.85-42.65,25.82-56.93A13.47,13.47,0,0,1,235.46,19.2Z"/><path class="cls-10" d="M252.81,266.41c7.66-4.6,15.1-9.43,21.1-16.24,10.17-11.53,16.32-24.71,17.19-40.2.1-1.72.47-3.42.71-5.13,5.68-.48,11.13.73,16.56,2.19a2.44,2.44,0,0,1,2.14,2.84C310.19,237.92,280.92,266.65,252.81,266.41Z"/><path class="cls-11" d="M196.45,293.34c0-15.56,0-31.12,0-46.68,0-1.63.37-2.14,2.12-1.85a89.55,89.55,0,0,0,20.49,1c2.1-.14,2.72.42,2.13,2.44a57.26,57.26,0,0,0-2.08,12.12,4.07,4.07,0,0,1-1.3,2.58A155.37,155.37,0,0,0,196.45,293.34Z"/><path class="cls-12" d="M298.55,372.7c-6-4.48-12.93-7.29-19.7-10.3a214.36,214.36,0,0,0-39.12-13.11c-.95-.22-2.36-.16-2.69-1.62,30.64,3.33,60.1,10.84,87.78,25Z"/><path class="cls-13" d="M211.59,234.58c6-3.66,12-7.35,18-11a27.88,27.88,0,0,1,3.72-1.58c-2.12,3.51-4.26,7-6.33,10.55a2.71,2.71,0,0,1-2.34,1.51C220.29,234.49,216,235.09,211.59,234.58Z"/><path class="cls-13" d="M233.3,222.05l.66-.74Z"/><path class="cls-8" d="M233.37,248.39l-.53.24.08-.31.49.15Z"/><path class="cls-12" d="M235.57,347.49c-.27.36-.52.32-.75,0Z"/></g></g></svg>