<svg xmlns="http://www.w3.org/2000/svg" viewBox="0 0 4689 2306"><defs><style>.cls-1{fill:#d8aa8b;}.cls-1,.cls-2,.cls-3,.cls-56{stroke:#512600;}.cls-1,.cls-2,.cls-27,.cls-28,.cls-29,.cls-3,.cls-56{stroke-miterlimit:10;}.cls-1,.cls-2,.cls-3{stroke-width:10px;}.cls-2{fill:#ffe1ca;}.cls-3{fill:#f4ded0;}.cls-4{fill:#744630;}.cls-5{fill:#623b28;}.cls-6{fill:#683901;}.cls-7{fill:#855037;}.cls-8{fill:#8f563b;}.cls-9{fill:#8b543a;}.cls-10,.cls-29{fill:#bd8022;}.cls-11{fill:#bd6400;}.cls-12{fill:#acabb1;}.cls-13{fill:#898890;}.cls-14{fill:#f0ff2a;}.cls-15{fill:#00d635;}.cls-16{fill:#bede55;}.cls-17{fill:#47d400;}.cls-18,.cls-43{fill:#512600;}.cls-19{fill:#fcc786;}.cls-20{fill:#ffe2b3;}.cls-21{fill:#ddb57a;}.cls-22{fill:#b5e245;}.cls-23{fill:#ce9875;}.cls-24{fill:#e4936b;}.cls-25{fill:#dd6938;}.cls-26{fill:#c6e873;}.cls-27{fill:#e7eced;}.cls-27,.cls-28,.cls-29{stroke:#623b28;}.cls-27,.cls-28,.cls-29,.cls-56{stroke-width:5px;}.cls-28{fill:#afb6bb;}.cls-30{fill:#28384c;}.cls-31{fill:#ebba16;}.cls-32{fill:#fff;}.cls-33{fill:#dd352e;}.cls-34{fill:#366db6;}.cls-35{fill:#75348b;}.cls-36{fill:#57abc1;}.cls-37{fill:#25ae88;}.cls-38{fill:#f76363;}.cls-39{fill:#bf5a45;}.cls-40{fill:#f2ecbf;}.cls-41{fill:#ed8a19;}.cls-42{fill:#c5411e;}.cls-43{font-size:295px;font-family:Consolas;}.cls-44{fill:#ffebde;}.cls-45{fill:#f7dfd0;}.cls-46{fill:#ff9626;}.cls-47{fill:#ff8fb4;}.cls-48{fill:#fa7aa5;}.cls-49{fill:#ff889e;}.cls-50{fill:#ff748f;}.cls-51{fill:#5c586f;}.cls-52{fill:#ffbd86;}.cls-53{fill:#4f4c5f;}.cls-54{fill:#fed2a4;}.cls-55{fill:#ff9db0;}.cls-56{fill:none;}</style></defs><title>HLD</title><g id="Camada_2" data-name="Camada 2"><g id="Camada_3" data-name="Camada 3"><rect class="cls-1" x="117" y="1207" width="3306" height="1094" rx="74.24"/><rect class="cls-2" x="3590.06" y="1207" width="1093.94" height="1094" rx="74.24"/><rect class="cls-2" x="2316" y="1293" width="992" height="942" rx="74.24"/><rect class="cls-2" x="174" y="1275.63" width="1967.42" height="959.37" rx="74.24"/><rect class="cls-3" x="288.2" y="1430" width="902.22" height="707.48" rx="74.24"/><rect class="cls-2" x="2803.01" y="5" width="1056.01" height="608.33" rx="74.24"/><g id="tower-transmission-transmission_tower-communication-signal" data-name="tower-transmission-transmission tower-communication-signal"><path class="cls-4" d="M2109.64,625.44l4,4a45,45,0,0,0,.09-63.65l-.09-.09-4,4a39.37,39.37,0,0,1,.08,55.68l-.08.08Z"/><path class="cls-4" d="M2053.87,625.44a39.37,39.37,0,0,1-.09-55.68l.09-.08-4-4a45,45,0,0,0-.08,63.65l.08.09Z"/><path class="cls-4" d="M2057.83,621.47l4-4a28.22,28.22,0,0,1,0-39.88l-4-4A33.82,33.82,0,0,0,2057.83,621.47Z"/><path class="cls-4" d="M2101.68,617.5l4,4a33.84,33.84,0,0,0,0-47.82l-4,4A28.2,28.2,0,0,1,2101.68,617.5Z"/><path class="cls-4" d="M2065.81,613.5l4-4a16.92,16.92,0,0,1,0-23.92h0l-4-4a22.53,22.53,0,0,0,0,31.88Z"/><path class="cls-4" d="M2097.7,613.5a22.55,22.55,0,0,0,0-31.88h0l-4,4a16.91,16.91,0,0,1,0,23.92h0Z"/><path class="cls-4" d="M2138.12,718.75h-20.38l-21.89-82.1V625.74a2.82,2.82,0,0,0-2.82-2.81h-8.46V608.44a11.27,11.27,0,1,0-5.64,0v14.49h-8.45a2.81,2.81,0,0,0-2.82,2.81v10.91l-21.9,82.1h-20.38a2.82,2.82,0,0,0-2.81,2.82v11.28a2.81,2.81,0,0,0,2.81,2.81h112.74a2.81,2.81,0,0,0,2.82-2.81V721.57A2.82,2.82,0,0,0,2138.12,718.75Zm-26.21,0h-23.36L2107,700.32ZM2105.32,694l-20.75,20.74V697.36l17.08-17.08Zm-9-33.77L2100,674l-15.39,15.41V672Zm-1.67-6.28-10.06,10.06V639.84h6.29Zm-4.42-25.43v5.64h-5.64v-5.64Zm-14.09-31a5.64,5.64,0,1,1,5.63,5.64A5.64,5.64,0,0,1,2076.12,597.56Zm-2.82,31h5.63v5.64h-5.63Zm-.65,11.28h6.28v24.21L2068.87,654Zm-5.44,20.43L2078.93,672v17.41L2063.55,674Zm-5.36,20,17.08,17.08v17.42L2058.19,694Zm-5.32,20L2075,718.75H2051.6ZM2135.3,730H2028.2v-5.64h107.1Z"/><path class="cls-4" d="M2138.12,591.92h5.64v5.64h-5.64Z"/><path class="cls-4" d="M2149.4,591.92H2155v5.64h-5.63Z"/><path class="cls-4" d="M2160.67,591.92h5.64v5.64h-5.64Z"/><path class="cls-4" d="M2019.75,591.92h5.63v5.64h-5.63Z"/><path class="cls-4" d="M2008.47,591.92h5.64v5.64h-5.64Z"/><path class="cls-4" d="M1997.2,591.92h5.64v5.64h-5.64Z"/></g><g id="tower-transmission-transmission_tower-communication-signal-2" data-name="tower-transmission-transmission tower-communication-signal"><path class="cls-5" d="M4135.53,636.5l4,4a45,45,0,0,0,.09-63.64l-.09-.09-4,4a39.36,39.36,0,0,1,.08,55.68l-.08.09Z"/><path class="cls-5" d="M4079.76,636.5a39.37,39.37,0,0,1-.09-55.68l.09-.09-4-4a45,45,0,0,0-.09,63.64l.09.09Z"/><path class="cls-5" d="M4083.72,632.53l4-4a28.21,28.21,0,0,1,0-39.87l-4-4A33.84,33.84,0,0,0,4083.72,632.53Z"/><path class="cls-5" d="M4127.57,628.55l4,4a33.85,33.85,0,0,0,0-47.83l-4,4A28.19,28.19,0,0,1,4127.57,628.55Z"/><path class="cls-5" d="M4091.7,624.56l4-4a16.9,16.9,0,0,1,0-23.91h0l-4-4a22.54,22.54,0,0,0,0,31.89Z"/><path class="cls-5" d="M4123.59,624.56a22.56,22.56,0,0,0,0-31.89h0l-4,4a16.89,16.89,0,0,1,0,23.91h0Z"/><path class="cls-5" d="M4164,729.81h-20.37l-21.9-82.1V636.8a2.82,2.82,0,0,0-2.82-2.82h-8.46V619.49a11.28,11.28,0,1,0-5.63,0V634h-8.46a2.82,2.82,0,0,0-2.82,2.82v10.91l-21.9,82.1h-20.38a2.81,2.81,0,0,0-2.81,2.82V743.9a2.81,2.81,0,0,0,2.81,2.82H4164a2.82,2.82,0,0,0,2.82-2.82V732.63A2.82,2.82,0,0,0,4164,729.81Zm-26.21,0h-23.36l18.43-18.43Zm-6.59-24.72-20.75,20.75V708.42l17.08-17.08Zm-9-33.76,3.66,13.72-15.39,15.42V683.05Zm-1.67-6.29-10.06,10.06V650.89h6.29Zm-4.42-25.42v5.64h-5.64v-5.64Zm-14.09-31a5.64,5.64,0,1,1,5.63,5.63A5.63,5.63,0,0,1,4102,608.62Zm-2.82,31h5.64v5.64h-5.64Zm-.65,11.27h6.29V675.1L4094.76,665Zm-5.44,20.44,11.73,11.72v17.42l-15.39-15.42Zm-5.35,20,17.08,17.08v17.42l-20.75-20.75Zm-5.33,20,18.43,18.43h-23.36Zm78.77,29.7h-107.1v-5.63h107.1Z"/><path class="cls-5" d="M4164,603h5.64v5.64H4164Z"/><path class="cls-5" d="M4175.29,603h5.63v5.64h-5.63Z"/><path class="cls-5" d="M4186.56,603h5.64v5.64h-5.64Z"/><path class="cls-5" d="M4045.64,603h5.63v5.64h-5.63Z"/><path class="cls-5" d="M4034.36,603H4040v5.64h-5.64Z"/><path class="cls-5" d="M4023.09,603h5.64v5.64h-5.64Z"/></g><path class="cls-6" d="M3436.7,756.6a48,48,0,0,0-5.87.36,41.11,41.11,0,0,0-39.21-29,40.24,40.24,0,0,0-13.18,2.2,53.23,53.23,0,0,0-101.55,22.38,52.1,52.1,0,0,0,1.6,12.81,45.08,45.08,0,0,0,6.59,89.64H3436.7a49.18,49.18,0,0,0,0-98.35Zm0,90.15H3285.08a36.85,36.85,0,0,1-1.09-73.69,4.11,4.11,0,0,0,3.74-5.47,45,45,0,0,1,84.65-30.74,4.1,4.1,0,0,0,5.55,2.3,32.69,32.69,0,0,1,45.82,23.25,4.1,4.1,0,0,0,4.83,3.21,41,41,0,1,1,8.12,81.14Z"/><path class="cls-4" d="M4289.15,1662.18a11.74,11.74,0,0,0-11.73-11.72h-24.86a11.74,11.74,0,0,0-11.72,11.72v24.87a11.74,11.74,0,0,0,11.72,11.72h24.87a11.74,11.74,0,0,0,11.72-11.72v-24.87Zm-11.55,24.87a.18.18,0,0,1-.18.17h-24.86a.18.18,0,0,1-.17-.17v-24.87a.18.18,0,0,1,.17-.17h24.87a.18.18,0,0,1,.17.17v24.87Z"/><path class="cls-4" d="M4351,1662.18a11.74,11.74,0,0,0-11.72-11.72h-24.87a11.74,11.74,0,0,0-11.72,11.72v24.87a11.74,11.74,0,0,0,11.72,11.72h24.87a11.74,11.74,0,0,0,11.72-11.72Zm-11.55,24.87a.18.18,0,0,1-.17.17h-24.87a.18.18,0,0,1-.17-.17v-24.87a.18.18,0,0,1,.17-.17h24.87a.18.18,0,0,1,.17.17Z"/><path class="cls-4" d="M4289.15,1726.07a11.74,11.74,0,0,0-11.73-11.73h-24.86a11.74,11.74,0,0,0-11.72,11.73v24.86a11.74,11.74,0,0,0,11.72,11.72h24.87a11.74,11.74,0,0,0,11.72-11.72v-24.86Zm-11.55,24.86a.18.18,0,0,1-.18.17h-24.86a.18.18,0,0,1-.17-.17v-24.86a.18.18,0,0,1,.17-.18h24.87a.18.18,0,0,1,.17.18v24.86Z"/><path class="cls-4" d="M4351,1726.07a11.74,11.74,0,0,0-11.72-11.73h-24.87a11.74,11.74,0,0,0-11.72,11.73v24.86a11.74,11.74,0,0,0,11.72,11.72h24.87a11.74,11.74,0,0,0,11.72-11.72Zm-11.55,24.86a.18.18,0,0,1-.17.17h-24.87a.18.18,0,0,1-.17-.17v-24.86a.18.18,0,0,1,.17-.18h24.87a.18.18,0,0,1,.17.18Z"/><path class="cls-4" d="M4277.42,1778.23h-24.86a11.73,11.73,0,0,0-11.72,11.72v24.86a11.74,11.74,0,0,0,11.72,11.73h24.87a11.74,11.74,0,0,0,11.72-11.73V1790A11.73,11.73,0,0,0,4277.42,1778.23Zm.18,36.58a.17.17,0,0,1-.18.17h-24.86a.17.17,0,0,1-.17-.17V1790a.17.17,0,0,1,.17-.17h24.87a.17.17,0,0,1,.17.17v24.86Z"/><path class="cls-4" d="M4339.24,1778.23h-24.87a11.73,11.73,0,0,0-11.72,11.72v24.86a11.74,11.74,0,0,0,11.72,11.73h24.87a11.74,11.74,0,0,0,11.72-11.73V1790a11.73,11.73,0,0,0-11.72-11.72Zm.17,36.58a.17.17,0,0,1-.17.17h-24.87a.17.17,0,0,1-.17-.17V1790a.17.17,0,0,1,.17-.17h24.87a.17.17,0,0,1,.17.17Z"/><path class="cls-4" d="M4572.64,1943.44h-8.58v-48.8a44.37,44.37,0,0,0-31.68-42.33l-35-10.27a12.13,12.13,0,0,0-3.37-2.23l-7.26-3.24a14.48,14.48,0,0,0-6.41-1.25V1819a52.38,52.38,0,0,0,21.24-36.23,13.09,13.09,0,0,0,9.93-12.68v-46a19.64,19.64,0,0,0-19-19.6,19.64,19.64,0,0,0-19.59-18.52h-47.69a37.43,37.43,0,0,0-12.53,2.15,10.55,10.55,0,0,0,.06-1.13v-24.87a11.74,11.74,0,0,0-11.72-11.72h-24.87a11.74,11.74,0,0,0-11.72,11.72v24.87a11.74,11.74,0,0,0,11.72,11.72h20.88a37.47,37.47,0,0,0-8.27,15.57h-12.61a11.74,11.74,0,0,0-11.72,11.73v24.86a11.74,11.74,0,0,0,11.72,11.72h11.44v7.47a13,13,0,0,0,2.83,8.11h-14.27a11.74,11.74,0,0,0-11.72,11.72v24.86a11.74,11.74,0,0,0,11.72,11.73h24.87a11.74,11.74,0,0,0,11.72-11.73v-.89a52.33,52.33,0,0,0,6,5.11v16.26a14.51,14.51,0,0,0-6.34,1.27l-7.12,3.2A11.83,11.83,0,0,0,4402,1842l-35.19,10.33a44.34,44.34,0,0,0-31.69,42.32v3.92a5.78,5.78,0,1,0,11.55,0v-3.92A32.74,32.74,0,0,1,4370,1863.4l28.81-8.46a12.12,12.12,0,0,0,2.85,4.48l19.73,19.75.06.06a12.51,12.51,0,0,0,11,3.38l4.1,7-9.54,53.79H4382.8v-12.55a5.78,5.78,0,0,0-11.56,0v12.55h-24.59v-17.88a5.78,5.78,0,0,0-11.55,0v17.88h-24V1876h.73a5.78,5.78,0,0,0,0-11.55h-69.54a5.78,5.78,0,0,0,0,11.55h.73v67.4h-20.92V1641a8.74,8.74,0,0,1,8.73-8.72h192a8.74,8.74,0,0,1,8.73,8.72v23.42a5.78,5.78,0,0,0,11.55,0V1641a20.3,20.3,0,0,0-17.69-20.1v-20.84a14.23,14.23,0,0,0-14.21-14.21H4242.4a14.22,14.22,0,0,0-14.2,14.21v20.84a20.3,20.3,0,0,0-17.69,20.1v303a18.36,18.36,0,0,0,4.57,36.15h357.56a18.37,18.37,0,0,0,0-36.73Zm-330.24-346h168.8a2.66,2.66,0,0,1,2.66,2.65v20.66H4239.75v-20.66a2.65,2.65,0,0,1,2.65-2.65Zm310.11,297.23v48.8H4527.9v-12.55a5.78,5.78,0,0,0-11.55,0v12.55h-44.22l-9.55-53.85,4.15-7.45a12.21,12.21,0,0,0,2.34.23,12.63,12.63,0,0,0,8.76-3.55l19.73-19.22a11.94,11.94,0,0,0,2.95-4.6l28.62,8.4a32.74,32.74,0,0,1,23.38,31.24ZM4446,1882.79l-3.64-6.24,7.74-6.47L4457,1876l-3.81,6.82Zm36.11-35.67,7.26,3.24a.59.59,0,0,1,.18,1l-19.72,19.2a1,1,0,0,1-1.39,0l-9.15-7.82,19.69-15.24a3.06,3.06,0,0,1,3.13-.38Zm-9.14-149.54a8.08,8.08,0,0,1,8.07,8.06,10.46,10.46,0,0,0,10.45,10.45h.46a8.07,8.07,0,0,1,8.06,8.06v24.45h-3.78a3.86,3.86,0,0,1-3.86-3.86v-5.27a16,16,0,0,0-15.89-16,16.12,16.12,0,0,0-5,.82,69.93,69.93,0,0,1-43.64,0,15.94,15.94,0,0,0-20.94,15.14v5.27a3.86,3.86,0,0,1-3.85,3.86h-3.79v-24.95a26.11,26.11,0,0,1,26.07-26.07ZM4376,1687.05v-24.87a.18.18,0,0,1,.18-.17h24.86a.18.18,0,0,1,.17.17v24.87a.18.18,0,0,1-.17.17h-24.86A.18.18,0,0,1,4376,1687.05Zm0,63.88v-24.86a.18.18,0,0,1,.18-.18h11.43v25.21h-11.43a.18.18,0,0,1-.18-.17Zm25.21,63.88a.17.17,0,0,1-.17.17h-24.87a.17.17,0,0,1-.17-.17V1790a.17.17,0,0,1,.17-.17h22.67a53.2,53.2,0,0,0,2.37,7.06v18Zm7.61-35.51a8.19,8.19,0,0,0-8.15-7.67,1.52,1.52,0,0,1-1.51-1.51v-10H4403a15.42,15.42,0,0,0,15.4-15.41v-5.27a4.39,4.39,0,0,1,5.79-4.16,81.61,81.61,0,0,0,50.87,0,4.38,4.38,0,0,1,5.76,4.16v5.27a15.42,15.42,0,0,0,15.41,15.41H4500v10a1.51,1.51,0,0,1-1.51,1.51,8.19,8.19,0,0,0-8.14,7.67,40.83,40.83,0,0,1-81.49,0Zm40.74,49.78a52,52,0,0,0,19.24-3.68v15.33L4450,1855.26l-19.7-14.73V1825.4a52,52,0,0,0,19.23,3.68Zm-39.7,22.17a.6.6,0,0,1,.18-1l7.12-3.2a3.11,3.11,0,0,1,3.11.35l20.52,15.33-9.87,8.24a1,1,0,0,1-1.37,0Zm37.61,43.09h4.21l8.71,49.1h-21.62ZM4254.53,1876h45v67.4h-45Zm318.11,92.58H4215.08a6.82,6.82,0,0,1,0-13.63h357.56a6.82,6.82,0,0,1,0,13.63Z"/><g id="filled_outline" data-name="filled outline"><path class="cls-5" d="M1083.16,1765.26c-25.59,39.87-67.26,60.23-99.83,51.27a53.47,53.47,0,0,1-14.85-6.6c-.82-.52-1.61-1.06-2.39-1.62-31.39-22.62-33.75-76.1-4.77-121.25,28.27-44.06,76.2-64.31,109.77-47.46a53.13,53.13,0,0,1,14.41,10.57c24.45,25.16,24.26,73.64-2.34,115.09Z"/><path class="cls-7" d="M1085.5,1650.17l-8.53,8.33a131,131,0,0,0-37.55,71.3,131,131,0,0,1-49,81.29l-7.06,5.44a53.47,53.47,0,0,1-14.85-6.6c-.82-.52-1.61-1.06-2.39-1.62l9.06-7a130.93,130.93,0,0,0,49-81.28,131.08,131.08,0,0,1,37.55-71.31l9.35-9.12a53.13,53.13,0,0,1,14.41,10.57Z"/><path class="cls-4" d="M951.92,1884.85a54,54,0,0,1-15.17,5.87q-1.41.32-2.82.54c-38.2,6.28-77.74-29.78-89.29-82.17-11.27-51.14,8.21-99.38,43.83-111.28a53.37,53.37,0,0,1,17.67-2.76c35.08.45,69.29,34.79,79.89,82.89,10.19,46.26-4.78,90.16-34.11,106.91Z"/><path class="cls-8" d="M953,1876l-1.12,8.84a54,54,0,0,1-15.17,5.87q-1.41.32-2.82.54l1.43-11.36a131,131,0,0,0-23-92.1,131,131,0,0,1-24-76.92l.12-13.07a53.37,53.37,0,0,1,17.67-2.76L906,1707v1.32a130.9,130.9,0,0,0,24,75.6A131.07,131.07,0,0,1,953,1876Z"/><path class="cls-4" d="M992,1685.56a4.51,4.51,0,0,1-3.08-7.83c2.08-1.94,4.26-3.81,6.5-5.56a4.52,4.52,0,0,1,5.59,7.11c-2,1.6-4,3.31-5.93,5.07A4.48,4.48,0,0,1,992,1685.56Z"/><path class="cls-4" d="M970.86,1713.82a4.53,4.53,0,0,1-4.05-6.54,103.38,103.38,0,0,1,11.36-17.93,4.53,4.53,0,0,1,7.18,5.51l-.07.09a94.18,94.18,0,0,0-10.37,16.36,4.51,4.51,0,0,1-4,2.51Z"/><path class="cls-9" d="M884.76,1855.41a4.55,4.55,0,0,1-3.44-1.58c-1.85-2.16-3.62-4.43-5.28-6.73a4.52,4.52,0,1,1,7.34-5.29c1.51,2.1,3.13,4.17,4.82,6.14a4.52,4.52,0,0,1-3.44,7.46Z"/><path class="cls-9" d="M912.1,1877.68a4.55,4.55,0,0,1-2.17-.56A102.94,102.94,0,0,1,892.48,1865a4.52,4.52,0,0,1,5.9-6.86,93.75,93.75,0,0,0,15.91,11,4.52,4.52,0,0,1-2.18,8.49Z"/><path d="M925.13,1896.5a59.54,59.54,0,0,0,9.52-.77c1-.17,2.05-.37,3.08-.6a58.16,58.16,0,0,0,16.43-6.35c15.3-8.74,27.35-24.69,33.93-44.92a113.92,113.92,0,0,0,4.68-21c2.18.21,4.38.33,6.61.33,13.48,0,27.63-3.9,41.54-11.5,18-9.84,33.9-25,46-44,27.44-42.75,28.19-93.51,1.79-120.68a57.82,57.82,0,0,0-15.63-11.47c-17.51-8.78-39.06-8.5-60.69.78-21.3,9.15-40.81,26.3-54.92,48.29A140,140,0,0,0,946.66,1705c-12.36-9.1-26.24-14.33-40.46-14.51a57.84,57.84,0,0,0-13.25,1.36,55,55,0,0,0-5.91,1.64c-18.57,6.2-33.59,21.67-42.27,43.54-8.56,21.55-10.17,47.47-4.55,73,11.13,50.51,47.28,86.44,84.91,86.44Zm160.14-239.78c9.13,11.27,14,27,13.68,44.81-.31,20.32-7.28,42.08-19.6,61.28-11.33,17.65-26.11,31.8-42.77,40.91-14.18,7.76-29.06,11.29-42.41,10.15a135.16,135.16,0,0,0,49.71-83.29,126.54,126.54,0,0,1,36.25-68.85ZM1064.9,1652l7-6.8c.57.34,1.14.68,1.7,1a49.22,49.22,0,0,1,5.41,4l-5.16,5A135.55,135.55,0,0,0,1035,1729a126.14,126.14,0,0,1-41.27,73.47q-.18-5.49-.83-11a135.24,135.24,0,0,0,35.78-70.65A125.72,125.72,0,0,1,1064.9,1652Zm-99.78,37.55c25-39,66.77-59.15,97.94-48.39l-4.48,4.37a134.7,134.7,0,0,0-38.84,73.76A126.27,126.27,0,0,1,991.08,1780c-.2-1-.41-2-.63-3-6-27.22-19.38-50.44-36.49-66a131.2,131.2,0,0,1,11.16-21.5ZM910.55,1707l.07-7.19c14.43,1.49,29,9.17,41.41,21.94,14.17,14.56,24.67,34.85,29.58,57.13,4.72,21.4,4,43.47-2.12,62.15-4.65,14.3-12.25,26.14-21.82,34.24a135.19,135.19,0,0,0-23.93-94,125.82,125.82,0,0,1-23.2-73c0-.42,0-.84,0-1.27Zm-17.67,3.89.09-9.73c.64-.17,1.28-.32,1.92-.47a50.29,50.29,0,0,1,6.68-1l-.07,7.2c0,.46,0,.91,0,1.37a134.9,134.9,0,0,0,24.86,78.22,126.13,126.13,0,0,1,22.2,88.92l-.83,6.54a49.94,49.94,0,0,1-8.49,3.43l.62-4.93a135.48,135.48,0,0,0-23.78-95.29,125.77,125.77,0,0,1-23.2-74.27Zm-9-6.34-.06,6.25a134.71,134.71,0,0,0,24.86,79.58,126.4,126.4,0,0,1,22.19,88.93l-1,7.88c-16.11,1.53-32.86-4.91-47.53-18.38-16.09-14.77-27.91-36.33-33.29-60.73-10-45.26,5.2-89,34.82-103.53Z"/><path d="M992,1685.56a4.48,4.48,0,0,0,3.08-1.21c1.9-1.76,3.89-3.47,5.93-5.07a4.52,4.52,0,0,0-5.59-7.11c-2.24,1.75-4.42,3.62-6.51,5.56a4.52,4.52,0,0,0,3.09,7.83Z"/><path d="M968.85,1713.35a4.53,4.53,0,0,0,6.06-2h0A94.56,94.56,0,0,1,985.28,1695a4.53,4.53,0,0,0-7-5.69l-.07.09a103.38,103.38,0,0,0-11.36,17.93,4.53,4.53,0,0,0,2,6.07Z"/><path d="M881.32,1853.83a4.53,4.53,0,1,0,6.88-5.88c-1.69-2-3.31-4-4.82-6.14a4.53,4.53,0,1,0-7.35,5.29C877.7,1849.4,879.47,1851.67,881.32,1853.83Z"/><path d="M892.48,1865a102.94,102.94,0,0,0,17.45,12.11,4.53,4.53,0,0,0,4.39-7.92h0a93.75,93.75,0,0,1-15.91-11,4.53,4.53,0,0,0-5.9,6.87Z"/></g><g id="Layer_34" data-name="Layer 34"><g id="database_server" data-name="database server"><path class="cls-10" d="M2934.83,223.75h199.06a10.86,10.86,0,0,1,11.05,10.66v42.65a10.87,10.87,0,0,1-11.05,10.67H2934.83a10.87,10.87,0,0,1-11.06-10.67V234.41A10.86,10.86,0,0,1,2934.83,223.75Z"/><path class="cls-11" d="M3144.94,234.41v42.65a10.89,10.89,0,0,1-11.05,10.67h-22.12a10.91,10.91,0,0,0,11.06-10.67V234.41a10.9,10.9,0,0,0-11.06-10.66h22.12A10.89,10.89,0,0,1,3144.94,234.41Z"/><path class="cls-12" d="M3089.65,287.73h33.18v21.32h-33.18Z"/><path class="cls-12" d="M3089.65,202.42h33.18v21.33h-33.18Z"/><path class="cls-13" d="M3106.24,202.42h16.59v21.33h-16.59Z"/><path class="cls-13" d="M3106.24,287.73h16.59v21.32h-16.59Z"/><path class="cls-10" d="M2934.83,309.05h199.06a10.87,10.87,0,0,1,11.05,10.66v42.66A10.87,10.87,0,0,1,3133.89,373H2934.83a10.87,10.87,0,0,1-11.06-10.66V319.71A10.87,10.87,0,0,1,2934.83,309.05Z"/><path class="cls-11" d="M3144.94,319.71v42.66A10.89,10.89,0,0,1,3133.89,373h-22.12a10.9,10.9,0,0,0,11.06-10.66V319.71a10.9,10.9,0,0,0-11.06-10.66h22.12A10.89,10.89,0,0,1,3144.94,319.71Z"/><path class="cls-14" d="M2990.12,330.38h22.12V351.7h-22.12Z"/><path class="cls-14" d="M2990.12,245.07h22.12V266.4h-22.12Z"/><path class="cls-10" d="M2934.83,138.45h199.06a10.86,10.86,0,0,1,11.05,10.66v42.65a10.86,10.86,0,0,1-11.05,10.66H2934.83a10.86,10.86,0,0,1-11.06-10.66V149.11A10.86,10.86,0,0,1,2934.83,138.45Z"/><path class="cls-11" d="M3144.94,149.11v42.65a10.89,10.89,0,0,1-11.05,10.66h-22.12a10.9,10.9,0,0,0,11.06-10.66V149.11a10.89,10.89,0,0,0-11.06-10.66h22.12A10.88,10.88,0,0,1,3144.94,149.11Z"/><path class="cls-14" d="M2990.12,159.77h22.12V181.1h-22.12Z"/><path class="cls-12" d="M2945.89,287.73h33.18v21.32h-33.18Z"/><path class="cls-12" d="M2945.89,202.42h33.18v21.33h-33.18Z"/><path class="cls-13" d="M2962.48,202.42h16.59v21.33h-16.59Z"/><path class="cls-13" d="M2962.48,287.73h16.59v21.32h-16.59Z"/><path class="cls-15" d="M2945.89,330.38H2968V351.7h-22.12Z"/><path class="cls-15" d="M2945.89,245.07H2968V266.4h-22.12Z"/><path class="cls-15" d="M2945.89,159.77H2968V181.1h-22.12Z"/><path class="cls-16" d="M3244.47,367.7V421c0,14.72-44.57,26.66-99.53,26.66s-99.52-11.94-99.52-26.66V367.7c0,14.71,44.56,26.65,99.52,26.65S3244.47,382.41,3244.47,367.7Z"/><path class="cls-16" d="M3244.47,314.38V367.7c0,14.71-44.57,26.65-99.53,26.65s-99.52-11.94-99.52-26.65V314.38c0,14.72,44.56,26.66,99.52,26.66S3244.47,329.1,3244.47,314.38Z"/><path class="cls-16" d="M3244.47,261.07v53.31c0,14.72-44.57,26.66-99.53,26.66s-99.52-11.94-99.52-26.66V261.07c0,14.71,44.56,26.66,99.52,26.66S3244.47,275.78,3244.47,261.07Z"/><ellipse class="cls-17" cx="3144.94" cy="261.07" rx="99.53" ry="26.66"/><path class="cls-17" d="M3244.47,367.7V421c0,14.72-44.57,26.66-99.53,26.66-3.76,0-7.41-.05-11.05-.21,49.76-1.44,88.46-12.75,88.46-26.45V384.44C3236.18,379.85,3244.47,374,3244.47,367.7Z"/><path class="cls-17" d="M3244.47,314.38V367.7c0,6.34-8.29,12.15-22.12,16.74a263.66,263.66,0,0,1-77.41,9.91c-3.76,0-7.41-.05-11.05-.21,49.76-1.44,88.46-12.74,88.46-26.44V331.12C3236.18,326.54,3244.47,320.73,3244.47,314.38Z"/><path class="cls-17" d="M3244.47,261.07v53.31c0,6.35-8.29,12.16-22.12,16.74a263.67,263.67,0,0,1-77.41,9.92c-3.76,0-7.41-.05-11.05-.21,49.76-1.44,88.46-12.75,88.46-26.45V277.81C3236.18,273.22,3244.47,267.41,3244.47,261.07Z"/><path class="cls-17" d="M3244.47,261.07c0,6.34-8.29,12.15-22.12,16.74a264,264,0,0,1-77.41,9.92c-3.76,0-7.41-.06-11.05-.22,49.76-1.44,88.46-12.74,88.46-26.44s-38.7-25-88.46-26.45c3.64-.16,7.29-.21,11.05-.21C3199.9,234.41,3244.47,246.35,3244.47,261.07Z"/><path class="cls-17" d="M3222.35,367.7v16.74a263.66,263.66,0,0,1-77.41,9.91c-3.76,0-7.41-.05-11.05-.21C3183.65,392.7,3222.35,381.4,3222.35,367.7Z"/><path class="cls-17" d="M3222.35,314.38v16.74a263.67,263.67,0,0,1-77.41,9.92c-3.76,0-7.41-.05-11.05-.21C3183.65,339.39,3222.35,328.08,3222.35,314.38Z"/><path class="cls-18" d="M3149.48,229.13a16.47,16.47,0,0,0-15.59-10.71h-5.53V207.75h5.53c9.15,0,16.56-7.17,16.58-16V149.11c0-8.82-7.43-16-16.58-16H2934.83c-9.15,0-16.56,7.18-16.59,16v42.65c0,8.82,7.44,16,16.59,16h5.53v10.67h-5.53c-9.15,0-16.56,7.17-16.59,16v42.65c0,8.83,7.44,16,16.59,16h5.53v10.66h-5.53c-9.15,0-16.56,7.17-16.59,16v42.66c0,8.82,7.44,16,16.59,16h105.06V421c0,21,52.86,32,105.05,32S3250,442,3250,421V261.07C3250,240.65,3200.18,229.77,3149.48,229.13Zm-214.65-32a5.44,5.44,0,0,1-5.53-5.33V149.11a5.43,5.43,0,0,1,5.53-5.33h199.06a5.42,5.42,0,0,1,5.52,5.33v42.65a5.43,5.43,0,0,1-5.52,5.33Zm182.47,10.66v10.67h-22.12V207.75Zm-33.18,0v10.67H2984.6V207.75Zm-110.58,0v10.67h-22.12V207.75Zm66.35,160H2934.83a5.44,5.44,0,0,1-5.53-5.33V319.71a5.44,5.44,0,0,1,5.53-5.33h105.06Zm-88.47-64V293.06h22.12v10.66Zm88.47,0H2984.6V293.06h55.29Zm0-42.65v21.32H2934.83a5.43,5.43,0,0,1-5.53-5.33V234.41a5.44,5.44,0,0,1,5.53-5.33h199.06a4.05,4.05,0,0,1,.77.16C3086,230.57,3039.89,241.45,3039.89,261.07ZM3238.94,421c0,7.25-33.17,21.33-94,21.33s-94-14.08-94-21.33V382.73c18.19,11.14,56.17,17,94,17s75.81-5.82,94-17Zm0-53.31c0,7.25-33.17,21.32-94,21.32s-94-14.07-94-21.32V329.42c18.19,11.14,56.17,16.95,94,16.95s75.81-5.81,94-16.95Zm0-53.32c0,7.25-33.17,21.33-94,21.33s-94-14.08-94-21.33V276.1c18.19,11.15,56.17,17,94,17s75.81-5.81,94-17Zm-94-32c-60.82,0-94-14.07-94-21.32s33.17-21.33,94-21.33,94,14.08,94,21.33S3205.77,282.39,3144.94,282.39Z"/><path class="cls-18" d="M3139.41,309.05h11.06v10.66h-11.06Z"/><path class="cls-18" d="M3139.41,367.7h11.06v10.66h-11.06Z"/><path class="cls-18" d="M3139.41,415.68h11.06v10.66h-11.06Z"/><path class="cls-18" d="M2968,239.74h-22.12a5.44,5.44,0,0,0-5.53,5.33V266.4a5.44,5.44,0,0,0,5.53,5.33H2968a5.44,5.44,0,0,0,5.53-5.33V245.07A5.44,5.44,0,0,0,2968,239.74Zm-5.53,21.33h-11.06V250.41h11.06Z"/><path class="cls-18" d="M3012.24,239.74h-22.12a5.43,5.43,0,0,0-5.52,5.33V266.4a5.43,5.43,0,0,0,5.52,5.33h22.12a5.43,5.43,0,0,0,5.53-5.33V245.07A5.43,5.43,0,0,0,3012.24,239.74Zm-5.53,21.33h-11.06V250.41h11.06Z"/><path class="cls-18" d="M2968,154.44h-22.12a5.44,5.44,0,0,0-5.53,5.33V181.1a5.44,5.44,0,0,0,5.53,5.33H2968a5.44,5.44,0,0,0,5.53-5.33V159.77A5.44,5.44,0,0,0,2968,154.44Zm-5.53,21.33h-11.06V165.1h11.06Z"/><path class="cls-18" d="M3012.24,154.44h-22.12a5.43,5.43,0,0,0-5.52,5.33V181.1a5.43,5.43,0,0,0,5.52,5.33h22.12a5.43,5.43,0,0,0,5.53-5.33V159.77A5.43,5.43,0,0,0,3012.24,154.44Zm-5.53,21.33h-11.06V165.1h11.06Z"/><path class="cls-18" d="M3028.83,154.44h77.41V165.1h-77.41Z"/><path class="cls-18" d="M3117.3,154.44h11.06V165.1H3117.3Z"/><path class="cls-18" d="M3028.83,175.77h77.41v10.66h-77.41Z"/><path class="cls-18" d="M3117.3,175.77h11.06v10.66H3117.3Z"/><path class="cls-18" d="M2968,325.05h-22.12a5.43,5.43,0,0,0-5.53,5.33V351.7a5.43,5.43,0,0,0,5.53,5.33H2968a5.43,5.43,0,0,0,5.53-5.33V330.38A5.43,5.43,0,0,0,2968,325.05Zm-5.53,21.32h-11.06V335.71h11.06Z"/><path class="cls-18" d="M3012.24,325.05h-22.12a5.42,5.42,0,0,0-5.52,5.33V351.7a5.42,5.42,0,0,0,5.52,5.33h22.12a5.42,5.42,0,0,0,5.53-5.33V330.38A5.42,5.42,0,0,0,3012.24,325.05Zm-5.53,21.32h-11.06V335.71h11.06Z"/></g></g><path class="cls-18" d="M3762.07,437.22H3510.65a37,37,0,0,1-36.93-36.92V187.13a37,37,0,0,1,36.93-36.93h251.42A37,37,0,0,1,3799,187.13V400.3A37,37,0,0,1,3762.07,437.22Zm-251.42-276a26,26,0,0,0-25.93,25.93V400.3a26,26,0,0,0,25.93,25.92h251.42A26,26,0,0,0,3788,400.3V187.13a26,26,0,0,0-25.93-25.93Z"/><path class="cls-18" d="M3749.36,353.25h-86.42a5.5,5.5,0,1,1,0-11h86.42a5.5,5.5,0,1,1,0,11Z"/><path class="cls-18" d="M3749.36,393h-86.42a5.5,5.5,0,0,1,0-11h86.42a5.5,5.5,0,0,1,0,11Z"/><path class="cls-18" d="M3749.36,273.73h-86.42a5.5,5.5,0,0,1,0-11h86.42a5.5,5.5,0,0,1,0,11Z"/><path class="cls-18" d="M3749.36,313.49h-86.42a5.5,5.5,0,0,1,0-11h86.42a5.5,5.5,0,0,1,0,11Z"/><path class="cls-18" d="M3793.5,223.85H3479.22a5.5,5.5,0,0,1,0-11H3793.5a5.5,5.5,0,0,1,0,11Z"/><path class="cls-18" d="M3553,204.25a17.12,17.12,0,1,1,17.11-17.12A17.14,17.14,0,0,1,3553,204.25Zm0-23.23a6.12,6.12,0,1,0,6.11,6.11A6.12,6.12,0,0,0,3553,181Z"/><path class="cls-18" d="M3513.38,204.25a17.12,17.12,0,1,1,17.12-17.12A17.14,17.14,0,0,1,3513.38,204.25Zm0-23.23a6.12,6.12,0,1,0,6.12,6.11A6.12,6.12,0,0,0,3513.38,181Z"/><path class="cls-18" d="M3592.63,204.25a17.12,17.12,0,1,1,17.12-17.12A17.14,17.14,0,0,1,3592.63,204.25Zm0-23.23a6.12,6.12,0,1,0,6.12,6.11A6.12,6.12,0,0,0,3592.63,181Z"/><path class="cls-18" d="M3621.43,393h-99.78a5.5,5.5,0,0,1-5.5-5.5V268.23a5.5,5.5,0,0,1,5.5-5.5h99.78a5.5,5.5,0,0,1,5.5,5.5V387.52A5.5,5.5,0,0,1,3621.43,393Zm-94.28-11h88.78V273.73h-88.78Z"/><path class="cls-19" d="M523.57,1631,394,1714.52V1895H653.16V1714.52Z"/><path class="cls-20" d="M523.57,1631l-28.86,18.61L614,1726.5V1895h39.14V1714.52Z"/><path class="cls-21" d="M374.72,1721.39a12,12,0,0,0,18.56,10.12L519.76,1650a7,7,0,0,1,7.62,0l126.48,81.55a12,12,0,1,0,13-20.24l-139.53-90a7,7,0,0,0-7.62,0l-139.53,90a12,12,0,0,0-5.51,10.12Z"/><path class="cls-22" d="M525.73,1700.4a2.68,2.68,0,0,0-4.18,0c-9.13,12.47-43.06,64.78,2,98.62h.15c45.08-33.84,11.14-86.15,2-98.62Z"/><path class="cls-23" d="M623.21,1892c-24.71-20.26-60.2-33-99.64-33s-74.93,12.71-99.63,33Z"/><path class="cls-24" d="M661.56,1906h-276a10.87,10.87,0,0,1,0-21.73h276a10.87,10.87,0,1,1,0,21.73Z"/><path class="cls-25" d="M661.56,1884.23h-28v10.86A10.87,10.87,0,0,1,622.72,1906h38.84a10.87,10.87,0,1,0,0-21.73Z"/><path class="cls-26" d="M537.47,1825.35c-.36,1.26,1.14,2.47,2.88,2.65,65.49,6.83,80.86-42.49,77.51-48.26C615.1,1775,553.52,1768.73,537.47,1825.35Z"/><path class="cls-26" d="M509.68,1825.35c.35,1.26-1.15,2.47-2.89,2.65-65.48,6.83-80.86-42.49-77.51-48.26C432,1775,493.62,1768.73,509.68,1825.35Z"/><path d="M661.56,1879.73h-3.91v-142c17.63,3,26.72-20.55,11.7-30.24l-29.2-18.82a4.49,4.49,0,0,0-4.87,7.55l29.2,18.83c8.22,5.3.33,18.17-8.18,12.68l-126.48-81.55a11.53,11.53,0,0,0-12.49,0l-126.48,81.56c-8.33,5.36-16.56-7.29-8.18-12.69l139.53-90a2.54,2.54,0,0,1,2.75,0l92.68,59.76a4.5,4.5,0,0,0,4.87-7.56l-92.68-59.76a11.57,11.57,0,0,0-12.49,0l-139.53,90c-15,9.69-5.92,33.25,11.7,30.23v105.54a4.49,4.49,0,1,0,9,0V1733.5l123.72-79.77a2.54,2.54,0,0,1,2.75,0l123.71,79.77v146.23H614c-24-15.47-54.15-24.32-85.59-25.14.66-5.35,2.91-14.76,10.49-22.29a6.65,6.65,0,0,0,1,.17c65.89,6.86,87.87-43.35,82-54.74a1.19,1.19,0,0,0-.08-.16l0-.08c-1-1.65-3.08-3.68-11-4.7a72.77,72.77,0,0,0-17.85.14c-28.36,3.56-51.07,20.73-59.71,51.2h0a6.33,6.33,0,0,0-.21,1.43,43.34,43.34,0,0,0-4.81,5.5v-29.78c34.22-27.22,26.23-69.37,1.23-103.53a7.16,7.16,0,0,0-11.43,0c-25,34.14-33,76.27,1.22,103.53v29.31a39.93,39.93,0,0,0-4.93-5.22,5.85,5.85,0,0,0-.21-1.24h0c-4.66-16.42-13.35-29.31-25.84-38.3-15.31-11-35.86-15.09-51.71-13-7.91,1-10.06,3-11,4.65v0h0c-5.57,9.59,12,55.66,69.34,55.66,2.66,0,11.12-.26,13.7-.88,8.13,7.31,10.16,16.93,10.62,22.32-31.55.77-61.84,9.62-85.89,25.15H398.48v-15.36a4.49,4.49,0,0,0-9,0v15.36h-3.92a15.36,15.36,0,1,0,0,30.72h276a15.36,15.36,0,0,0,0-30.72Zm-112.71-55.64c24.13-18.36,51.74-31.74,64.11-37.32C606.88,1806.89,584.81,1825.33,548.85,1824.09Zm54.53-42.83c-13.7,6.45-36.25,18.09-57.18,33.58C557.32,1791.75,580.32,1781,603.38,1781.26Zm-101.94,34.63c-22-15.26-45.29-27.78-58.78-34.61C466.23,1780.63,490.26,1791.59,501.44,1815.89Zm-67.13-28.74c12.23,6,38.73,19.8,63.21,37C462.36,1825.06,440.58,1807.06,434.31,1787.15Zm93.81,2.09v-77.07C543.78,1738.29,549.41,1767.64,528.12,1789.24Zm-9-77v77C497.86,1767.62,503.5,1738.28,519.14,1712.19Zm76.65,167.54H451.36C495.07,1858.11,552,1858.07,595.79,1879.73Zm65.77,21.73h-276a6.37,6.37,0,0,1,0-12.74h276a6.37,6.37,0,1,1,0,12.74Z"/><path class="cls-27" d="M3988.73,1982.37H3811.17a13.66,13.66,0,0,1-13.66-13.66h0a13.66,13.66,0,0,1,13.66-13.66h177.56a13.65,13.65,0,0,1,13.66,13.66h0A13.65,13.65,0,0,1,3988.73,1982.37Z"/><path class="cls-28" d="M3934.1,1900.42v-13.66h-68.29v13.66c0,30.2-10.78,54.63-41,54.63h150.24C3944.88,1955.05,3934.1,1930.62,3934.1,1900.42Z"/><path class="cls-27" d="M4077.51,1900.42H3722.4a20.49,20.49,0,0,1-20.49-20.5v-41H4098v41A20.5,20.5,0,0,1,4077.51,1900.42Z"/><path class="cls-28" d="M3920.44,1879.93h-41a6.83,6.83,0,1,1,0-13.66h41a6.83,6.83,0,0,1,0,13.66Z"/><path class="cls-29" d="M4043.37,1599.93h-321a20.49,20.49,0,0,0-20.49,20.5v225.35H4098V1620.43a20.5,20.5,0,0,0-20.49-20.5Z"/><rect class="cls-30" x="3886.29" y="1627.25" width="184.39" height="207.63"/><rect class="cls-31" x="3729.22" y="1627.25" width="170.73" height="207.63"/><path class="cls-32" d="M3805.34,1812.34a6.33,6.33,0,0,1-5.66-9.16l19-38a6.33,6.33,0,1,1,11.32,5.67l-19,38A6.32,6.32,0,0,1,3805.34,1812.34Z"/><path class="cls-32" d="M3761,1793.34a6.33,6.33,0,0,1-4.47-10.8l19-19a6.33,6.33,0,0,1,8.95,9l-19,19A6.31,6.31,0,0,1,3761,1793.34Z"/><path class="cls-32" d="M3780,1812.34a6.3,6.3,0,0,1-4.48-1.86l-19-19a6.33,6.33,0,1,1,9-9l19,19a6.34,6.34,0,0,1-4.47,10.81Z"/><path class="cls-32" d="M3868.66,1793.34a6.35,6.35,0,0,1-4.48-1.85l-19-19a6.33,6.33,0,0,1,8.95-9l19,19a6.33,6.33,0,0,1-4.47,10.8Z"/><path class="cls-32" d="M3849.66,1812.34a6.34,6.34,0,0,1-4.47-10.81l19-19a6.33,6.33,0,0,1,9,9l-19,19A6.28,6.28,0,0,1,3849.66,1812.34Z"/><path class="cls-32" d="M3818,1704.71a6.33,6.33,0,0,1-6.33-6.33v-44.31a6.33,6.33,0,1,1,12.66,0v44.31A6.32,6.32,0,0,1,3818,1704.71Z"/><path class="cls-32" d="M3818,1742.7a6.34,6.34,0,0,1-6.33-6.33v-12.66a6.33,6.33,0,1,1,12.66,0v12.66A6.33,6.33,0,0,1,3818,1742.7Z"/><path class="cls-33" d="M3995.56,1661.4h-68.29a6.83,6.83,0,1,1,0-13.66h68.29a6.83,6.83,0,0,1,0,13.66Z"/><path class="cls-34" d="M4043.37,1661.4h-20.49a6.83,6.83,0,1,1,0-13.66h20.49a6.83,6.83,0,0,1,0,13.66Z"/><path class="cls-35" d="M4043.37,1688.71h-68.3a6.83,6.83,0,0,1,0-13.66h68.3a6.83,6.83,0,0,1,0,13.66Z"/><path class="cls-36" d="M3947.76,1688.71h-20.49a6.83,6.83,0,1,1,0-13.66h20.49a6.83,6.83,0,0,1,0,13.66Z"/><path class="cls-37" d="M3995.56,1716h-68.29a6.83,6.83,0,1,1,0-13.66h68.29a6.83,6.83,0,0,1,0,13.66Z"/><path class="cls-38" d="M4043.37,1716h-20.49a6.83,6.83,0,1,1,0-13.66h20.49a6.83,6.83,0,0,1,0,13.66Z"/><path class="cls-39" d="M4043.37,1743.35h-68.3a6.83,6.83,0,0,1,0-13.66h68.3a6.83,6.83,0,0,1,0,13.66Z"/><path class="cls-40" d="M3947.76,1743.35h-20.49a6.83,6.83,0,0,1,0-13.66h20.49a6.83,6.83,0,0,1,0,13.66Z"/><path class="cls-37" d="M4043.37,1825.3h-68.3a6.83,6.83,0,0,1,0-13.66h68.3a6.83,6.83,0,0,1,0,13.66Z"/><path class="cls-33" d="M3947.76,1825.3h-20.49a6.83,6.83,0,0,1,0-13.66h20.49a6.83,6.83,0,0,1,0,13.66Z"/><path class="cls-35" d="M3995.56,1770.66h-68.29a6.83,6.83,0,1,1,0-13.66h68.29a6.83,6.83,0,0,1,0,13.66Z"/><path class="cls-31" d="M4043.37,1770.66h-20.49a6.83,6.83,0,1,1,0-13.66h20.49a6.83,6.83,0,0,1,0,13.66Z"/><path class="cls-41" d="M4043.37,1798h-68.3a6.83,6.83,0,0,1,0-13.66h68.3a6.83,6.83,0,0,1,0,13.66Z"/><path class="cls-42" d="M3947.76,1798h-20.49a6.83,6.83,0,1,1,0-13.66h20.49a6.83,6.83,0,0,1,0,13.66Z"/><path class="cls-5" d="M2639.56,1660.08a58.28,58.28,0,1,0,58.28,58.28A58.28,58.28,0,0,0,2639.56,1660.08Zm0,105.63a47.35,47.35,0,1,1,47.35-47.35A47.35,47.35,0,0,1,2639.56,1765.71Zm0-80.07c-4.17,0-7.33,2.18-7.33,5.69v32.27c0,3.53,3.16,5.7,7.33,5.7s7.34-2.26,7.34-5.7v-32.27C2646.9,1687.9,2643.64,1685.64,2639.56,1685.64Zm0,50.93a7.27,7.27,0,1,0,7.27,7.27A7.28,7.28,0,0,0,2639.56,1736.57Z"/><text class="cls-43" transform="translate(379.71 409.55)">HLD</text><path class="cls-5" d="M1183.09,1070.09h-12.91l27.36-63.84a5.06,5.06,0,1,0-9.31-4l-29.07,67.83h-94.61l-29.07-67.83a5.06,5.06,0,0,0-9.31,4l27.36,63.84h-12.91a15.21,15.21,0,0,0-15.19,15.19v30.39a15.2,15.2,0,0,0,15.19,15.19h5.4v5.41a5.07,5.07,0,0,0,10.13,0v-5.41h111.41v5.41a5.07,5.07,0,0,0,10.13,0v-5.41h5.4a15.21,15.21,0,0,0,15.2-15.19v-30.39A15.22,15.22,0,0,0,1183.09,1070.09Zm5.07,45.58a5.07,5.07,0,0,1-5.07,5.06H1040.62a5.07,5.07,0,0,1-5.07-5.06v-30.39a5.07,5.07,0,0,1,5.07-5.06h142.47a5.07,5.07,0,0,1,5.07,5.06Z"/><path class="cls-5" d="M1101.13,1044.16a5.07,5.07,0,0,0,7.17,7.16,5,5,0,0,1,7.12,0,5.06,5.06,0,0,0,7.16-7.16,15.15,15.15,0,0,0-21.45,0Z"/><path class="cls-5" d="M1065.3,1008.37a65.78,65.78,0,0,1,93.11,0,5.07,5.07,0,0,0,7.17-7.16,75.9,75.9,0,0,0-107.44,0,5.06,5.06,0,0,0,7.16,7.16Z"/><path class="cls-5" d="M1151.24,1022.69a5.07,5.07,0,0,0,0-7.16,55.65,55.65,0,0,0-78.78,0,5.06,5.06,0,0,0,7.16,7.16,45.52,45.52,0,0,1,64.45,0A5.07,5.07,0,0,0,1151.24,1022.69Z"/><path class="cls-5" d="M1136.91,1037a5.06,5.06,0,0,0,0-7.16,35.4,35.4,0,0,0-50.11,0A5.06,5.06,0,0,0,1094,1037a25.29,25.29,0,0,1,35.79,0A5.06,5.06,0,0,0,1136.91,1037Z"/><path class="cls-5" d="M1132.11,1090.35a5.07,5.07,0,0,0-5.06,5.06v10.13a5.07,5.07,0,1,0,10.13,0v-10.13A5.07,5.07,0,0,0,1132.11,1090.35Z"/><path class="cls-5" d="M1152.37,1090.35a5.06,5.06,0,0,0-5.06,5.06v10.13a5.07,5.07,0,1,0,10.13,0v-10.13A5.07,5.07,0,0,0,1152.37,1090.35Z"/><path class="cls-5" d="M1172.63,1090.35a5.07,5.07,0,0,0-5.07,5.06v10.13a5.07,5.07,0,1,0,10.13,0v-10.13A5.06,5.06,0,0,0,1172.63,1090.35Z"/><path class="cls-5" d="M2819.09,1070.09h-12.91l27.36-63.84a5.06,5.06,0,1,0-9.31-4l-29.07,67.83h-94.61l-29.07-67.83a5.06,5.06,0,0,0-9.31,4l27.36,63.84h-12.91a15.21,15.21,0,0,0-15.19,15.19v30.39a15.2,15.2,0,0,0,15.19,15.19h5.4v5.41a5.07,5.07,0,0,0,10.13,0v-5.41h111.41v5.41a5.07,5.07,0,0,0,10.13,0v-5.41h5.4a15.21,15.21,0,0,0,15.2-15.19v-30.39A15.22,15.22,0,0,0,2819.09,1070.09Zm5.07,45.58a5.07,5.07,0,0,1-5.07,5.06H2676.62a5.07,5.07,0,0,1-5.07-5.06v-30.39a5.07,5.07,0,0,1,5.07-5.06h142.47a5.07,5.07,0,0,1,5.07,5.06Z"/><path class="cls-5" d="M2737.13,1044.16a5.07,5.07,0,0,0,7.17,7.16,5,5,0,0,1,7.12,0,5.06,5.06,0,0,0,7.16-7.16,15.15,15.15,0,0,0-21.45,0Z"/><path class="cls-5" d="M2701.3,1008.37a65.78,65.78,0,0,1,93.11,0,5.07,5.07,0,0,0,7.17-7.16,75.9,75.9,0,0,0-107.44,0,5.06,5.06,0,0,0,7.16,7.16Z"/><path class="cls-5" d="M2787.24,1022.69a5.07,5.07,0,0,0,0-7.16,55.65,55.65,0,0,0-78.78,0,5.06,5.06,0,0,0,7.16,7.16,45.52,45.52,0,0,1,64.45,0A5.07,5.07,0,0,0,2787.24,1022.69Z"/><path class="cls-5" d="M2772.91,1037a5.06,5.06,0,0,0,0-7.16,35.4,35.4,0,0,0-50.11,0A5.06,5.06,0,1,0,2730,1037a25.29,25.29,0,0,1,35.79,0A5.06,5.06,0,0,0,2772.91,1037Z"/><path class="cls-5" d="M2768.11,1090.35a5.07,5.07,0,0,0-5.06,5.06v10.13a5.07,5.07,0,1,0,10.13,0v-10.13A5.07,5.07,0,0,0,2768.11,1090.35Z"/><path class="cls-5" d="M2788.37,1090.35a5.06,5.06,0,0,0-5.06,5.06v10.13a5.07,5.07,0,1,0,10.13,0v-10.13A5.07,5.07,0,0,0,2788.37,1090.35Z"/><path class="cls-5" d="M2808.63,1090.35a5.07,5.07,0,0,0-5.07,5.06v10.13a5.07,5.07,0,1,0,10.13,0v-10.13A5.06,5.06,0,0,0,2808.63,1090.35Z"/><path class="cls-44" d="M1689,1948.81a96.52,96.52,0,0,1-96.47-96.35,95.4,95.4,0,0,1,19.6-58.17,96.53,96.53,0,0,1,19.9-19.5,11.43,11.43,0,0,0,4.59-9.22V1626.41c0-28.64,22.69-52.62,51.37-53.17a52.41,52.41,0,0,1,53.39,52.31v140a11.38,11.38,0,0,0,4.6,9.21,97,97,0,0,1,19.89,19.51,95.4,95.4,0,0,1,19.6,58.17,96.52,96.52,0,0,1-96.47,96.35Z"/><path class="cls-45" d="M1765.9,1794.29a97,97,0,0,0-19.89-19.51,11.38,11.38,0,0,1-4.6-9.22v-140a52.41,52.41,0,0,0-53.39-52.3,51.25,51.25,0,0,0-21.32,5.09,52.36,52.36,0,0,1,29.86,47.21v226.92h44.09a96.51,96.51,0,0,1-74,93.69,96.31,96.31,0,0,0,99.29-151.86Z"/><path class="cls-46" d="M1706.49,1793.51V1692.72a17.46,17.46,0,0,0-34.92,0v100.79a61.55,61.55,0,1,0,34.92,0Z"/><path class="cls-47" d="M1763.61,2034.59H1614.45l17.42-33.77a29.06,29.06,0,0,1,25.84-15.73h62.65a29.06,29.06,0,0,1,25.83,15.73Z"/><path class="cls-48" d="M1746.19,2000.82a29.06,29.06,0,0,0-25.84-15.73h-44.84a29.06,29.06,0,0,1,25.83,15.73l17.42,33.77h44.85Z"/><path class="cls-5" d="M1780,2026.18h-13.23L1751.75,1997a37.28,37.28,0,0,0-33.29-20.29h-62.6a37.3,37.3,0,0,0-33.29,20.29l-15.06,29.21h-13.23c-11.13.39-11.12,16.44,0,16.82h90.21c11.13-.39,11.13-16.44,0-16.82h-58.06l11.09-21.51a20.55,20.55,0,0,1,18.34-11.17h62.6a20.55,20.55,0,0,1,18.34,11.17l11.09,21.51H1731c-11.14.39-11.13,16.44,0,16.82h49c11.14-.39,11.13-16.44,0-16.82Z"/><path class="cls-5" d="M1548.58,1537.14h-76.71a8.41,8.41,0,0,0-8.41,8.41v76.7c.39,11.14,16.44,11.13,16.82,0V1554h68.3c11.13-.39,11.12-16.44,0-16.82Z"/><path class="cls-5" d="M1902.45,1537.14h-76.7c-11.14.38-11.13,16.44,0,16.82H1894v68.29c.39,11.14,16.44,11.13,16.82,0v-76.7a8.4,8.4,0,0,0-8.41-8.41Z"/><path class="cls-5" d="M1902.45,1891.38a8.41,8.41,0,0,0-8.41,8.41v68.29h-68.29c-11.14.39-11.13,16.44,0,16.82h76.7a8.4,8.4,0,0,0,8.41-8.41v-76.7A8.4,8.4,0,0,0,1902.45,1891.38Z"/><path class="cls-5" d="M1548.58,1968.08h-68.3v-68.29c-.38-11.14-16.43-11.13-16.82,0v76.7a8.41,8.41,0,0,0,8.41,8.41h76.71c11.13-.38,11.12-16.43,0-16.82Z"/><path class="cls-5" d="M1751,1768a3,3,0,0,1-1.16-2.43v-140c0-33.26-28.64-61.34-62-60.71-32.87.63-59.62,28.25-59.62,61.58v16.31c0,10.88,16.82,10.88,16.82,0v-16.31c0-24.23,19.34-44.31,43.12-44.76,24.26-.48,44.82,19.62,44.82,43.9v140a19.88,19.88,0,0,0,8,16c67.9,50.75,33,158.16-52,158.83-85-.65-119.94-108.13-52-158.83a19.84,19.84,0,0,0,8-16v-78c0-10.87-16.82-10.87-16.82,0v78a3,3,0,0,1-1.15,2.43c-81,60.26-39.23,188.51,61.94,189.22,101.19-.72,142.94-129,62-189.22Z"/><path class="cls-5" d="M1689,1666.87a25.89,25.89,0,0,0-25.87,25.85v94.82c-70.77,29.57-51.16,133.52,25.87,134.8,77-1.29,96.63-105.24,25.87-134.8v-94.82a25.89,25.89,0,0,0-25.87-25.85Zm53.14,185.59a53.16,53.16,0,0,1-53.14,53.06c-61.28-1.41-73.27-85.19-15.07-103.94a8.42,8.42,0,0,0,6-8.07V1692.72c.46-12,17.65-12,18.1,0v100.79a8.42,8.42,0,0,0,6,8.07,53.39,53.39,0,0,1,38.07,50.88Z"/><path class="cls-5" d="M1650.07,1532.84a8.41,8.41,0,1,0,11.88,11.9,38.4,38.4,0,0,1,54.16,0q5.94,4.92,11.89,0a8.41,8.41,0,0,0,0-11.89,55.22,55.22,0,0,0-77.92,0Z"/><path class="cls-5" d="M1631.33,1509.63a81.79,81.79,0,0,1,115.4,0q6,4.92,11.89,0a8.4,8.4,0,0,0,0-11.89,98.62,98.62,0,0,0-139.16,0,8.41,8.41,0,0,0,11.88,11.9Z"/><path class="cls-5" d="M4086.92,1070.07H4074.1l27.16-63.69a5,5,0,1,0-9.24-4l-28.86,67.67h-93.9l-28.85-67.67a5,5,0,1,0-9.24,4l27.15,63.69h-12.81a15.13,15.13,0,0,0-15.08,15.15v30.32a15.13,15.13,0,0,0,15.08,15.15h5.36v5.39a5,5,0,1,0,10.05,0v-5.39h110.59v5.39a5,5,0,1,0,10,0v-5.39h5.36a15.13,15.13,0,0,0,15.08-15.15v-30.32A15.13,15.13,0,0,0,4086.92,1070.07Zm5,45.47a5.05,5.05,0,0,1-5,5H3945.51a5,5,0,0,1-5-5v-30.32a5,5,0,0,1,5-5h141.41a5.05,5.05,0,0,1,5,5Z"/><path class="cls-5" d="M4005.57,1044.2a5.07,5.07,0,0,0,0,7.14,5,5,0,0,0,7.11,0,5,5,0,0,1,7.07,0,5,5,0,0,0,7.11,0,5.07,5.07,0,0,0,0-7.14,15,15,0,0,0-21.29,0Z"/><path class="cls-5" d="M3970,1008.5a65.07,65.07,0,0,1,92.42,0,5,5,0,0,0,7.11,0,5.07,5.07,0,0,0,0-7.15,75.08,75.08,0,0,0-106.64,0,5.08,5.08,0,0,0,0,7.15A5,5,0,0,0,3970,1008.5Z"/><path class="cls-5" d="M4055.3,1022.78a5.06,5.06,0,0,0,0-7.14,55,55,0,0,0-78.19,0,5.07,5.07,0,0,0,0,7.14,5,5,0,0,0,7.11,0,45,45,0,0,1,64,0A5,5,0,0,0,4055.3,1022.78Z"/><path class="cls-5" d="M4041.08,1037.06a5.05,5.05,0,0,0,0-7.14,35,35,0,0,0-49.74,0,5.07,5.07,0,0,0,0,7.14,5,5,0,0,0,7.11,0,25,25,0,0,1,35.53,0A5,5,0,0,0,4041.08,1037.06Z"/><path class="cls-5" d="M4036.32,1090.28a5,5,0,0,0-5,5v10.1a5,5,0,1,0,10.06,0v-10.1A5,5,0,0,0,4036.32,1090.28Z"/><path class="cls-5" d="M4056.43,1090.28a5,5,0,0,0-5,5v10.1a5,5,0,1,0,10,0v-10.1A5,5,0,0,0,4056.43,1090.28Z"/><path class="cls-5" d="M4076.53,1090.28a5,5,0,0,0-5,5v10.1a5,5,0,1,0,10,0v-10.1A5,5,0,0,0,4076.53,1090.28Z"/><path class="cls-4" d="M2854,1903.29a1.34,1.34,0,0,1,0-.2,6.17,6.17,0,0,0-.12-.75.14.14,0,0,0,0-.07c0-.23-.11-.45-.18-.67a1.22,1.22,0,0,0-.07-.17,5.72,5.72,0,0,0-.24-.57.42.42,0,0,1,0-.1l-34.63-68.3V1607.74a12.55,12.55,0,0,0-12.54-12.54H2459.86a12.55,12.55,0,0,0-12.53,12.54v224.71l-34.63,68.31a.42.42,0,0,0,0,.1c-.09.18-.17.37-.25.57l-.06.17c-.07.22-.14.44-.19.67a.25.25,0,0,1,0,.07,5.88,5.88,0,0,0-.11.75,1.21,1.21,0,0,0,0,.19c0,.14,0,.27,0,.41v16.42a14.91,14.91,0,0,0,14.89,14.89h412.24a14.91,14.91,0,0,0,14.89-14.89v-16.42C2854,1903.55,2854,1903.42,2854,1903.29Zm-393.72-295.14h345.46v219.38H2460.28Zm-2.5,232.33h350.46l28.76,56.73H2694.74l-7.14-25.89a12.21,12.21,0,0,0-11.75-9h-85.68a12.24,12.24,0,0,0-11.76,9l-7.14,25.89H2429Zm223.53,56.73h-96.6l6-21.89h84.52Zm159.76,22.9a1.94,1.94,0,0,1-1.94,1.94H2426.89a1.94,1.94,0,0,1-1.94-1.94v-9.95h416.12Z"/><path class="cls-4" d="M2785.45,1728.63a6.47,6.47,0,0,0-6.47,6.48v65.65H2487v-65.65a6.48,6.48,0,1,0-12.95,0v68.45a10.17,10.17,0,0,0,10.16,10.15h297.52a10.17,10.17,0,0,0,10.16-10.15v-68.45A6.48,6.48,0,0,0,2785.45,1728.63Z"/><path class="cls-4" d="M2781.77,1622H2484.31a10.16,10.16,0,0,0-10.15,10.15v68.45a6.48,6.48,0,0,0,13,0v-65.65H2779v65.65a6.48,6.48,0,0,0,12.95,0v-68.45A10.17,10.17,0,0,0,2781.77,1622Z"/><path class="cls-49" d="M3166.89,1881.84h0l-3.63-4.76,1.47-4.76a107.06,107.06,0,0,0-7.28-19.21l-6.2-3.82,1.31-5c-10.36-16.65-21.85-24.48-21.85-24.48h-92.07s-11.48,7.83-21.84,24.48l0,5.74-4.84,3a106.87,106.87,0,0,0-7.3,19.22l2.26,6.61-4.41,2.91a122.43,122.43,0,0,0-1.95,22h37.23l4.07-3.21,5.62,3.21h32.39l4.85-3.21,4.84,3.21h32.39l5.63-3.21,4.06,3.21h37.24a122.35,122.35,0,0,0-2-22Z"/><path class="cls-50" d="M3021,1877.62c0-23.2,11.43-46.6,27.94-57.78h-10.34s-11.48,7.83-21.84,24.48l0,5.74-4.84,3a106.13,106.13,0,0,0-7.3,19.22l2.26,6.61-4.42,2.91a123.39,123.39,0,0,0-1.94,22h22.61C3021.44,1896,3021,1887.06,3021,1877.62Z"/><path class="cls-51" d="M2949.68,1717.84c0-74.44,60.56-135,135-135s135,60.56,135,135Z"/><circle class="cls-52" cx="3196.56" cy="1724.45" r="31.59"/><path class="cls-53" d="M2991.7,1707c0-47.57,20.39-90,52.3-117.91-54.62,17.3-94.32,68.47-94.32,128.73h42.38C2991.83,1714.27,2991.7,1710.66,2991.7,1707Z"/><path class="cls-54" d="M3193.8,1693.07a26.58,26.58,0,0,0-16.27-18.91c-26.61-10.42-44.17-36.32-44.17-36.32-23.34,39.54-75.73,40.49-75.73,40.49,15.72-15.72,6.19-40.49,6.19-40.49-18.15,20.91-45.69,29-65.72,32a26.36,26.36,0,0,0-21.57,19.22,112.19,112.19,0,0,0-3.73,29.51c.39,61,50.14,110.72,111.09,111.14a111.95,111.95,0,0,0,109.91-136.65Z"/><path class="cls-52" d="M3038.14,1819.53c-28.53-27.81-46.44-67.92-46.44-112.51a162.37,162.37,0,0,1,4.18-36.73,26.33,26.33,0,0,0-19.35,18.78q-.51,2-1,3.93a26.16,26.16,0,0,0-2.77-.15,31.6,31.6,0,0,0,0,63.19,19.29,19.29,0,0,0,6.42-.93,112.86,112.86,0,0,0,58.92,64.42Z"/><ellipse class="cls-55" cx="3016.76" cy="1739.76" rx="25.06" ry="19.96"/><ellipse class="cls-55" cx="3152.6" cy="1739.76" rx="25.06" ry="19.96"/><path d="M3026.52,1710.31v10.24a4.84,4.84,0,1,0,9.68,0v-10.24a4.84,4.84,0,1,0-9.68,0Z"/><path d="M3138,1705.46a4.85,4.85,0,0,0-4.85,4.85v10.24a4.85,4.85,0,1,0,9.69,0v-10.24A4.85,4.85,0,0,0,3138,1705.46Z"/><path d="M3095.08,1717.06a13.78,13.78,0,0,1-20.81,0,4.84,4.84,0,1,0-7.3,6.36,23.46,23.46,0,0,0,35.41,0,4.84,4.84,0,0,0-7.3-6.37Z"/><path class="cls-4" d="M3177.88,1613.67a139.58,139.58,0,0,0-169.83-12.75,4.84,4.84,0,1,0,5.32,8.09,130.22,130.22,0,0,1,198.77,82.48,37.08,37.08,0,0,0-14.8-3.47,31.53,31.53,0,0,0-18.05-18.37c-16.1-6.31-32.79-21.24-41.92-34.52a4.85,4.85,0,0,0-8.18.25c-12.72,21.55-36.85,33.17-61.47,37,8-16.52,1-35.36.62-36.3a4.85,4.85,0,0,0-8.18-1.44c-15.55,17.91-39.53,26.83-62.8,30.39a31.21,31.21,0,0,0-25.56,23,36.76,36.76,0,0,0-14.59,3.48,130.11,130.11,0,0,1,41.2-71,4.85,4.85,0,1,0-6.43-7.25,139.68,139.68,0,0,0-46,86.54,36.42,36.42,0,0,0,30.16,61,118.08,118.08,0,0,0,53.72,60.07c-20.22,18.59-34.22,48-34.22,83.06a4.85,4.85,0,0,0,4.85,4.84h168.31a4.85,4.85,0,0,0,4.85-4.84c0-34.73-13.77-64.19-34.12-83a117.34,117.34,0,0,0,24.65-17.61,4.85,4.85,0,0,0-6.61-7.09,106.7,106.7,0,0,1-79.11,28.52c-66.72-3.85-114.76-68.49-97.28-134.39a21.52,21.52,0,0,1,17.62-15.67c22.67-3.47,45.61-11.71,62.4-27.19,1.2,7.62,1.22,19.21-7,27.46a4.84,4.84,0,0,0,3.51,8.26c7.19-.13,19.43-2.06,30.52-5.65,18-5.82,34.28-16,45.41-31.3,11,13.57,25.9,26.1,42.12,32.45a21.51,21.51,0,0,1,13.3,15.41,107,107,0,0,1-19,88.32,4.84,4.84,0,1,0,7.72,5.85,116.26,116.26,0,0,0,15.52-27.52c33.22,3,52.44-36.67,30-61a139.73,139.73,0,0,0-45.45-86.1Zm-56,214.83v15.82h-32.39v-9.86A116.32,116.32,0,0,0,3121.91,1828.5Zm37.82,43.82H3131.6V1854h20.88A100.14,100.14,0,0,1,3159.73,1872.32Zm-37.82,0h-32.39V1854h32.39Zm-105-18.31h20.88v18.31h-28.13a100.14,100.14,0,0,1,7.25-18.31Zm30.57,0h32.39v18.31h-32.39Zm0-25.56a114.77,114.77,0,0,0,32.39,6v9.86h-32.39Zm32.39,53.56v17h-32.39v-17Zm9.69,0h32.39v17h-32.39Zm-51.77-55.25v17.56h-15.18A89.36,89.36,0,0,1,3037.75,1826.76ZM3007.34,1882h30.41v17h-32.3A117,117,0,0,1,3007.34,1882Zm124.26,17v-17H3162a117,117,0,0,1,1.9,17Zm15.18-54.68H3131.6v-17.56A89.64,89.64,0,0,1,3146.78,1844.32Zm-173.94-93.13c-24.39,0-35.9-29.82-18.3-46.28a26.67,26.67,0,0,1,15.12-7A116.57,116.57,0,0,0,2972.84,1751.19Zm223.75,0a118,118,0,0,0,3.11-53.3,26.74,26.74,0,0,1-3.11,53.3Z"/><line class="cls-56" x1="3363.03" y1="608.37" x2="3363.03" y2="660.33"/><path class="cls-56" d="M3544.89,778.9,4011.46,777a4.4,4.4,0,0,1,4.42,4.36l5.62,179.12"/><path class="cls-56" d="M3136.76,778.9,2752.38,777a4.39,4.39,0,0,0-4.41,4.36L2747.5,960"/><path class="cls-56" d="M2760,777.5,1124.38,766a4.39,4.39,0,0,0-4.41,4.36L1119.5,925"/></g></g></svg>