<svg id="Camada_1" data-name="Camada 1" xmlns="http://www.w3.org/2000/svg" viewBox="0 0 1575.67 1005.93"><defs><style>.cls-1{fill:#f78484;}.cls-2{font-size:49.15px;}.cls-2,.cls-5{font-family:MyriadPro-Regular, Myriad Pro;}.cls-3{letter-spacing:0em;}.cls-4{letter-spacing:0em;}.cls-5{font-size:35px;}.cls-6{letter-spacing:-0.01em;}.cls-7{letter-spacing:-0.01em;}.cls-8{letter-spacing:-0.01em;}.cls-9{letter-spacing:0.01em;}.cls-10{letter-spacing:-0.01em;}.cls-11{letter-spacing:-0.02em;}.cls-12{letter-spacing:0.01em;}.cls-13{letter-spacing:0em;}.cls-14{letter-spacing:0em;}.cls-15{fill:#8ccaf9;}.cls-16{letter-spacing:0.01em;}.cls-17{fill:#8df78d;}.cls-18{letter-spacing:0em;}.cls-19{letter-spacing:-0.01em;}.cls-20{letter-spacing:0em;}.cls-21{letter-spacing:0em;}.cls-22{letter-spacing:0.02em;}.cls-23{letter-spacing:-0.02em;}.cls-24{letter-spacing:-0.01em;}.cls-25{letter-spacing:-0.01em;}.cls-26{letter-spacing:0em;}.cls-27{letter-spacing:0em;}.cls-28{letter-spacing:0.01em;}.cls-29{letter-spacing:0em;}.cls-30{letter-spacing:0.02em;}.cls-31{letter-spacing:0em;}</style></defs><title>SPRINTS</title><rect class="cls-1" x="10.42" y="470.43" width="487" height="113"/><path d="M633,526V638H147V526H633m1-1H146V639H634V525Z" transform="translate(-136.08 -55.07)"/><rect class="cls-1" x="10.42" y="602.43" width="487" height="113"/><path d="M633,658V770H147V658H633m1-1H146V771H634V657Z" transform="translate(-136.08 -55.07)"/><rect class="cls-1" x="10.42" y="747.43" width="487" height="113"/><path d="M633,803V915H147V803H633m1-1H146V916H634V802Z" transform="translate(-136.08 -55.07)"/><rect class="cls-1" x="10.42" y="892.43" width="487" height="113"/><path d="M633,948v112H147V948H633m1-1H146v114H634V947Z" transform="translate(-136.08 -55.07)"/><text class="cls-2" transform="translate(0 434.13) scale(1.07 1)">1. Sp<tspan class="cls-3" x="97.99" y="0">r</tspan><tspan x="114.26" y="0">i</tspan><tspan class="cls-4" x="125.76" y="0">n</tspan><tspan x="152.84" y="0">t</tspan></text><text class="cls-5" transform="translate(23.44 536.77) scale(1.07 1)">Simulador finan<tspan class="cls-6" x="230.89" y="0">c</tspan><tspan x="246.36" y="0">ei</tspan><tspan class="cls-7" x="272.09" y="0">r</tspan><tspan x="283.18" y="0">o</tspan></text><text class="cls-5" transform="translate(23.16 673.81) scale(1.07 1)">O<tspan class="cls-8" x="24.11" y="0">r</tspan><tspan x="35.28" y="0">ganização de </tspan><tspan class="cls-9" x="235.06" y="0">M</tspan><tspan x="263.41" y="0">e</tspan><tspan class="cls-10" x="280.94" y="0">t</tspan><tspan x="292.32" y="0">odolo</tspan><tspan class="cls-6" x="377.96" y="0">g</tspan><tspan x="397.31" y="0">ia</tspan></text><text class="cls-5" transform="translate(23.28 821.69) scale(1.07 1)"><tspan class="cls-11">P</tspan><tspan class="cls-7" x="18.06" y="0">r</tspan><tspan x="29.16" y="0">o</tspan><tspan class="cls-6" x="48.37" y="0">t</tspan><tspan x="59.75" y="0">ótipo si</tspan><tspan class="cls-6" x="167.33" y="0">t</tspan><tspan x="178.71" y="0">e</tspan></text><text class="cls-5" transform="translate(23.24 962.42) scale(1.07 1)"><tspan class="cls-12">S</tspan><tspan class="cls-13" x="17.46" y="0">c</tspan><tspan class="cls-14" x="33.14" y="0">r</tspan><tspan x="44.73" y="0">ipt do ban</tspan><tspan class="cls-6" x="194.42" y="0">c</tspan><tspan x="209.89" y="0">o</tspan></text><rect class="cls-15" x="546.42" y="338.43" width="487" height="113"/><path d="M1169,394V506H683V394h486m1-1H682V507h488V393Z" transform="translate(-136.08 -55.07)"/><rect class="cls-15" x="546.42" y="470.43" width="487" height="113"/><path d="M1169,526V638H683V526h486m1-1H682V639h488V525Z" transform="translate(-136.08 -55.07)"/><rect class="cls-15" x="546.42" y="615.43" width="487" height="113"/><path d="M1169,671V783H683V671h486m1-1H682V784h488V670Z" transform="translate(-136.08 -55.07)"/><rect class="cls-15" x="546.42" y="760.43" width="487" height="113"/><path d="M1169,816V928H683V816h486m1-1H682V929h488V815Z" transform="translate(-136.08 -55.07)"/><text class="cls-2" transform="translate(536 302.13) scale(1.07 1)">2. Sp<tspan class="cls-3" x="97.99" y="0">r</tspan><tspan x="114.26" y="0">i</tspan><tspan class="cls-4" x="125.76" y="0">n</tspan><tspan x="152.84" y="0">t</tspan></text><text class="cls-5" transform="translate(559.44 404.77) scale(1.07 1)">Si<tspan class="cls-6" x="25.44" y="0">t</tspan><tspan x="36.82" y="0">e </tspan><tspan class="cls-16" x="61.77" y="0">I</tspan><tspan x="70.49" y="0">nstitucional</tspan></text><text class="cls-5" transform="translate(559.16 541.81) scale(1.07 1)">Dashboa<tspan class="cls-7" x="129.46" y="0">r</tspan><tspan x="140.56" y="0">d </tspan></text><text class="cls-5" transform="translate(559.28 689.69) scale(1.07 1)"><tspan class="cls-9">M</tspan><tspan x="28.35" y="0">odelagem DEER</tspan></text><text class="cls-5" transform="translate(559.24 830.42) scale(1.07 1)">HLD e LLD</text><rect class="cls-17" x="1087.42" y="191.43" width="487" height="113"/><path d="M1710,247V359H1224V247h486m1-1H1223V360h488V246Z" transform="translate(-136.08 -55.07)"/><rect class="cls-15" x="546.42" y="892.43" width="487" height="113"/><path d="M1169,948v112H683V948h486m1-1H682v114h488V947Z" transform="translate(-136.08 -55.07)"/><rect class="cls-17" x="1087.42" y="81.43" width="487" height="91"/><path d="M1710,137v90H1224V137h486m1-1H1223v92h488V136Z" transform="translate(-136.08 -55.07)"/><rect class="cls-17" x="1087.42" y="323.43" width="487" height="113"/><path d="M1710,379V491H1224V379h486m1-1H1223V492h488V378Z" transform="translate(-136.08 -55.07)"/><rect class="cls-17" x="1087.42" y="468.43" width="487" height="113"/><path d="M1710,524V636H1224V524h486m1-1H1223V637h488V523Z" transform="translate(-136.08 -55.07)"/><rect class="cls-17" x="1087.42" y="613.43" width="487" height="113"/><path d="M1710,669V781H1224V669h486m1-1H1223V782h488V668Z" transform="translate(-136.08 -55.07)"/><rect class="cls-17" x="1087.42" y="758.43" width="487" height="113"/><path d="M1710,814V926H1224V814h486m1-1H1223V927h488V813Z" transform="translate(-136.08 -55.07)"/><rect class="cls-17" x="1087.42" y="892.43" width="487" height="113"/><path d="M1710,948v112H1224V948h486m1-1H1223v114h488V947Z" transform="translate(-136.08 -55.07)"/><text class="cls-2" transform="translate(1077 41.13) scale(1.07 1)">3. Sp<tspan class="cls-3" x="97.99" y="0">r</tspan><tspan x="114.26" y="0">i</tspan><tspan class="cls-4" x="125.76" y="0">n</tspan><tspan x="152.84" y="0">t</tspan></text><text class="cls-5" transform="translate(1100.44 257.77) scale(1.07 1)">Ban<tspan class="cls-6" x="55.26" y="0">c</tspan><tspan x="70.73" y="0">o de dados na nu</tspan><tspan class="cls-7" x="321.33" y="0">v</tspan><tspan x="337.82" y="0">em</tspan></text><text class="cls-5" transform="translate(1100.16 379.81) scale(1.07 1)">Si<tspan class="cls-6" x="25.44" y="0">t</tspan><tspan x="36.82" y="0">e institucional funcionando </tspan><tspan x="0" y="42">na API</tspan></text><text class="cls-5" transform="translate(1100.28 542.69) scale(1.07 1)"><tspan class="cls-14">D</tspan><tspan x="23.45" y="0">ocume</tspan><tspan class="cls-18" x="124.35" y="0">n</tspan><tspan x="143.64" y="0">tação final </tspan></text><text class="cls-5" transform="translate(1100.24 683.42) scale(1.07 1)"><tspan class="cls-19">C</tspan><tspan x="19.92" y="0">e</tspan><tspan class="cls-18" x="37.45" y="0">n</tspan><tspan x="56.73" y="0">t</tspan><tspan class="cls-20" x="68.32" y="0">r</tspan><tspan class="cls-21" x="79.59" y="0">al de Supo</tspan><tspan class="cls-22" x="232.5" y="0">r</tspan><tspan class="cls-6" x="244.79" y="0">t</tspan><tspan x="256.16" y="0">e</tspan></text><text x="-136.08" y="-55.07"/><text class="cls-5" transform="translate(1115.32 825.97)"><tspan class="cls-23">F</tspan><tspan x="16.45" y="0">lu</tspan><tspan class="cls-24" x="43.99" y="0">x</tspan><tspan x="59.67" y="0">o</tspan><tspan class="cls-25" x="78.89" y="0">g</tspan><tspan class="cls-26" x="98.24" y="0">r</tspan><tspan class="cls-27" x="109.51" y="0">ama</tspan></text><text class="cls-5" transform="translate(1115.32 961.97)"><tspan class="cls-28">M</tspan><tspan class="cls-27" x="28.35" y="0">apeame</tspan><tspan class="cls-29" x="146.26" y="0">n</tspan><tspan class="cls-25" x="165.55" y="0">t</tspan><tspan x="176.92" y="0">o das tabelas</tspan></text><text class="cls-5" transform="translate(1115.8 130.17)">M<tspan class="cls-30" x="28.14" y="0">É</tspan><tspan x="45.92" y="0">TRI</tspan><tspan class="cls-31" x="90.51" y="0">C</tspan><tspan x="110.95" y="0">AS</tspan></text><text class="cls-5" transform="translate(559.8 958.17)">M<tspan class="cls-30" x="28.14" y="0">É</tspan><tspan x="45.92" y="0">TRI</tspan><tspan class="cls-31" x="90.51" y="0">C</tspan><tspan x="110.95" y="0">AS</tspan></text></svg>